# Blender v2.91.2 OBJ File: 'hex_tile.blend'
# www.blender.org
mtllib hex_tile.mtl
o Cylinder_Cylinder.003
v 1.000000 -0.500000 -1.732051
v 2.000000 -0.500000 0.000000
v 1.000000 -0.500000 1.732051
v -1.000000 -0.500000 1.732051
v -2.000000 -0.500000 -0.000000
v -1.000000 -0.500000 -1.732051
v 0.914053 0.500000 -1.583187
v 1.000000 0.351136 -1.732051
v 1.828107 0.500000 0.000000
v 2.000000 0.351136 0.000000
v 0.914053 0.500000 1.583187
v 1.000000 0.351136 1.732051
v -0.914054 0.500000 1.583187
v -1.000000 0.351136 1.732051
v -1.828107 0.500000 -0.000000
v -2.000000 0.351136 -0.000000
v -0.914054 0.500000 -1.583187
v -1.000000 0.351136 -1.732051
v 0.000000 0.911396 -0.000000
vt 0.166667 0.925568
vt -0.000000 0.500000
vt 0.166667 0.500000
vt 0.666667 0.925568
vt 0.500000 0.500000
vt 0.666667 0.500000
vt 0.500000 0.925568
vt 0.333333 0.500000
vt 0.333333 0.925568
vt 1.000000 0.925568
vt 0.833333 0.500000
vt 1.000000 0.500000
vt 0.833333 0.925568
vt 0.840496 1.000000
vt 0.826171 1.000000
vt 0.673829 1.000000
vt 0.507162 1.000000
vt 0.340495 1.000000
vt 0.173829 1.000000
vt 0.007162 1.000000
vt -0.000000 0.925568
vt 0.250000 0.250000
vt 0.060018 0.359686
vt 0.060018 0.140314
vt 0.439982 0.140314
vt 0.439983 0.359686
vt 0.250000 0.030627
vt 0.250000 0.469373
vt 0.992838 1.000000
vt 0.659504 1.000000
vt 0.492838 1.000000
vt 0.326171 1.000000
vt 0.159504 1.000000
vn 0.0000 0.0000 -1.0000
vn 0.0000 0.0000 1.0000
vn -0.8660 0.0000 0.5000
vn -0.8660 0.0000 -0.5000
vn 0.8660 0.0000 -0.5000
vn 0.8660 0.0000 0.5000
vn 0.6124 0.7071 -0.3536
vn 0.6124 0.7071 0.3536
vn 0.0000 0.7071 0.7071
vn -0.6124 0.7071 0.3536
vn -0.6124 0.7071 -0.3536
vn -0.0000 0.7071 -0.7071
vn -0.2178 0.9679 -0.1258
vn 0.2178 0.9679 0.1258
vn -0.0000 0.9679 0.2515
vn -0.0000 0.9679 -0.2515
vn -0.2178 0.9679 0.1258
vn 0.2178 0.9679 -0.1258
usemtl None
s off
f 18/1/1 1/2/1 6/3/1
f 12/4/2 4/5/2 3/6/2
f 14/7/3 5/8/3 4/5/3
f 16/9/4 6/3/4 5/8/4
f 8/10/5 2/11/5 1/12/5
f 10/13/6 3/6/6 2/11/6
f 8/10/7 9/14/7 10/13/7
f 12/4/8 9/15/8 11/16/8
f 12/4/9 13/17/9 14/7/9
f 14/7/10 15/18/10 16/9/10
f 16/9/11 17/19/11 18/1/11
f 18/1/12 7/20/12 8/21/12
f 19/22/13 17/23/13 15/24/13
f 11/25/14 9/26/14 19/22/14
f 13/27/15 11/25/15 19/22/15
f 7/28/16 17/23/16 19/22/16
f 15/24/17 13/27/17 19/22/17
f 9/26/18 7/28/18 19/22/18
f 18/1/1 8/21/1 1/2/1
f 12/4/2 14/7/2 4/5/2
f 14/7/3 16/9/3 5/8/3
f 16/9/4 18/1/4 6/3/4
f 8/10/5 10/13/5 2/11/5
f 10/13/6 12/4/6 3/6/6
f 8/10/7 7/29/7 9/14/7
f 12/4/8 10/13/8 9/15/8
f 12/4/9 11/30/9 13/17/9
f 14/7/10 13/31/10 15/18/10
f 16/9/11 15/32/11 17/19/11
f 18/1/12 17/33/12 7/20/12
