# Blender v2.91.2 OBJ File: 'hex_tile.blend'
# www.blender.org
o flat01_Cylinder.001
v 1.000000 -0.500000 -1.732051
v 2.000000 -0.500000 0.000000
v 1.000000 -0.500000 1.732051
v -1.000000 -0.500000 1.732051
v -2.000000 -0.500000 -0.000000
v -1.000000 -0.500000 -1.732051
v 0.757894 0.365489 -1.417701
v 1.000000 0.351136 -1.732051
v 1.704781 0.352054 0.075941
v 2.000000 0.351136 0.000000
v 0.750515 0.364798 1.283282
v 1.000000 0.351136 1.732051
v -1.000000 0.351136 1.732051
v -1.643283 0.346030 0.142358
v -2.000000 0.351136 -0.000000
v -0.831599 0.373357 -1.122590
v -1.000000 0.351136 -1.732051
v 0.302478 0.449259 0.589304
v -0.728613 0.395128 0.869455
v 0.858854 0.407022 0.116312
v -0.541566 0.426124 -0.538008
v 0.608697 0.404594 -0.490003
v 2.000000 0.351136 0.000000
v 2.000000 0.351136 0.000000
v 1.000000 0.351136 -1.732051
v 1.000000 0.351136 -1.732051
v 1.000000 0.351136 1.732051
v 1.000000 0.351136 1.732051
v -1.000000 0.351136 1.732051
v -1.000000 0.351136 1.732051
v -2.000000 0.351136 -0.000000
v -2.000000 0.351136 -0.000000
v -1.000000 0.351136 -1.732051
v -1.000000 0.351136 -1.732051
v 1.000000 -0.500000 -1.732051
v 2.000000 -0.500000 0.000000
v -1.000000 -0.500000 -1.732051
v 1.000000 -0.500000 1.732051
v -1.000000 -0.500000 1.732051
v -2.000000 -0.500000 -0.000000
vt 0.166667 0.500000
vt 0.166667 0.925568
vt -0.000000 0.925568
vt -0.000000 0.500000
vt 0.666667 0.500000
vt 0.666667 0.925568
vt 0.500000 0.925568
vt 0.500000 0.500000
vt 0.500000 0.500000
vt 0.500000 0.925568
vt 0.333333 0.925568
vt 0.333333 0.500000
vt 0.333333 0.500000
vt 0.333333 0.925568
vt 0.166667 0.925568
vt 0.166667 0.500000
vt 1.000000 0.500000
vt 1.000000 0.925568
vt 0.833333 0.925568
vt 0.833333 0.500000
vt 0.833333 0.500000
vt 0.833333 0.925568
vt 0.666667 0.925568
vt 0.666667 0.500000
vt 0.842976 1.143811
vt 0.833333 0.925568
vt 0.962305 1.143811
vt 0.683923 1.108410
vt 0.666667 0.925568
vt 0.803252 1.108410
vt 0.500000 0.925568
vt 0.650612 1.110491
vt 0.196748 1.183374
vt 0.166667 0.925568
vt 0.316077 1.183374
vt -0.000000 0.925568
vt 0.016055 1.181292
vt 0.175594 0.292959
vt 0.101187 0.335917
vt 0.101187 0.164083
vt 0.175594 0.207041
vt 0.371028 1.147973
vt 0.324407 0.292959
vt 0.250000 0.335917
vt 0.250000 0.250000
vt 0.398813 0.335917
vt 0.250000 0.421834
vt 0.398813 0.164083
vt 0.333333 0.925568
vt 0.135384 1.181292
vt 1.000000 0.925568
vn -0.0000 0.0000 -1.0000
vn -0.0000 0.0000 1.0000
vn -0.8660 0.0000 0.5000
vn -0.8660 0.0000 -0.5000
vn 0.8660 0.0000 -0.5000
vn 0.8660 0.0000 0.5000
vn 0.0263 0.9996 0.0039
vn 0.0070 1.0000 0.0022
vn 0.0189 0.9992 -0.0366
vn 0.0258 0.9989 0.0382
vn 0.0134 0.9997 0.0214
vn -0.0248 0.9983 0.0519
vn -0.0419 0.9983 -0.0407
vn -0.0180 0.9994 -0.0280
vn -0.0184 0.9998 -0.0012
vn 0.0191 0.9993 -0.0309
vn -0.0385 0.9986 -0.0354
vn -0.0436 0.9982 0.0417
vn 0.0691 0.9976 0.0004
vn 0.0418 0.9986 -0.0337
vn 0.0211 0.9993 0.0319
vn 0.0139 0.9999 0.0012
s 1
f 6/1/1 17/2/1 8/3/1 1/4/1
f 3/5/2 12/6/2 29/7/2 39/8/2
f 4/9/3 30/10/3 32/11/3 40/12/3
f 5/13/4 15/14/4 34/15/4 37/16/4
f 35/17/5 25/18/5 24/19/5 36/20/5
f 2/21/6 10/22/6 28/23/6 38/24/6
f 9/25/7 23/26/8 7/27/9
f 11/28/10 27/29/11 9/30/7
f 13/31/12 27/29/11 11/32/10
f 16/33/13 33/34/14 14/35/15
f 26/36/16 33/34/14 7/37/9
f 21/38/17 16/39/13 14/40/15
f 19/41/18 14/42/15 13/31/12
f 20/43/19 22/44/20 18/45/21
f 9/46/7 7/47/9 22/44/20
f 7/47/9 16/39/13 21/38/17
f 18/45/21 19/41/18 13/31/12 11/48/10
f 21/38/17 19/41/18 18/45/21
f 31/49/22 13/31/12 14/42/15
f 20/43/19 9/46/7 22/44/20
f 22/44/20 7/47/9 21/38/17
f 19/41/18 21/38/17 14/40/15
f 33/34/14 31/49/22 14/35/15
f 33/34/14 16/50/13 7/37/9
f 23/26/8 26/51/16 7/27/9
f 22/44/20 21/38/17 18/45/21
f 20/43/19 18/45/21 11/48/10 9/46/7
f 27/29/11 23/26/8 9/30/7
