# Blender v2.91.2 OBJ File: 'hex_tile.blend'
# www.blender.org
o flat01_Cylinder.001
v 1.000000 -0.500000 -1.732051
v 2.000000 -0.500000 0.000000
v 1.000000 -0.500000 1.732051
v -1.000000 -0.500000 1.732051
v -2.000000 -0.500000 -0.000000
v -1.000000 -0.500000 -1.732051
v 0.796577 0.351136 -1.379711
v 1.674653 0.351136 0.000000
v 0.752453 0.351136 1.303287
v -0.919680 0.351136 1.565052
v 0.005749 0.386065 0.010632
v -1.628460 0.351136 0.048231
v -0.842969 0.351136 -1.463083
v 2.000000 0.351136 0.000000
v 1.000000 0.351136 -1.732051
v 1.000000 0.351136 1.732051
v -1.000000 0.351136 1.732051
v -2.000000 0.351136 -0.000000
v -1.000000 0.351136 -1.732051
v 0.787949 0.394498 0.000000
v 0.397018 0.371557 -0.723263
v 0.463989 0.364241 0.852883
v -0.355385 0.386269 0.616083
v -0.908921 0.397044 0.120166
v -0.619398 0.382860 -1.087561
v 2.000000 0.351136 0.000000
v 2.000000 0.351136 0.000000
v 1.000000 0.351136 -1.732051
v 1.000000 0.351136 -1.732051
v 1.000000 0.351136 1.732051
v 1.000000 0.351136 1.732051
v -1.000000 0.351136 1.732051
v -1.000000 0.351136 1.732051
v -2.000000 0.351136 -0.000000
v -2.000000 0.351136 -0.000000
v -1.000000 0.351136 -1.732051
v -1.000000 0.351136 -1.732051
v 1.000000 -0.500000 -1.732051
v 2.000000 -0.500000 0.000000
v -1.000000 -0.500000 -1.732051
v 1.000000 -0.500000 1.732051
v -1.000000 -0.500000 1.732051
v -2.000000 -0.500000 -0.000000
vt 1.000000 0.750000
vt 0.835255 0.750000
vt 0.835255 0.250000
vt 1.000000 0.250000
vt 0.835255 0.750000
vt 0.670509 0.750000
vt 0.670509 0.250000
vt 0.835255 0.250000
vt 0.835255 0.250000
vt 0.670509 0.250000
vt 0.670509 0.000000
vt 0.835255 0.000000
vt 1.000000 1.000000
vt 0.835255 1.000000
vt 0.835255 0.750000
vt 1.000000 0.750000
vt 1.000000 0.250000
vt 0.835255 0.250000
vt 0.835255 0.000000
vt 1.000000 0.000000
vt 0.835255 1.000000
vt 0.670509 1.000000
vt 0.670509 0.750000
vt 0.835255 0.750000
vt 0.335255 0.303007
vt 0.485508 0.387947
vt 0.335255 0.499990
vt 0.203173 0.598481
vt 0.240471 0.429311
vt 0.467336 0.598481
vt 0.335255 0.735268
vt 0.068199 0.300850
vt 0.054537 0.709317
vt 0.000000 0.749985
vt 0.000000 0.249995
vt 0.335255 0.876209
vt 0.335255 0.999979
vt 0.670509 0.749984
vt 0.549232 0.659550
vt 0.587518 0.311880
vt 0.670509 0.249995
vt 0.335255 0.173639
vt 0.335255 0.000000
vn -0.3616 -0.3616 -0.8594
vn 0.0000 0.0000 -1.0000
vn 0.3616 -0.3616 -0.8594
vn 0.3617 -0.3615 0.8594
vn -0.0000 -0.0000 1.0000
vn -0.3616 -0.3616 0.8594
vn -0.5635 -0.3616 0.7428
vn -0.8660 0.0000 0.5000
vn -0.9250 -0.3617 0.1167
vn -0.9251 -0.3615 -0.1164
vn -0.8660 0.0000 -0.5000
vn -0.5634 -0.3616 -0.7428
vn 0.5635 -0.3616 -0.7428
vn 0.8660 0.0000 -0.5000
vn 0.9250 -0.3617 -0.1166
vn 0.9251 -0.3615 0.1165
vn 0.8660 0.0000 0.5000
vn 0.5635 -0.3617 0.7428
vn -0.0214 0.9988 -0.0443
vn -0.0316 0.9995 0.0046
vn 0.0065 1.0000 0.0008
vn 0.0272 0.9996 -0.0009
vn 0.0174 0.9996 -0.0214
vn 0.0091 0.9996 0.0264
vn 0.0144 0.9995 0.0275
vn 0.0070 0.9999 -0.0090
vn 0.0119 0.9999 0.0001
vn 0.0000 1.0000 0.0000
vn 0.0048 1.0000 0.0077
vn -0.0040 0.9999 0.0102
vn -0.0232 0.9997 -0.0004
vn -0.0115 0.9997 -0.0200
s 1
f 6/1/1 37/2/2 29/3/2 1/4/3
f 3/5/4 31/6/5 32/7/5 42/8/6
f 4/9/7 33/10/8 34/11/8 43/12/9
f 5/13/10 35/14/11 36/15/11 40/16/12
f 38/17/13 28/18/14 26/19/14 39/20/15
f 2/21/16 27/22/17 30/23/17 41/24/18
f 25/25/19 24/26/20 11/27/21
f 20/28/22 21/29/23 11/27/21
f 23/30/24 22/31/25 11/27/21
f 22/31/25 20/28/22 11/27/21
f 24/26/20 23/30/24 11/27/21
f 11/27/21 21/29/23 25/25/19
f 7/32/26 8/33/27 14/34/28 15/35/28
f 8/33/27 9/36/29 16/37/28 14/34/28
f 17/38/28 10/39/30 12/40/31 18/41/28
f 12/40/31 13/42/32 19/43/28 18/41/28
f 13/42/32 7/32/26 15/35/28 19/43/28
f 21/29/23 20/28/22 8/33/27
f 22/31/25 9/36/29 8/33/27
f 22/31/25 23/30/24 10/39/30
f 12/40/31 10/39/30 24/26/20
f 13/42/32 12/40/31 25/25/19
f 13/42/32 25/25/19 7/32/26
f 20/28/22 22/31/25 8/33/27
f 7/32/26 21/29/23 8/33/27
f 9/36/29 22/31/25 10/39/30
f 10/39/30 23/30/24 24/26/20
f 16/37/28 9/36/29 10/39/30 17/38/28
f 25/25/19 21/29/23 7/32/26
f 12/40/31 24/26/20 25/25/19
