# Blender v2.91.2 OBJ File: 'hex_tile.blend'
# www.blender.org
o flat01_Cylinder.001
v 1.000000 -0.500000 -1.732051
v 2.000000 -0.500000 0.000000
v 1.000000 -0.500000 1.732051
v -1.000000 -0.500000 1.732051
v -2.000000 -0.500000 -0.000000
v -1.000000 -0.500000 -1.732051
v 0.796577 0.351136 -1.379711
v 1.674653 0.351136 0.000000
v 0.752453 0.351136 1.303287
v -0.919680 0.351136 1.565052
v 0.005749 0.386065 0.010632
v -1.628460 0.351136 0.048231
v -0.842969 0.351136 -1.463083
v 2.000000 0.351136 0.000000
v 1.000000 0.351136 -1.732051
v 1.000000 0.351136 1.732051
v -1.000000 0.351136 1.732051
v -2.000000 0.351136 -0.000000
v -1.000000 0.351136 -1.732051
v 0.787949 0.394498 0.000000
v 0.397018 0.371557 -0.723263
v 0.463989 0.364241 0.852883
v -0.355385 0.386269 0.616083
v -0.908921 0.397044 0.120166
v -0.619398 0.382860 -1.087561
v 1.000000 -0.500000 -1.732051
v 1.000000 -0.500000 -1.732051
v 2.000000 -0.500000 0.000000
v 2.000000 -0.500000 0.000000
v 1.000000 -0.500000 1.732051
v 1.000000 -0.500000 1.732051
v -1.000000 -0.500000 1.732051
v -1.000000 -0.500000 1.732051
v -2.000000 -0.500000 -0.000000
v -2.000000 -0.500000 -0.000000
v -1.000000 -0.500000 -1.732051
v -1.000000 -0.500000 -1.732051
v 2.000000 0.351136 0.000000
v 2.000000 0.351136 0.000000
v 1.000000 0.351136 -1.732051
v 1.000000 0.351136 -1.732051
v 1.000000 0.351136 1.732051
v 1.000000 0.351136 1.732051
v -1.000000 0.351136 1.732051
v -1.000000 0.351136 1.732051
v -2.000000 0.351136 -0.000000
v -2.000000 0.351136 -0.000000
v -1.000000 0.351136 -1.732051
v -1.000000 0.351136 -1.732051
vt 0.835255 0.750000
vt 1.000000 0.250000
vt 1.000000 0.750000
vt 0.670509 0.750000
vt 0.835255 0.250000
vt 0.835255 0.750000
vt 0.670509 0.250000
vt 0.835255 0.000000
vt 0.835255 0.250000
vt 0.835255 1.000000
vt 1.000000 0.750000
vt 1.000000 1.000000
vt 0.835255 0.250000
vt 1.000000 0.000000
vt 1.000000 0.250000
vt 0.670509 1.000000
vt 0.835255 0.750000
vt 0.835255 1.000000
vt 0.335255 0.303007
vt 0.485508 0.387947
vt 0.335255 0.499990
vt 0.203173 0.598481
vt 0.240471 0.429311
vt 0.467336 0.598481
vt 0.335255 0.735268
vt 1.000000 1.000000
vt 1.000000 0.750000
vt 0.835255 1.000000
vt 0.054537 0.709317
vt 0.000000 0.249995
vt 0.068199 0.300850
vt 0.335255 0.999979
vt 0.000000 0.749985
vt 0.549232 0.659550
vt 0.670509 0.249995
vt 0.670509 0.749984
vt 0.335255 0.173639
vt 0.587518 0.311880
vt 0.335255 0.000000
vt 0.335255 0.876209
vt 0.835255 0.250000
vt 0.670509 0.250000
vt 0.670509 0.000000
vt 0.835255 0.750000
vt 0.835255 0.000000
vt 0.670509 0.750000
vt 1.000000 0.250000
vt 0.835255 0.750000
vt 0.835255 0.250000
vn 0.0000 0.0000 -1.0000
vn -0.0000 -0.0000 1.0000
vn -0.8660 0.0000 0.5000
vn -0.8660 0.0000 -0.5000
vn 0.8660 0.0000 -0.5000
vn 0.8660 0.0000 0.5000
vn -0.0214 0.9988 -0.0443
vn -0.0316 0.9995 0.0046
vn 0.0065 1.0000 0.0008
vn 0.0272 0.9996 -0.0009
vn 0.0174 0.9996 -0.0214
vn 0.0091 0.9996 0.0264
vn 0.0144 0.9995 0.0275
vn 0.0000 -1.0000 -0.0000
vn 0.0119 0.9999 0.0001
vn -0.0000 1.0000 0.0000
vn 0.0070 0.9999 -0.0090
vn -0.0040 0.9999 0.0102
vn -0.0115 0.9997 -0.0200
vn -0.0232 0.9997 -0.0004
vn 0.0048 1.0000 0.0077
s 1
f 49/1/1 27/2/1 37/3/1
f 43/4/2 32/5/2 31/6/2
f 45/7/3 34/8/3 33/9/3
f 47/10/4 36/11/4 35/12/4
f 40/13/5 28/14/5 26/15/5
f 39/16/6 30/17/6 29/18/6
f 25/19/7 24/20/8 11/21/9
f 20/22/10 21/23/11 11/21/9
f 23/24/12 22/25/13 11/21/9
f 22/25/13 20/22/10 11/21/9
f 24/20/8 23/24/12 11/21/9
f 5/26/14 6/27/14 2/28/14
f 11/21/9 21/23/11 25/19/7
f 8/29/15 15/30/16 7/31/17
f 8/29/15 16/32/16 14/33/16
f 10/34/18 18/35/16 17/36/16
f 13/37/19 18/35/16 12/38/20
f 13/37/19 15/30/16 19/39/16
f 21/23/11 20/22/10 8/29/15
f 22/25/13 9/40/21 8/29/15
f 22/25/13 23/24/12 10/34/18
f 12/38/20 10/34/18 24/20/8
f 13/37/19 12/38/20 25/19/7
f 13/37/19 25/19/7 7/31/17
f 20/22/10 22/25/13 8/29/15
f 7/31/17 21/23/11 8/29/15
f 9/40/21 22/25/13 10/34/18
f 10/34/18 23/24/12 24/20/8
f 16/32/16 10/34/18 17/36/16
f 25/19/7 21/23/11 7/31/17
f 12/38/20 24/20/8 25/19/7
f 49/1/1 41/41/1 27/2/1
f 43/4/2 44/42/2 32/5/2
f 45/7/3 46/43/3 34/8/3
f 47/10/4 48/44/4 36/11/4
f 40/13/5 38/45/5 28/14/5
f 39/16/6 42/46/6 30/17/6
f 6/27/14 1/47/14 2/28/14
f 2/28/14 3/48/14 4/49/14
f 4/49/14 5/26/14 2/28/14
f 8/29/15 14/33/16 15/30/16
f 8/29/15 9/40/21 16/32/16
f 10/34/18 12/38/20 18/35/16
f 13/37/19 19/39/16 18/35/16
f 13/37/19 7/31/17 15/30/16
f 16/32/16 9/40/21 10/34/18
