# Blender v2.91.2 OBJ File: 'hex_tile.blend'
# www.blender.org
o flat01_Cylinder.001
v 1.000000 -0.500000 -1.732051
v 2.000000 -0.500000 0.000000
v 1.000000 -0.500000 1.732051
v -1.000000 -0.500000 1.732051
v -2.000000 -0.500000 -0.000000
v -1.000000 -0.500000 -1.732051
v 0.757894 0.385013 -1.417701
v 1.000000 0.351136 -1.732051
v 1.704781 0.360855 0.075941
v 2.000000 0.351136 0.000000
v 0.750515 0.383769 1.283282
v 1.000000 0.351136 1.732051
v -0.567783 0.383769 1.283282
v -1.000000 0.351136 1.732051
v -1.643283 0.350026 0.142358
v -2.000000 0.351136 -0.000000
v -0.831599 0.399159 -1.122590
v -1.000000 0.351136 -1.732051
v 0.302478 0.535629 0.589304
v -0.749798 0.458883 0.229727
v 0.858854 0.459687 0.116312
v 0.614482 0.459687 1.017577
v -0.541566 0.494033 -0.538008
v -0.101495 0.459687 1.017577
v 0.608697 0.455322 -0.490003
v 2.000000 0.351136 0.000000
v 2.000000 0.351136 0.000000
v 1.000000 0.351136 -1.732051
v 1.000000 0.351136 -1.732051
v 1.000000 0.351136 1.732051
v 1.000000 0.351136 1.732051
v -1.000000 0.351136 1.732051
v -1.000000 0.351136 1.732051
v -2.000000 0.351136 -0.000000
v -2.000000 0.351136 -0.000000
v -1.000000 0.351136 -1.732051
v -1.000000 0.351136 -1.732051
v 1.000000 -0.500000 -1.732051
v 2.000000 -0.500000 0.000000
v -1.000000 -0.500000 -1.732051
v 1.000000 -0.500000 1.732051
v -1.000000 -0.500000 1.732051
v -2.000000 -0.500000 -0.000000
v 0.302478 0.535629 0.589304
v 0.302478 0.535629 0.589304
v 0.302478 0.535629 0.589304
v -0.101495 0.459687 1.017577
vt 0.166667 0.500000
vt 0.166667 0.925568
vt -0.000000 0.925568
vt -0.000000 0.500000
vt 0.666667 0.500000
vt 0.666667 0.925568
vt 0.500000 0.925568
vt 0.500000 0.500000
vt 0.500000 0.500000
vt 0.500000 0.925568
vt 0.333333 0.925568
vt 0.333333 0.500000
vt 0.333333 0.500000
vt 0.333333 0.925568
vt 0.166667 0.925568
vt 0.166667 0.500000
vt 1.000000 0.500000
vt 1.000000 0.925568
vt 0.833333 0.925568
vt 0.833333 0.500000
vt 0.833333 0.500000
vt 0.833333 0.925568
vt 0.666667 0.925568
vt 0.666667 0.500000
vt 0.842976 1.143811
vt 0.833333 0.925568
vt 0.962305 1.143811
vt 0.683923 1.108410
vt 0.666667 0.925568
vt 0.803252 1.108410
vt 0.500000 0.925568
vt 0.650612 1.110491
vt 0.490357 1.147973
vt 0.371028 1.147973
vt 0.196748 1.183374
vt 0.166667 0.925568
vt 0.316077 1.183374
vt -0.000000 0.925568
vt 0.016055 1.181292
vt 0.175594 0.292959
vt 0.101187 0.335917
vt 0.101187 0.164083
vt 0.324407 0.207041
vt 0.324407 0.292959
vt 0.250000 0.250000
vt 0.250000 0.164083
vt 0.175594 0.207041
vt 0.250000 0.164083
vt 0.250000 0.250000
vt 0.250000 0.335917
vt 0.250000 0.250000
vt 0.398813 0.335917
vt 0.250000 0.421834
vt 0.250000 0.078166
vt 0.398813 0.164083
vt 0.333333 0.925568
vt 0.135384 1.181292
vt 1.000000 0.925568
vt 0.250000 0.250000
vt 0.531282 1.110491
vn -0.0000 0.0000 -1.0000
vn -0.0000 0.0000 1.0000
vn -0.8660 0.0000 0.5000
vn -0.8660 0.0000 -0.5000
vn 0.8660 0.0000 -0.5000
vn 0.8660 0.0000 0.5000
vn 0.0668 0.9977 0.0096
vn 0.0389 0.9992 0.0020
vn 0.0396 0.9962 -0.0780
vn 0.0503 0.9939 0.0981
vn 0.0318 0.9981 0.0532
vn -0.0292 0.9988 0.0393
vn -0.0474 0.9955 0.0819
vn -0.0460 0.9989 0.0057
vn -0.0807 0.9936 -0.0795
vn -0.0393 0.9973 -0.0627
vn 0.0449 0.9963 -0.0728
vn -0.0679 0.9956 -0.0652
vn 0.0855 0.9844 0.1535
vn 0.1275 0.9918 -0.0023
vn 0.0953 0.9898 0.1061
vn -0.0000 0.9680 0.2510
vn -0.1106 0.9925 0.0513
vn -0.1050 0.9908 0.0854
vn -0.0935 0.9937 0.0615
vn 0.0749 0.9954 -0.0604
vn 0.0960 0.9943 -0.0468
vn 0.0030 1.0000 0.0003
vn 0.0362 0.9973 -0.0639
s 1
f 6/1/1 18/2/1 8/3/1 1/4/1
f 3/5/2 12/6/2 33/7/2 42/8/2
f 4/9/3 14/10/3 35/11/3 43/12/3
f 5/13/4 16/14/4 37/15/4 40/16/4
f 38/17/5 28/18/5 27/19/5 39/20/5
f 2/21/6 10/22/6 31/23/6 41/24/6
f 9/25/7 26/26/8 7/27/9
f 11/28/10 30/29/11 9/30/7
f 32/31/12 30/29/11 11/32/10
f 32/31/12 13/33/13 15/34/14
f 17/35/15 36/36/16 15/37/14
f 29/38/17 36/36/16 7/39/9
f 23/40/18 17/41/15 15/42/14
f 22/43/19 21/44/20 44/45/21
f 47/46/22 22/43/19 44/45/21
f 20/47/23 24/48/24 45/49/25
f 21/44/20 25/50/26 46/51/27
f 9/52/7 7/53/9 25/50/26
f 13/54/13 24/48/24 20/47/23
f 7/53/9 17/41/15 23/40/18
f 13/54/13 11/55/10 22/43/19 47/46/22
f 11/55/10 9/52/7 21/44/20 22/43/19
f 23/40/18 20/47/23 45/49/25
f 34/56/28 32/31/12 15/34/14
f 21/44/20 9/52/7 25/50/26
f 25/50/26 7/53/9 23/40/18
f 20/47/23 23/40/18 15/42/14
f 36/36/16 34/56/28 15/37/14
f 36/36/16 17/57/15 7/39/9
f 26/26/8 29/58/17 7/27/9
f 25/50/26 23/40/18 19/59/29
f 15/42/14 13/54/13 20/47/23
f 13/60/13 32/31/12 11/32/10
f 30/29/11 26/26/8 9/30/7
