# Blender v2.91.2 OBJ File: 'hexes.blend'
# www.blender.org
o flat01_Cylinder.001
v 0.796577 0.000331 -1.379711
v 1.674653 0.000331 0.000000
v 0.752453 0.000331 1.303287
v -0.919680 0.000331 1.565052
v 0.005749 0.033809 0.010632
v -1.628460 0.000331 0.048231
v -0.842969 0.000331 -1.463083
v 2.000000 0.000000 0.000000
v 1.000000 0.000000 -1.732051
v 1.000000 -0.000000 1.732051
v -1.000000 0.000000 1.732051
v -2.000000 0.000000 -0.000000
v -1.000000 0.000000 -1.732051
v 0.787949 0.028790 0.000000
v 0.397018 -0.003153 -0.723263
v 0.463989 0.028780 0.852883
v -0.355385 0.023389 0.616083
v -0.908921 0.030461 0.120166
v -0.619398 0.021152 -1.087561
vt 0.235522 0.348775
vt 0.530415 0.278132
vt 0.503663 0.501439
vt 0.501089 0.692389
vt 0.324319 0.597056
vt 0.651512 0.413264
vt 0.709278 0.613322
vt 0.500992 0.909009
vt 0.077937 0.744254
vt 0.163998 0.694576
vt 0.924113 0.744348
vt 0.500983 0.988477
vt 0.883320 0.275455
vt 0.501111 0.011523
vt 0.924113 0.255841
vt 0.143715 0.294103
vt 0.512880 0.102273
vt 0.078023 0.255738
vt 0.819399 0.683870
vn -0.0121 0.9995 -0.0296
vn -0.0244 0.9997 0.0040
vn 0.0050 0.9999 -0.0101
vn 0.0226 0.9995 -0.0242
vn 0.0158 0.9998 -0.0148
vn -0.0075 0.9998 0.0168
vn 0.0157 0.9995 0.0287
vn 0.0087 1.0000 -0.0018
vn 0.0004 1.0000 -0.0007
vn 0.0020 1.0000 -0.0002
vn 0.0004 1.0000 0.0006
vn 0.0010 1.0000 0.0000
vn -0.0048 1.0000 0.0087
vn -0.0009 1.0000 -0.0000
vn -0.0009 1.0000 0.0016
vn -0.0079 0.9999 -0.0137
vn -0.0158 0.9999 -0.0002
vn -0.0005 1.0000 -0.0009
vn 0.0107 0.9998 0.0172
s 1
f 19/1/1 18/2/2 5/3/3
f 14/4/4 15/5/5 5/3/3
f 17/6/6 16/7/7 5/3/3
f 16/7/7 14/4/4 5/3/3
f 18/2/2 17/6/6 5/3/3
f 5/3/3 15/5/5 19/1/1
f 2/8/8 9/9/9 1/10/10
f 2/8/8 10/11/11 8/12/12
f 4/13/13 12/14/14 11/15/15
f 7/16/16 12/14/14 6/17/17
f 7/16/16 9/9/9 13/18/18
f 15/5/5 14/4/4 2/8/8
f 16/7/7 3/19/19 2/8/8
f 16/7/7 17/6/6 4/13/13
f 6/17/17 4/13/13 18/2/2
f 7/16/16 6/17/17 19/1/1
f 7/16/16 19/1/1 1/10/10
f 14/4/4 16/7/7 2/8/8
f 1/10/10 15/5/5 2/8/8
f 3/19/19 16/7/7 4/13/13
f 4/13/13 17/6/6 18/2/2
f 10/11/11 4/13/13 11/15/15
f 19/1/1 15/5/5 1/10/10
f 6/17/17 18/2/2 19/1/1
f 2/8/8 8/12/12 9/9/9
f 2/8/8 3/19/19 10/11/11
f 4/13/13 6/17/17 12/14/14
f 7/16/16 13/18/18 12/14/14
f 7/16/16 1/10/10 9/9/9
f 10/11/11 3/19/19 4/13/13
