# Blender v2.91.2 OBJ File: 'hexes.blend'
# www.blender.org
o flat01_Cylinder.001
v 0.796577 0.001030 -1.379711
v 1.674653 0.001030 0.000000
v 0.752453 0.001030 1.303287
v -0.919680 0.001030 1.565052
v 0.005749 0.105267 0.010632
v -1.628460 0.001030 0.048231
v -0.842969 0.001030 -1.463083
v 2.000000 0.000000 0.000000
v 1.000000 0.000000 -1.732051
v 1.000000 -0.000000 1.732051
v -1.000000 0.000000 1.732051
v -2.000000 0.000000 -0.000000
v -1.000000 0.000000 -1.732051
v 0.787949 0.089642 0.000000
v 0.397018 -0.009817 -0.723263
v 0.463989 0.089611 0.852883
v -0.355385 0.072825 0.616083
v -0.908921 0.094845 0.120166
v -0.619398 0.065859 -1.087561
vt 0.500510 0.803668
vt 0.293495 0.584910
vt 0.498666 0.497196
vt 0.663590 0.404552
vt 0.671468 0.604651
vt 0.349361 0.413651
vt 0.492906 0.265094
vt 0.852042 0.296801
vt 0.920615 0.744609
vt 0.834841 0.694984
vt 0.499193 0.012981
vt 0.920615 0.257319
vt 0.114489 0.281745
vt 0.076846 0.743556
vt 0.077282 0.256322
vt 0.498986 0.911269
vt 0.149329 0.688267
vt 0.498493 0.987019
vt 0.499051 0.133567
vn -0.0372 0.9951 -0.0913
vn -0.0756 0.9971 0.0124
vn 0.0154 0.9994 -0.0312
vn 0.0699 0.9948 -0.0739
vn 0.0490 0.9978 -0.0455
vn -0.0232 0.9984 0.0523
vn 0.0482 0.9949 0.0885
vn 0.0269 0.9996 -0.0057
vn 0.0013 1.0000 -0.0023
vn 0.0062 1.0000 -0.0005
vn 0.0012 1.0000 0.0020
vn 0.0032 1.0000 0.0000
vn -0.0150 0.9995 0.0270
vn -0.0029 1.0000 -0.0001
vn -0.0027 1.0000 0.0049
vn -0.0246 0.9988 -0.0425
vn -0.0489 0.9988 -0.0007
vn -0.0017 1.0000 -0.0029
vn 0.0331 0.9980 0.0530
s 1
f 19/1/1 18/2/2 5/3/3
f 14/4/4 15/5/5 5/3/3
f 17/6/6 16/7/7 5/3/3
f 16/7/7 14/4/4 5/3/3
f 18/2/2 17/6/6 5/3/3
f 5/3/3 15/5/5 19/1/1
f 2/8/8 9/9/9 1/10/10
f 2/8/8 10/11/11 8/12/12
f 4/13/13 12/14/14 11/15/15
f 7/16/16 12/14/14 6/17/17
f 7/16/16 9/9/9 13/18/18
f 15/5/5 14/4/4 2/8/8
f 16/7/7 3/19/19 2/8/8
f 16/7/7 17/6/6 4/13/13
f 6/17/17 4/13/13 18/2/2
f 7/16/16 6/17/17 19/1/1
f 7/16/16 19/1/1 1/10/10
f 14/4/4 16/7/7 2/8/8
f 1/10/10 15/5/5 2/8/8
f 3/19/19 16/7/7 4/13/13
f 4/13/13 17/6/6 18/2/2
f 10/11/11 4/13/13 11/15/15
f 19/1/1 15/5/5 1/10/10
f 6/17/17 18/2/2 19/1/1
f 2/8/8 8/12/12 9/9/9
f 2/8/8 3/19/19 10/11/11
f 4/13/13 6/17/17 12/14/14
f 7/16/16 13/18/18 12/14/14
f 7/16/16 1/10/10 9/9/9
f 10/11/11 3/19/19 4/13/13
