# Blender v2.91.2 OBJ File: 'hexes.blend'
# www.blender.org
o lod1.002_Cylinder.008
v 0.915548 0.004827 -1.590029
v -1.000000 0.000000 1.732051
v -1.810684 -0.010528 -0.008589
v 1.780124 0.002984 0.000000
v 1.000000 0.000000 1.732051
v -0.890062 0.002984 1.541633
v 1.000000 0.000000 -1.732051
v 2.000000 0.000000 0.000000
v -2.000000 0.000000 -0.000000
v -1.000000 0.000000 -1.732051
v 0.890062 0.002984 1.541633
v 0.007602 0.250760 -0.000113
v -0.708961 0.490253 -0.688012
v 0.664799 0.494764 0.535839
v -0.680421 0.371574 0.304429
v 0.815418 0.362603 -0.671707
v 0.068894 0.300643 -1.093489
v 0.053725 0.423929 1.053578
v -0.890062 0.002984 -1.541633
vt 0.116487 0.708708
vt 0.505427 0.503566
vt 0.423687 0.667367
vt 0.764530 0.496904
vt 0.667730 0.665593
vt 0.661356 0.310169
vt 0.510799 0.063040
vt 0.258067 0.475474
vt 0.116239 0.269486
vt 0.369980 0.346687
vt 0.507386 0.945344
vt 0.898320 0.289519
vt 0.885942 0.729696
vt 0.932221 0.757161
vt 0.504377 0.990882
vt 0.068934 0.736171
vt 0.512945 0.009118
vt 0.932221 0.270050
vt 0.069963 0.240955
vn -0.0731 0.9920 0.1028
vn -0.0052 0.9996 -0.0277
vn -0.0422 0.9969 -0.0671
vn 0.1659 0.9573 -0.2368
vn -0.1697 0.9836 -0.0605
vn 0.0438 0.9878 -0.1493
vn 0.1304 0.9915 -0.0015
vn -0.1483 0.9565 0.2512
vn 0.1002 0.9814 0.1640
vn 0.1786 0.9824 -0.0556
vn -0.0817 0.9966 0.0068
vn 0.0633 0.9910 -0.1178
vn -0.0936 0.9813 -0.1682
vn -0.0079 0.9999 -0.0085
vn 0.0521 0.9986 -0.0031
vn -0.0068 0.9999 0.0118
vn 0.0141 0.9999 0.0004
vn 0.0147 0.9996 -0.0252
vn 0.0068 0.9999 0.0118
s 1
f 6/1/1 12/2/2 15/3/3
f 12/2/2 17/4/4 13/5/5
f 16/6/6 12/2/2 4/7/7
f 6/1/1 18/8/8 12/2/2
f 11/9/9 4/7/7 14/10/10
f 14/10/10 4/7/7 12/2/2
f 14/10/10 18/8/8 11/9/9
f 15/3/3 12/2/2 3/11/11
f 12/2/2 16/6/6 1/12/12
f 17/4/4 12/2/2 1/12/12
f 3/11/11 13/5/5 19/13/13
f 12/2/2 18/8/8 14/10/10
f 3/11/11 6/1/1 15/3/3
f 13/5/5 17/4/4 19/13/13
f 1/12/12 16/6/6 4/7/7
f 13/5/5 3/11/11 12/2/2
f 17/4/4 1/12/12 19/13/13
f 1/12/12 10/14/14 19/13/13
f 6/1/1 9/15/15 2/16/16
f 1/12/12 8/17/17 7/18/18
f 3/11/11 10/14/14 9/15/15
f 6/1/1 5/19/19 11/9/9
f 11/9/9 8/17/17 4/7/7
f 11/9/9 18/8/8 6/1/1
f 1/12/12 7/18/18 10/14/14
f 6/1/1 3/11/11 9/15/15
f 1/12/12 4/7/7 8/17/17
f 3/11/11 19/13/13 10/14/14
f 6/1/1 2/16/16 5/19/19
f 11/9/9 5/19/19 8/17/17
