# Blender v2.91.2 OBJ File: 'hexes.blend'
# www.blender.org
o lod2.002_Cylinder.023
v 0.626637 0.030976 -1.257438
v -1.000000 0.000000 1.732051
v -0.609167 0.054192 -1.039258
v -1.421178 0.008934 -0.023884
v 1.537552 0.013123 0.099060
v 1.000000 0.000000 1.732051
v -0.477289 0.028557 1.323353
v 1.000000 0.000000 -1.732051
v 2.000000 0.000000 0.000000
v -2.000000 0.000000 -0.000000
v -1.000000 0.000000 -1.732051
v 0.765526 0.027249 1.338386
v -0.012199 0.015681 0.031729
v -0.265390 0.100684 -0.567843
v 0.676912 0.022540 0.544444
v -0.667280 0.193550 0.761513
v -1.223258 0.023386 0.737581
v -0.710106 0.030605 0.250625
v 0.240596 0.045756 -0.417592
v 0.623920 0.019499 -0.143280
v 0.607159 0.031267 -0.541578
v 0.078144 0.200106 -0.940469
v -0.164101 0.025048 -1.292560
v -1.095864 0.009301 -0.784175
v -0.751888 0.069227 -0.378410
v -0.078498 0.068976 0.873997
v 1.291093 0.019126 0.774224
v 1.140398 0.040966 -0.072579
v 1.128203 0.005923 -0.596669
v -0.828706 0.003656 -1.411938
v -0.354147 0.081465 0.442958
v 0.375109 0.052289 1.196811
v 0.735942 0.128417 1.020142
v 0.203028 0.008072 1.363550
v 1.500000 0.000000 0.866026
v -1.500000 0.000000 0.866025
v 1.500000 0.000000 -0.866025
v -0.000000 0.000000 -1.732051
v -1.500000 0.000000 -0.866025
v 0.432376 0.006751 1.399576
v 1.489341 0.007027 0.390780
v -0.920204 0.037109 1.104934
v 0.865184 0.004008 -1.022051
v -0.420162 0.047084 -1.185347
v -1.332337 0.011560 -0.356479
v -0.000000 0.000000 1.732051
v -0.206903 0.034682 0.283357
v 0.362151 0.010963 -0.054752
v 0.309677 0.011545 0.329744
v -0.451714 0.097310 -0.805953
v -0.163981 0.054690 -0.300349
v -0.494703 0.084620 -0.489650
v 0.352472 0.124195 -1.126626
v 0.661848 0.094687 0.857074
v 1.190171 0.013872 0.346009
v 0.279384 0.045234 0.757295
v -0.652089 0.132549 1.031468
v -1.415713 0.002572 0.324290
v -0.714929 0.129990 0.522676
v -1.016170 0.034629 0.480750
v -0.371636 0.017789 0.104256
v 0.149757 0.020007 -0.232845
v -0.946132 0.000486 -1.636683
v 0.617614 0.037526 -0.923307
v 0.406287 0.042892 -0.478167
v 0.649936 0.019956 -0.324150
v -0.124739 0.167117 -0.767028
v 0.313115 0.036249 -1.320281
v 0.164752 0.137546 -0.656544
v -0.032666 0.126271 -1.132997
v 1.361440 0.030523 0.014737
v -0.854430 0.024160 -0.950023
v -1.113355 0.038886 -0.212308
v -0.960635 0.042619 -0.574826
v -0.279058 0.061577 1.140842
v 0.558841 0.041689 1.282869
v -0.409049 0.155387 0.862292
v 1.047812 0.028903 1.136598
v 1.034323 0.029579 0.662186
v 0.913270 0.030894 -0.295957
v 0.899971 0.034740 -0.084928
v 1.438382 0.012121 -0.215414
v 1.172712 0.027485 -0.295325
v 0.855551 0.011084 -0.584513
v 0.644124 0.017427 0.166726
v 0.433246 0.015589 -0.288774
v -0.004506 0.079776 -0.481202
v -0.929843 0.125515 0.777585
v -0.400166 0.049768 -0.182753
v -1.105449 0.010953 0.128170
v -0.745539 0.014423 -1.261588
v -0.785356 0.003110 1.552576
v -1.788294 0.001056 -0.011160
v 0.848174 0.003660 -1.569270
v 0.906884 0.003220 1.566421
v 1.845837 0.006097 0.031487
v -0.467375 0.001895 -1.508970
v -1.113321 0.000744 -1.161621
v 1.232663 0.002023 1.136893
v 1.624580 0.002588 0.477140
v 1.505260 0.001784 -0.402316
v 1.100629 0.000465 -1.075536
v 0.355753 0.125284 -0.775444
v -0.733826 0.038707 -0.055836
v 0.300553 0.002585 -1.495233
v -1.485986 0.000919 -0.481450
v 0.131068 0.002235 1.551895
v -1.580208 0.001689 0.476228
v -1.176819 0.002495 1.139983
v -0.708344 0.063246 -0.730662
v 0.001287 0.033311 0.486852
v -0.277393 0.145220 -1.013557
v 0.995485 0.030583 0.218622
v -0.596688 0.005640 -1.388198
v -0.947896 0.003975 -1.210953
v -0.500036 0.156234 0.587343
v -0.240141 0.084807 0.618113
v -0.476722 0.059828 0.337640
v 0.168599 0.054041 1.084630
v 0.786327 0.097016 1.169641
v -0.010682 0.009981 1.368219
v 0.238643 0.019580 1.291676
v 0.977348 0.093461 0.921206
v 0.535780 0.104580 1.103404
v 0.499040 0.017186 -0.365515
v 0.931363 0.001110 -1.243214
v -1.355952 0.000255 -0.834051
v 1.069993 0.004947 1.291512
v 0.014570 0.138797 -0.641538
v -0.688857 0.001199 -1.507217
v 0.960754 0.080519 1.070832
v -0.892307 0.104543 0.595640
v -0.456354 0.126290 1.028912
v -1.003047 0.030856 -0.050010
v -0.835640 0.043800 -0.756249
v -0.250569 0.113292 -1.106235
v 1.201166 0.026297 0.210853
v 0.404138 0.082670 0.958432
v -0.482094 0.033341 -0.044690
v -0.336523 0.026436 0.224188
v 0.447337 0.103915 -0.962747
v 0.208205 0.103446 -1.203076
v 1.353125 0.025584 -0.179045
v -1.143387 0.033147 -0.386612
v 0.427007 0.015788 1.334100
v 0.186913 0.024719 0.533280
v 1.238375 0.009553 0.475578
v 0.839271 0.030342 -0.242596
v 0.978707 0.023690 -0.379551
v 0.776696 0.008119 -0.843011
v 0.433917 0.010096 0.145059
v 0.321220 0.012050 -0.197931
v -0.006067 0.043669 -0.324310
v -0.859508 0.106940 0.974477
v -0.354308 0.067120 -0.317582
v -1.187770 0.005334 0.324232
v -0.206936 0.000779 1.614849
v -0.965795 0.006169 1.284675
v -0.059884 0.000687 -1.562142
v -0.865035 0.011522 -1.152348
v 1.687778 0.004542 0.279824
v 1.460187 0.000691 0.825954
v 1.599250 0.005154 -0.185541
v 1.359743 0.000329 -0.776522
v 0.304840 0.107652 -0.629245
v 0.500748 0.006167 -1.459663
v -1.548354 0.001968 -0.270990
v 0.349525 0.002165 1.480796
v -1.624563 0.000782 0.255990
v -1.429555 0.000641 0.832179
v -0.571684 0.080652 -0.684218
v -0.139148 0.045517 0.456216
v -0.291362 0.146674 -0.880391
v 0.857137 0.029549 0.118838
v -0.589501 0.015067 -1.291617
v -0.993960 0.000767 -1.352357
v -0.382895 0.145177 0.700029
v -0.571293 0.124649 0.473868
v -0.013535 0.028192 1.232338
v 0.892913 0.080093 0.811704
v 0.634013 0.089736 1.203891
vt 0.801094 0.761578
vt 0.926229 0.749111
vt 0.767046 0.795237
vt 0.671003 0.496252
vt 0.622939 0.507844
vt 0.646916 0.460535
vt 0.661310 0.402350
vt 0.684498 0.440084
vt 0.635888 0.594597
vt 0.596258 0.559114
vt 0.639894 0.551824
vt 0.691627 0.545388
vt 0.646357 0.516822
vt 0.453686 0.860762
vt 0.441652 0.788554
vt 0.466659 0.838145
vt 0.852637 0.654536
vt 0.867791 0.598723
vt 0.792102 0.695564
vt 0.874680 0.733819
vt 0.811608 0.615724
vt 0.574589 0.744882
vt 0.568276 0.670902
vt 0.630662 0.686854
vt 0.364086 0.779111
vt 0.317946 0.831352
vt 0.244797 0.768686
vt 0.461348 0.899695
vt 0.511762 0.900808
vt 0.511201 0.963934
vt 0.926229 0.506344
vt 0.701130 0.161082
vt 0.662004 0.205494
vt 0.613100 0.123722
vt 0.562979 0.106793
vt 0.509337 0.008989
vt 0.574797 0.146726
vt 0.503712 0.124537
vt 0.508209 0.055452
vt 0.373387 0.458637
vt 0.337572 0.523863
vt 0.336639 0.464949
vt 0.715192 0.306660
vt 0.640366 0.259921
vt 0.704282 0.272297
vt 0.608871 0.616784
vt 0.556662 0.599146
vt 0.578288 0.630119
vt 0.518139 0.643810
vt 0.596616 0.242558
vt 0.597277 0.323589
vt 0.554700 0.254596
vt 0.510813 0.991011
vt 0.560724 0.914854
vt 0.609422 0.890848
vt 0.360397 0.235765
vt 0.404779 0.324845
vt 0.325570 0.285864
vt 0.569232 0.879606
vt 0.512565 0.855875
vt 0.557775 0.853681
vt 0.654407 0.813949
vt 0.745346 0.621947
vt 0.769961 0.587716
vt 0.592801 0.207228
vt 0.133817 0.386526
vt 0.080940 0.487456
vt 0.083829 0.237804
vt 0.400780 0.136728
vt 0.544164 0.206647
vt 0.570308 0.171490
vt 0.333665 0.407709
vt 0.288786 0.469890
vt 0.266441 0.434226
vt 0.258618 0.510452
vt 0.385130 0.179756
vt 0.403628 0.193052
vt 0.259674 0.597660
vt 0.228948 0.565834
vt 0.188012 0.478651
vt 0.512341 0.787045
vt 0.581483 0.811262
vt 0.746754 0.756126
vt 0.715556 0.698222
vt 0.410542 0.870861
vt 0.871070 0.408086
vt 0.828282 0.385160
vt 0.863784 0.352045
vt 0.320858 0.328814
vt 0.254701 0.265206
vt 0.361663 0.360065
vt 0.284760 0.348016
vt 0.266881 0.171630
vt 0.296583 0.123397
vt 0.739053 0.488671
vt 0.811799 0.498925
vt 0.749869 0.530138
vt 0.290386 0.664849
vt 0.296476 0.620089
vt 0.794389 0.403871
vt 0.724929 0.424976
vt 0.771528 0.368673
vt 0.354413 0.587700
vt 0.386973 0.653059
vt 0.774475 0.219589
vt 0.758547 0.257734
vt 0.340252 0.202940
vt 0.346706 0.146328
vt 0.418974 0.742127
vt 0.366036 0.716711
vt 0.249040 0.383364
vt 0.428161 0.145576
vt 0.445401 0.724669
vt 0.495580 0.370562
vt 0.491444 0.315404
vt 0.600586 0.770573
vt 0.648705 0.753753
vt 0.766916 0.453703
vt 0.710986 0.482245
vt 0.717783 0.136283
vt 0.419153 0.514495
vt 0.392496 0.477483
vt 0.423793 0.485570
vt 0.723561 0.345713
vt 0.811069 0.309849
vt 0.926229 0.263576
vt 0.678152 0.372925
vt 0.490950 0.256629
vt 0.422023 0.251351
vt 0.691302 0.473676
vt 0.447791 0.201078
vt 0.294432 0.864059
vt 0.496098 0.206595
vt 0.558799 0.528984
vt 0.587174 0.466418
vt 0.590374 0.500887
vt 0.406884 0.556096
vt 0.439762 0.574324
vt 0.467064 0.597907
vt 0.459274 0.649603
vt 0.414441 0.441118
vt 0.202908 0.362692
vt 0.447350 0.458540
vt 0.500451 0.170733
vt 0.711884 0.648733
vt 0.666832 0.618728
vt 0.140966 0.634087
vt 0.078051 0.737108
vt 0.127156 0.580383
vt 0.261163 0.720639
vt 0.442390 0.416294
vt 0.413990 0.393539
vt 0.704829 0.739489
vt 0.205638 0.732346
vt 0.207428 0.667471
vt 0.303819 0.701775
vt 0.718521 0.870061
vt 0.697619 0.850750
vt 0.472512 0.159413
vt 0.436806 0.161516
vt 0.531723 0.163701
vt 0.461162 0.396818
vt 0.543007 0.399049
vt 0.886125 0.504215
vt 0.159513 0.329628
vt 0.501266 0.489832
vt 0.586089 0.421336
vt 0.624224 0.401374
vt 0.505891 0.575771
vt 0.539014 0.565701
vt 0.469869 0.700769
vt 0.181410 0.593195
vt 0.814419 0.252495
vt 0.125178 0.713333
vt 0.113216 0.484774
vt 0.152222 0.250953
vt 0.512110 0.715684
vt 0.552175 0.714161
vt 0.389634 0.391060
vt 0.384090 0.426325
vt 0.889305 0.276643
vn 0.0035 0.9950 -0.0998
vn 0.0076 0.9999 -0.0086
vn -0.0034 0.9957 -0.0925
vn -0.0385 0.9989 0.0258
vn 0.0274 0.9976 0.0642
vn -0.0399 0.9992 0.0050
vn -0.0379 0.9992 0.0116
vn -0.0380 0.9993 0.0014
vn 0.1611 0.9560 0.2450
vn 0.0725 0.9713 0.2265
vn 0.1167 0.9676 0.2237
vn 0.1101 0.9920 0.0620
vn 0.0406 0.9963 0.0760
vn -0.0437 0.9986 -0.0299
vn -0.1201 0.9907 -0.0648
vn -0.0815 0.9948 -0.0617
vn 0.0461 0.9989 -0.0022
vn 0.0076 1.0000 -0.0060
vn 0.1153 0.9887 -0.0956
vn 0.0197 0.9996 -0.0222
vn 0.0658 0.9978 -0.0002
vn -0.1818 0.9655 -0.1863
vn -0.1082 0.9825 0.1519
vn 0.0371 0.9970 -0.0677
vn -0.0776 0.9958 -0.0480
vn -0.0152 0.9999 -0.0081
vn -0.0245 0.9996 -0.0131
vn -0.0139 0.9999 -0.0075
vn -0.0164 0.9995 -0.0274
vn -0.0037 1.0000 -0.0049
vn 0.0019 1.0000 -0.0024
vn 0.0484 0.9984 0.0295
vn 0.1030 0.9947 0.0038
vn 0.0742 0.9962 0.0457
vn 0.0709 0.9950 0.0701
vn 0.0068 0.9999 0.0156
vn 0.2160 0.9597 0.1795
vn 0.0495 0.9710 0.2338
vn 0.0117 0.9992 0.0371
vn 0.0195 0.9445 -0.3278
vn -0.0523 0.9883 -0.1434
vn -0.1537 0.9470 -0.2819
vn 0.0381 0.9985 0.0405
vn 0.0675 0.9886 -0.1344
vn 0.0438 0.9990 -0.0096
vn 0.0970 0.9625 0.2535
vn 0.0356 0.9614 0.2727
vn 0.0040 0.9586 0.2846
vn -0.0658 0.9850 0.1598
vn 0.0690 0.9736 -0.2178
vn -0.0080 0.9946 -0.1035
vn -0.0492 0.9821 -0.1818
vn -0.0026 1.0000 -0.0037
vn -0.0021 0.9999 -0.0171
vn -0.0102 0.9993 -0.0366
vn 0.0334 0.9909 0.1302
vn 0.1311 0.9911 0.0227
vn 0.1186 0.9714 0.2055
vn -0.0232 0.9969 -0.0751
vn -0.0525 0.9948 -0.0874
vn -0.0746 0.9904 -0.1159
vn -0.0476 0.9572 -0.2855
vn 0.2521 0.9675 0.0176
vn 0.0965 0.9953 0.0083
vn 0.1984 0.9799 -0.0224
vn -0.0608 0.9972 0.0433
vn -0.0087 1.0000 0.0044
vn -0.0069 0.9999 0.0138
vn 0.0001 0.9996 0.0294
vn 0.0103 0.9999 -0.0009
vn 0.2996 0.9344 0.1927
vn -0.0736 0.9973 -0.0005
vn -0.2687 0.9372 -0.2225
vn -0.3064 0.9511 0.0394
vn -0.1838 0.9710 -0.1528
vn 0.0010 0.9952 0.0983
vn -0.0310 0.9831 0.1802
vn -0.0511 0.9983 0.0292
vn -0.0672 0.9975 -0.0204
vn -0.1549 0.9878 0.0134
vn -0.1529 0.9812 -0.1178
vn -0.1105 0.9552 -0.2746
vn 0.0263 0.9494 -0.3128
vn 0.1757 0.9574 -0.2293
vn -0.0152 0.9998 -0.0111
vn 0.0213 0.9996 -0.0210
vn 0.0744 0.9960 -0.0498
vn 0.0333 0.9991 -0.0263
vn 0.1036 0.9625 0.2509
vn -0.0053 0.9822 0.1876
vn 0.1720 0.9796 0.1034
vn -0.0927 0.9462 0.3099
vn 0.0029 0.9990 0.0448
vn -0.0012 0.9999 0.0106
vn 0.0149 0.9972 -0.0731
vn 0.0222 0.9991 -0.0365
vn 0.0432 0.9978 -0.0496
vn -0.0766 0.9966 0.0304
vn -0.0474 0.9961 0.0746
vn 0.0959 0.9929 -0.0705
vn 0.0160 0.9998 -0.0069
vn 0.0748 0.9971 0.0125
vn -0.0078 0.9979 0.0638
vn -0.0532 0.9979 0.0373
vn 0.0323 0.9994 0.0124
vn 0.0232 0.9997 0.0081
vn 0.0314 0.9963 0.0800
vn 0.0077 0.9997 0.0242
vn -0.1291 0.9880 -0.0854
vn -0.1121 0.9920 -0.0574
vn -0.3063 0.9125 0.2710
vn -0.0300 0.9935 0.1098
vn -0.1298 0.9900 -0.0544
vn 0.0357 0.9970 -0.0688
vn -0.0239 0.9945 -0.1019
vn -0.1309 0.9055 -0.4037
vn -0.0667 0.9111 -0.4069
vn 0.0448 0.9964 -0.0725
vn -0.0017 0.9991 -0.0418
vn 0.0123 0.9999 0.0075
vn 0.0250 0.9997 -0.0074
vn 0.0452 0.9579 -0.2835
vn 0.0462 0.9897 -0.1358
vn 0.0428 0.9962 0.0756
vn 0.0445 0.9989 0.0131
vn 0.0300 0.9995 -0.0041
vn 0.0093 0.9990 0.0433
vn -0.1262 0.9912 -0.0388
vn -0.0390 0.9951 0.0904
vn -0.0386 0.9990 -0.0219
vn -0.1015 0.9709 0.2170
vn -0.0022 1.0000 -0.0016
vn -0.1426 0.9818 0.1255
vn 0.0499 0.9942 0.0952
vn -0.0024 0.9999 0.0099
vn 0.0257 0.9984 0.0509
vn 0.0177 0.9956 0.0925
vn 0.0129 0.9933 0.1144
vn 0.0132 0.9909 0.1341
vn -0.0414 0.9973 0.0606
vn 0.1550 0.9614 -0.2273
vn -0.1816 0.9578 0.2226
vn 0.0552 0.9922 -0.1121
vn -0.0740 0.9398 0.3337
vn 0.3106 0.9505 0.0052
vn 0.2429 0.9653 0.0963
vn -0.0082 1.0000 0.0045
vn -0.0051 1.0000 -0.0000
vn -0.0220 0.9998 -0.0016
vn -0.0792 0.9965 -0.0274
vn 0.1344 0.9822 -0.1310
vn 0.2343 0.9627 -0.1351
vn 0.0077 0.9006 -0.4345
vn -0.0263 0.9996 -0.0102
vn -0.0373 0.9992 0.0142
vn -0.1111 0.9929 -0.0415
vn -0.0010 1.0000 -0.0065
vn 0.0013 0.9991 -0.0423
vn -0.0789 0.9413 0.3281
vn -0.0710 0.9775 0.1985
vn 0.1439 0.9453 0.2927
vn 0.0851 0.9939 -0.0700
vn 0.0125 0.9995 -0.0302
vn 0.0073 1.0000 -0.0064
vn -0.0509 0.9960 0.0738
vn 0.0353 0.9992 0.0196
vn -0.0164 0.9998 -0.0058
vn -0.0435 0.9991 -0.0028
vn 0.0538 0.9895 0.1340
vn 0.0860 0.9835 0.1592
vn -0.0999 0.9950 0.0068
vn -0.0172 0.9998 -0.0064
vn 0.0298 0.9993 0.0225
vn -0.0098 1.0000 0.0011
vn -0.0435 0.9987 0.0247
vn -0.0129 0.9993 0.0338
vn -0.1860 0.9821 0.0286
vn -0.2165 0.9757 0.0327
vn 0.2397 0.9653 -0.1035
vn 0.1245 0.9694 -0.2115
vn 0.0347 0.9994 -0.0013
s 1
f 166/1/1 8/2/2 105/3/3
f 66/4/4 86/5/5 20/6/6
f 20/6/6 174/7/7 81/8/8
f 165/9/9 19/10/10 65/11/11
f 21/12/12 125/13/13 66/4/4
f 65/11/11 86/5/5 125/13/13
f 115/14/14 72/15/15 160/16/16
f 8/2/2 126/17/17 102/18/18
f 1/19/19 126/17/17 94/20/20
f 43/21/21 102/18/18 126/17/17
f 112/22/22 67/23/23 22/24/24
f 24/25/25 127/26/26 106/27/27
f 176/28/28 30/29/29 63/30/30
f 102/18/18 37/31/31 8/2/2
f 162/32/32 27/33/33 99/34/34
f 128/35/35 6/36/36 99/34/34
f 78/37/37 99/34/34 27/33/33
f 128/35/35 12/38/38 95/39/39
f 178/40/40 18/41/41 59/42/42
f 55/43/43 79/44/44 147/45/45
f 69/46/46 87/47/47 19/10/10
f 22/24/24 129/48/48 69/46/46
f 129/48/48 14/49/49 87/47/47
f 180/50/50 15/51/51 54/52/52
f 11/53/53 130/54/54 97/55/55
f 179/56/56 26/57/57 75/58/58
f 114/59/59 91/60/60 175/61/61
f 130/54/54 30/29/29 114/59/59
f 97/55/55 114/59/59 23/62/62
f 43/21/21 64/63/63 150/64/64
f 123/65/65 78/37/37 27/33/33
f 109/66/66 36/67/67 2/68/68
f 168/69/69 6/36/36 95/39/39
f 33/70/70 131/71/71 123/65/65
f 16/72/72 132/73/73 88/74/74
f 59/42/42 60/75/75 132/73/73
f 179/56/56 34/76/76 122/77/77
f 60/75/75 90/78/78 156/79/79
f 132/73/73 17/80/80 88/74/74
f 175/61/61 3/81/81 44/82/82
f 68/83/83 53/84/84 1/19/19
f 98/85/85 115/14/14 176/28/28
f 101/86/86 82/87/87 163/88/88
f 133/89/89 7/90/90 75/58/58
f 75/58/58 77/91/91 133/89/89
f 180/50/50 33/70/70 123/65/65
f 57/92/92 77/91/91 16/72/72
f 157/93/93 2/68/68 46/94/94
f 149/95/95 29/96/96 84/97/97
f 73/98/98 90/78/78 134/99/99
f 143/100/100 28/101/101 71/102/102
f 134/99/99 18/41/41 104/103/103
f 25/104/104 134/99/99 104/103/103
f 160/16/16 3/81/81 91/60/60
f 100/105/105 41/106/106 27/33/33
f 121/107/107 107/108/108 168/69/69
f 135/109/109 24/25/25 74/110/110
f 154/111/111 16/72/72 88/74/74
f 95/39/39 40/112/112 168/69/69
f 74/110/110 110/113/113 135/109/109
f 168/69/69 34/76/76 121/107/107
f 72/15/15 110/113/113 3/81/81
f 146/114/114 26/57/57 56/115/115
f 23/62/62 136/116/116 70/117/117
f 44/82/82 112/22/22 136/116/116
f 70/117/117 112/22/22 22/24/24
f 71/102/102 82/87/87 143/100/100
f 83/118/118 80/119/119 28/101/101
f 99/34/34 35/120/120 162/32/32
f 61/121/121 118/122/122 140/123/123
f 137/124/124 5/125/125 71/102/102
f 163/88/88 9/126/126 101/86/86
f 137/124/124 28/101/101 113/127/127
f 55/43/43 113/127/127 15/51/51
f 1/19/19 166/1/1 68/83/83
f 54/52/52 56/115/115 138/128/128
f 56/115/115 119/129/129 138/128/128
f 148/130/130 20/6/6 81/8/8
f 32/131/131 138/128/128 119/129/129
f 39/132/132 106/27/27 127/26/26
f 124/133/133 54/52/52 138/128/128
f 62/134/134 48/135/135 152/136/136
f 18/41/41 139/137/137 104/103/103
f 61/121/121 89/138/138 139/137/137
f 89/138/138 104/103/103 139/137/137
f 155/139/139 14/49/49 52/140/140
f 31/141/141 140/123/123 118/122/122
f 109/66/66 42/142/142 17/80/80
f 47/143/143 61/121/121 140/123/123
f 181/144/144 33/70/70 124/133/133
f 1/19/19 141/145/145 64/63/63
f 141/145/145 22/24/24 103/146/146
f 169/147/147 10/148/148 108/149/149
f 106/27/27 45/150/150 24/25/25
f 64/63/63 103/146/146 21/12/12
f 172/151/151 31/141/141 117/152/152
f 105/3/3 68/83/83 166/1/1
f 23/62/62 142/153/153 68/83/83
f 167/154/154 4/155/155 45/150/150
f 82/87/87 83/118/118 143/100/100
f 98/85/85 39/132/132 127/26/26
f 24/25/25 144/156/156 74/110/110
f 45/150/150 73/98/98 144/156/156
f 46/94/94 107/108/108 157/93/93
f 165/9/9 21/12/12 103/146/146
f 105/3/3 38/157/157 159/158/158
f 40/112/112 76/159/159 145/160/160
f 12/38/38 181/144/144 76/159/159
f 145/160/160 32/131/131 122/77/77
f 34/76/76 145/160/160 122/77/77
f 120/161/161 78/37/37 131/71/71
f 15/51/51 146/114/114 56/115/115
f 117/152/152 111/162/162 172/151/151
f 49/163/163 111/162/162 146/114/114
f 176/28/28 11/53/53 98/85/85
f 101/86/86 37/31/31 164/164/164
f 174/7/7 28/101/101 81/8/8
f 27/33/33 147/45/45 79/44/44
f 164/164/164 29/96/96 101/86/86
f 41/106/106 55/43/43 147/45/45
f 178/40/40 31/141/141 118/122/122
f 158/165/165 7/90/90 42/142/142
f 80/119/119 81/8/8 28/101/101
f 80/119/119 66/4/4 148/130/130
f 13/166/166 151/167/167 48/135/135
f 20/6/6 151/167/167 85/168/168
f 89/138/138 51/169/169 155/139/139
f 19/10/10 152/136/136 86/5/5
f 122/77/77 119/129/129 179/56/56
f 13/166/166 153/170/170 51/169/169
f 171/171/171 25/104/104 52/140/140
f 51/169/169 87/47/47 14/49/49
f 42/142/142 57/92/92 154/111/111
f 42/142/142 88/74/74 17/80/80
f 52/140/140 89/138/138 155/139/139
f 17/80/80 156/79/79 58/172/172
f 58/172/172 90/78/78 4/155/155
f 7/90/90 157/93/93 107/108/108
f 124/133/133 76/159/159 181/144/144
f 91/60/60 115/14/14 160/16/16
f 9/126/126 161/173/173 100/105/105
f 169/147/147 4/155/155 93/174/174
f 150/64/64 29/96/96 43/21/21
f 10/148/148 167/154/154 106/27/27
f 170/175/175 17/80/80 108/149/149
f 5/125/125 163/88/88 82/87/87
f 158/165/165 2/68/68 92/176/176
f 112/22/22 50/177/177 173/178/178
f 173/178/178 14/49/49 67/23/23
f 85/168/168 49/163/163 15/51/51
f 14/49/49 171/171/171 52/140/140
f 50/177/177 110/113/113 171/171/171
f 31/141/141 177/179/179 117/152/152
f 153/170/170 19/10/10 87/47/47
f 108/149/149 58/172/172 169/147/147
f 97/55/55 38/157/157 11/53/53
f 159/158/158 23/62/62 105/3/3
f 100/105/105 35/120/120 9/126/126
f 111/162/162 47/143/143 172/151/151
f 161/173/173 5/125/125 41/106/106
f 84/97/97 80/119/119 149/95/95
f 75/58/58 121/107/107 179/56/56
f 144/156/156 25/104/104 74/110/110
f 26/57/57 177/179/179 77/91/91
f 116/180/180 59/42/42 16/72/72
f 108/149/149 36/67/67 170/175/175
f 123/65/65 79/44/44 180/50/50
f 150/64/64 21/12/12 84/97/97
f 15/51/51 174/7/7 85/168/168
f 142/153/153 22/24/24 53/84/84
f 44/82/82 114/59/59 175/61/61
f 103/146/146 69/46/46 165/9/9
f 177/179/179 16/72/72 77/91/91
f 86/5/5 48/135/135 20/6/6
f 166/1/1 94/20/20 8/2/2
f 66/4/4 125/13/13 86/5/5
f 20/6/6 85/168/168 174/7/7
f 165/9/9 69/46/46 19/10/10
f 21/12/12 65/11/11 125/13/13
f 65/11/11 19/10/10 86/5/5
f 115/14/14 24/25/25 72/15/15
f 8/2/2 94/20/20 126/17/17
f 1/19/19 43/21/21 126/17/17
f 43/21/21 29/96/96 102/18/18
f 112/22/22 173/178/178 67/23/23
f 24/25/25 98/85/85 127/26/26
f 176/28/28 115/14/14 30/29/29
f 102/18/18 164/164/164 37/31/31
f 162/32/32 100/105/105 27/33/33
f 128/35/35 95/39/39 6/36/36
f 78/37/37 128/35/35 99/34/34
f 128/35/35 78/37/37 12/38/38
f 178/40/40 118/122/122 18/41/41
f 55/43/43 15/51/51 79/44/44
f 69/46/46 129/48/48 87/47/47
f 22/24/24 67/23/23 129/48/48
f 129/48/48 67/23/23 14/49/49
f 180/50/50 79/44/44 15/51/51
f 11/53/53 63/30/30 130/54/54
f 179/56/56 119/129/129 26/57/57
f 114/59/59 30/29/29 91/60/60
f 130/54/54 63/30/30 30/29/29
f 97/55/55 130/54/54 114/59/59
f 43/21/21 1/19/19 64/63/63
f 123/65/65 131/71/71 78/37/37
f 109/66/66 170/175/175 36/67/67
f 168/69/69 107/108/108 6/36/36
f 33/70/70 120/161/161 131/71/71
f 16/72/72 59/42/42 132/73/73
f 59/42/42 18/41/41 60/75/75
f 179/56/56 121/107/107 34/76/76
f 60/75/75 18/41/41 90/78/78
f 132/73/73 60/75/75 17/80/80
f 175/61/61 91/60/60 3/81/81
f 68/83/83 142/153/153 53/84/84
f 98/85/85 24/25/25 115/14/14
f 101/86/86 29/96/96 82/87/87
f 133/89/89 57/92/92 7/90/90
f 75/58/58 26/57/57 77/91/91
f 180/50/50 54/52/52 33/70/70
f 57/92/92 133/89/89 77/91/91
f 157/93/93 92/176/176 2/68/68
f 149/95/95 83/118/118 29/96/96
f 73/98/98 4/155/155 90/78/78
f 143/100/100 83/118/118 28/101/101
f 134/99/99 90/78/78 18/41/41
f 25/104/104 73/98/98 134/99/99
f 160/16/16 72/15/15 3/81/81
f 100/105/105 161/173/173 41/106/106
f 121/107/107 7/90/90 107/108/108
f 135/109/109 72/15/15 24/25/25
f 154/111/111 57/92/92 16/72/72
f 95/39/39 12/38/38 40/112/112
f 74/110/110 25/104/104 110/113/113
f 168/69/69 40/112/112 34/76/76
f 72/15/15 135/109/109 110/113/113
f 146/114/114 111/162/162 26/57/57
f 23/62/62 44/82/82 136/116/116
f 44/82/82 3/81/81 112/22/22
f 70/117/117 136/116/116 112/22/22
f 71/102/102 5/125/125 82/87/87
f 83/118/118 149/95/95 80/119/119
f 99/34/34 6/36/36 35/120/120
f 61/121/121 18/41/41 118/122/122
f 137/124/124 55/43/43 5/125/125
f 163/88/88 96/181/181 9/126/126
f 137/124/124 71/102/102 28/101/101
f 55/43/43 137/124/124 113/127/127
f 1/19/19 94/20/20 166/1/1
f 54/52/52 15/51/51 56/115/115
f 56/115/115 26/57/57 119/129/129
f 148/130/130 66/4/4 20/6/6
f 32/131/131 124/133/133 138/128/128
f 39/132/132 10/148/148 106/27/27
f 124/133/133 33/70/70 54/52/52
f 62/134/134 13/166/166 48/135/135
f 18/41/41 61/121/121 139/137/137
f 61/121/121 13/166/166 89/138/138
f 89/138/138 25/104/104 104/103/103
f 155/139/139 51/169/169 14/49/49
f 31/141/141 47/143/143 140/123/123
f 109/66/66 158/165/165 42/142/142
f 47/143/143 13/166/166 61/121/121
f 181/144/144 120/161/161 33/70/70
f 1/19/19 53/84/84 141/145/145
f 141/145/145 53/84/84 22/24/24
f 169/147/147 93/174/174 10/148/148
f 106/27/27 167/154/154 45/150/150
f 64/63/63 141/145/145 103/146/146
f 172/151/151 47/143/143 31/141/141
f 105/3/3 23/62/62 68/83/83
f 23/62/62 70/117/117 142/153/153
f 167/154/154 93/174/174 4/155/155
f 82/87/87 29/96/96 83/118/118
f 98/85/85 11/53/53 39/132/132
f 24/25/25 45/150/150 144/156/156
f 45/150/150 4/155/155 73/98/98
f 46/94/94 6/36/36 107/108/108
f 165/9/9 65/11/11 21/12/12
f 105/3/3 8/2/2 38/157/157
f 40/112/112 12/38/38 76/159/159
f 12/38/38 120/161/161 181/144/144
f 145/160/160 76/159/159 32/131/131
f 34/76/76 40/112/112 145/160/160
f 120/161/161 12/38/38 78/37/37
f 15/51/51 49/163/163 146/114/114
f 117/152/152 26/57/57 111/162/162
f 49/163/163 13/166/166 111/162/162
f 176/28/28 63/30/30 11/53/53
f 101/86/86 9/126/126 37/31/31
f 174/7/7 113/127/127 28/101/101
f 27/33/33 41/106/106 147/45/45
f 164/164/164 102/18/18 29/96/96
f 41/106/106 5/125/125 55/43/43
f 178/40/40 116/180/180 31/141/141
f 158/165/165 92/176/176 7/90/90
f 80/119/119 148/130/130 81/8/8
f 80/119/119 21/12/12 66/4/4
f 13/166/166 49/163/163 151/167/167
f 20/6/6 48/135/135 151/167/167
f 89/138/138 13/166/166 51/169/169
f 19/10/10 62/134/134 152/136/136
f 122/77/77 32/131/131 119/129/129
f 13/166/166 62/134/134 153/170/170
f 171/171/171 110/113/113 25/104/104
f 51/169/169 153/170/170 87/47/47
f 42/142/142 7/90/90 57/92/92
f 42/142/142 154/111/111 88/74/74
f 52/140/140 25/104/104 89/138/138
f 17/80/80 60/75/75 156/79/79
f 58/172/172 156/79/79 90/78/78
f 7/90/90 92/176/176 157/93/93
f 124/133/133 32/131/131 76/159/159
f 91/60/60 30/29/29 115/14/14
f 9/126/126 96/181/181 161/173/173
f 169/147/147 58/172/172 4/155/155
f 150/64/64 84/97/97 29/96/96
f 10/148/148 93/174/174 167/154/154
f 170/175/175 109/66/66 17/80/80
f 5/125/125 96/181/181 163/88/88
f 158/165/165 109/66/66 2/68/68
f 112/22/22 3/81/81 50/177/177
f 173/178/178 50/177/177 14/49/49
f 85/168/168 151/167/167 49/163/163
f 14/49/49 50/177/177 171/171/171
f 50/177/177 3/81/81 110/113/113
f 31/141/141 116/180/180 177/179/179
f 153/170/170 62/134/134 19/10/10
f 108/149/149 17/80/80 58/172/172
f 97/55/55 159/158/158 38/157/157
f 159/158/158 97/55/55 23/62/62
f 100/105/105 162/32/32 35/120/120
f 111/162/162 13/166/166 47/143/143
f 161/173/173 96/181/181 5/125/125
f 84/97/97 21/12/12 80/119/119
f 75/58/58 7/90/90 121/107/107
f 144/156/156 73/98/98 25/104/104
f 26/57/57 117/152/152 177/179/179
f 116/180/180 178/40/40 59/42/42
f 108/149/149 10/148/148 36/67/67
f 123/65/65 27/33/33 79/44/44
f 150/64/64 64/63/63 21/12/12
f 15/51/51 113/127/127 174/7/7
f 142/153/153 70/117/117 22/24/24
f 44/82/82 23/62/62 114/59/59
f 103/146/146 22/24/24 69/46/46
f 177/179/179 116/180/180 16/72/72
f 86/5/5 152/136/136 48/135/135
