# Blender v2.91.2 OBJ File: 'hex_tile.blend'
# www.blender.org
o hill01_Cylinder.003
v 1.000000 -0.500000 -1.732051
v 2.000000 -0.500000 0.000000
v 1.000000 -0.500000 1.732051
v -1.000000 -0.500000 1.732051
v -2.000000 -0.500000 -0.000000
v -1.000000 -0.500000 -1.732051
v 0.861117 0.351136 -1.491499
v -1.000000 0.351136 1.732051
v -0.780125 0.351136 -1.351215
v -1.779579 0.351136 -0.000000
v 1.560249 0.351136 0.000000
v -0.000000 0.351136 1.732051
v 1.000000 0.351136 1.732051
v -0.780125 0.351136 1.351215
v 1.000000 0.351136 -1.732051
v 2.000000 0.351136 0.000000
v -2.000000 0.351136 -0.000000
v -1.000000 0.351136 -1.732051
v 0.780124 0.351136 1.351215
v 0.007602 0.488840 -0.000113
v -0.708961 0.715673 -0.688012
v 0.664799 0.719049 0.535839
v -0.384402 0.487706 0.687932
v -0.789971 0.473508 0.002292
v -1.170187 0.351136 0.675607
v -0.680421 0.626887 0.304429
v 0.307158 0.546091 -0.647805
v 0.849790 0.480606 0.024250
v 0.815418 0.620176 -0.671707
v 0.068894 0.573822 -1.093489
v -0.112813 0.351136 -1.543905
v -1.255527 0.351136 -0.795278
v -1.181010 0.572181 -0.296582
v 0.053725 0.666055 1.053578
v 1.335782 0.351136 0.803206
v 1.168513 0.474066 -0.257239
v 1.410753 0.351136 -0.627105
v 1.000000 -0.500000 -1.732051
v 1.000000 -0.500000 -1.732051
v 2.000000 -0.500000 0.000000
v 2.000000 -0.500000 0.000000
v 1.000000 -0.500000 1.732051
v 1.000000 -0.500000 1.732051
v -1.000000 -0.500000 1.732051
v -1.000000 -0.500000 1.732051
v -2.000000 -0.500000 -0.000000
v -2.000000 -0.500000 -0.000000
v -1.000000 -0.500000 -1.732051
v -1.000000 -0.500000 -1.732051
v 1.000000 0.351136 -1.732051
v 1.000000 0.351136 -1.732051
v -1.000000 0.351136 -1.732051
v -1.000000 0.351136 -1.732051
v -1.000000 0.351136 1.732051
v -1.000000 0.351136 1.732051
v 1.000000 0.351136 1.732051
v 1.000000 0.351136 1.732051
v 2.000000 0.351136 0.000000
v 2.000000 0.351136 0.000000
v -2.000000 0.351136 -0.000000
v -2.000000 0.351136 -0.000000
vt 0.828376 0.990003
vt 0.990003 0.745002
vt 0.990003 0.990003
vt 0.666748 0.867503
vt 0.666748 0.745002
vt 0.828376 0.745002
vt 0.666748 0.745002
vt 0.828376 0.254998
vt 0.828376 0.745002
vt 0.666748 0.254998
vt 0.828376 0.009997
vt 0.828376 0.254998
vt 0.828376 0.745002
vt 0.990003 0.254998
vt 0.990003 0.745002
vt 0.828376 0.254998
vt 0.990003 0.009997
vt 0.990003 0.254998
vt 0.828376 0.254998
vt 0.990003 0.990003
vt 0.990003 0.254998
vt 0.786545 0.459864
vt 0.801547 0.560040
vt 0.785456 0.642239
vt 0.691548 0.256119
vt 0.666748 0.009997
vt 0.666748 0.254998
vt 0.811708 0.220166
vt 0.828376 0.009997
vt 0.828376 0.254998
vt 0.760293 0.438494
vt 0.828376 0.745002
vt 0.817638 0.477840
vt 0.804690 0.144867
vt 0.666748 0.745002
vt 0.772875 0.540366
vt 0.729200 0.420518
vt 0.685619 0.441887
vt 0.779526 0.384564
vt 0.723271 0.606286
vt 0.719991 0.533075
vt 0.692178 0.588309
vt 0.735852 0.486437
vt 0.672919 0.275282
vt 0.716711 0.459864
vt 0.704130 0.357992
vt 0.704037 0.216773
vt 0.818727 0.295466
vt 0.754363 0.624262
vt 0.820905 0.691447
vt 0.810137 0.427753
vt 0.828376 0.745002
vt 0.828376 0.990003
vt 0.666748 0.990003
vt 0.666748 0.254998
vt 0.666748 0.009997
vt 0.828376 0.254998
vt 0.828376 0.009997
vt 0.990003 0.745002
vt 0.828376 0.990003
vt 0.828376 0.745002
vn -0.0000 0.0000 -1.0000
vn -0.0000 -0.0000 1.0000
vn -0.8660 0.0000 0.5000
vn -0.8660 0.0000 -0.5000
vn 0.8660 0.0000 -0.5000
vn 0.8660 0.0000 0.5000
vn 0.0000 -1.0000 -0.0000
vn 0.1097 0.9890 -0.0991
vn 0.1162 0.9905 -0.0729
vn 0.0567 0.9983 0.0148
vn -0.2374 0.9568 -0.1677
vn 0.0000 1.0000 -0.0000
vn 0.1723 0.9802 0.0973
vn -0.0267 0.9805 -0.1948
vn 0.1835 0.9808 -0.0661
vn 0.0921 0.9798 0.1775
vn 0.0805 0.9708 -0.2261
vn -0.1662 0.9831 -0.0770
vn -0.1321 0.9880 0.0796
vn 0.1304 0.9912 -0.0221
vn -0.1571 0.9858 0.0591
vn -0.0654 0.9979 0.0012
vn -0.0587 0.9966 0.0577
vn -0.0926 0.9487 0.3022
vn -0.0862 0.9962 0.0128
vn -0.0867 0.9962 0.0070
vn -0.2812 0.9566 0.0762
vn -0.0953 0.9781 -0.1848
vn 0.1412 0.9899 -0.0110
vn -0.0022 0.9998 -0.0183
vn 0.0552 0.9932 -0.1027
vn 0.2816 0.9594 0.0179
s 1
f 52/1/1 39/2/1 49/3/1
f 12/4/2 54/5/2 44/6/2
f 55/7/3 46/8/3 45/9/3
f 61/10/4 48/11/4 47/12/4
f 51/13/5 40/14/5 38/15/5
f 59/16/6 42/17/6 41/18/6
f 5/19/7 6/20/7 2/21/7
f 28/22/8 29/23/9 27/24/10
f 32/25/11 18/26/12 17/27/12
f 35/28/13 13/29/12 16/30/12
f 31/31/14 15/32/12 18/26/12
f 37/33/15 16/30/12 15/32/12
f 19/34/16 8/35/12 13/29/12
f 27/24/10 30/36/17 21/37/18
f 25/38/19 17/27/12 8/35/12
f 19/34/16 35/28/13 22/39/20
f 23/40/21 26/41/22 25/38/19
f 14/42/23 34/43/24 23/40/21
f 10/44/25 24/45/26 33/46/27
f 21/37/18 9/47/28 32/25/11
f 30/36/17 9/47/28 21/37/18
f 22/39/20 11/48/29 28/22/8
f 22/39/20 34/43/24 19/34/16
f 24/45/26 26/41/22 20/49/30
f 26/41/22 24/45/26 10/44/25
f 26/41/22 23/40/21 20/49/30
f 27/24/10 29/23/9 7/50/31
f 28/22/8 11/48/29 36/51/32
f 30/36/17 27/24/10 7/50/31
f 31/31/14 30/36/17 7/50/31
f 37/33/15 36/51/32 11/48/29
f 33/46/27 32/25/11 10/44/25
f 33/46/27 24/45/26 20/49/30
f 19/34/16 34/43/24 14/42/23
f 23/40/21 34/43/24 22/39/20
f 22/39/20 35/28/13 11/48/29
f 29/23/9 28/22/8 36/51/32
f 29/23/9 36/51/32 37/33/15
f 7/50/31 29/23/9 37/33/15
f 20/49/30 22/39/20 28/22/8
f 20/49/30 28/22/8 27/24/10
f 20/49/30 27/24/10 21/37/18
f 33/46/27 21/37/18 32/25/11
f 14/42/23 23/40/21 25/38/19
f 20/49/30 23/40/21 22/39/20
f 21/37/18 33/46/27 20/49/30
f 25/38/19 26/41/22 10/44/25
f 52/1/1 50/52/1 39/2/1
f 44/6/2 43/53/2 12/4/2
f 43/53/2 56/54/2 12/4/2
f 55/7/3 60/55/3 46/8/3
f 61/10/4 53/56/4 48/11/4
f 51/13/5 58/57/5 40/14/5
f 59/16/6 57/58/6 42/17/6
f 6/20/7 1/59/7 2/21/7
f 2/21/7 3/60/7 4/61/7
f 4/61/7 5/19/7 2/21/7
f 17/27/12 10/44/25 32/25/11
f 32/25/11 9/47/28 18/26/12
f 16/30/12 11/48/29 35/28/13
f 35/28/13 19/34/16 13/29/12
f 18/26/12 9/47/28 31/31/14
f 31/31/14 7/50/31 15/32/12
f 15/32/12 7/50/31 37/33/15
f 37/33/15 11/48/29 16/30/12
f 19/34/16 14/42/23 8/35/12
f 8/35/12 14/42/23 25/38/19
f 25/38/19 10/44/25 17/27/12
f 30/36/17 31/31/14 9/47/28
