# Blender v2.91.2 OBJ File: 'hexes.blend'
# www.blender.org
o hill_Cylinder.003
v 0.637231 0.043212 -1.282896
v -1.000000 0.000000 1.732051
v -0.533120 0.316843 -0.890944
v -1.421492 0.000000 -0.012212
v 1.505629 0.029388 0.060509
v 1.000000 0.000000 1.732051
v -0.428914 0.039288 1.313607
v 1.000000 0.000000 -1.732051
v 2.000000 0.000000 0.000000
v -2.000000 0.000000 -0.000000
v -1.000000 0.000000 -1.732051
v 0.666050 0.033545 1.268938
v -0.007299 0.044516 0.028286
v -0.263984 0.192033 -0.536184
v 0.675124 0.048365 0.456501
v -0.435687 0.172592 0.603351
v -1.113079 0.014927 0.686117
v -0.707162 0.020555 0.223486
v 0.210255 0.092437 -0.427825
v 0.600418 0.244662 -0.183950
v 0.582215 0.158591 -0.555300
v 0.075934 0.272552 -0.935458
v -0.105877 0.049388 -1.366558
v -1.070884 0.027624 -0.675578
v -0.750276 0.040939 -0.304397
v 0.015798 0.247475 0.861275
v 1.193590 0.001017 0.715011
v 0.961499 0.197001 -0.201519
v 1.099178 0.026657 -0.608873
v -0.752300 0.055356 -1.302599
v 1.250000 0.000000 1.299038
v 1.500000 0.000000 0.866026
v 1.750000 0.000000 0.433013
v -1.750000 0.000000 0.433012
v -1.500000 0.000000 0.866025
v -1.250000 0.000000 1.299038
v 1.750000 0.000000 -0.433013
v 1.500000 0.000000 -0.866025
v 1.250000 0.000000 -1.299038
v 0.500000 0.000000 -1.732051
v -0.000000 0.000000 -1.732051
v -0.500000 0.000000 -1.732051
v -1.250000 0.000000 -1.299038
v -1.500000 0.000000 -0.866025
v -1.750000 0.000000 -0.433013
v -0.084490 0.043141 1.362003
v 0.183250 0.041514 1.373102
v 0.434687 0.040698 1.351160
v 1.312720 0.002792 0.506520
v 1.410334 0.006572 0.353927
v 1.482972 0.014023 0.214066
v -0.957075 0.023091 0.905707
v -0.827927 0.026367 1.058070
v -0.676891 0.031997 1.189947
v 0.960665 0.021044 -0.852303
v 0.866352 0.020054 -1.027239
v 0.770983 0.026717 -1.173073
v -0.243291 0.134667 -1.244939
v -0.338658 0.208503 -1.143793
v -0.428950 0.271612 -1.037814
v -1.222178 0.010100 -0.453046
v -1.329205 0.002525 -0.301616
v -1.405114 0.000000 -0.163797
v -0.500000 0.000000 1.732051
v -0.000000 0.000000 1.732051
v 0.500000 0.000000 1.732051
v -0.318796 0.161608 0.467594
v -0.223198 0.132087 0.344935
v -0.131731 0.093082 0.218589
v 0.483173 0.194399 -0.125074
v 0.359081 0.143220 -0.078402
v 0.213907 0.090764 -0.030070
v 0.470570 0.073790 0.360255
v 0.327198 0.076019 0.266591
v 0.186986 0.072355 0.166802
v -0.349087 0.248627 -0.629018
v -0.411324 0.290636 -0.706803
v -0.466060 0.315425 -0.784594
v -0.101861 0.058700 -0.162101
v -0.166604 0.090369 -0.287425
v -0.221358 0.132017 -0.404826
v -0.594872 0.091412 -0.375724
v -0.487967 0.130013 -0.428958
v -0.382521 0.164648 -0.479686
v 0.228598 0.212357 -1.055270
v 0.358092 0.155569 -1.147642
v 0.484926 0.098335 -1.219140
v 0.689016 0.040698 1.088744
v 0.687973 0.041750 0.917014
v 0.675120 0.044084 0.722494
v 0.944214 0.038208 0.351815
v 1.150123 0.033979 0.262798
v 1.331768 0.033217 0.170895
v 0.182666 0.204627 0.784120
v 0.324228 0.153589 0.702758
v 0.473004 0.097301 0.605512
v -0.502569 0.092261 1.107720
v -0.506030 0.131882 0.944310
v -0.481913 0.161608 0.782680
v -1.418845 0.000000 0.150401
v -1.358771 0.001364 0.301554
v -1.262728 0.005458 0.462486
v -0.606221 0.056425 0.319346
v -0.539347 0.095174 0.398768
v -0.486913 0.132832 0.483772
v -0.824684 0.024938 0.335891
v -0.922066 0.024602 0.435462
v -1.016132 0.023091 0.537140
v -0.524242 0.024938 0.172381
v -0.371873 0.027315 0.126855
v -0.222743 0.033942 0.082359
v 0.079836 0.057115 -0.137154
v 0.129187 0.063211 -0.238224
v 0.170267 0.075079 -0.329839
v -0.954363 0.000000 -1.655207
v -0.901316 0.005827 -1.564568
v -0.833450 0.023308 -1.446339
v 0.600396 0.127078 -0.757347
v 0.620622 0.099145 -0.933335
v 0.633979 0.072711 -1.100295
v 0.306445 0.116706 -0.462854
v 0.385904 0.136170 -0.487803
v 0.468294 0.155471 -0.516476
v 0.617517 0.245300 -0.280347
v 0.613046 0.226927 -0.355471
v 0.598435 0.196340 -0.433500
v -0.195151 0.236266 -0.647309
v -0.124155 0.264487 -0.738895
v -0.042891 0.278565 -0.825848
v 0.497584 0.041066 -1.365753
v 0.340129 0.039572 -1.386599
v 0.157606 0.043767 -1.382325
v 0.170171 0.131557 -0.548840
v 0.139119 0.179322 -0.661623
v 0.110187 0.229208 -0.779192
v 0.036437 0.234752 -1.072963
v -0.000333 0.182354 -1.168864
v -0.039534 0.122307 -1.257531
v 1.108874 0.150520 -0.138080
v 1.246852 0.109166 -0.080650
v 1.370173 0.067603 -0.018111
v -0.683480 0.244067 -0.838560
v -0.796797 0.174836 -0.790513
v -0.911463 0.101000 -0.742548
v -1.266309 0.000000 -0.100585
v -1.120524 0.003461 -0.166858
v -0.954381 0.013845 -0.229090
v -0.872078 0.047599 -0.396576
v -0.943495 0.045890 -0.472333
v -1.005905 0.042731 -0.553289
v -0.301218 0.112159 1.206772
v -0.204422 0.174306 1.114777
v -0.097586 0.222260 1.006618
v 0.163453 0.204627 1.006075
v 0.316337 0.152284 1.113221
v 0.473182 0.092084 1.195150
v -0.324036 0.212994 0.671020
v -0.231551 0.242652 0.734237
v -0.130642 0.253747 0.795906
v 0.840673 0.011922 1.179307
v 0.952223 0.003071 1.058214
v 1.054217 0.000361 0.911485
v 0.853276 0.017556 0.562855
v 0.971905 0.005321 0.620390
v 1.082343 0.001234 0.668107
v 0.701516 0.181568 -0.450643
v 0.789182 0.198980 -0.376511
v 0.872518 0.206235 -0.302541
v 0.702785 0.259401 -0.180037
v 0.782448 0.255478 -0.183395
v 0.858096 0.233271 -0.187587
v 1.488303 0.033279 -0.100040
v 1.401393 0.032301 -0.241510
v 1.277450 0.031433 -0.392508
v 1.014582 0.160322 -0.293814
v 1.045098 0.119990 -0.376323
v 1.071518 0.075621 -0.465182
v 0.713359 0.122518 -0.589077
v 0.821376 0.090380 -0.605327
v 0.936836 0.060648 -0.618416
v 0.636657 0.111654 0.239076
v 0.626867 0.167011 0.089264
v 0.618068 0.213655 -0.048049
v 0.502674 0.205759 -0.251390
v 0.414408 0.160991 -0.303351
v 0.319981 0.118033 -0.355455
v 0.082179 0.102374 -0.456598
v -0.026736 0.126079 -0.482265
v -0.134397 0.157726 -0.507925
v -0.598088 0.132832 0.644534
v -0.747626 0.094713 0.670745
v -0.903637 0.054578 0.690379
v -0.561797 0.030696 -0.217059
v -0.398946 0.026404 -0.148590
v -0.232530 0.029982 -0.077422
v -0.914727 0.007305 0.177885
v -1.094232 0.001826 0.127669
v -1.256883 0.000000 0.069282
v -0.704099 0.110712 -1.211297
v -0.658178 0.177442 -1.122360
v -0.603989 0.244779 -1.020036
v -0.899511 0.000000 1.646026
v -0.782695 0.003683 1.552809
v -0.633227 0.014733 1.445209
v -1.907205 0.000000 -0.005496
v -1.793379 0.000000 -0.009992
v -1.637486 0.000000 -0.012489
v 0.930163 0.000000 -1.663390
v 0.851768 0.004236 -1.577013
v 0.756260 0.016946 -1.455205
v 0.805737 0.013155 1.437890
v 0.898326 0.003289 1.562059
v 0.957514 0.000000 1.654889
v 1.711426 0.015783 0.042268
v 1.847766 0.007685 0.026658
v 1.935928 0.002992 0.012873
v -0.642207 0.000000 -1.633638
v -0.436263 0.004055 -1.553887
v -0.261197 0.016221 -1.473036
v -1.075167 0.000000 -1.346698
v -1.092661 0.002525 -1.103135
v -1.096990 0.010100 -0.888226
v 1.176271 0.000361 0.915552
v 1.143877 0.000090 1.122860
v 1.100599 0.000000 1.356980
v 1.728820 0.000997 0.286418
v 1.543559 0.001181 0.449784
v 1.373101 0.001234 0.589990
v 1.709095 0.000997 -0.256237
v 1.503901 0.003324 -0.396072
v 1.313097 0.009808 -0.513172
v 1.071756 0.000000 -1.338215
v 1.093699 0.002093 -1.081975
v 1.106095 0.008371 -0.850091
v 0.232448 0.231435 -0.859330
v 0.344203 0.201851 -0.775143
v 0.452384 0.173505 -0.681998
v -0.719082 0.007305 0.090210
v -0.733777 0.004986 -0.025182
v -0.748020 0.012637 -0.145080
v 0.590135 0.000000 -1.636366
v 0.337553 0.003932 -1.556972
v 0.114620 0.015727 -1.475831
v -1.287563 0.007769 -0.557301
v -1.483321 0.001942 -0.426475
v -1.694865 0.000000 -0.273570
v -0.143503 0.013105 1.465306
v 0.160550 0.003276 1.557730
v 0.502892 0.000000 1.638227
v -1.718047 0.000000 0.282267
v -1.524867 0.001050 0.443852
v -1.337834 0.004198 0.577834
v -1.080065 0.000000 1.355998
v -1.114188 0.001364 1.120808
v -1.131179 0.005458 0.907825
v -0.709447 0.121596 -0.469637
v -0.665404 0.195610 -0.599064
v -0.612632 0.261631 -0.728083
v 0.015379 0.114874 0.283774
v 0.015189 0.174985 0.473891
v 0.014033 0.222260 0.657264
v -0.366848 0.333249 -0.921909
v -0.233815 0.329882 -0.938095
v -0.097910 0.307937 -0.945791
v 0.936794 0.175462 -0.053769
v 0.881102 0.140069 0.088555
v 0.806337 0.097536 0.239713
v -0.647525 0.052442 -1.351512
v -0.515140 0.049090 -1.369344
v -0.354130 0.050688 -1.369791
v -0.963386 0.042731 -0.915226
v -0.896154 0.047101 -1.077449
v -0.830485 0.052442 -1.208909
v 0.479919 0.173912 -0.380080
v 0.537407 0.211528 -0.308122
v 0.540057 0.199106 -0.370215
v 0.516785 0.173474 -0.438831
v 0.441225 0.151193 -0.423559
v 0.376611 0.133642 -0.397162
v 0.456235 0.170664 -0.347433
v 0.931645 0.003661 -1.245999
v 0.967902 0.000000 -1.418343
v 0.895617 0.002930 -1.393424
v 0.827648 0.011719 -1.301783
v 0.904676 0.008236 -1.148869
v 0.992982 0.008244 -0.996974
v 0.993042 0.002061 -1.190477
v -1.351145 0.000575 -0.794796
v -1.582276 0.000000 -0.518082
v -1.413727 0.001295 -0.617505
v -1.243531 0.005179 -0.745634
v -1.225931 0.001295 -0.942708
v -1.232039 0.000000 -1.124655
v -1.414879 0.000000 -0.825171
v 0.997662 0.000753 1.268353
v 1.011661 0.000000 1.431012
v 1.053456 0.000050 1.223447
v 1.070546 0.000199 1.048503
v 0.981093 0.001694 1.177071
v 0.893060 0.006577 1.307113
v 0.954008 0.001644 1.399934
v -0.006288 0.189744 -0.638015
v 0.077553 0.139762 -0.554721
v 0.056921 0.185134 -0.654614
v 0.019471 0.233482 -0.751094
v -0.056384 0.222989 -0.686617
v -0.109877 0.194973 -0.603297
v -0.017898 0.160854 -0.571580
v -0.631835 0.008539 -1.502619
v -0.749844 0.000000 -1.592644
v -0.751999 0.005244 -1.530809
v -0.706550 0.020977 -1.445246
v -0.573605 0.019213 -1.446354
v -0.428569 0.018583 -1.451865
v -0.567266 0.004646 -1.526168
v 0.871903 0.007377 0.869103
v 0.808702 0.014799 1.043276
v 0.910438 0.003812 0.950355
v 0.995754 0.000449 0.817698
v 0.906814 0.004678 0.757986
v 0.799055 0.017265 0.723190
v 0.795408 0.016238 0.893183
v -0.734598 0.076499 0.504523
v -0.610636 0.117412 0.541694
v -0.648386 0.088297 0.460219
v -0.719205 0.054410 0.394186
v -0.813237 0.052087 0.480191
v -0.881508 0.053178 0.576833
v -0.744060 0.087989 0.572944
v -0.332996 0.199419 0.947178
v -0.390593 0.139963 1.092478
v -0.293053 0.192998 1.026805
v -0.202362 0.235288 0.925388
v -0.290989 0.228067 0.858218
v -0.381061 0.199629 0.810589
v -0.408703 0.171348 0.953241
v -1.003700 0.001301 -0.023288
v -1.184106 0.000000 -0.019535
v -1.050664 0.001008 0.040193
v -0.888621 0.004030 0.077102
v -0.888276 0.002927 -0.025274
v -0.913872 0.007676 -0.129798
v -1.066035 0.001919 -0.085375
v -0.796330 0.144656 -0.617206
v -0.897467 0.098410 -0.634752
v -0.854891 0.097568 -0.554090
v -0.790148 0.105400 -0.496888
v -0.737550 0.170350 -0.608549
v -0.698849 0.222394 -0.723401
v -0.795918 0.164109 -0.689834
v -0.195185 0.255220 -1.082029
v -0.162166 0.175946 -1.190462
v -0.257105 0.238584 -1.107183
v -0.328246 0.295849 -1.014572
v -0.213625 0.296898 -1.017887
v -0.091075 0.273701 -1.035030
v -0.113809 0.225136 -1.119511
v 1.106828 0.093125 0.097420
v 1.277940 0.064904 0.085700
v 1.182436 0.102975 0.019766
v 1.058175 0.139957 -0.024568
v 1.001216 0.111792 0.100992
v 0.955306 0.073876 0.232344
v 1.129565 0.064448 0.171806
v 0.458786 0.124568 0.931791
v 0.537656 0.091011 0.765078
v 0.401113 0.142976 0.835244
v 0.279945 0.184909 0.917296
v 0.407920 0.142422 1.019962
v 0.549850 0.088795 1.079042
v 0.565097 0.086060 0.931678
v -0.483547 0.008534 -0.016537
v -0.563147 0.009068 0.078530
v -0.424243 0.011666 0.045579
v -0.305796 0.017446 -0.005129
v -0.440221 0.011897 -0.073901
v -0.588883 0.012170 -0.123500
v -0.587973 0.005309 -0.021411
v -0.357236 0.082548 0.279772
v -0.481094 0.054410 0.256201
v -0.432828 0.090352 0.331520
v -0.378567 0.125634 0.399871
v -0.290647 0.101600 0.298483
v -0.228199 0.066515 0.188104
v -0.352271 0.055421 0.210527
v 0.445798 0.161730 -0.966776
v 0.523912 0.114384 -1.102519
v 0.411930 0.163042 -1.054336
v 0.307556 0.208433 -0.966461
v 0.398779 0.187020 -0.881420
v 0.498229 0.158367 -0.809352
v 0.524760 0.134126 -0.959074
v 0.229208 0.121313 -1.252385
v 0.114690 0.092038 -1.301517
v 0.125879 0.145578 -1.219690
v 0.165944 0.188545 -1.138644
v 0.288971 0.137784 -1.215858
v 0.397042 0.085173 -1.288392
v 0.270287 0.081030 -1.314457
v 1.247872 0.089819 -0.246507
v 1.202025 0.065755 -0.371268
v 1.160190 0.104355 -0.310813
v 1.136010 0.135631 -0.233289
v 1.262206 0.101894 -0.176984
v 1.376004 0.064904 -0.131762
v 1.313825 0.062417 -0.250924
v -1.141670 0.007644 -0.318226
v -0.998777 0.016999 -0.315771
v -1.053162 0.017198 -0.387161
v -1.123637 0.014503 -0.440580
v -1.222577 0.003626 -0.316634
v -1.274634 0.000000 -0.201460
v -1.142282 0.004250 -0.251667
v 0.078296 0.127769 1.225944
v 0.316361 0.088795 1.267981
v 0.187494 0.143681 1.186360
v 0.040939 0.189947 1.096424
v -0.060826 0.150176 1.186532
v -0.115070 0.094622 1.274591
v 0.110055 0.086963 1.295230
v 0.211638 0.133123 0.477056
v 0.376619 0.098583 0.479254
v 0.260136 0.099011 0.381775
v 0.135193 0.102741 0.308551
v 0.120354 0.152206 0.472606
v 0.132824 0.189947 0.633510
v 0.256854 0.146128 0.574324
v 1.177553 0.008868 0.413386
v 0.991709 0.016788 0.441733
v 1.079152 0.006117 0.499966
v 1.187898 0.002692 0.524380
v 1.281192 0.006764 0.391141
v 1.331000 0.015388 0.273010
v 1.166801 0.015789 0.348794
v 0.736259 0.246233 -0.313521
v 0.681320 0.215645 -0.398092
v 0.684291 0.244035 -0.334817
v 0.693954 0.261045 -0.265225
v 0.763370 0.258665 -0.263088
v 0.822419 0.238064 -0.274267
v 0.758345 0.230012 -0.341912
v 0.874736 0.138494 -0.446634
v 0.761359 0.147502 -0.488062
v 0.832393 0.165717 -0.414063
v 0.915088 0.170170 -0.351693
v 0.944024 0.131717 -0.419830
v 0.953219 0.092722 -0.505058
v 0.849157 0.116776 -0.507238
v 0.774966 0.059887 -0.851460
v 0.732608 0.048275 -1.036948
v 0.709784 0.073065 -0.890919
v 0.699767 0.097759 -0.732496
v 0.796071 0.069892 -0.736470
v 0.889033 0.042957 -0.770937
v 0.818170 0.039036 -0.923491
v 0.442943 0.124514 0.091692
v 0.285377 0.091850 0.072817
v 0.393891 0.093600 0.164629
v 0.517163 0.098232 0.229282
v 0.528487 0.142971 0.097642
v 0.516629 0.179072 -0.023359
v 0.404036 0.135874 0.013721
v 0.305117 0.121561 -0.209095
v 0.201765 0.088122 -0.127942
v 0.326667 0.134378 -0.155910
v 0.429699 0.176816 -0.198856
v 0.357627 0.140987 -0.252613
v 0.268378 0.101579 -0.294255
v 0.227180 0.089776 -0.217203
v -0.022524 0.081225 -0.327111
v -0.014277 0.060422 -0.205746
v 0.041056 0.064640 -0.281657
v 0.071610 0.077979 -0.365425
v -0.026591 0.097168 -0.393685
v -0.123335 0.119541 -0.407292
v -0.081644 0.085434 -0.305274
v -0.706925 0.082351 0.888945
v -0.636570 0.065968 1.057842
v -0.618030 0.101463 0.917349
v -0.602878 0.125634 0.774666
v -0.732479 0.090044 0.788741
v -0.859241 0.053178 0.827098
v -0.764745 0.054976 0.958937
v -0.353811 0.076335 -0.285314
v -0.323395 0.121519 -0.384868
v -0.420227 0.095630 -0.347152
v -0.502636 0.061936 -0.291413
v -0.371124 0.051165 -0.224885
v -0.229171 0.052851 -0.175131
v -0.268524 0.084035 -0.282773
v -1.135261 0.004117 0.300767
v -1.141082 0.007837 0.437647
v -1.042318 0.009264 0.367247
v -0.966412 0.009068 0.277630
v -1.123026 0.002267 0.224760
v -1.273163 0.000000 0.182634
v -1.234159 0.001959 0.309198
v -0.203663 0.000818 1.616245
v 0.238493 0.000000 1.661102
v -0.033914 0.001842 1.589772
v -0.328120 0.007366 1.517681
v -0.456520 0.001842 1.588849
v -0.499592 0.000000 1.660363
v -0.115112 0.000000 1.667717
v -0.913787 0.004488 1.261619
v -0.957356 0.000000 1.424756
v -0.857673 0.003101 1.391903
v -0.757388 0.012404 1.307467
v -0.880095 0.010098 1.171864
v -0.999892 0.007837 1.040541
v -0.996912 0.001959 1.218067
v -0.035204 0.001029 -1.611626
v 0.327502 0.000000 -1.657363
v -0.020191 0.000000 -1.663884
v -0.371209 0.000000 -1.656681
v -0.229321 0.002315 -1.585107
v -0.061242 0.009260 -1.521126
v 0.144067 0.002315 -1.585959
v -0.793901 0.142102 -0.992603
v -0.700881 0.217901 -0.951139
v -0.738124 0.164604 -1.051515
v -0.782279 0.104885 -1.130069
v -0.844173 0.097439 -1.020385
v -0.890466 0.098410 -0.881152
v -0.797387 0.162986 -0.902046
v 1.620016 0.004389 0.261440
v 1.762707 0.002742 0.178421
v 1.722528 0.005712 0.156261
v 1.621382 0.010135 0.171646
v 1.533112 0.005451 0.302905
v 1.448391 0.002692 0.437928
v 1.597518 0.002605 0.326072
v 1.390580 0.000188 0.810972
v 1.255399 0.000000 1.134470
v 1.437358 0.000062 0.834612
v 1.607767 0.000249 0.528538
v 1.462990 0.000424 0.637258
v 1.313122 0.000449 0.772367
v 1.272530 0.000112 0.961660
v 1.594511 0.008590 -0.189825
v 1.610002 0.015637 -0.084236
v 1.706706 0.007088 -0.092844
v 1.744020 0.002742 -0.134360
v 1.562661 0.005180 -0.262483
v 1.402400 0.012993 -0.352390
v 1.507389 0.014903 -0.214526
v 1.358683 0.000722 -0.776713
v 1.589080 0.000249 -0.505931
v 1.419139 0.000062 -0.814928
v 1.234433 0.000000 -1.114716
v 1.232427 0.001312 -0.921931
v 1.257544 0.005247 -0.712218
v 1.425736 0.001623 -0.593961
v 0.284606 0.170846 -0.635108
v 0.208264 0.212927 -0.753377
v 0.220250 0.174088 -0.649866
v 0.253651 0.136101 -0.550057
v 0.328516 0.149020 -0.566339
v 0.395287 0.165938 -0.605657
v 0.305898 0.190036 -0.690061
v 0.524867 0.006867 -1.513747
v 0.598023 0.015818 -1.457449
v 0.670203 0.003955 -1.542555
v 0.685971 0.000000 -1.600145
v 0.462347 0.004151 -1.533566
v 0.279859 0.016606 -1.460317
v 0.439363 0.015451 -1.459288
v -1.546893 0.000575 -0.232689
v -1.713281 0.000000 -0.161818
v -1.656377 0.000000 -0.133007
v -1.543009 0.000000 -0.137323
v -1.450207 0.001295 -0.265804
v -1.360757 0.005179 -0.401577
v -1.528187 0.001295 -0.299918
v 0.412697 0.007030 1.507740
v 0.619755 0.000000 1.596801
v 0.623767 0.003700 1.533692
v 0.549617 0.014799 1.445771
v 0.301208 0.015819 1.450811
v 0.068220 0.015588 1.450169
v 0.312991 0.003897 1.531098
v -1.579206 0.000311 0.235751
v -1.407278 0.002799 0.415419
v -1.485696 0.000700 0.269109
v -1.562096 0.000000 0.127208
v -1.676401 0.000000 0.126932
v -1.735243 0.000000 0.163452
v -1.567270 0.000700 0.310918
v -1.382327 0.000311 0.811676
v -1.604238 0.000000 0.528876
v -1.434478 0.000000 0.835809
v -1.249430 0.000000 1.135600
v -1.258877 0.000700 0.961992
v -1.288355 0.002799 0.768048
v -1.452386 0.000700 0.636600
v -0.536586 0.214369 -0.581066
v -0.618996 0.145843 -0.478828
v -0.525245 0.176712 -0.514202
v -0.434642 0.212772 -0.565500
v -0.486200 0.252435 -0.638908
v -0.543640 0.270183 -0.696511
v -0.595191 0.210383 -0.589499
v -0.143097 0.199480 0.506328
v -0.085717 0.140511 0.331640
v -0.173656 0.171485 0.426081
v -0.253998 0.199629 0.541029
v -0.179347 0.228067 0.605426
v -0.090014 0.235288 0.646037
v -0.076398 0.193135 0.487406
v -0.260620 0.319582 -0.802736
v -0.364169 0.336292 -0.838477
v -0.329088 0.314871 -0.764713
v -0.270485 0.278881 -0.701052
v -0.199865 0.301424 -0.779076
v -0.138257 0.314144 -0.860564
v -0.250668 0.335094 -0.862391
v 0.765171 0.199715 0.005624
v 0.849935 0.209102 -0.074307
v 0.778467 0.231139 -0.081327
v 0.703262 0.231834 -0.069973
v 0.709056 0.188554 0.050350
v 0.733834 0.139775 0.166314
v 0.805869 0.174842 0.049138
v -0.498724 0.147453 -1.221551
v -0.364324 0.109837 -1.280001
v -0.495974 0.100296 -1.288969
v -0.608948 0.104885 -1.265166
v -0.569973 0.166440 -1.182634
v -0.509750 0.225246 -1.100343
v -0.426936 0.175024 -1.188263
v -0.956812 0.008086 -1.259019
v -0.999410 0.014503 -1.031037
v -0.932978 0.018193 -1.172275
v -0.879881 0.020977 -1.310148
v -0.931325 0.005244 -1.394196
v -0.985675 0.000000 -1.421462
v -1.004765 0.003626 -1.206984
vt 0.650102 0.494183
vt 0.646449 0.516641
vt 0.637591 0.512196
vt 0.661422 0.525484
vt 0.658003 0.507549
vt 0.643476 0.530722
vt 0.626719 0.532427
vt 0.663556 0.479025
vt 0.636321 0.485982
vt 0.649089 0.460179
vt 0.671508 0.496098
vt 0.623740 0.507593
vt 0.690018 0.544102
vt 0.677997 0.515198
vt 0.660603 0.548139
vt 0.610087 0.530113
vt 0.619758 0.554917
vt 0.595943 0.558741
vt 0.639469 0.551188
vt 0.881536 0.686964
vt 0.852979 0.654862
vt 0.859298 0.635637
vt 0.837563 0.679196
vt 0.863176 0.690532
vt 0.835432 0.637436
vt 0.835715 0.594496
vt 0.926229 0.749111
vt 0.893722 0.657359
vt 0.875988 0.734768
vt 0.903102 0.743386
vt 0.867373 0.600466
vt 0.794579 0.697545
vt 0.840901 0.720367
vt 0.809612 0.658275
vt 0.841775 0.549734
vt 0.810942 0.567300
vt 0.810483 0.499007
vt 0.812236 0.615871
vt 0.282354 0.799447
vt 0.307890 0.844751
vt 0.233299 0.798525
vt 0.335402 0.806329
vt 0.317997 0.830332
vt 0.363647 0.847126
vt 0.384886 0.887449
vt 0.178357 0.759220
vt 0.186242 0.800584
vt 0.078051 0.737108
vt 0.243422 0.766470
vt 0.294432 0.864059
vt 0.364728 0.769239
vt 0.302399 0.770726
vt 0.385142 0.819268
vt 0.402622 0.927535
vt 0.446610 0.916556
vt 0.510813 0.991011
vt 0.412615 0.865692
vt 0.547217 0.072086
vt 0.563511 0.108526
vt 0.538467 0.085263
vt 0.570881 0.129964
vt 0.580837 0.111835
vt 0.605354 0.147353
vt 0.536567 0.112072
vt 0.509337 0.008989
vt 0.509047 0.030221
vt 0.575079 0.077742
vt 0.507224 0.056763
vt 0.618374 0.178463
vt 0.643713 0.163711
vt 0.671435 0.204623
vt 0.579072 0.158618
vt 0.612117 0.123001
vt 0.493238 0.146219
vt 0.540881 0.145366
vt 0.502333 0.093929
vt 0.592094 0.624966
vt 0.568264 0.616365
vt 0.584467 0.601425
vt 0.596633 0.649815
vt 0.578225 0.628935
vt 0.554762 0.633901
vt 0.574613 0.645058
vt 0.601873 0.589174
vt 0.574161 0.580186
vt 0.608944 0.616771
vt 0.556323 0.598654
vt 0.594448 0.672755
vt 0.617617 0.645263
vt 0.630747 0.683002
vt 0.568673 0.663766
vt 0.517801 0.638022
vt 0.544442 0.652917
vt 0.538964 0.616869
vt 0.546736 0.931719
vt 0.561045 0.898340
vt 0.577235 0.895990
vt 0.538745 0.894117
vt 0.539068 0.918478
vt 0.566840 0.879099
vt 0.597690 0.863371
vt 0.573959 0.927545
vt 0.511620 0.942943
vt 0.511216 0.969003
vt 0.607723 0.886245
vt 0.512444 0.867034
vt 0.512027 0.908780
vt 0.540692 0.865771
vt 0.634851 0.848037
vt 0.604143 0.835851
vt 0.654564 0.805970
vt 0.570637 0.854530
vt 0.583425 0.186291
vt 0.566373 0.211436
vt 0.550771 0.177995
vt 0.617504 0.204989
vt 0.585310 0.207929
vt 0.587824 0.247166
vt 0.606176 0.227650
vt 0.520270 0.182140
vt 0.541115 0.218794
vt 0.653857 0.227124
vt 0.562058 0.261587
vt 0.618568 0.275111
vt 0.593687 0.317790
vt 0.636546 0.249616
vt 0.312034 0.446450
vt 0.289930 0.470680
vt 0.279681 0.456466
vt 0.306420 0.493716
vt 0.313719 0.469612
vt 0.275974 0.486330
vt 0.249668 0.473345
vt 0.342045 0.411393
vt 0.302279 0.422169
vt 0.344269 0.469698
vt 0.345342 0.443927
vt 0.267025 0.435305
vt 0.329307 0.530640
vt 0.339419 0.496322
vt 0.290732 0.520254
vt 0.231106 0.451086
vt 0.225452 0.499377
vt 0.186555 0.478740
vt 0.257910 0.510253
vt 0.321528 0.307505
vt 0.305529 0.334794
vt 0.292174 0.303762
vt 0.353608 0.319484
vt 0.322719 0.328264
vt 0.328963 0.361715
vt 0.342747 0.342536
vt 0.296949 0.269907
vt 0.265953 0.312800
vt 0.256042 0.261012
vt 0.329450 0.279444
vt 0.285435 0.347313
vt 0.384698 0.339334
vt 0.365877 0.291207
vt 0.407938 0.310050
vt 0.310441 0.378584
vt 0.358042 0.385010
vt 0.370482 0.362405
vt 0.277835 0.612605
vt 0.289989 0.641314
vt 0.256452 0.641759
vt 0.308152 0.584783
vt 0.295724 0.620423
vt 0.328301 0.632009
vt 0.320782 0.606670
vt 0.229946 0.631554
vt 0.248814 0.669242
vt 0.204497 0.669251
vt 0.257828 0.599087
vt 0.288453 0.665427
vt 0.342817 0.561191
vt 0.290334 0.566185
vt 0.353825 0.587737
vt 0.332154 0.658077
vt 0.365745 0.614900
vt 0.385878 0.648563
vt 0.398912 0.736692
vt 0.419553 0.719014
vt 0.429529 0.734287
vt 0.404191 0.693180
vt 0.397619 0.713805
vt 0.431599 0.709187
vt 0.455910 0.728112
vt 0.409699 0.761988
vt 0.363580 0.733996
vt 0.442438 0.756190
vt 0.372111 0.683150
vt 0.418028 0.677108
vt 0.366626 0.708474
vt 0.474380 0.750907
vt 0.475425 0.717728
vt 0.513896 0.742372
vt 0.446093 0.697783
vt 0.621484 0.770209
vt 0.601217 0.747651
vt 0.620827 0.747445
vt 0.589389 0.734300
vt 0.593367 0.760868
vt 0.568357 0.746774
vt 0.613535 0.724610
vt 0.612943 0.792875
vt 0.653333 0.772163
vt 0.648455 0.746264
vt 0.549270 0.729615
vt 0.552337 0.764214
vt 0.575198 0.718013
vt 0.582605 0.779264
vt 0.600323 0.704665
vt 0.642110 0.719152
vt 0.762323 0.328562
vt 0.724016 0.345317
vt 0.721101 0.326894
vt 0.726488 0.376846
vt 0.748596 0.353425
vt 0.700861 0.356403
vt 0.677281 0.333626
vt 0.793957 0.340446
vt 0.764789 0.304323
vt 0.814565 0.308224
vt 0.773826 0.367767
vt 0.715851 0.305235
vt 0.703594 0.396514
vt 0.750165 0.395582
vt 0.725326 0.425533
vt 0.662194 0.309547
vt 0.644796 0.348672
vt 0.676547 0.372378
vt 0.528483 0.268965
vt 0.491913 0.243085
vt 0.513940 0.230341
vt 0.456514 0.267493
vt 0.491752 0.270526
vt 0.492648 0.200766
vt 0.470523 0.230381
vt 0.534138 0.310421
vt 0.491669 0.307763
vt 0.421112 0.262043
vt 0.452331 0.307304
vt 0.439730 0.221076
vt 0.462143 0.184809
vt 0.377244 0.544727
vt 0.405562 0.555542
vt 0.384202 0.569246
vt 0.421706 0.562571
vt 0.410445 0.534998
vt 0.441434 0.531608
vt 0.396679 0.591045
vt 0.374179 0.519346
vt 0.465714 0.538227
vt 0.448288 0.502425
vt 0.499770 0.488570
vt 0.439725 0.573412
vt 0.411682 0.510755
vt 0.414252 0.607475
vt 0.373384 0.494964
vt 0.396796 0.474174
vt 0.405936 0.489377
vt 0.378218 0.449525
vt 0.374763 0.471663
vt 0.408667 0.461796
vt 0.434695 0.479292
vt 0.382993 0.427657
vt 0.417559 0.443790
vt 0.451535 0.461398
vt 0.746596 0.670277
vt 0.712204 0.648906
vt 0.728434 0.638596
vt 0.682521 0.664017
vt 0.716093 0.671919
vt 0.703681 0.608697
vt 0.691131 0.635271
vt 0.753554 0.700729
vt 0.770491 0.657771
vt 0.716988 0.698923
vt 0.746346 0.622619
vt 0.652927 0.648799
vt 0.677677 0.692773
vt 0.719648 0.586326
vt 0.677685 0.585935
vt 0.665963 0.618062
vt 0.689540 0.764101
vt 0.705299 0.738573
vt 0.722520 0.748276
vt 0.676427 0.719375
vt 0.679979 0.743320
vt 0.712088 0.722798
vt 0.744694 0.726941
vt 0.709658 0.777710
vt 0.747069 0.756489
vt 0.776326 0.732586
vt 0.801511 0.435951
vt 0.794914 0.403657
vt 0.810518 0.397226
vt 0.767895 0.413235
vt 0.783677 0.427470
vt 0.788965 0.386920
vt 0.809010 0.364363
vt 0.785089 0.470995
vt 0.821454 0.432003
vt 0.766812 0.454567
vt 0.829102 0.385259
vt 0.748770 0.439879
vt 0.830138 0.344765
vt 0.333784 0.682154
vt 0.303301 0.700660
vt 0.294546 0.686389
vt 0.323055 0.724868
vt 0.331361 0.704373
vt 0.285664 0.710492
vt 0.259734 0.692051
vt 0.303389 0.739964
vt 0.226980 0.700034
vt 0.260868 0.720493
vt 0.403346 0.219955
vt 0.372940 0.204567
vt 0.419964 0.187037
vt 0.383887 0.256355
vt 0.375187 0.223572
vt 0.327903 0.234516
vt 0.350823 0.247991
vt 0.434349 0.155026
vt 0.378465 0.178888
vt 0.323179 0.211650
vt 0.528766 0.348486
vt 0.494420 0.368616
vt 0.492689 0.342880
vt 0.497661 0.412939
vt 0.515547 0.382785
vt 0.459682 0.345018
vt 0.475736 0.380331
vt 0.561960 0.362009
vt 0.475219 0.431840
vt 0.524565 0.436341
vt 0.453350 0.391946
vt 0.542630 0.398701
vt 0.431797 0.353442
vt 0.662047 0.285201
vt 0.704417 0.270333
vt 0.709737 0.285175
vt 0.693331 0.245728
vt 0.673530 0.263092
vt 0.728795 0.263408
vt 0.753113 0.282772
vt 0.721510 0.235414
vt 0.791980 0.278090
vt 0.760217 0.256700
vt 0.683504 0.483776
vt 0.699429 0.477695
vt 0.690641 0.498352
vt 0.677261 0.467361
vt 0.691475 0.473602
vt 0.690971 0.459557
vt 0.704440 0.455982
vt 0.701731 0.508096
vt 0.710446 0.482319
vt 0.669356 0.448024
vt 0.718643 0.457112
vt 0.701768 0.433395
vt 0.685746 0.440291
vt 0.725001 0.486070
vt 0.741769 0.504721
vt 0.719835 0.510017
vt 0.734559 0.463424
vt 0.738878 0.488644
vt 0.764348 0.492816
vt 0.750392 0.475223
vt 0.723019 0.537358
vt 0.748960 0.529179
vt 0.776054 0.519309
vt 0.760762 0.603695
vt 0.788799 0.598873
vt 0.784238 0.633083
vt 0.738509 0.570185
vt 0.770182 0.587946
vt 0.785137 0.557805
vt 0.760320 0.560577
vt 0.555560 0.444036
vt 0.586176 0.421101
vt 0.586718 0.442018
vt 0.586318 0.383618
vt 0.567940 0.411832
vt 0.614114 0.436277
vt 0.603237 0.409610
vt 0.552063 0.474186
vt 0.587470 0.466726
vt 0.609823 0.367592
vt 0.618329 0.461595
vt 0.637650 0.429577
vt 0.624331 0.399863
vt 0.560333 0.496232
vt 0.590594 0.500785
vt 0.575456 0.511996
vt 0.606226 0.503607
vt 0.589184 0.486930
vt 0.615265 0.483539
vt 0.592521 0.523296
vt 0.536669 0.513043
vt 0.558088 0.528403
vt 0.576767 0.542783
vt 0.526151 0.538960
vt 0.538932 0.565537
vt 0.524916 0.568077
vt 0.561586 0.562244
vt 0.545872 0.548276
vt 0.546017 0.580028
vt 0.529101 0.594487
vt 0.503448 0.540356
vt 0.505921 0.574568
vt 0.509606 0.605712
vt 0.264597 0.366294
vt 0.227967 0.375857
vt 0.243269 0.339165
vt 0.285367 0.394707
vt 0.249002 0.383373
vt 0.223892 0.415877
vt 0.255823 0.407874
vt 0.218358 0.316322
vt 0.202259 0.362846
vt 0.193272 0.411606
vt 0.486299 0.613793
vt 0.466956 0.596698
vt 0.484404 0.585908
vt 0.436500 0.615893
vt 0.461243 0.617573
vt 0.455400 0.586142
vt 0.478790 0.558523
vt 0.486872 0.640321
vt 0.428680 0.644298
vt 0.458329 0.642440
vt 0.210489 0.536850
vt 0.228176 0.566274
vt 0.205880 0.576461
vt 0.267250 0.550716
vt 0.240202 0.540297
vt 0.239930 0.581476
vt 0.212727 0.608909
vt 0.181297 0.546181
vt 0.179972 0.593210
vt 0.185258 0.633583
vt 0.306392 0.157094
vt 0.279797 0.150016
vt 0.355789 0.110959
vt 0.252540 0.205968
vt 0.267123 0.170936
vt 0.198889 0.195535
vt 0.216643 0.205611
vt 0.414658 0.085552
vt 0.402960 0.066193
vt 0.351504 0.141641
vt 0.296583 0.123397
vt 0.298063 0.196004
vt 0.196461 0.256212
vt 0.190206 0.180600
vt 0.115524 0.244285
vt 0.083829 0.237804
vt 0.151606 0.250508
vt 0.130042 0.299444
vt 0.159124 0.329531
vt 0.146706 0.349150
vt 0.186838 0.300773
vt 0.155227 0.294489
vt 0.177233 0.344848
vt 0.167663 0.387950
vt 0.112152 0.329386
vt 0.133409 0.384652
vt 0.155662 0.432938
vt 0.706671 0.858716
vt 0.731921 0.822940
vt 0.778111 0.815347
vt 0.654318 0.867860
vt 0.632945 0.899663
vt 0.681882 0.834199
vt 0.697634 0.849873
vt 0.822375 0.809586
vt 0.830078 0.779265
vt 0.718521 0.870061
vt 0.768596 0.793529
vt 0.614667 0.930536
vt 0.712961 0.803388
vt 0.484264 0.778523
vt 0.467594 0.801163
vt 0.456080 0.781077
vt 0.458980 0.814726
vt 0.487531 0.806684
vt 0.486150 0.831115
vt 0.431609 0.789842
vt 0.514026 0.781368
vt 0.484025 0.855782
vt 0.513106 0.839551
vt 0.453384 0.835058
vt 0.513713 0.812405
vt 0.418468 0.807906
vt 0.855097 0.253296
vt 0.815228 0.252237
vt 0.802782 0.241031
vt 0.826142 0.271225
vt 0.849286 0.262764
vt 0.792036 0.253483
vt 0.758124 0.234460
vt 0.926229 0.263576
vt 0.835079 0.234044
vt 0.891021 0.275802
vt 0.911239 0.268407
vt 0.776663 0.220779
vt 0.860346 0.288326
vt 0.724107 0.210641
vt 0.708376 0.150485
vt 0.658531 0.142600
vt 0.634312 0.107432
vt 0.737338 0.189952
vt 0.780736 0.196231
vt 0.689686 0.178512
vt 0.701361 0.161108
vt 0.613560 0.072636
vt 0.717783 0.136283
vt 0.822006 0.199929
vt 0.854454 0.327325
vt 0.864263 0.351768
vt 0.848785 0.367231
vt 0.888996 0.322374
vt 0.876044 0.317907
vt 0.866515 0.371002
vt 0.843562 0.408949
vt 0.896434 0.352361
vt 0.844415 0.453650
vt 0.870406 0.406299
vt 0.903247 0.505131
vt 0.877988 0.457524
vt 0.901487 0.419502
vt 0.877140 0.549991
vt 0.900809 0.590582
vt 0.856975 0.502505
vt 0.886026 0.504221
vt 0.926229 0.384960
vt 0.926229 0.506344
vt 0.926229 0.627728
vt 0.623986 0.604874
vt 0.647026 0.603848
vt 0.634358 0.628495
vt 0.618983 0.579707
vt 0.635731 0.594406
vt 0.655789 0.575661
vt 0.636666 0.574658
vt 0.809065 0.740518
vt 0.801538 0.761701
vt 0.777102 0.760498
vt 0.845383 0.760180
vt 0.834791 0.749971
vt 0.791399 0.773566
vt 0.744885 0.780138
vt 0.160303 0.737284
vt 0.205182 0.732319
vt 0.217777 0.744554
vt 0.193915 0.711230
vt 0.168902 0.724144
vt 0.230257 0.727644
vt 0.266884 0.745987
vt 0.098647 0.727094
vt 0.123712 0.714259
vt 0.157716 0.695780
vt 0.444195 0.080982
vt 0.410735 0.123569
vt 0.386895 0.129896
vt 0.447113 0.121346
vt 0.452360 0.093998
vt 0.393900 0.148496
vt 0.344700 0.175115
vt 0.156521 0.615724
vt 0.133896 0.616482
vt 0.155812 0.574100
vt 0.157141 0.656071
vt 0.140362 0.634406
vt 0.115413 0.669204
vt 0.132488 0.670051
vt 0.151172 0.530112
vt 0.126988 0.582271
vt 0.104780 0.641154
vt 0.098860 0.485953
vt 0.119260 0.531435
vt 0.099454 0.573527
vt 0.121530 0.436933
vt 0.102425 0.398064
vt 0.138762 0.482669
vt 0.113107 0.484780
vt 0.079496 0.612282
vt 0.080940 0.487456
vt 0.082385 0.362630
vt 0.462946 0.663919
vt 0.459601 0.687173
vt 0.438530 0.667882
vt 0.488524 0.663635
vt 0.470343 0.678574
vt 0.485444 0.702697
vt 0.488849 0.684253
vt 0.513918 0.666578
vt 0.512929 0.711613
vt 0.512855 0.689316
vt 0.418779 0.421258
vt 0.432410 0.398670
vt 0.448334 0.432382
vt 0.388332 0.405162
vt 0.416036 0.401338
vt 0.411082 0.366692
vt 0.396829 0.384141
vt 0.538926 0.711081
vt 0.552737 0.692014
vt 0.562297 0.703326
vt 0.537782 0.672297
vt 0.535653 0.691774
vt 0.560362 0.680419
vt 0.581904 0.690571
vt 0.687512 0.410116
vt 0.661435 0.402197
vt 0.665004 0.388762
vt 0.657231 0.424681
vt 0.673603 0.419042
vt 0.645202 0.398824
vt 0.637579 0.371946
vt 0.592637 0.815418
vt 0.558673 0.816841
vt 0.570042 0.800318
vt 0.539835 0.840577
vt 0.566343 0.832948
vt 0.543229 0.788801
vt 0.539554 0.815825
vt 0.456380 0.861017
vt 0.444686 0.877596
vt 0.424271 0.838360
vt 0.485060 0.884654
vt 0.461705 0.883039
vt 0.475381 0.922006
vt 0.483948 0.909479
vn -0.3502 0.9222 -0.1638
vn -0.3479 0.9178 -0.1912
vn -0.3610 0.9192 -0.1575
vn -0.2524 0.9481 -0.1935
vn -0.3127 0.9210 -0.2324
vn -0.2941 0.9508 -0.0973
vn -0.2945 0.9537 -0.0617
vn -0.2492 0.9596 -0.1311
vn -0.3753 0.9246 -0.0652
vn -0.2529 0.9625 0.0984
vn -0.2059 0.9363 -0.2846
vn -0.3783 0.9195 -0.1069
vn 0.0808 0.9820 -0.1709
vn -0.1185 0.9381 -0.3254
vn -0.1210 0.9921 0.0328
vn -0.3060 0.9517 -0.0261
vn -0.1877 0.9707 0.1498
vn -0.1209 0.9750 0.1865
vn -0.1931 0.9739 0.1193
vn 0.0203 0.9998 -0.0052
vn 0.0626 0.9978 -0.0210
vn 0.0321 0.9993 -0.0207
vn 0.1262 0.9914 -0.0338
vn 0.0705 0.9974 -0.0142
vn 0.1001 0.9941 -0.0418
vn 0.0720 0.9962 -0.0482
vn -0.0000 1.0000 0.0000
vn 0.0041 1.0000 -0.0044
vn 0.0217 0.9988 -0.0449
vn 0.0050 1.0000 -0.0069
vn 0.0239 0.9995 -0.0193
vn 0.1687 0.9731 -0.1566
vn 0.0546 0.9951 -0.0828
vn 0.1933 0.9781 -0.0769
vn 0.0651 0.9966 -0.0505
vn 0.1332 0.9865 -0.0955
vn 0.1731 0.9718 -0.1599
vn 0.1580 0.9846 -0.0744
vn -0.0257 0.9996 -0.0132
vn -0.0041 1.0000 -0.0024
vn -0.0062 1.0000 -0.0034
vn -0.0674 0.9971 -0.0344
vn -0.0190 0.9998 -0.0108
vn -0.0315 0.9993 -0.0177
vn -0.0077 1.0000 -0.0041
vn -0.0041 1.0000 -0.0007
vn -0.0207 0.9998 -0.0051
vn -0.2426 0.9700 -0.0165
vn -0.0573 0.9983 -0.0069
vn -0.1423 0.9882 -0.0572
vn -0.0081 0.9999 -0.0073
vn -0.0498 0.9983 -0.0288
vn 0.0142 0.9999 0.0012
vn 0.0342 0.9994 0.0044
vn 0.0510 0.9987 0.0057
vn 0.0444 0.9990 0.0029
vn 0.0090 1.0000 0.0025
vn 0.0112 0.9999 0.0012
vn 0.0844 0.9964 0.0086
vn 0.0043 1.0000 0.0065
vn 0.0001 1.0000 0.0002
vn 0.0231 0.9992 0.0317
vn 0.0092 1.0000 -0.0017
vn 0.0010 1.0000 0.0023
vn 0.0011 1.0000 0.0060
vn 0.0507 0.9987 -0.0045
vn 0.0006 1.0000 0.0009
vn 0.1380 0.9839 0.1135
vn 0.1145 0.9934 0.0060
vn 0.0479 0.9972 0.0569
vn 0.1345 0.9111 0.3896
vn 0.1648 0.9049 0.3925
vn 0.0973 0.9240 0.3699
vn 0.1864 0.9009 0.3921
vn 0.1828 0.8939 0.4093
vn 0.1873 0.8883 0.4193
vn 0.2083 0.8866 0.4130
vn 0.0038 0.9366 0.3503
vn 0.0693 0.9499 0.3049
vn 0.0539 0.9251 0.3760
vn 0.1568 0.9275 0.3393
vn 0.2268 0.9381 0.2618
vn 0.1403 0.9422 0.3043
vn 0.2081 0.9768 -0.0507
vn 0.2191 0.8926 0.3941
vn 0.0877 0.8972 0.4328
vn 0.1759 0.8775 0.4461
vn 0.1683 0.9144 0.3682
vn 0.0050 0.9989 -0.0464
vn 0.0098 0.9873 -0.1585
vn -0.0050 0.9939 -0.1105
vn 0.0013 0.9729 -0.2310
vn 0.0162 0.9909 -0.1340
vn -0.0047 0.9642 -0.2651
vn -0.0134 0.9673 -0.2534
vn -0.0044 0.9999 -0.0167
vn -0.0425 0.9973 -0.0601
vn -0.0066 0.9999 -0.0105
vn -0.0084 0.9961 -0.0880
vn -0.2142 0.9379 -0.2728
vn -0.0946 0.9879 -0.1228
vn -0.0788 0.9201 -0.3838
vn -0.0069 0.9756 -0.2193
vn -0.0107 0.8942 -0.4475
vn 0.0033 0.9069 -0.4214
vn -0.0258 0.8992 -0.4367
vn 0.0664 0.9978 -0.0055
vn 0.1716 0.9852 -0.0016
vn 0.1538 0.9881 -0.0095
vn 0.0251 0.9997 0.0046
vn 0.0930 0.9957 0.0031
vn 0.1650 0.9856 0.0358
vn 0.0731 0.9972 0.0179
vn 0.2557 0.9663 0.0295
vn 0.2793 0.9602 -0.0061
vn 0.0136 0.9998 0.0162
vn 0.2471 0.9690 0.0018
vn 0.1145 0.9906 0.0743
vn 0.1304 0.9847 0.1156
vn 0.0534 0.9977 0.0423
vn -0.2381 0.9536 -0.1841
vn -0.2402 0.9482 -0.2079
vn -0.2487 0.9593 -0.1339
vn -0.1900 0.9577 -0.2161
vn -0.2206 0.9442 -0.2447
vn -0.2070 0.9621 -0.1776
vn -0.2173 0.9705 -0.1042
vn -0.2455 0.9591 -0.1411
vn -0.2531 0.9667 -0.0372
vn -0.1919 0.9353 -0.2973
vn -0.2054 0.9423 -0.2642
vn -0.2519 0.9678 -0.0008
vn -0.0790 0.9851 -0.1530
vn -0.1521 0.9514 -0.2678
vn -0.1177 0.9845 -0.1296
vn -0.2185 0.9757 0.0186
vn -0.1369 0.9883 -0.0667
vn -0.1031 0.9946 0.0122
vn -0.1315 0.9849 -0.1127
vn -0.2212 0.9296 0.2949
vn -0.3594 0.9148 0.1843
vn -0.3019 0.8892 0.3437
vn -0.1112 0.9774 0.1798
vn -0.2976 0.9370 0.1830
vn -0.3394 0.9400 0.0341
vn -0.2511 0.9640 0.0869
vn -0.1645 0.8841 0.4373
vn -0.2677 0.9236 0.2746
vn -0.0972 0.9630 0.2512
vn -0.1163 0.9097 0.3987
vn -0.3310 0.9269 0.1769
vn -0.0143 0.9999 -0.0030
vn -0.0181 0.9631 0.2686
vn 0.1136 0.9925 0.0456
vn -0.3154 0.9475 0.0522
vn -0.2566 0.9593 -0.1183
vn -0.1595 0.9847 -0.0707
vn -0.0111 0.9999 -0.0093
vn -0.0179 0.9994 0.0303
vn -0.0072 1.0000 0.0043
vn -0.0144 0.9996 -0.0245
vn -0.0130 0.9998 0.0141
vn -0.0212 0.9980 0.0598
vn -0.0156 0.9996 0.0215
vn -0.0040 1.0000 -0.0017
vn -0.0076 1.0000 0.0035
vn -0.0180 0.9997 -0.0139
vn -0.0314 0.9992 0.0241
vn -0.0199 0.9982 -0.0562
vn -0.0349 0.9981 -0.0501
vn -0.0093 0.9997 0.0243
vn -0.0633 0.9934 0.0952
vn -0.0270 0.9929 0.1161
vn -0.1081 0.9565 0.2711
vn -0.4155 0.8978 0.1460
vn -0.4210 0.8694 0.2586
vn -0.4696 0.8677 0.1629
vn -0.3174 0.8919 0.3221
vn -0.3613 0.8988 0.2483
vn -0.3819 0.8732 0.3029
vn -0.4283 0.8845 0.1852
vn -0.4938 0.8692 -0.0232
vn -0.2798 0.9549 0.0995
vn -0.5320 0.8467 0.0037
vn -0.1896 0.9568 0.2206
vn -0.2348 0.8832 0.4059
vn -0.2402 0.9547 0.1755
vn -0.4727 0.8812 -0.0044
vn -0.3319 0.9133 0.2359
vn -0.2741 0.9551 -0.1126
vn -0.2956 0.8818 0.3674
vn 0.0200 0.8020 -0.5970
vn 0.0386 0.8341 -0.5503
vn 0.0666 0.8320 -0.5508
vn 0.0480 0.8930 -0.4475
vn -0.0177 0.8200 -0.5721
vn -0.0591 0.8820 -0.4675
vn 0.1357 0.8958 -0.4232
vn 0.0030 0.8123 -0.5833
vn 0.0168 0.8237 -0.5668
vn 0.0537 0.8415 -0.5376
vn -0.0757 0.9717 -0.2240
vn -0.1198 0.8740 -0.4709
vn 0.0757 0.9750 -0.2088
vn -0.0363 0.8202 -0.5710
vn 0.1955 0.9703 -0.1423
vn 0.1257 0.9043 -0.4079
vn 0.1933 0.9509 0.2418
vn 0.1757 0.9380 0.2989
vn 0.1596 0.9420 0.2953
vn 0.2078 0.9480 0.2413
vn 0.2013 0.9494 0.2412
vn 0.1802 0.9327 0.3125
vn 0.1613 0.9363 0.3120
vn 0.2436 0.9646 0.1012
vn 0.1250 0.9724 0.1971
vn 0.1258 0.9893 0.0743
vn 0.2656 0.9599 0.0900
vn 0.1212 0.9644 0.2351
vn 0.2513 0.9329 0.2580
vn 0.2584 0.9646 0.0530
vn 0.3162 0.9484 -0.0253
vn 0.1325 0.9638 0.2312
vn 0.1395 0.9332 0.3312
vn 0.2005 0.9194 0.3383
vn 0.3169 0.9468 -0.0565
vn 0.3361 0.9418 -0.0072
vn 0.3374 0.9413 -0.0066
vn 0.2537 0.9672 0.0153
vn 0.3111 0.9487 -0.0571
vn 0.3060 0.9488 0.0789
vn 0.2933 0.9526 0.0810
vn 0.2413 0.9661 -0.0920
vn 0.2709 0.9533 -0.1331
vn 0.1571 0.9724 0.1727
vn 0.2419 0.9663 -0.0875
vn 0.1945 0.9484 0.2505
vn 0.2056 0.9444 0.2568
vn -0.0359 0.9957 -0.0849
vn -0.0349 0.9993 0.0112
vn -0.0184 0.9996 0.0193
vn -0.0577 0.9941 0.0920
vn -0.0603 0.9954 -0.0749
vn -0.1025 0.9947 -0.0044
vn -0.0275 0.9915 0.1270
vn -0.0826 0.9742 -0.2102
vn -0.1003 0.9884 0.1137
vn -0.1140 0.9772 -0.1794
vn -0.0867 0.9932 -0.0777
vn -0.0834 0.9743 0.2093
vn -0.1000 0.9721 -0.2121
vn -0.0654 0.9627 0.2624
vn -0.1316 0.9413 -0.3108
vn -0.1516 0.9193 -0.3631
vn -0.1348 0.9347 -0.3289
vn -0.1708 0.9249 -0.3396
vn -0.1592 0.9250 -0.3451
vn -0.1581 0.9161 -0.3685
vn -0.1467 0.9323 -0.3305
vn -0.1851 0.9315 -0.3132
vn -0.1362 0.9208 -0.3656
vn -0.0829 0.9389 -0.3339
vn 0.3348 0.9230 -0.1898
vn 0.3325 0.9369 -0.1083
vn 0.3506 0.9302 -0.1082
vn 0.2428 0.9642 -0.1069
vn 0.3036 0.9364 -0.1762
vn 0.3117 0.9488 -0.0502
vn 0.2950 0.9542 -0.0499
vn 0.2341 0.9282 -0.2893
vn 0.3065 0.9420 -0.1364
vn 0.2145 0.9250 -0.3136
vn 0.3419 0.9334 -0.1093
vn 0.1924 0.9790 0.0678
vn 0.1941 0.9476 -0.2536
vn 0.2976 0.9479 -0.1133
vn 0.1650 0.9854 0.0414
vn 0.1884 0.9780 0.0895
vn 0.0067 0.8458 -0.5335
vn 0.0450 0.8568 -0.5137
vn 0.0402 0.8659 -0.4986
vn 0.1007 0.8976 -0.4292
vn 0.0337 0.8525 -0.5217
vn 0.1104 0.8893 -0.4437
vn 0.1112 0.8996 -0.4222
vn 0.0099 0.9152 -0.4029
vn 0.0288 0.9256 -0.3775
vn 0.0807 0.9508 -0.2991
vn 0.3270 0.8885 -0.3220
vn 0.3520 0.8988 -0.2611
vn 0.3497 0.9021 -0.2528
vn 0.2963 0.9405 -0.1664
vn 0.3338 0.8929 -0.3022
vn 0.3343 0.9338 -0.1274
vn 0.3203 0.9415 -0.1050
vn 0.2744 0.9092 -0.3131
vn 0.2474 0.9453 -0.2128
vn 0.2912 0.8909 -0.3485
vn 0.2633 0.9462 -0.1882
vn 0.3078 0.9171 -0.2533
vn 0.2157 0.9738 -0.0716
vn -0.1140 0.9892 0.0927
vn -0.0577 0.9971 0.0496
vn -0.0444 0.9985 0.0336
vn -0.0880 0.9945 0.0575
vn -0.1138 0.9898 0.0862
vn -0.0247 0.9989 0.0393
vn -0.0096 0.9999 0.0133
vn -0.0449 0.9985 0.0313
vn 0.0004 1.0000 0.0075
vn -0.0053 0.9996 0.0287
vn 0.0862 0.9117 0.4018
vn 0.0150 0.8658 0.5001
vn 0.0993 0.9043 0.4152
vn 0.0424 0.9416 0.3340
vn 0.0160 0.8794 0.4758
vn -0.0730 0.8537 0.5156
vn -0.0329 0.8892 0.4564
vn 0.0745 0.9521 0.2966
vn 0.0170 0.9205 0.3905
vn -0.0310 0.9177 0.3960
vn 0.1703 0.9737 -0.1514
vn 0.2045 0.9488 -0.2408
vn 0.2305 0.9517 -0.2028
vn 0.1453 0.9665 -0.2115
vn 0.1452 0.9718 -0.1857
vn 0.2251 0.9528 -0.2039
vn 0.2056 0.9455 -0.2523
vn 0.0386 0.9985 0.0378
vn 0.0800 0.9546 -0.2868
vn -0.0240 0.9976 -0.0642
vn 0.1661 0.9478 -0.2722
vn 0.0055 0.9999 -0.0162
vn 0.1703 0.9691 -0.1784
vn 0.0969 0.9871 0.1277
vn 0.0408 0.9960 0.0792
vn 0.0730 0.9871 0.1427
vn 0.0125 0.9995 0.0295
vn 0.0445 0.9971 0.0620
vn 0.0258 0.9977 0.0632
vn 0.0604 0.9898 0.1291
vn 0.0072 0.9997 0.0217
vn 0.0612 0.9933 0.0979
vn 0.0263 0.9981 0.0551
vn -0.0199 0.9460 -0.3236
vn 0.2412 0.8681 -0.4338
vn 0.0670 0.8877 -0.4556
vn -0.0599 0.9923 -0.1081
vn 0.1309 0.9347 -0.3303
vn 0.1718 0.9736 -0.1503
vn 0.3476 0.9078 -0.2346
vn 0.1681 0.8888 -0.4262
vn 0.2736 0.8479 -0.4541
vn -0.0460 0.9895 0.1367
vn 0.3251 0.8920 -0.3142
vn 0.3216 0.9457 0.0480
vn 0.1843 0.9768 0.1090
vn 0.2571 0.8679 -0.4250
vn 0.2261 0.9057 -0.3586
vn 0.2439 0.8895 -0.3865
vn 0.2751 0.8803 -0.3865
vn 0.2382 0.8832 -0.4041
vn 0.2299 0.9142 -0.3338
vn 0.2517 0.8881 -0.3845
vn 0.2341 0.9372 -0.2585
vn 0.2314 0.9390 -0.2545
vn 0.2087 0.9512 -0.2271
vn 0.2964 0.9477 -0.1186
vn 0.2187 0.9697 -0.1089
vn 0.2665 0.9587 -0.0988
vn 0.2922 0.9422 -0.1637
vn 0.2564 0.9580 -0.1286
vn 0.1821 0.9725 -0.1452
vn 0.2458 0.9555 -0.1634
vn -0.1771 0.9732 0.1470
vn -0.2233 0.9356 0.2733
vn -0.2599 0.9367 0.2347
vn -0.1308 0.9691 0.2091
vn -0.1481 0.9725 0.1799
vn -0.2523 0.9305 0.2656
vn -0.2016 0.9296 0.3084
vn -0.2448 0.9678 0.0593
vn -0.3160 0.9407 0.1235
vn -0.0290 0.9525 0.3031
vn -0.3236 0.9361 0.1377
vn -0.1867 0.9399 0.2858
vn -0.1311 0.9295 0.3447
vn -0.2935 0.9556 -0.0248
vn -0.3774 0.9237 -0.0653
vn -0.3102 0.9496 -0.0456
vn -0.3897 0.9185 -0.0666
vn -0.3648 0.9309 -0.0149
vn -0.3812 0.9244 -0.0142
vn -0.3174 0.9482 -0.0112
vn -0.1190 0.9928 0.0114
vn -0.1400 0.9898 0.0259
vn -0.1533 0.9842 0.0885
vn 0.0434 0.9937 0.1036
vn 0.1336 0.9714 0.1964
vn 0.1243 0.9687 0.2149
vn 0.0458 0.9766 0.2101
vn 0.0482 0.9905 0.1288
vn 0.1491 0.9526 0.2653
vn 0.1525 0.9422 0.2984
vn -0.0272 0.9857 0.1666
vn 0.0279 0.9600 0.2786
vn 0.0551 0.9324 0.3572
vn -0.2718 0.9482 0.1642
vn -0.2222 0.9616 0.1613
vn -0.2423 0.9512 0.1910
vn -0.2691 0.9590 0.0892
vn -0.2501 0.9566 0.1498
vn -0.2290 0.9675 0.1070
vn -0.2512 0.9626 0.1018
vn -0.1509 0.9774 0.1477
vn -0.1560 0.9803 0.1212
vn -0.1522 0.9843 0.0892
vn -0.0483 0.9131 0.4048
vn -0.0978 0.9222 0.3741
vn -0.0720 0.9375 0.3404
vn -0.0794 0.9256 0.3701
vn -0.0853 0.9041 0.4187
vn -0.0961 0.9455 0.3111
vn -0.0874 0.9614 0.2611
vn -0.0270 0.8863 0.4624
vn -0.1050 0.8979 0.4276
vn -0.0768 0.8812 0.4665
vn -0.0450 0.9984 -0.0349
vn -0.0289 0.9992 -0.0289
vn -0.0132 0.9997 -0.0212
vn -0.0589 0.9970 -0.0496
vn -0.0585 0.9969 -0.0521
vn -0.0251 0.9995 -0.0180
vn -0.0051 1.0000 -0.0068
vn -0.0225 0.9996 -0.0178
vn -0.0036 0.9999 -0.0144
vn 0.0000 1.0000 -0.0037
vn 0.0018 0.9985 0.0540
vn -0.0008 0.9999 0.0103
vn 0.0007 0.9999 0.0147
vn 0.0004 0.9941 0.1083
vn 0.0006 0.9992 0.0389
vn 0.0008 0.9999 0.0137
vn 0.0013 0.9985 0.0553
vn 0.0031 0.9999 0.0111
vn 0.0046 0.9977 0.0672
vn -0.0099 0.9850 0.1723
vn -0.0398 0.9957 0.0841
vn -0.0049 1.0000 0.0055
vn -0.0212 0.9993 0.0322
vn -0.0145 0.9999 0.0082
vn -0.0493 0.9983 0.0314
vn -0.0319 0.9992 0.0227
vn -0.0879 0.9942 0.0623
vn -0.0429 0.9988 0.0240
vn -0.0862 0.9943 0.0632
vn -0.0762 0.9956 0.0549
vn -0.0034 1.0000 0.0040
vn -0.0217 0.9996 0.0163
vn -0.0595 0.9977 0.0336
vn -0.0003 0.9999 -0.0112
vn 0.0019 0.9973 -0.0733
vn 0.0002 0.9998 -0.0187
vn -0.0010 0.9972 -0.0749
vn 0.0002 0.9998 -0.0185
vn 0.0016 0.9864 -0.1642
vn 0.0008 0.9987 -0.0518
vn 0.0039 0.9999 -0.0137
vn 0.0082 0.9969 -0.0788
vn 0.0085 0.9785 -0.2063
vn -0.4928 0.8466 -0.2011
vn -0.5712 0.7917 -0.2168
vn -0.5677 0.8106 -0.1438
vn -0.5579 0.7994 -0.2228
vn -0.5013 0.8148 -0.2911
vn -0.4868 0.8206 -0.2994
vn -0.5690 0.8108 -0.1371
vn -0.3135 0.8790 -0.3592
vn -0.3808 0.9003 -0.2105
vn -0.3216 0.8540 -0.4090
vn -0.4463 0.8764 -0.1810
vn -0.3344 0.8445 -0.4182
vn -0.4116 0.9008 -0.1382
vn 0.0371 0.9985 0.0411
vn 0.0394 0.9979 0.0511
vn 0.0241 0.9993 0.0288
vn 0.0582 0.9950 0.0815
vn 0.0510 0.9965 0.0670
vn 0.0361 0.9979 0.0540
vn 0.0172 0.9995 0.0259
vn 0.0317 0.9995 -0.0028
vn 0.0143 0.9998 0.0137
vn 0.0549 0.9985 0.0054
vn 0.0496 0.9987 0.0070
vn 0.0103 0.9999 0.0119
vn 0.0643 0.9979 0.0127
vn 0.0067 0.9999 0.0097
vn 0.0012 1.0000 0.0013
vn 0.0013 1.0000 0.0014
vn 0.0004 1.0000 0.0003
vn 0.0043 1.0000 0.0044
vn 0.0045 1.0000 0.0041
vn 0.0027 1.0000 0.0035
vn 0.0019 1.0000 0.0021
vn 0.0007 1.0000 0.0008
vn 0.0061 1.0000 0.0052
vn 0.0985 0.9932 -0.0627
vn 0.0811 0.9936 -0.0781
vn 0.1413 0.9837 -0.1113
vn 0.0383 0.9984 -0.0404
vn 0.0634 0.9960 -0.0631
vn 0.0645 0.9963 -0.0574
vn 0.1377 0.9844 -0.1099
vn 0.0178 0.9997 -0.0140
vn 0.0993 0.9921 -0.0763
vn 0.0449 0.9985 -0.0315
vn 0.0045 1.0000 -0.0032
vn 0.0297 0.9994 -0.0194
vn 0.0095 0.9999 -0.0073
vn 0.0248 0.9996 -0.0161
vn 0.0062 1.0000 -0.0038
vn 0.0602 0.9974 -0.0394
vn 0.0183 0.9998 -0.0118
vn 0.0042 1.0000 -0.0039
vn 0.0005 1.0000 -0.0006
vn -0.0134 0.9327 0.3604
vn 0.0430 0.9666 0.2525
vn 0.0715 0.9599 0.2713
vn -0.0753 0.9420 0.3271
vn -0.0429 0.9412 0.3352
vn -0.0164 0.9789 0.2037
vn -0.0926 0.9515 0.2934
vn 0.0105 0.9858 -0.1674
vn -0.0047 0.9917 -0.1289
vn 0.0104 0.9765 -0.2153
vn -0.0036 0.9993 -0.0384
vn -0.0066 0.9947 -0.1028
vn 0.0053 0.9957 -0.0925
vn 0.0123 0.9756 -0.2193
vn -0.0012 1.0000 0.0008
vn -0.0018 1.0000 0.0083
vn -0.0081 0.9999 0.0070
vn -0.0002 1.0000 0.0036
vn -0.0006 1.0000 0.0018
vn -0.0049 0.9999 0.0164
vn -0.0222 0.9996 0.0148
vn 0.0008 0.9995 0.0312
vn -0.0001 0.9929 0.1188
vn 0.0021 0.9960 0.0896
vn 0.0249 0.9889 0.1464
vn 0.0033 0.9963 0.0856
vn 0.0096 0.9771 0.2127
vn -0.0016 0.9767 0.2148
vn -0.0029 1.0000 -0.0081
vn -0.0048 1.0000 -0.0035
vn -0.0123 0.9999 -0.0075
vn -0.0002 1.0000 -0.0018
vn -0.0012 1.0000 -0.0041
vn -0.0007 1.0000 -0.0005
vn -0.0003 1.0000 -0.0009
vn -0.0309 0.9995 0.0041
vn -0.0121 0.9999 0.0030
vn -0.0024 1.0000 0.0004
vn -0.0026 1.0000 0.0016
vn -0.0155 0.9998 0.0081
vn -0.0040 1.0000 0.0022
vn -0.0175 0.9998 0.0108
vn -0.0044 1.0000 0.0026
vn -0.0361 0.9991 0.0199
vn -0.0120 0.9999 0.0070
vn -0.0797 0.8625 0.4998
vn -0.1876 0.8814 0.4336
vn -0.1483 0.8670 0.4758
vn -0.0247 0.8668 0.4980
vn -0.1077 0.8697 0.4817
vn -0.1974 0.9134 0.3560
vn -0.0882 0.8867 0.4538
vn 0.0478 0.8793 0.4739
vn -0.1512 0.9585 0.2419
vn -0.0304 0.9121 0.4089
vn -0.0871 0.9365 -0.3396
vn 0.0779 0.9543 -0.2886
vn 0.0132 0.9363 -0.3510
vn -0.1694 0.9468 -0.2737
vn -0.0280 0.9556 -0.2934
vn 0.0729 0.9826 -0.1708
vn -0.0706 0.9735 -0.2175
vn -0.0333 0.9916 0.1249
vn 0.1234 0.9441 0.3058
vn 0.1046 0.9892 0.1028
vn 0.1276 0.8880 0.4418
vn 0.0522 0.9357 0.3490
vn 0.1916 0.9151 0.3548
vn 0.2265 0.9603 0.1627
vn 0.2710 0.9205 0.2817
vn 0.1424 0.9243 0.3540
vn 0.1998 0.9110 0.3607
vn -0.0382 0.9561 0.2905
vn 0.1610 0.9435 0.2896
vn 0.0136 0.9328 0.3601
vn 0.0833 0.9190 0.3854
vn -0.0147 0.8235 -0.5672
vn -0.0629 0.8219 -0.5662
vn -0.0414 0.8248 -0.5639
vn -0.1422 0.8504 -0.5065
vn -0.0469 0.8326 -0.5519
vn -0.1345 0.8612 -0.4901
vn -0.1575 0.8398 -0.5195
vn -0.2701 0.9577 -0.0989
vn -0.0961 0.9946 -0.0389
vn -0.2229 0.9704 -0.0928
vn -0.2428 0.9661 -0.0877
vn -0.1613 0.9857 -0.0480
vn -0.0458 0.9989 -0.0125
vn -0.1441 0.9888 -0.0376
s 1
f 275/1/1 274/2/2 280/3/3
f 277/4/4 274/2/2 276/5/5
f 280/3/3 278/6/6 279/7/7
f 124/8/8 184/9/9 20/10/10
f 125/11/11 275/1/1 124/8/8
f 184/9/9 280/3/3 185/12/12
f 21/13/13 277/4/4 126/14/14
f 123/15/15 278/6/6 277/4/4
f 126/14/14 276/5/5 125/11/11
f 186/16/16 121/17/17 19/18/18
f 185/12/12 279/7/7 186/16/16
f 279/7/7 122/19/19 121/17/17
f 282/20/20 281/21/21 287/22/22
f 284/23/23 281/21/21 283/24/24
f 287/22/22 285/25/25 286/26/26
f 8/27/27 282/20/20 232/28/28
f 209/29/29 282/20/20 208/30/30
f 232/28/28 287/22/22 233/31/31
f 1/32/32 284/23/23 210/33/33
f 57/34/34 285/25/25 284/23/23
f 210/33/33 283/24/24 209/29/29
f 234/35/35 55/36/36 29/37/37
f 233/31/31 286/26/26 234/35/35
f 286/26/26 56/38/38 55/36/36
f 290/39/39 294/40/40 289/41/41
f 291/42/42 288/43/43 290/39/39
f 294/40/40 292/44/44 293/45/45
f 246/46/46 45/47/27 10/48/27
f 245/49/47 289/41/41 246/46/46
f 289/41/41 44/50/27 45/47/27
f 24/51/48 291/42/42 244/52/49
f 222/53/50 292/44/44 291/42/42
f 244/52/49 290/39/39 245/49/47
f 43/54/27 220/55/51 11/56/27
f 44/50/27 293/45/45 43/54/27
f 293/45/45 221/57/52 220/55/51
f 296/58/53 295/59/54 301/60/55
f 299/61/56 297/62/57 298/63/58
f 300/64/59 295/59/54 299/61/56
f 6/65/27 296/58/53 213/66/60
f 225/67/61 297/62/57 296/58/53
f 296/58/53 212/68/62 213/66/60
f 162/69/63 223/70/64 27/71/65
f 161/72/66 298/63/58 162/69/63
f 298/63/58 224/73/67 223/70/64
f 12/74/68 300/64/59 160/75/69
f 211/76/70 301/60/55 300/64/59
f 160/75/69 299/61/56 161/72/66
f 304/77/71 308/78/72 303/79/73
f 305/80/74 302/81/75 304/77/71
f 307/82/76 302/81/75 306/83/77
f 133/84/78 187/85/79 19/18/18
f 134/86/80 303/79/73 133/84/78
f 303/79/73 188/87/81 187/85/79
f 129/88/82 135/89/83 22/90/84
f 128/91/85 305/80/74 129/88/82
f 135/89/83 304/77/71 134/86/80
f 14/92/86 307/82/76 127/93/87
f 189/94/88 308/78/72 307/82/76
f 127/93/87 306/83/77 128/91/85
f 310/95/89 309/96/90 315/97/91
f 312/98/92 309/96/90 311/99/93
f 315/97/91 313/100/94 314/101/95
f 11/56/27 310/95/89 217/102/96
f 116/103/97 310/95/89 115/104/98
f 217/102/96 315/97/91 218/105/99
f 30/106/100 312/98/92 117/107/101
f 268/108/102 313/100/94 312/98/92
f 117/107/101 311/99/93 116/103/97
f 219/109/103 270/110/104 23/111/105
f 218/105/99 314/101/95 219/109/103
f 314/101/95 269/112/106 270/110/104
f 318/113/107 322/114/108 317/115/109
f 319/116/110 316/117/111 318/113/107
f 321/118/112 316/117/111 320/119/113
f 160/75/69 88/120/114 12/74/68
f 161/72/66 317/115/109 160/75/69
f 317/115/109 89/121/115 88/120/114
f 27/71/65 319/116/110 162/69/63
f 165/122/116 320/119/113 319/116/110
f 162/69/63 318/113/107 161/72/66
f 90/123/117 163/124/118 15/125/119
f 90/123/117 322/114/108 321/118/112
f 163/124/118 320/119/113 164/126/120
f 324/127/121 323/128/122 329/129/123
f 326/130/124 323/128/122 325/131/125
f 329/129/123 327/132/126 328/133/127
f 16/134/128 324/127/121 190/135/129
f 104/136/130 324/127/121 105/137/131
f 190/135/129 329/129/123 191/138/132
f 18/139/133 326/130/124 103/140/134
f 106/141/135 327/132/126 326/130/124
f 103/140/134 325/131/125 104/136/130
f 192/142/136 108/143/137 17/144/138
f 191/138/132 328/133/127 192/142/136
f 328/133/127 107/145/139 108/143/137
f 332/146/140 336/147/141 331/148/142
f 333/149/143 330/150/144 332/146/140
f 335/151/145 330/150/144 334/152/146
f 151/153/147 97/154/148 7/155/149
f 152/156/150 331/148/142 151/153/147
f 331/148/142 98/157/151 97/154/148
f 159/158/152 153/159/153 26/160/154
f 159/158/152 334/152/146 333/149/143
f 153/159/153 332/146/140 152/156/150
f 99/161/155 157/162/156 16/134/128
f 99/161/155 336/147/141 335/151/145
f 335/151/145 158/163/157 157/162/156
f 339/164/158 343/165/159 338/166/160
f 340/167/161 337/168/162 339/164/158
f 342/169/163 337/168/162 341/170/164
f 198/171/165 145/172/166 4/173/27
f 197/174/167 338/166/160 198/171/165
f 338/166/160 146/175/168 145/172/166
f 238/176/169 196/177/170 18/139/133
f 239/178/171 340/167/161 238/176/169
f 196/177/170 339/164/158 197/174/167
f 147/179/172 240/180/173 25/181/174
f 147/179/172 343/165/159 342/169/163
f 240/180/173 341/170/164 239/178/171
f 345/182/175 344/183/176 350/184/177
f 347/185/178 344/183/176 346/186/179
f 350/184/177 348/187/180 349/188/181
f 24/51/48 345/182/175 144/189/182
f 150/190/183 346/186/179 345/182/175
f 144/189/182 350/184/177 143/191/184
f 25/181/174 347/185/178 148/192/185
f 256/193/186 348/187/180 347/185/178
f 148/192/185 346/186/179 149/194/187
f 142/195/188 258/196/189 3/197/190
f 143/191/184 349/188/181 142/195/188
f 349/188/181 257/198/191 258/196/189
f 352/199/192 351/200/193 357/201/194
f 355/202/195 353/203/196 354/204/197
f 356/205/198 351/200/193 355/202/195
f 58/206/199 138/207/200 23/111/105
f 58/206/199 353/203/196 352/199/192
f 352/199/192 137/208/201 138/207/200
f 262/209/202 60/210/203 3/197/190
f 263/211/204 354/204/197 262/209/202
f 354/204/197 59/212/205 60/210/203
f 22/90/84 356/205/198 264/213/206
f 136/214/207 357/201/194 356/205/198
f 264/213/206 355/202/195 263/211/204
f 359/215/208 358/216/209 364/217/210
f 361/218/211 358/216/209 360/219/212
f 364/217/210 362/220/213 363/221/214
f 141/222/215 93/223/216 5/224/217
f 140/225/218 359/215/208 141/222/215
f 93/223/216 364/217/210 92/226/219
f 265/227/220 139/228/221 28/229/222
f 265/227/220 362/220/213 361/218/211
f 139/228/221 360/219/212 140/225/218
f 91/230/223 267/231/224 15/125/119
f 92/226/219 363/221/214 91/230/223
f 363/221/214 266/232/225 267/231/224
f 366/233/226 365/234/227 371/235/228
f 368/236/229 365/234/227 367/237/230
f 370/238/231 365/234/227 369/239/232
f 96/240/233 90/123/117 15/125/119
f 95/241/234 366/233/226 96/240/233
f 366/233/226 89/121/115 90/123/117
f 154/242/235 94/243/236 26/160/154
f 155/244/237 368/236/229 154/242/235
f 368/236/229 95/241/234 94/243/236
f 12/74/68 370/238/231 156/245/238
f 88/120/114 371/235/228 370/238/231
f 156/245/238 369/239/232 155/244/237
f 373/246/239 372/247/240 378/248/241
f 376/249/242 374/250/243 375/251/244
f 377/252/245 372/247/240 376/249/242
f 18/139/133 373/246/239 238/176/169
f 109/253/246 374/250/243 373/246/239
f 238/176/169 378/248/241 239/178/171
f 195/254/247 111/255/248 13/256/249
f 194/257/250 375/251/244 195/254/247
f 375/251/244 110/258/251 111/255/248
f 240/180/173 193/259/252 25/181/174
f 239/178/171 377/252/245 240/180/173
f 193/259/252 376/249/242 194/257/250
f 380/260/253 379/261/254 385/262/255
f 382/263/256 379/261/254 381/264/257
f 385/262/255 383/265/258 384/266/259
f 103/140/134 109/253/246 18/139/133
f 104/136/130 380/260/253 103/140/134
f 380/260/253 110/258/251 109/253/246
f 67/267/260 105/137/131 16/134/128
f 68/268/261 382/263/256 67/267/260
f 382/263/256 104/136/130 105/137/131
f 111/255/248 69/269/262 13/256/249
f 110/258/251 384/266/259 111/255/248
f 384/266/259 68/268/261 69/269/262
f 387/270/263 386/271/264 392/272/265
f 389/273/266 386/271/264 388/274/267
f 391/275/268 386/271/264 390/276/269
f 87/277/270 120/278/271 1/32/32
f 86/279/272 387/270/263 87/277/270
f 120/278/271 392/272/265 119/280/273
f 235/281/274 85/282/275 22/90/84
f 235/281/274 390/276/269 389/273/266
f 85/282/275 388/274/267 86/279/272
f 118/283/276 237/284/277 21/13/13
f 119/280/273 391/275/268 118/283/276
f 391/275/268 236/285/278 237/284/277
f 394/286/279 393/287/280 399/288/281
f 396/289/282 393/287/280 395/290/283
f 399/288/281 397/291/284 398/292/285
f 23/111/105 394/286/279 132/293/286
f 138/207/200 395/290/283 394/286/279
f 132/293/286 399/288/281 131/294/287
f 85/282/275 136/214/207 22/90/84
f 85/282/275 397/291/284 396/289/282
f 396/289/282 137/208/201 136/214/207
f 130/295/288 87/277/270 1/32/32
f 131/294/287 398/292/285 130/295/288
f 398/292/285 86/279/272 87/277/270
f 401/296/289 400/297/290 406/298/291
f 403/299/292 400/297/290 402/300/293
f 406/298/291 404/301/294 405/302/295
f 177/303/296 174/304/297 29/37/37
f 176/305/298 401/296/289 177/303/296
f 174/304/297 406/298/291 173/306/299
f 139/228/221 175/307/300 28/229/222
f 139/228/221 404/301/294 403/299/292
f 175/307/300 402/300/293 176/305/298
f 172/308/301 141/222/215 5/224/217
f 173/306/299 405/302/295 172/308/301
f 405/302/295 140/225/218 141/222/215
f 408/309/302 407/310/303 413/311/304
f 410/312/305 407/310/303 409/313/306
f 413/311/304 411/314/307 412/315/308
f 148/192/185 147/179/172 25/181/174
f 149/194/187 408/309/302 148/192/185
f 147/179/172 413/311/304 146/175/168
f 24/51/48 410/312/305 150/190/183
f 61/316/309 411/314/307 410/312/305
f 150/190/183 409/313/306 149/194/187
f 145/172/166 63/317/310 4/173/27
f 146/175/168 412/315/308 145/172/166
f 412/315/308 62/318/311 63/317/310
f 416/319/312 420/320/313 415/321/314
f 417/322/315 414/323/316 416/319/312
f 419/324/317 414/323/316 418/325/318
f 156/245/238 48/326/319 12/74/68
f 155/244/237 415/321/314 156/245/238
f 415/321/314 47/327/320 48/326/319
f 26/160/154 417/322/315 154/242/235
f 153/159/153 418/325/318 417/322/315
f 154/242/235 416/319/312 155/244/237
f 46/328/321 151/153/147 7/155/149
f 46/328/321 420/320/313 419/324/317
f 419/324/317 152/156/150 151/153/147
f 422/329/322 421/330/323 427/331/324
f 424/332/325 421/330/323 423/333/326
f 426/334/327 421/330/323 425/335/328
f 73/336/329 96/240/233 15/125/119
f 73/336/329 423/333/326 422/329/322
f 96/240/233 427/331/324 95/241/234
f 259/337/330 75/338/331 13/256/249
f 260/339/332 424/332/325 259/337/330
f 424/332/325 74/340/333 75/338/331
f 94/243/236 261/341/334 26/160/154
f 95/241/234 426/334/327 94/243/236
f 426/334/327 260/339/332 261/341/334
f 429/342/335 428/343/336 434/344/337
f 431/345/338 428/343/336 430/346/339
f 434/344/337 432/347/340 433/348/341
f 163/124/118 91/230/223 15/125/119
f 164/126/120 429/342/335 163/124/118
f 91/230/223 434/344/337 92/226/219
f 27/71/65 431/345/338 165/122/116
f 49/349/342 432/347/340 431/345/338
f 165/122/116 430/346/339 164/126/120
f 93/223/216 51/350/343 5/224/217
f 92/226/219 433/348/341 93/223/216
f 433/348/341 50/351/344 51/350/343
f 437/352/345 441/353/346 436/354/347
f 438/355/348 435/356/349 437/352/345
f 441/353/346 439/357/350 440/358/351
f 126/14/14 166/359/352 21/13/13
f 125/11/11 436/354/347 126/14/14
f 436/354/347 167/360/353 166/359/352
f 20/10/10 438/355/348 124/8/8
f 169/361/354 439/357/350 438/355/348
f 124/8/8 437/352/345 125/11/11
f 168/362/355 171/363/356 28/229/222
f 167/360/353 440/358/351 168/362/355
f 440/358/351 170/364/357 171/363/356
f 444/365/358 448/366/359 443/367/360
f 445/368/361 442/369/362 444/365/358
f 447/370/363 442/369/362 446/371/364
f 166/359/352 178/372/365 21/13/13
f 167/360/353 443/367/360 166/359/352
f 443/367/360 179/373/366 178/372/365
f 175/307/300 168/362/355 28/229/222
f 176/305/298 445/368/361 175/307/300
f 168/362/355 444/365/358 167/360/353
f 29/37/37 447/370/363 177/303/296
f 180/374/367 448/366/359 447/370/363
f 177/303/296 446/371/364 176/305/298
f 451/375/368 455/376/369 450/377/370
f 452/378/371 449/379/372 451/375/368
f 454/380/373 449/379/372 453/381/374
f 120/278/271 57/34/34 1/32/32
f 119/280/273 450/377/370 120/278/271
f 450/377/370 56/38/38 57/34/34
f 178/372/365 118/283/276 21/13/13
f 179/373/366 452/378/371 178/372/365
f 118/283/276 451/375/368 119/280/273
f 55/36/36 180/374/367 29/37/37
f 55/36/36 455/376/369 454/380/373
f 180/374/367 453/381/374 179/373/366
f 457/382/375 456/383/376 462/384/377
f 459/385/378 456/383/376 458/386/379
f 461/387/380 456/383/376 460/388/381
f 75/338/331 72/389/382 13/256/249
f 74/340/333 457/382/375 75/338/331
f 457/382/375 71/390/383 72/389/382
f 181/391/384 73/336/329 15/125/119
f 181/391/384 460/388/381 459/385/378
f 459/385/378 74/340/333 73/336/329
f 70/392/385 183/393/386 20/10/10
f 70/392/385 462/384/377 461/387/380
f 461/387/380 182/394/387 183/393/386
f 464/395/388 463/396/389 469/397/390
f 467/398/391 465/399/392 466/400/393
f 468/401/394 463/396/389 467/398/391
f 72/389/382 112/402/395 13/256/249
f 72/389/382 465/399/392 464/395/388
f 464/395/388 113/403/396 112/402/395
f 184/9/9 70/392/385 20/10/10
f 185/12/12 466/400/393 184/9/9
f 466/400/393 71/390/383 70/392/385
f 19/18/18 468/401/394 186/16/16
f 114/404/397 469/397/390 468/401/394
f 186/16/16 467/398/391 185/12/12
f 471/405/398 470/406/399 476/407/400
f 473/408/401 470/406/399 472/409/402
f 476/407/400 474/410/403 475/411/404
f 112/402/395 79/412/405 13/256/249
f 113/403/396 471/405/398 112/402/395
f 79/412/405 476/407/400 80/413/406
f 19/18/18 473/408/401 114/404/397
f 187/85/79 474/410/403 473/408/401
f 114/404/397 472/409/402 113/403/396
f 81/414/407 189/94/88 14/92/86
f 80/413/406 475/411/404 81/414/407
f 475/411/404 188/87/81 189/94/88
f 479/415/408 483/416/409 478/417/410
f 480/418/411 477/419/412 479/415/408
f 482/420/413 477/419/412 481/421/414
f 97/154/148 54/422/415 7/155/149
f 98/157/151 478/417/410 97/154/148
f 478/417/410 53/423/416 54/422/415
f 190/135/129 99/161/155 16/134/128
f 191/138/132 480/418/411 190/135/129
f 480/418/411 98/157/151 99/161/155
f 52/424/417 192/142/136 17/144/138
f 52/424/417 483/416/409 482/420/413
f 482/420/413 191/138/132 192/142/136
f 485/425/418 484/426/419 490/427/420
f 487/428/421 484/426/419 486/429/422
f 490/427/420 488/430/423 489/431/424
f 14/92/86 485/425/418 81/414/407
f 84/432/425 486/429/422 485/425/418
f 81/414/407 490/427/420 80/413/406
f 193/259/252 82/433/426 25/181/174
f 194/257/250 487/428/421 193/259/252
f 487/428/421 83/434/427 82/433/426
f 79/412/405 195/254/247 13/256/249
f 80/413/406 489/431/424 79/412/405
f 489/431/424 194/257/250 195/254/247
f 492/435/428 491/436/429 497/437/430
f 494/438/431 491/436/429 493/439/432
f 497/437/430 495/440/433 496/441/434
f 17/144/138 492/435/428 102/442/435
f 108/143/137 493/439/432 492/435/428
f 102/442/435 497/437/430 101/443/436
f 196/177/170 106/141/135 18/139/133
f 197/174/167 494/438/431 196/177/170
f 494/438/431 107/145/139 106/141/135
f 100/444/437 198/171/165 4/173/27
f 101/443/436 496/441/434 100/444/437
f 496/441/434 197/174/167 198/171/165
f 500/445/438 504/446/439 499/447/440
f 501/448/441 498/449/442 500/445/438
f 503/450/443 498/449/442 502/451/444
f 249/452/445 66/453/27 6/65/27
f 248/454/446 499/447/440 249/452/445
f 499/447/440 65/455/27 66/453/27
f 7/155/149 501/448/441 247/456/447
f 204/457/448 502/451/444 501/448/441
f 247/456/447 500/445/438 248/454/446
f 64/458/27 202/459/449 2/460/27
f 64/458/27 504/446/439 503/450/443
f 503/450/443 203/461/450 202/459/449
f 506/462/451 505/463/452 511/464/453
f 508/465/454 505/463/452 507/466/455
f 511/464/453 509/467/456 510/468/457
f 2/460/27 506/462/451 253/469/458
f 203/461/450 506/462/451 202/459/449
f 253/469/458 511/464/453 254/470/459
f 54/422/415 204/457/448 7/155/149
f 54/422/415 509/467/456 508/465/454
f 204/457/448 507/466/455 203/461/450
f 255/471/460 52/424/417 17/144/138
f 254/470/459 510/468/457 255/471/460
f 510/468/457 53/423/416 52/424/417
f 514/472/461 518/473/462 513/474/463
f 516/475/464 514/472/461 515/476/465
f 517/477/466 512/478/467 516/475/464
f 40/479/27 241/480/468 8/27/27
f 41/481/27 513/474/463 40/479/27
f 513/474/463 242/482/469 241/480/468
f 217/102/96 42/483/27 11/56/27
f 218/105/99 515/476/465 217/102/96
f 515/476/465 41/481/27 42/483/27
f 23/111/105 517/477/466 219/109/103
f 243/484/470 518/473/462 517/477/466
f 219/109/103 516/475/464 218/105/99
f 520/485/471 519/486/472 525/487/473
f 523/488/474 521/489/475 522/490/476
f 524/491/477 519/486/472 523/488/474
f 3/197/190 520/485/471 142/195/188
f 201/492/478 521/489/475 520/485/471
f 142/195/188 525/487/473 143/191/184
f 273/493/479 199/494/480 30/106/100
f 272/495/481 522/490/476 273/493/479
f 522/490/476 200/496/482 199/494/480
f 144/189/182 271/497/483 24/51/48
f 143/191/184 524/491/477 144/189/182
f 271/497/483 523/488/474 272/495/481
f 527/498/484 526/499/485 532/500/486
f 529/501/487 526/499/485 528/502/488
f 532/500/486 530/503/489 531/504/490
f 9/505/491 527/498/484 226/506/492
f 215/507/493 527/498/484 216/508/494
f 226/506/492 532/500/486 227/509/495
f 5/224/217 529/501/487 214/510/496
f 51/350/343 530/503/489 529/501/487
f 214/510/496 528/502/488 215/507/493
f 228/511/497 49/349/342 27/71/65
f 227/509/495 531/504/490 228/511/497
f 531/504/490 50/351/344 49/349/342
f 535/512/498 539/513/499 534/514/500
f 537/515/501 535/512/498 536/516/502
f 538/517/503 533/518/504 537/515/501
f 31/519/27 225/67/61 6/65/27
f 32/520/505 534/514/500 31/519/27
f 534/514/500 224/73/67 225/67/61
f 226/506/492 33/521/506 9/505/491
f 227/509/495 536/516/502 226/506/492
f 536/516/502 32/520/505 33/521/506
f 27/71/65 538/517/503 228/511/497
f 223/70/64 539/513/499 538/517/503
f 228/511/497 537/515/501 227/509/495
f 541/522/507 540/523/508 546/524/509
f 543/525/510 540/523/508 542/526/511
f 546/524/509 544/527/512 545/528/513
f 5/224/217 541/522/507 172/308/301
f 214/510/496 542/526/511 541/522/507
f 172/308/301 546/524/509 173/306/299
f 9/505/491 543/525/510 216/508/494
f 229/529/514 544/527/512 543/525/510
f 543/525/510 215/507/493 216/508/494
f 174/304/297 231/530/515 29/37/37
f 173/306/299 545/528/513 174/304/297
f 545/528/513 230/531/516 231/530/515
f 549/532/517 553/533/518 548/534/519
f 551/535/520 549/532/517 550/536/521
f 552/537/522 547/538/523 551/535/520
f 37/539/524 229/529/514 9/505/491
f 38/540/525 548/534/519 37/539/524
f 548/534/519 230/531/516 229/529/514
f 232/28/28 39/541/27 8/27/27
f 233/31/31 550/536/521 232/28/28
f 550/536/521 38/540/525 39/541/27
f 29/37/37 552/537/522 234/35/35
f 231/530/515 553/533/518 552/537/522
f 234/35/35 551/535/520 233/31/31
f 556/542/526 560/543/527 555/544/528
f 557/545/529 554/546/530 556/542/526
f 559/547/531 554/546/530 558/548/532
f 135/89/83 235/281/274 22/90/84
f 134/86/80 555/544/528 135/89/83
f 555/544/528 236/285/278 235/281/274
f 19/18/18 557/545/529 133/84/78
f 121/17/17 558/548/532 557/545/529
f 133/84/78 556/542/526 134/86/80
f 237/284/277 123/15/15 21/13/13
f 237/284/277 560/543/527 559/547/531
f 559/547/531 122/19/19 123/15/15
f 562/549/533 561/550/534 567/551/535
f 564/552/536 561/550/534 563/553/537
f 567/551/535 565/554/538 566/555/539
f 1/32/32 562/549/533 130/295/288
f 210/33/33 563/553/537 562/549/533
f 130/295/288 567/551/535 131/294/287
f 241/480/468 208/30/30 8/27/27
f 241/480/468 565/554/538 564/552/536
f 564/552/536 209/29/29 208/30/30
f 132/293/286 243/484/470 23/111/105
f 131/294/287 566/555/539 132/293/286
f 566/555/539 242/482/469 243/484/470
f 569/556/540 568/557/541 574/558/542
f 571/559/543 568/557/541 570/560/544
f 574/558/542 572/561/545 573/562/546
f 205/563/27 246/46/46 10/48/27
f 206/564/27 569/556/540 205/563/27
f 246/46/46 574/558/542 245/49/47
f 4/173/27 571/559/543 207/565/27
f 63/317/310 572/561/545 571/559/543
f 207/565/27 570/560/544 206/564/27
f 244/52/49 61/316/309 24/51/48
f 245/49/47 573/562/546 244/52/49
f 573/562/546 62/318/311 61/316/309
f 576/566/547 575/567/548 581/568/549
f 578/569/550 575/567/548 577/570/551
f 581/568/549 579/571/552 580/572/553
f 6/65/27 576/566/547 249/452/445
f 212/68/62 576/566/547 213/66/60
f 249/452/445 581/568/549 248/454/446
f 12/74/68 578/569/550 211/76/70
f 48/326/319 579/571/552 578/569/550
f 211/76/70 577/570/551 212/68/62
f 247/456/447 46/328/321 7/155/149
f 248/454/446 580/572/553 247/456/447
f 580/572/553 47/327/320 46/328/321
f 584/573/554 588/574/555 583/575/556
f 585/576/557 582/577/558 584/573/554
f 587/578/559 582/577/558 586/579/560
f 102/442/435 252/580/561 17/144/138
f 101/443/436 583/575/556 102/442/435
f 583/575/556 251/581/562 252/580/561
f 4/173/27 585/576/557 100/444/437
f 207/565/27 586/579/560 585/576/557
f 100/444/437 584/573/554 101/443/436
f 10/48/27 587/578/559 205/563/27
f 250/582/563 588/574/555 587/578/559
f 587/578/559 206/564/27 205/563/27
f 591/583/564 595/584/565 590/585/566
f 593/586/567 591/583/564 592/587/568
f 594/588/569 589/589/570 593/586/567
f 34/590/27 250/582/563 10/48/27
f 35/591/27 590/585/566 34/590/27
f 590/585/566 251/581/562 250/582/563
f 253/469/458 36/592/27 2/460/27
f 254/470/459 592/587/568 253/469/458
f 592/587/568 35/591/27 36/592/27
f 17/144/138 594/588/569 255/471/460
f 252/580/561 595/584/565 594/588/569
f 255/471/460 593/586/567 254/470/459
f 598/593/571 602/594/572 597/595/573
f 599/596/574 596/597/575 598/593/571
f 601/598/576 596/597/575 600/599/577
f 82/433/426 256/193/186 25/181/174
f 83/434/427 597/595/573 82/433/426
f 597/595/573 257/198/191 256/193/186
f 14/92/86 599/596/574 84/432/425
f 76/600/578 600/599/577 599/596/574
f 84/432/425 598/593/571 83/434/427
f 258/196/189 78/601/579 3/197/190
f 258/196/189 602/594/572 601/598/576
f 601/598/576 77/602/580 78/601/579
f 605/603/581 609/604/582 604/605/583
f 606/606/584 603/607/585 605/603/581
f 608/608/586 603/607/585 607/609/587
f 69/269/262 259/337/330 13/256/249
f 68/268/261 604/605/583 69/269/262
f 604/605/583 260/339/332 259/337/330
f 16/134/128 606/606/584 67/267/260
f 157/162/156 607/609/587 606/606/584
f 67/267/260 605/603/581 68/268/261
f 261/341/334 159/158/152 26/160/154
f 261/341/334 609/604/582 608/608/586
f 608/608/586 158/163/157 159/158/152
f 611/610/588 610/611/589 616/612/590
f 613/613/591 610/611/589 612/614/592
f 616/612/590 614/615/593 615/616/594
f 3/197/190 611/610/588 262/209/202
f 78/601/579 612/614/592 611/610/588
f 262/209/202 616/612/590 263/211/204
f 127/93/87 76/600/578 14/92/86
f 127/93/87 614/615/593 613/613/591
f 613/613/591 77/602/580 76/600/578
f 264/213/206 129/88/82 22/90/84
f 263/211/204 615/616/594 264/213/206
f 615/616/594 128/91/85 129/88/82
f 618/617/595 617/618/596 623/619/597
f 620/620/598 617/618/596 619/621/599
f 623/619/597 621/622/600 622/623/601
f 171/363/356 265/227/220 28/229/222
f 171/363/356 619/621/599 618/617/595
f 265/227/220 623/619/597 266/232/225
f 20/10/10 620/620/598 169/361/354
f 183/393/386 621/622/600 620/620/598
f 169/361/354 619/621/599 170/364/357
f 267/231/224 181/391/384 15/125/119
f 266/232/225 622/623/601 267/231/224
f 622/623/601 182/394/387 181/391/384
f 625/624/602 624/625/603 630/626/604
f 627/627/605 624/625/603 626/628/606
f 629/629/607 624/625/603 628/630/608
f 270/110/104 58/206/199 23/111/105
f 270/110/104 626/628/606 625/624/602
f 625/624/602 59/212/205 58/206/199
f 30/106/100 627/627/605 268/108/102
f 199/494/480 628/630/608 627/627/605
f 627/627/605 269/112/106 268/108/102
f 60/210/203 201/492/478 3/197/190
f 59/212/205 629/629/607 60/210/203
f 629/629/607 200/496/482 201/492/478
f 633/631/609 637/632/610 632/633/611
f 634/634/612 631/635/613 633/631/609
f 636/636/614 631/635/613 635/637/615
f 271/497/483 222/53/50 24/51/48
f 272/495/481 632/633/611 271/497/483
f 632/633/611 221/57/52 222/53/50
f 30/106/100 634/634/612 273/493/479
f 117/107/101 635/637/615 634/634/612
f 273/493/479 633/631/609 272/495/481
f 220/55/51 115/104/98 11/56/27
f 220/55/51 637/632/610 636/636/614
f 636/636/614 116/103/97 115/104/98
f 275/1/1 276/5/5 274/2/2
f 277/4/4 278/6/6 274/2/2
f 280/3/3 274/2/2 278/6/6
f 124/8/8 275/1/1 184/9/9
f 125/11/11 276/5/5 275/1/1
f 184/9/9 275/1/1 280/3/3
f 21/13/13 123/15/15 277/4/4
f 123/15/15 122/19/19 278/6/6
f 126/14/14 277/4/4 276/5/5
f 186/16/16 279/7/7 121/17/17
f 185/12/12 280/3/3 279/7/7
f 279/7/7 278/6/6 122/19/19
f 282/20/20 283/24/24 281/21/21
f 284/23/23 285/25/25 281/21/21
f 287/22/22 281/21/21 285/25/25
f 8/27/27 208/30/30 282/20/20
f 209/29/29 283/24/24 282/20/20
f 232/28/28 282/20/20 287/22/22
f 1/32/32 57/34/34 284/23/23
f 57/34/34 56/38/38 285/25/25
f 210/33/33 284/23/23 283/24/24
f 234/35/35 286/26/26 55/36/36
f 233/31/31 287/22/22 286/26/26
f 286/26/26 285/25/25 56/38/38
f 290/39/39 288/43/43 294/40/40
f 291/42/42 292/44/44 288/43/43
f 294/40/40 288/43/43 292/44/44
f 246/46/46 289/41/41 45/47/27
f 245/49/47 290/39/39 289/41/41
f 289/41/41 294/40/40 44/50/27
f 24/51/48 222/53/50 291/42/42
f 222/53/50 221/57/52 292/44/44
f 244/52/49 291/42/42 290/39/39
f 43/54/27 293/45/45 220/55/51
f 44/50/27 294/40/40 293/45/45
f 293/45/45 292/44/44 221/57/52
f 296/58/53 297/62/57 295/59/54
f 299/61/56 295/59/54 297/62/57
f 300/64/59 301/60/55 295/59/54
f 6/65/27 225/67/61 296/58/53
f 225/67/61 224/73/67 297/62/57
f 296/58/53 301/60/55 212/68/62
f 162/69/63 298/63/58 223/70/64
f 161/72/66 299/61/56 298/63/58
f 298/63/58 297/62/57 224/73/67
f 12/74/68 211/76/70 300/64/59
f 211/76/70 212/68/62 301/60/55
f 160/75/69 300/64/59 299/61/56
f 304/77/71 302/81/75 308/78/72
f 305/80/74 306/83/77 302/81/75
f 307/82/76 308/78/72 302/81/75
f 133/84/78 303/79/73 187/85/79
f 134/86/80 304/77/71 303/79/73
f 303/79/73 308/78/72 188/87/81
f 129/88/82 305/80/74 135/89/83
f 128/91/85 306/83/77 305/80/74
f 135/89/83 305/80/74 304/77/71
f 14/92/86 189/94/88 307/82/76
f 189/94/88 188/87/81 308/78/72
f 127/93/87 307/82/76 306/83/77
f 310/95/89 311/99/93 309/96/90
f 312/98/92 313/100/94 309/96/90
f 315/97/91 309/96/90 313/100/94
f 11/56/27 115/104/98 310/95/89
f 116/103/97 311/99/93 310/95/89
f 217/102/96 310/95/89 315/97/91
f 30/106/100 268/108/102 312/98/92
f 268/108/102 269/112/106 313/100/94
f 117/107/101 312/98/92 311/99/93
f 219/109/103 314/101/95 270/110/104
f 218/105/99 315/97/91 314/101/95
f 314/101/95 313/100/94 269/112/106
f 318/113/107 316/117/111 322/114/108
f 319/116/110 320/119/113 316/117/111
f 321/118/112 322/114/108 316/117/111
f 160/75/69 317/115/109 88/120/114
f 161/72/66 318/113/107 317/115/109
f 317/115/109 322/114/108 89/121/115
f 27/71/65 165/122/116 319/116/110
f 165/122/116 164/126/120 320/119/113
f 162/69/63 319/116/110 318/113/107
f 90/123/117 321/118/112 163/124/118
f 90/123/117 89/121/115 322/114/108
f 163/124/118 321/118/112 320/119/113
f 324/127/121 325/131/125 323/128/122
f 326/130/124 327/132/126 323/128/122
f 329/129/123 323/128/122 327/132/126
f 16/134/128 105/137/131 324/127/121
f 104/136/130 325/131/125 324/127/121
f 190/135/129 324/127/121 329/129/123
f 18/139/133 106/141/135 326/130/124
f 106/141/135 107/145/139 327/132/126
f 103/140/134 326/130/124 325/131/125
f 192/142/136 328/133/127 108/143/137
f 191/138/132 329/129/123 328/133/127
f 328/133/127 327/132/126 107/145/139
f 332/146/140 330/150/144 336/147/141
f 333/149/143 334/152/146 330/150/144
f 335/151/145 336/147/141 330/150/144
f 151/153/147 331/148/142 97/154/148
f 152/156/150 332/146/140 331/148/142
f 331/148/142 336/147/141 98/157/151
f 159/158/152 333/149/143 153/159/153
f 159/158/152 158/163/157 334/152/146
f 153/159/153 333/149/143 332/146/140
f 99/161/155 335/151/145 157/162/156
f 99/161/155 98/157/151 336/147/141
f 335/151/145 334/152/146 158/163/157
f 339/164/158 337/168/162 343/165/159
f 340/167/161 341/170/164 337/168/162
f 342/169/163 343/165/159 337/168/162
f 198/171/165 338/166/160 145/172/166
f 197/174/167 339/164/158 338/166/160
f 338/166/160 343/165/159 146/175/168
f 238/176/169 340/167/161 196/177/170
f 239/178/171 341/170/164 340/167/161
f 196/177/170 340/167/161 339/164/158
f 147/179/172 342/169/163 240/180/173
f 147/179/172 146/175/168 343/165/159
f 240/180/173 342/169/163 341/170/164
f 345/182/175 346/186/179 344/183/176
f 347/185/178 348/187/180 344/183/176
f 350/184/177 344/183/176 348/187/180
f 24/51/48 150/190/183 345/182/175
f 150/190/183 149/194/187 346/186/179
f 144/189/182 345/182/175 350/184/177
f 25/181/174 256/193/186 347/185/178
f 256/193/186 257/198/191 348/187/180
f 148/192/185 347/185/178 346/186/179
f 142/195/188 349/188/181 258/196/189
f 143/191/184 350/184/177 349/188/181
f 349/188/181 348/187/180 257/198/191
f 352/199/192 353/203/196 351/200/193
f 355/202/195 351/200/193 353/203/196
f 356/205/198 357/201/194 351/200/193
f 58/206/199 352/199/192 138/207/200
f 58/206/199 59/212/205 353/203/196
f 352/199/192 357/201/194 137/208/201
f 262/209/202 354/204/197 60/210/203
f 263/211/204 355/202/195 354/204/197
f 354/204/197 353/203/196 59/212/205
f 22/90/84 136/214/207 356/205/198
f 136/214/207 137/208/201 357/201/194
f 264/213/206 356/205/198 355/202/195
f 359/215/208 360/219/212 358/216/209
f 361/218/211 362/220/213 358/216/209
f 364/217/210 358/216/209 362/220/213
f 141/222/215 359/215/208 93/223/216
f 140/225/218 360/219/212 359/215/208
f 93/223/216 359/215/208 364/217/210
f 265/227/220 361/218/211 139/228/221
f 265/227/220 266/232/225 362/220/213
f 139/228/221 361/218/211 360/219/212
f 91/230/223 363/221/214 267/231/224
f 92/226/219 364/217/210 363/221/214
f 363/221/214 362/220/213 266/232/225
f 366/233/226 367/237/230 365/234/227
f 368/236/229 369/239/232 365/234/227
f 370/238/231 371/235/228 365/234/227
f 96/240/233 366/233/226 90/123/117
f 95/241/234 367/237/230 366/233/226
f 366/233/226 371/235/228 89/121/115
f 154/242/235 368/236/229 94/243/236
f 155/244/237 369/239/232 368/236/229
f 368/236/229 367/237/230 95/241/234
f 12/74/68 88/120/114 370/238/231
f 88/120/114 89/121/115 371/235/228
f 156/245/238 370/238/231 369/239/232
f 373/246/239 374/250/243 372/247/240
f 376/249/242 372/247/240 374/250/243
f 377/252/245 378/248/241 372/247/240
f 18/139/133 109/253/246 373/246/239
f 109/253/246 110/258/251 374/250/243
f 238/176/169 373/246/239 378/248/241
f 195/254/247 375/251/244 111/255/248
f 194/257/250 376/249/242 375/251/244
f 375/251/244 374/250/243 110/258/251
f 240/180/173 377/252/245 193/259/252
f 239/178/171 378/248/241 377/252/245
f 193/259/252 377/252/245 376/249/242
f 380/260/253 381/264/257 379/261/254
f 382/263/256 383/265/258 379/261/254
f 385/262/255 379/261/254 383/265/258
f 103/140/134 380/260/253 109/253/246
f 104/136/130 381/264/257 380/260/253
f 380/260/253 385/262/255 110/258/251
f 67/267/260 382/263/256 105/137/131
f 68/268/261 383/265/258 382/263/256
f 382/263/256 381/264/257 104/136/130
f 111/255/248 384/266/259 69/269/262
f 110/258/251 385/262/255 384/266/259
f 384/266/259 383/265/258 68/268/261
f 387/270/263 388/274/267 386/271/264
f 389/273/266 390/276/269 386/271/264
f 391/275/268 392/272/265 386/271/264
f 87/277/270 387/270/263 120/278/271
f 86/279/272 388/274/267 387/270/263
f 120/278/271 387/270/263 392/272/265
f 235/281/274 389/273/266 85/282/275
f 235/281/274 236/285/278 390/276/269
f 85/282/275 389/273/266 388/274/267
f 118/283/276 391/275/268 237/284/277
f 119/280/273 392/272/265 391/275/268
f 391/275/268 390/276/269 236/285/278
f 394/286/279 395/290/283 393/287/280
f 396/289/282 397/291/284 393/287/280
f 399/288/281 393/287/280 397/291/284
f 23/111/105 138/207/200 394/286/279
f 138/207/200 137/208/201 395/290/283
f 132/293/286 394/286/279 399/288/281
f 85/282/275 396/289/282 136/214/207
f 85/282/275 86/279/272 397/291/284
f 396/289/282 395/290/283 137/208/201
f 130/295/288 398/292/285 87/277/270
f 131/294/287 399/288/281 398/292/285
f 398/292/285 397/291/284 86/279/272
f 401/296/289 402/300/293 400/297/290
f 403/299/292 404/301/294 400/297/290
f 406/298/291 400/297/290 404/301/294
f 177/303/296 401/296/289 174/304/297
f 176/305/298 402/300/293 401/296/289
f 174/304/297 401/296/289 406/298/291
f 139/228/221 403/299/292 175/307/300
f 139/228/221 140/225/218 404/301/294
f 175/307/300 403/299/292 402/300/293
f 172/308/301 405/302/295 141/222/215
f 173/306/299 406/298/291 405/302/295
f 405/302/295 404/301/294 140/225/218
f 408/309/302 409/313/306 407/310/303
f 410/312/305 411/314/307 407/310/303
f 413/311/304 407/310/303 411/314/307
f 148/192/185 408/309/302 147/179/172
f 149/194/187 409/313/306 408/309/302
f 147/179/172 408/309/302 413/311/304
f 24/51/48 61/316/309 410/312/305
f 61/316/309 62/318/311 411/314/307
f 150/190/183 410/312/305 409/313/306
f 145/172/166 412/315/308 63/317/310
f 146/175/168 413/311/304 412/315/308
f 412/315/308 411/314/307 62/318/311
f 416/319/312 414/323/316 420/320/313
f 417/322/315 418/325/318 414/323/316
f 419/324/317 420/320/313 414/323/316
f 156/245/238 415/321/314 48/326/319
f 155/244/237 416/319/312 415/321/314
f 415/321/314 420/320/313 47/327/320
f 26/160/154 153/159/153 417/322/315
f 153/159/153 152/156/150 418/325/318
f 154/242/235 417/322/315 416/319/312
f 46/328/321 419/324/317 151/153/147
f 46/328/321 47/327/320 420/320/313
f 419/324/317 418/325/318 152/156/150
f 422/329/322 423/333/326 421/330/323
f 424/332/325 425/335/328 421/330/323
f 426/334/327 427/331/324 421/330/323
f 73/336/329 422/329/322 96/240/233
f 73/336/329 74/340/333 423/333/326
f 96/240/233 422/329/322 427/331/324
f 259/337/330 424/332/325 75/338/331
f 260/339/332 425/335/328 424/332/325
f 424/332/325 423/333/326 74/340/333
f 94/243/236 426/334/327 261/341/334
f 95/241/234 427/331/324 426/334/327
f 426/334/327 425/335/328 260/339/332
f 429/342/335 430/346/339 428/343/336
f 431/345/338 432/347/340 428/343/336
f 434/344/337 428/343/336 432/347/340
f 163/124/118 429/342/335 91/230/223
f 164/126/120 430/346/339 429/342/335
f 91/230/223 429/342/335 434/344/337
f 27/71/65 49/349/342 431/345/338
f 49/349/342 50/351/344 432/347/340
f 165/122/116 431/345/338 430/346/339
f 93/223/216 433/348/341 51/350/343
f 92/226/219 434/344/337 433/348/341
f 433/348/341 432/347/340 50/351/344
f 437/352/345 435/356/349 441/353/346
f 438/355/348 439/357/350 435/356/349
f 441/353/346 435/356/349 439/357/350
f 126/14/14 436/354/347 166/359/352
f 125/11/11 437/352/345 436/354/347
f 436/354/347 441/353/346 167/360/353
f 20/10/10 169/361/354 438/355/348
f 169/361/354 170/364/357 439/357/350
f 124/8/8 438/355/348 437/352/345
f 168/362/355 440/358/351 171/363/356
f 167/360/353 441/353/346 440/358/351
f 440/358/351 439/357/350 170/364/357
f 444/365/358 442/369/362 448/366/359
f 445/368/361 446/371/364 442/369/362
f 447/370/363 448/366/359 442/369/362
f 166/359/352 443/367/360 178/372/365
f 167/360/353 444/365/358 443/367/360
f 443/367/360 448/366/359 179/373/366
f 175/307/300 445/368/361 168/362/355
f 176/305/298 446/371/364 445/368/361
f 168/362/355 445/368/361 444/365/358
f 29/37/37 180/374/367 447/370/363
f 180/374/367 179/373/366 448/366/359
f 177/303/296 447/370/363 446/371/364
f 451/375/368 449/379/372 455/376/369
f 452/378/371 453/381/374 449/379/372
f 454/380/373 455/376/369 449/379/372
f 120/278/271 450/377/370 57/34/34
f 119/280/273 451/375/368 450/377/370
f 450/377/370 455/376/369 56/38/38
f 178/372/365 452/378/371 118/283/276
f 179/373/366 453/381/374 452/378/371
f 118/283/276 452/378/371 451/375/368
f 55/36/36 454/380/373 180/374/367
f 55/36/36 56/38/38 455/376/369
f 180/374/367 454/380/373 453/381/374
f 457/382/375 458/386/379 456/383/376
f 459/385/378 460/388/381 456/383/376
f 461/387/380 462/384/377 456/383/376
f 75/338/331 457/382/375 72/389/382
f 74/340/333 458/386/379 457/382/375
f 457/382/375 462/384/377 71/390/383
f 181/391/384 459/385/378 73/336/329
f 181/391/384 182/394/387 460/388/381
f 459/385/378 458/386/379 74/340/333
f 70/392/385 461/387/380 183/393/386
f 70/392/385 71/390/383 462/384/377
f 461/387/380 460/388/381 182/394/387
f 464/395/388 465/399/392 463/396/389
f 467/398/391 463/396/389 465/399/392
f 468/401/394 469/397/390 463/396/389
f 72/389/382 464/395/388 112/402/395
f 72/389/382 71/390/383 465/399/392
f 464/395/388 469/397/390 113/403/396
f 184/9/9 466/400/393 70/392/385
f 185/12/12 467/398/391 466/400/393
f 466/400/393 465/399/392 71/390/383
f 19/18/18 114/404/397 468/401/394
f 114/404/397 113/403/396 469/397/390
f 186/16/16 468/401/394 467/398/391
f 471/405/398 472/409/402 470/406/399
f 473/408/401 474/410/403 470/406/399
f 476/407/400 470/406/399 474/410/403
f 112/402/395 471/405/398 79/412/405
f 113/403/396 472/409/402 471/405/398
f 79/412/405 471/405/398 476/407/400
f 19/18/18 187/85/79 473/408/401
f 187/85/79 188/87/81 474/410/403
f 114/404/397 473/408/401 472/409/402
f 81/414/407 475/411/404 189/94/88
f 80/413/406 476/407/400 475/411/404
f 475/411/404 474/410/403 188/87/81
f 479/415/408 477/419/412 483/416/409
f 480/418/411 481/421/414 477/419/412
f 482/420/413 483/416/409 477/419/412
f 97/154/148 478/417/410 54/422/415
f 98/157/151 479/415/408 478/417/410
f 478/417/410 483/416/409 53/423/416
f 190/135/129 480/418/411 99/161/155
f 191/138/132 481/421/414 480/418/411
f 480/418/411 479/415/408 98/157/151
f 52/424/417 482/420/413 192/142/136
f 52/424/417 53/423/416 483/416/409
f 482/420/413 481/421/414 191/138/132
f 485/425/418 486/429/422 484/426/419
f 487/428/421 488/430/423 484/426/419
f 490/427/420 484/426/419 488/430/423
f 14/92/86 84/432/425 485/425/418
f 84/432/425 83/434/427 486/429/422
f 81/414/407 485/425/418 490/427/420
f 193/259/252 487/428/421 82/433/426
f 194/257/250 488/430/423 487/428/421
f 487/428/421 486/429/422 83/434/427
f 79/412/405 489/431/424 195/254/247
f 80/413/406 490/427/420 489/431/424
f 489/431/424 488/430/423 194/257/250
f 492/435/428 493/439/432 491/436/429
f 494/438/431 495/440/433 491/436/429
f 497/437/430 491/436/429 495/440/433
f 17/144/138 108/143/137 492/435/428
f 108/143/137 107/145/139 493/439/432
f 102/442/435 492/435/428 497/437/430
f 196/177/170 494/438/431 106/141/135
f 197/174/167 495/440/433 494/438/431
f 494/438/431 493/439/432 107/145/139
f 100/444/437 496/441/434 198/171/165
f 101/443/436 497/437/430 496/441/434
f 496/441/434 495/440/433 197/174/167
f 500/445/438 498/449/442 504/446/439
f 501/448/441 502/451/444 498/449/442
f 503/450/443 504/446/439 498/449/442
f 249/452/445 499/447/440 66/453/27
f 248/454/446 500/445/438 499/447/440
f 499/447/440 504/446/439 65/455/27
f 7/155/149 204/457/448 501/448/441
f 204/457/448 203/461/450 502/451/444
f 247/456/447 501/448/441 500/445/438
f 64/458/27 503/450/443 202/459/449
f 64/458/27 65/455/27 504/446/439
f 503/450/443 502/451/444 203/461/450
f 506/462/451 507/466/455 505/463/452
f 508/465/454 509/467/456 505/463/452
f 511/464/453 505/463/452 509/467/456
f 2/460/27 202/459/449 506/462/451
f 203/461/450 507/466/455 506/462/451
f 253/469/458 506/462/451 511/464/453
f 54/422/415 508/465/454 204/457/448
f 54/422/415 53/423/416 509/467/456
f 204/457/448 508/465/454 507/466/455
f 255/471/460 510/468/457 52/424/417
f 254/470/459 511/464/453 510/468/457
f 510/468/457 509/467/456 53/423/416
f 514/472/461 512/478/467 518/473/462
f 516/475/464 512/478/467 514/472/461
f 517/477/466 518/473/462 512/478/467
f 40/479/27 513/474/463 241/480/468
f 41/481/27 514/472/461 513/474/463
f 513/474/463 518/473/462 242/482/469
f 217/102/96 515/476/465 42/483/27
f 218/105/99 516/475/464 515/476/465
f 515/476/465 514/472/461 41/481/27
f 23/111/105 243/484/470 517/477/466
f 243/484/470 242/482/469 518/473/462
f 219/109/103 517/477/466 516/475/464
f 520/485/471 521/489/475 519/486/472
f 523/488/474 519/486/472 521/489/475
f 524/491/477 525/487/473 519/486/472
f 3/197/190 201/492/478 520/485/471
f 201/492/478 200/496/482 521/489/475
f 142/195/188 520/485/471 525/487/473
f 273/493/479 522/490/476 199/494/480
f 272/495/481 523/488/474 522/490/476
f 522/490/476 521/489/475 200/496/482
f 144/189/182 524/491/477 271/497/483
f 143/191/184 525/487/473 524/491/477
f 271/497/483 524/491/477 523/488/474
f 527/498/484 528/502/488 526/499/485
f 529/501/487 530/503/489 526/499/485
f 532/500/486 526/499/485 530/503/489
f 9/505/491 216/508/494 527/498/484
f 215/507/493 528/502/488 527/498/484
f 226/506/492 527/498/484 532/500/486
f 5/224/217 51/350/343 529/501/487
f 51/350/343 50/351/344 530/503/489
f 214/510/496 529/501/487 528/502/488
f 228/511/497 531/504/490 49/349/342
f 227/509/495 532/500/486 531/504/490
f 531/504/490 530/503/489 50/351/344
f 535/512/498 533/518/504 539/513/499
f 537/515/501 533/518/504 535/512/498
f 538/517/503 539/513/499 533/518/504
f 31/519/27 534/514/500 225/67/61
f 32/520/505 535/512/498 534/514/500
f 534/514/500 539/513/499 224/73/67
f 226/506/492 536/516/502 33/521/506
f 227/509/495 537/515/501 536/516/502
f 536/516/502 535/512/498 32/520/505
f 27/71/65 223/70/64 538/517/503
f 223/70/64 224/73/67 539/513/499
f 228/511/497 538/517/503 537/515/501
f 541/522/507 542/526/511 540/523/508
f 543/525/510 544/527/512 540/523/508
f 546/524/509 540/523/508 544/527/512
f 5/224/217 214/510/496 541/522/507
f 214/510/496 215/507/493 542/526/511
f 172/308/301 541/522/507 546/524/509
f 9/505/491 229/529/514 543/525/510
f 229/529/514 230/531/516 544/527/512
f 543/525/510 542/526/511 215/507/493
f 174/304/297 545/528/513 231/530/515
f 173/306/299 546/524/509 545/528/513
f 545/528/513 544/527/512 230/531/516
f 549/532/517 547/538/523 553/533/518
f 551/535/520 547/538/523 549/532/517
f 552/537/522 553/533/518 547/538/523
f 37/539/524 548/534/519 229/529/514
f 38/540/525 549/532/517 548/534/519
f 548/534/519 553/533/518 230/531/516
f 232/28/28 550/536/521 39/541/27
f 233/31/31 551/535/520 550/536/521
f 550/536/521 549/532/517 38/540/525
f 29/37/37 231/530/515 552/537/522
f 231/530/515 230/531/516 553/533/518
f 234/35/35 552/537/522 551/535/520
f 556/542/526 554/546/530 560/543/527
f 557/545/529 558/548/532 554/546/530
f 559/547/531 560/543/527 554/546/530
f 135/89/83 555/544/528 235/281/274
f 134/86/80 556/542/526 555/544/528
f 555/544/528 560/543/527 236/285/278
f 19/18/18 121/17/17 557/545/529
f 121/17/17 122/19/19 558/548/532
f 133/84/78 557/545/529 556/542/526
f 237/284/277 559/547/531 123/15/15
f 237/284/277 236/285/278 560/543/527
f 559/547/531 558/548/532 122/19/19
f 562/549/533 563/553/537 561/550/534
f 564/552/536 565/554/538 561/550/534
f 567/551/535 561/550/534 565/554/538
f 1/32/32 210/33/33 562/549/533
f 210/33/33 209/29/29 563/553/537
f 130/295/288 562/549/533 567/551/535
f 241/480/468 564/552/536 208/30/30
f 241/480/468 242/482/469 565/554/538
f 564/552/536 563/553/537 209/29/29
f 132/293/286 566/555/539 243/484/470
f 131/294/287 567/551/535 566/555/539
f 566/555/539 565/554/538 242/482/469
f 569/556/540 570/560/544 568/557/541
f 571/559/543 572/561/545 568/557/541
f 574/558/542 568/557/541 572/561/545
f 205/563/27 569/556/540 246/46/46
f 206/564/27 570/560/544 569/556/540
f 246/46/46 569/556/540 574/558/542
f 4/173/27 63/317/310 571/559/543
f 63/317/310 62/318/311 572/561/545
f 207/565/27 571/559/543 570/560/544
f 244/52/49 573/562/546 61/316/309
f 245/49/47 574/558/542 573/562/546
f 573/562/546 572/561/545 62/318/311
f 576/566/547 577/570/551 575/567/548
f 578/569/550 579/571/552 575/567/548
f 581/568/549 575/567/548 579/571/552
f 6/65/27 213/66/60 576/566/547
f 212/68/62 577/570/551 576/566/547
f 249/452/445 576/566/547 581/568/549
f 12/74/68 48/326/319 578/569/550
f 48/326/319 47/327/320 579/571/552
f 211/76/70 578/569/550 577/570/551
f 247/456/447 580/572/553 46/328/321
f 248/454/446 581/568/549 580/572/553
f 580/572/553 579/571/552 47/327/320
f 584/573/554 582/577/558 588/574/555
f 585/576/557 586/579/560 582/577/558
f 587/578/559 588/574/555 582/577/558
f 102/442/435 583/575/556 252/580/561
f 101/443/436 584/573/554 583/575/556
f 583/575/556 588/574/555 251/581/562
f 4/173/27 207/565/27 585/576/557
f 207/565/27 206/564/27 586/579/560
f 100/444/437 585/576/557 584/573/554
f 10/48/27 250/582/563 587/578/559
f 250/582/563 251/581/562 588/574/555
f 587/578/559 586/579/560 206/564/27
f 591/583/564 589/589/570 595/584/565
f 593/586/567 589/589/570 591/583/564
f 594/588/569 595/584/565 589/589/570
f 34/590/27 590/585/566 250/582/563
f 35/591/27 591/583/564 590/585/566
f 590/585/566 595/584/565 251/581/562
f 253/469/458 592/587/568 36/592/27
f 254/470/459 593/586/567 592/587/568
f 592/587/568 591/583/564 35/591/27
f 17/144/138 252/580/561 594/588/569
f 252/580/561 251/581/562 595/584/565
f 255/471/460 594/588/569 593/586/567
f 598/593/571 596/597/575 602/594/572
f 599/596/574 600/599/577 596/597/575
f 601/598/576 602/594/572 596/597/575
f 82/433/426 597/595/573 256/193/186
f 83/434/427 598/593/571 597/595/573
f 597/595/573 602/594/572 257/198/191
f 14/92/86 76/600/578 599/596/574
f 76/600/578 77/602/580 600/599/577
f 84/432/425 599/596/574 598/593/571
f 258/196/189 601/598/576 78/601/579
f 258/196/189 257/198/191 602/594/572
f 601/598/576 600/599/577 77/602/580
f 605/603/581 603/607/585 609/604/582
f 606/606/584 607/609/587 603/607/585
f 608/608/586 609/604/582 603/607/585
f 69/269/262 604/605/583 259/337/330
f 68/268/261 605/603/581 604/605/583
f 604/605/583 609/604/582 260/339/332
f 16/134/128 157/162/156 606/606/584
f 157/162/156 158/163/157 607/609/587
f 67/267/260 606/606/584 605/603/581
f 261/341/334 608/608/586 159/158/152
f 261/341/334 260/339/332 609/604/582
f 608/608/586 607/609/587 158/163/157
f 611/610/588 612/614/592 610/611/589
f 613/613/591 614/615/593 610/611/589
f 616/612/590 610/611/589 614/615/593
f 3/197/190 78/601/579 611/610/588
f 78/601/579 77/602/580 612/614/592
f 262/209/202 611/610/588 616/612/590
f 127/93/87 613/613/591 76/600/578
f 127/93/87 128/91/85 614/615/593
f 613/613/591 612/614/592 77/602/580
f 264/213/206 615/616/594 129/88/82
f 263/211/204 616/612/590 615/616/594
f 615/616/594 614/615/593 128/91/85
f 618/617/595 619/621/599 617/618/596
f 620/620/598 621/622/600 617/618/596
f 623/619/597 617/618/596 621/622/600
f 171/363/356 618/617/595 265/227/220
f 171/363/356 170/364/357 619/621/599
f 265/227/220 618/617/595 623/619/597
f 20/10/10 183/393/386 620/620/598
f 183/393/386 182/394/387 621/622/600
f 169/361/354 620/620/598 619/621/599
f 267/231/224 622/623/601 181/391/384
f 266/232/225 623/619/597 622/623/601
f 622/623/601 621/622/600 182/394/387
f 625/624/602 626/628/606 624/625/603
f 627/627/605 628/630/608 624/625/603
f 629/629/607 630/626/604 624/625/603
f 270/110/104 625/624/602 58/206/199
f 270/110/104 269/112/106 626/628/606
f 625/624/602 630/626/604 59/212/205
f 30/106/100 199/494/480 627/627/605
f 199/494/480 200/496/482 628/630/608
f 627/627/605 626/628/606 269/112/106
f 60/210/203 629/629/607 201/492/478
f 59/212/205 630/626/604 629/629/607
f 629/629/607 628/630/608 200/496/482
f 633/631/609 631/635/613 637/632/610
f 634/634/612 635/637/615 631/635/613
f 636/636/614 637/632/610 631/635/613
f 271/497/483 632/633/611 222/53/50
f 272/495/481 633/631/609 632/633/611
f 632/633/611 637/632/610 221/57/52
f 30/106/100 117/107/101 634/634/612
f 117/107/101 116/103/97 635/637/615
f 273/493/479 634/634/612 633/631/609
f 220/55/51 636/636/614 115/104/98
f 220/55/51 221/57/52 637/632/610
f 636/636/614 635/637/615 116/103/97
