# Blender v2.91.2 OBJ File: 'hexes.blend'
# www.blender.org
o hill01_Cylinder.003
v 0.831096 0.004948 -1.448007
v -1.000000 0.000000 1.732051
v -0.780125 0.084254 -1.351215
v -1.621369 0.061174 -0.017178
v 1.560249 0.001136 0.000000
v 1.000000 0.000000 1.732051
v -0.780125 0.001136 1.351215
v 1.000000 0.000000 -1.732051
v 2.000000 0.000000 0.000000
v -2.000000 0.000000 -0.000000
v -1.000000 0.000000 -1.732051
v 0.780124 0.001136 1.351215
v 0.007602 0.191549 -0.000113
v -0.708961 0.505207 -0.688012
v 0.664799 0.509874 0.535839
v -0.384402 0.189981 0.687932
v -0.789149 0.189961 0.002303
v -1.170187 0.001136 0.675607
v -0.680421 0.382437 0.304429
v 0.307158 0.270713 -0.647805
v 0.849790 0.180164 0.024250
v 0.815418 0.373156 -0.671707
v 0.068894 0.309059 -1.093489
v -0.123991 0.001136 -1.489452
v -1.255527 0.001136 -0.795278
v -1.181010 0.300972 -0.296582
v 0.053725 0.436596 1.053578
v 1.274701 0.063408 0.779827
v 1.168513 0.171120 -0.257239
v 1.331341 0.066640 -0.724984
v 0.890062 0.001136 1.541633
v 0.915548 0.002515 -1.590029
v -0.890062 0.001136 -1.541633
v -0.890062 0.001136 1.541633
v -1.810684 -0.008973 -0.008589
v 1.780124 0.001136 0.000000
vt 0.497252 0.694162
vt 0.333497 0.680783
vt 0.337851 0.562626
vt 0.294455 0.183673
vt 0.109453 0.265437
vt 0.493733 0.055515
vt 0.689731 0.807460
vt 0.886882 0.724782
vt 0.489811 0.935814
vt 0.120046 0.455348
vt 0.092635 0.712811
vt 0.312174 0.813204
vt 0.839734 0.315991
vt 0.841114 0.695462
vt 0.235693 0.500527
vt 0.332504 0.336287
vt 0.669563 0.217569
vt 0.886829 0.288301
vt 0.625562 0.642929
vt 0.658586 0.407059
vt 0.566234 0.339824
vt 0.732615 0.523216
vt 0.490053 0.107524
vt 0.490440 0.313578
vt 0.416825 0.229910
vt 0.160476 0.296570
vt 0.491255 0.879153
vt 0.496082 0.495513
vt 0.128462 0.691221
vt 0.426640 0.770976
vt 0.062867 0.237085
vt 0.497204 0.009218
vt 0.934135 0.260631
vt 0.488409 0.990782
vt 0.057435 0.733279
vt 0.934135 0.753419
vn 0.1429 0.9801 -0.1375
vn 0.1247 0.9877 -0.0943
vn 0.0795 0.9967 0.0164
vn -0.3420 0.9174 -0.2034
vn -0.0611 0.9931 -0.0998
vn -0.0715 0.9974 0.0051
vn 0.5624 0.7612 0.3231
vn -0.0001 0.9999 0.0157
vn 0.0281 0.9996 0.0038
vn -0.0019 0.9501 -0.3118
vn 0.0056 0.9997 -0.0241
vn 0.5738 0.7716 -0.2746
vn -0.0772 0.9931 0.0888
vn 0.0838 0.9677 0.2378
vn 0.1379 0.9374 -0.3198
vn -0.1991 0.9781 -0.0600
vn -0.1781 0.9765 0.1215
vn -0.0065 1.0000 -0.0045
vn 0.1625 0.9861 -0.0353
vn -0.2140 0.9731 0.0858
vn -0.0762 0.9968 0.0227
vn -0.1296 0.9277 0.3501
vn -0.3657 0.9297 0.0444
vn -0.0854 0.9958 -0.0317
vn -0.3844 0.9193 0.0847
vn -0.2134 0.8923 -0.3979
vn 0.1665 0.9860 -0.0071
vn 0.0029 0.9998 -0.0190
vn 0.0458 0.9844 -0.1700
vn 0.3552 0.9327 0.0620
vn -0.0034 1.0000 -0.0019
vn 0.0447 0.9990 -0.0024
vn -0.0026 1.0000 0.0045
vn 0.0055 1.0000 0.0003
vn 0.0076 0.9999 -0.0132
vn 0.0026 1.0000 0.0045
s 1
f 21/1/1 22/2/2 20/3/3
f 25/4/4 33/5/5 35/6/6
f 28/7/7 31/8/8 36/9/9
f 24/10/10 32/11/11 33/5/5
f 30/12/12 36/9/9 32/11/11
f 7/13/13 31/8/8 12/14/14
f 20/3/3 23/15/15 14/16/16
f 18/17/17 35/6/6 34/18/18
f 12/14/14 28/7/7 15/19/19
f 16/20/20 19/21/21 18/17/17
f 7/13/13 27/22/22 16/20/20
f 4/23/23 17/24/24 26/25/25
f 14/16/16 3/26/26 25/4/4
f 23/15/15 3/26/26 14/16/16
f 15/19/19 5/27/27 21/1/1
f 15/19/19 27/22/22 12/14/14
f 17/24/24 19/21/21 13/28/28
f 19/21/21 17/24/24 4/23/23
f 19/21/21 16/20/20 13/28/28
f 20/3/3 22/2/2 1/29/29
f 21/1/1 5/27/27 29/30/30
f 23/15/15 20/3/3 1/29/29
f 24/10/10 23/15/15 1/29/29
f 30/12/12 29/30/30 5/27/27
f 26/25/25 25/4/4 4/23/23
f 26/25/25 17/24/24 13/28/28
f 12/14/14 27/22/22 7/13/13
f 16/20/20 27/22/22 15/19/19
f 15/19/19 28/7/7 5/27/27
f 22/2/2 21/1/1 29/30/30
f 22/2/2 29/30/30 30/12/12
f 1/29/29 22/2/2 30/12/12
f 13/28/28 15/19/19 21/1/1
f 13/28/28 21/1/1 20/3/3
f 13/28/28 20/3/3 14/16/16
f 26/25/25 14/16/16 25/4/4
f 7/13/13 16/20/20 18/17/17
f 13/28/28 16/20/20 15/19/19
f 14/16/16 26/25/25 13/28/28
f 18/17/17 19/21/21 4/23/23
f 32/11/11 11/31/31 33/5/5
f 34/18/18 10/32/32 2/33/33
f 32/11/11 9/34/34 8/35/35
f 35/6/6 11/31/31 10/32/32
f 34/18/18 6/36/36 31/8/8
f 36/9/9 6/36/36 9/34/34
f 35/6/6 4/23/23 25/4/4
f 25/4/4 3/26/26 33/5/5
f 36/9/9 5/27/27 28/7/7
f 28/7/7 12/14/14 31/8/8
f 33/5/5 3/26/26 24/10/10
f 24/10/10 1/29/29 32/11/11
f 32/11/11 1/29/29 30/12/12
f 30/12/12 5/27/27 36/9/9
f 7/13/13 34/18/18 31/8/8
f 34/18/18 7/13/13 18/17/17
f 18/17/17 4/23/23 35/6/6
f 23/15/15 24/10/10 3/26/26
f 32/11/11 8/35/35 11/31/31
f 34/18/18 35/6/6 10/32/32
f 32/11/11 36/9/9 9/34/34
f 35/6/6 33/5/5 11/31/31
f 34/18/18 2/33/33 6/36/36
f 36/9/9 31/8/8 6/36/36
