# Blender v2.91.2 OBJ File: 'hexes.blend'
# www.blender.org
o lod2.001_Cylinder.015
v 0.632379 0.047614 -1.271675
v -1.000000 0.000000 1.732051
v -0.530245 0.298834 -0.889797
v -1.407785 0.000000 -0.011832
v 1.489795 0.031287 0.061283
v 1.000000 0.000000 1.732051
v -0.410543 0.045077 1.305067
v 1.000000 0.000000 -1.732051
v 2.000000 0.000000 0.000000
v -2.000000 0.000000 -0.000000
v -1.000000 0.000000 -1.732051
v 0.656527 0.036963 1.258582
v -0.013621 0.053676 0.033860
v -0.259966 0.189790 -0.534878
v 0.683077 0.056811 0.449713
v -0.439051 0.166030 0.606879
v -1.107614 0.016985 0.683354
v -0.712871 0.022503 0.221153
v 0.210015 0.101199 -0.429378
v 0.592053 0.233404 -0.180206
v 0.585428 0.158977 -0.562904
v 0.076815 0.261521 -0.929644
v -0.105147 0.056195 -1.366879
v -1.075746 0.031431 -0.679970
v -0.745501 0.046581 -0.304928
v 0.021484 0.233526 0.855217
v 1.196888 0.001114 0.716794
v 0.959713 0.190642 -0.198103
v 1.104698 0.030331 -0.611879
v -0.753075 0.058193 -1.303403
v 1.500000 0.000000 0.866026
v -1.500000 0.000000 0.866025
v 1.500000 0.000000 -0.866025
v -0.000000 0.000000 -1.732051
v -1.500000 0.000000 -0.866025
v 0.188705 0.045066 1.367991
v 1.405462 0.006999 0.353573
v -0.822722 0.028900 1.057446
v 0.864526 0.022521 -1.025940
v -0.339105 0.206215 -1.144401
v -1.326961 0.003325 -0.300137
v -0.000000 0.000000 1.732051
v -0.227073 0.132130 0.350531
v 0.358062 0.140298 -0.075632
v 0.327655 0.082193 0.268007
v -0.408815 0.285464 -0.705012
v -0.168012 0.090035 -0.288635
v -0.482827 0.131526 -0.429189
v 0.355094 0.153690 -1.140030
v 0.683445 0.045171 0.911945
v 1.145822 0.036658 0.261434
v 0.326883 0.149674 0.701026
v -0.504257 0.131887 0.941397
v -1.353676 0.001797 0.298732
v -0.542081 0.092988 0.398661
v -0.923496 0.026513 0.431610
v -0.378285 0.030184 0.127510
v 0.129651 0.068959 -0.240742
v -0.898885 0.007739 -1.560041
v 0.618373 0.100889 -0.929101
v 0.385965 0.140960 -0.490879
v 0.611125 0.223161 -0.354827
v -0.123966 0.261444 -0.735986
v 0.341389 0.043492 -1.382848
v 0.139301 0.179754 -0.659079
v 0.001576 0.182195 -1.167965
v 1.236079 0.106817 -0.079134
v -0.796926 0.170165 -0.792483
v -1.111692 0.004433 -0.166756
v -0.945794 0.049657 -0.472493
v -0.193203 0.171135 1.109317
v 0.310560 0.147857 1.105743
v -0.231453 0.234678 0.733160
v 0.948647 0.003940 1.056162
v 0.977985 0.006664 0.621885
v 0.790700 0.196954 -0.377018
v 0.777843 0.248927 -0.179680
v 1.398934 0.034525 -0.239913
v 1.046890 0.118692 -0.373414
v 0.822950 0.091819 -0.610647
v 0.624207 0.165260 0.085801
v 0.410855 0.159503 -0.302229
v -0.024991 0.128353 -0.482390
v -0.745301 0.092442 0.673251
v -0.400862 0.029446 -0.148491
v -1.089006 0.002343 0.128021
v -0.655526 0.173351 -1.118569
v -0.777338 0.004892 1.550449
v -1.786477 0.000000 -0.009664
v 0.848961 0.005627 -1.571200
v 0.892846 0.004368 1.556917
v 1.839862 0.008244 0.026957
v -0.427684 0.005135 -1.554334
v -1.098634 0.003325 -1.097641
v 1.148916 0.000116 1.116305
v 1.541120 0.001278 0.457439
v 1.502741 0.004013 -0.403900
v 1.098944 0.002602 -1.076673
v 0.346478 0.197388 -0.777415
v -0.735208 0.006243 -0.025191
v 0.330070 0.004917 -1.557693
v -1.481435 0.002297 -0.434411
v 0.158958 0.004174 1.556873
v -1.520497 0.001241 0.450105
v -1.116352 0.001797 1.113394
v -0.664386 0.192533 -0.598993
v 0.017428 0.172213 0.475146
v -0.232767 0.322094 -0.937509
v 0.885907 0.140063 0.085090
v -0.517604 0.053546 -1.366112
v -0.893779 0.050926 -1.079368
v 0.479176 0.173656 -0.380401
v 0.931114 0.004405 -1.244265
v -1.351511 0.000862 -0.795126
v 0.996193 0.001128 1.266824
v -0.005789 0.189659 -0.637606
v -0.630961 0.009696 -1.501117
v 0.870892 0.008238 0.867183
v -0.735225 0.076126 0.504452
v -0.330925 0.197480 0.946093
v -1.001668 0.001948 -0.023484
v -0.796121 0.144012 -0.617490
v -0.194848 0.253547 -1.081529
v 1.104417 0.093072 0.097521
v 0.458047 0.123823 0.928974
v -0.484143 0.009619 -0.016578
v -0.358576 0.082458 0.280175
v 0.445159 0.161397 -0.964952
v 0.228383 0.121463 -1.250013
v 1.245418 0.089557 -0.246241
v -1.139351 0.008355 -0.318486
v 0.078905 0.126944 1.222722
v 0.212444 0.132451 0.476239
v 1.175723 0.009553 0.413301
v 0.735340 0.244247 -0.313274
v 0.875189 0.138072 -0.447042
v 0.774676 0.060661 -0.850299
v 0.442142 0.124150 0.091996
v 0.303831 0.121713 -0.208578
v -0.022393 0.082408 -0.326873
v -0.705093 0.082162 0.888345
v -0.353294 0.076940 -0.284938
v -1.133177 0.004495 0.300403
v -0.201857 0.001226 1.615450
v -0.911570 0.005050 1.260616
v -0.035149 0.001541 -1.611650
v -0.793231 0.141678 -0.991322
v 1.617730 0.004588 0.261745
v 1.390957 0.000199 0.811176
v 1.592262 0.009055 -0.189951
v 1.359099 0.000998 -0.776939
v 0.284887 0.171047 -0.635421
v 0.523975 0.007848 -1.511812
v -1.544933 0.000862 -0.232909
v 0.412656 0.007802 1.505212
v -1.576468 0.000466 0.235654
v -1.381916 0.000466 0.811468
v -0.535550 0.213182 -0.580871
v -0.143133 0.197571 0.506305
v -0.259877 0.317141 -0.802063
v 0.764467 0.198186 0.006052
v -0.497633 0.147254 -1.219963
v -0.956358 0.009017 -1.257824
vt 0.801100 0.761347
vt 0.926229 0.749111
vt 0.767062 0.794509
vt 0.646916 0.460535
vt 0.646357 0.516822
vt 0.622939 0.507844
vt 0.661270 0.402210
vt 0.684498 0.440084
vt 0.635892 0.594460
vt 0.596258 0.559114
vt 0.639894 0.551824
vt 0.691627 0.545388
vt 0.671003 0.496252
vt 0.454225 0.835070
vt 0.442456 0.756802
vt 0.467531 0.800830
vt 0.852637 0.654536
vt 0.867791 0.598723
vt 0.792102 0.695564
vt 0.874680 0.733819
vt 0.811608 0.615724
vt 0.585324 0.208457
vt 0.671906 0.203789
vt 0.637592 0.248597
vt 0.575303 0.718024
vt 0.568485 0.663106
vt 0.630796 0.681860
vt 0.364283 0.770679
vt 0.317964 0.830441
vt 0.244813 0.767958
vt 0.133817 0.386526
vt 0.080940 0.487456
vt 0.083829 0.237804
vt 0.411050 0.124127
vt 0.509337 0.008989
vt 0.506720 0.058506
vt 0.461672 0.882699
vt 0.512456 0.867193
vt 0.511621 0.941614
vt 0.701415 0.161013
vt 0.613942 0.123789
vt 0.563395 0.109018
vt 0.578608 0.159451
vt 0.492584 0.149574
vt 0.410276 0.511303
vt 0.343658 0.470157
vt 0.396457 0.474278
vt 0.467016 0.596542
vt 0.518316 0.637194
vt 0.459483 0.641807
vt 0.715003 0.306034
vt 0.704022 0.270558
vt 0.140966 0.634087
vt 0.207428 0.667471
vt 0.125178 0.713333
vt 0.608886 0.616256
vt 0.556681 0.598457
vt 0.578323 0.628797
vt 0.814704 0.252425
vt 0.811069 0.309849
vt 0.759222 0.257295
vt 0.127156 0.580383
vt 0.113216 0.484774
vt 0.724929 0.424976
vt 0.745346 0.621947
vt 0.769961 0.587716
vt 0.552770 0.691840
vt 0.510813 0.991011
vt 0.561047 0.897858
vt 0.609530 0.885202
vt 0.375701 0.224168
vt 0.409670 0.310381
vt 0.332436 0.279217
vt 0.558647 0.816366
vt 0.513606 0.811437
vt 0.569770 0.853914
vt 0.739053 0.488671
vt 0.766916 0.453703
vt 0.654603 0.805517
vt 0.717783 0.136283
vt 0.540787 0.220463
vt 0.595938 0.318411
vt 0.453634 0.391271
vt 0.492318 0.307742
vt 0.494656 0.368665
vt 0.586951 0.466303
vt 0.340850 0.411434
vt 0.289792 0.470802
vt 0.267189 0.434614
vt 0.328334 0.531725
vt 0.258048 0.511198
vt 0.746772 0.755346
vt 0.715570 0.697694
vt 0.258927 0.598314
vt 0.228668 0.566079
vt 0.188012 0.478651
vt 0.410650 0.865215
vt 0.871070 0.408086
vt 0.828282 0.385160
vt 0.863784 0.352045
vt 0.416092 0.443217
vt 0.416006 0.401356
vt 0.323265 0.328278
vt 0.261046 0.260808
vt 0.370527 0.362652
vt 0.267608 0.170907
vt 0.296583 0.123397
vt 0.249460 0.383342
vt 0.811799 0.498925
vt 0.749869 0.530138
vt 0.290400 0.664320
vt 0.296200 0.620197
vt 0.794389 0.403871
vt 0.771528 0.368673
vt 0.353499 0.587897
vt 0.387106 0.648065
vt 0.513504 0.742467
vt 0.585966 0.421153
vt 0.624119 0.401001
vt 0.512827 0.688777
vt 0.926229 0.506344
vt 0.886125 0.504215
vt 0.419582 0.719093
vt 0.366247 0.708712
vt 0.446116 0.697810
vt 0.159719 0.329496
vt 0.153045 0.250423
vt 0.601194 0.747538
vt 0.648916 0.745754
vt 0.582287 0.779510
vt 0.380318 0.179416
vt 0.723522 0.345573
vt 0.926229 0.263576
vt 0.678047 0.372552
vt 0.558576 0.528869
vt 0.590290 0.500844
vt 0.775234 0.219403
vt 0.666841 0.618363
vt 0.439373 0.223232
vt 0.492071 0.243746
vt 0.405452 0.555605
vt 0.439376 0.573589
vt 0.711887 0.648597
vt 0.078051 0.737108
vt 0.261182 0.719859
vt 0.294432 0.864059
vt 0.704865 0.738133
vt 0.205643 0.732115
vt 0.303854 0.700419
vt 0.351266 0.142034
vt 0.542514 0.398344
vt 0.203458 0.362338
vt 0.710986 0.482245
vt 0.691302 0.473676
vt 0.697637 0.849839
vt 0.505687 0.574966
vt 0.497857 0.488064
vt 0.538935 0.565461
vt 0.470465 0.678449
vt 0.286178 0.347940
vt 0.181410 0.593195
vt 0.718521 0.870061
vt 0.889305 0.276643
vn 0.0114 0.9924 -0.1229
vn 0.0133 0.9998 -0.0168
vn 0.0127 0.9926 -0.1208
vn -0.2110 0.9740 0.0827
vn -0.2699 0.9538 -0.1319
vn -0.3092 0.9504 -0.0340
vn 0.1016 0.9358 0.3375
vn 0.1509 0.9858 0.0733
vn -0.0111 0.9719 0.2353
vn -0.1102 0.9783 0.1755
vn -0.1363 0.9881 0.0709
vn 0.0848 0.9836 -0.1591
vn -0.1513 0.9646 -0.2158
vn -0.3667 0.9144 -0.1713
vn -0.4481 0.8940 -0.0067
vn -0.5140 0.8343 -0.1997
vn 0.0810 0.9963 -0.0277
vn 0.0409 0.9986 -0.0322
vn 0.1511 0.9752 -0.1618
vn 0.0291 0.9988 -0.0387
vn 0.1589 0.9839 -0.0819
vn 0.1217 0.9926 0.0016
vn 0.0133 0.9998 0.0121
vn 0.0750 0.9955 0.0579
vn 0.0584 0.9826 -0.1761
vn 0.2184 0.9211 0.3224
vn 0.1783 0.9823 -0.0565
vn -0.2285 0.9736 -0.0000
vn -0.0428 0.9988 -0.0225
vn -0.0242 0.9997 0.0041
vn -0.0390 0.9989 0.0245
vn -0.0043 1.0000 0.0021
vn -0.0094 0.9999 0.0131
vn 0.0176 0.9936 0.1119
vn 0.0119 0.9998 0.0137
vn 0.0313 0.9991 0.0270
vn -0.1651 0.9836 -0.0720
vn -0.2001 0.9458 -0.2558
vn -0.0419 0.9975 -0.0576
vn 0.0018 1.0000 0.0028
vn 0.0080 1.0000 0.0033
vn 0.0510 0.9987 0.0056
vn 0.0742 0.9972 0.0026
vn 0.1204 0.9869 0.1078
vn -0.1137 0.9785 -0.1720
vn -0.1555 0.9553 -0.2516
vn -0.1704 0.9404 -0.2942
vn -0.0305 0.9368 0.3486
vn 0.0704 0.9075 0.4141
vn -0.0725 0.9046 0.4202
vn 0.1293 0.9692 0.2098
vn 0.0690 0.9924 0.1022
vn -0.0014 1.0000 -0.0033
vn -0.0054 1.0000 0.0024
vn 0.0000 1.0000 0.0011
vn 0.0634 0.9548 0.2903
vn 0.1092 0.9394 0.3249
vn 0.1638 0.9200 0.3559
vn 0.0457 0.9973 0.0578
vn 0.1264 0.9905 0.0548
vn 0.0418 0.9968 0.0688
vn -0.0135 0.9999 -0.0017
vn -0.0229 0.9997 0.0128
vn 0.2779 0.9601 -0.0310
vn 0.3002 0.9477 -0.1082
vn 0.2438 0.9625 -0.1192
vn 0.1084 0.9737 0.2005
vn -0.0180 0.9995 -0.0275
vn -0.0082 0.9858 -0.1679
vn -0.0101 0.9903 -0.1386
vn 0.0229 0.9131 0.4071
vn 0.1007 0.9935 0.0527
vn -0.0817 0.9354 0.3439
vn -0.1071 0.8664 -0.4878
vn -0.3016 0.8828 -0.3602
vn -0.0539 0.9169 -0.3955
vn 0.2772 0.9067 -0.3180
vn 0.2640 0.9271 -0.2661
vn 0.0065 0.9180 -0.3965
vn 0.0015 1.0000 0.0022
vn 0.2397 0.9708 0.0131
vn 0.1208 0.9871 0.1054
vn 0.1135 0.9686 -0.2213
vn 0.2194 0.9728 -0.0741
vn 0.1812 0.9719 -0.1502
vn -0.2632 0.9610 0.0847
vn -0.2303 0.9643 -0.1305
vn -0.2113 0.9648 -0.1563
vn -0.2191 0.9757 -0.0065
vn -0.0813 0.9875 -0.1353
vn -0.1299 0.9874 -0.0903
vn 0.0633 0.9470 -0.3149
vn 0.1850 0.9377 -0.2941
vn -0.0273 0.9995 -0.0184
vn -0.0448 0.9986 -0.0270
vn -0.1002 0.9949 0.0062
vn -0.1021 0.9937 -0.0464
vn 0.0710 0.9962 -0.0503
vn 0.2263 0.9679 -0.1091
vn 0.0835 0.9952 -0.0503
vn -0.1230 0.9451 -0.3029
vn -0.0163 0.9621 -0.2721
vn -0.2361 0.9552 0.1782
vn -0.1000 0.9675 0.2322
vn -0.1244 0.9911 -0.0468
vn 0.0023 0.9976 0.0696
vn -0.0029 0.9998 0.0190
vn -0.2388 0.9657 0.1019
vn 0.1669 0.9732 -0.1582
vn 0.2178 0.9417 -0.2565
vn -0.0490 0.9979 0.0422
vn -0.0280 0.9993 0.0251
vn 0.3255 0.9286 -0.1780
vn 0.2615 0.9633 0.0606
vn -0.0155 0.9990 0.0409
vn -0.1102 0.9647 0.2391
vn -0.2527 0.9627 -0.0971
vn -0.1560 0.9628 0.2208
vn -0.0885 0.9492 0.3021
vn -0.0913 0.9400 0.3288
vn 0.0069 1.0000 -0.0054
vn 0.0386 0.9989 -0.0254
vn -0.3627 0.9070 0.2142
vn -0.2282 0.9619 0.1509
vn -0.2729 0.9136 0.3014
vn -0.0556 0.9975 0.0432
vn -0.0233 0.9990 0.0390
vn 0.0424 0.8840 -0.4657
vn 0.0934 0.8839 -0.4583
vn -0.0732 0.8638 -0.4984
vn 0.0369 0.9481 0.3158
vn 0.1856 0.9506 0.2487
vn 0.0370 0.9993 -0.0007
vn 0.1771 0.9414 0.2871
vn -0.1315 0.9901 0.0486
vn -0.3044 0.9525 0.0091
vn 0.0138 0.9998 0.0150
vn 0.1639 0.9844 0.0646
vn 0.1658 0.9609 0.2219
vn 0.2691 0.9631 0.0049
vn -0.0835 0.9963 0.0201
vn -0.0813 0.9801 0.1812
vn 0.2980 0.9496 -0.0968
vn -0.0019 1.0000 0.0004
vn -0.0209 0.9995 0.0256
vn -0.0069 1.0000 -0.0031
vn 0.0716 0.8945 -0.4413
vn -0.0025 1.0000 0.0065
vn -0.0885 0.9949 0.0474
vn 0.0017 0.9939 0.1107
vn 0.0236 0.9996 -0.0138
vn -0.1483 0.9819 0.1175
vn 0.2603 0.9046 -0.3377
vn 0.1543 0.9517 -0.2655
vn 0.0025 0.9944 -0.1058
vn 0.0063 0.9691 0.2465
vn -0.0798 0.9948 -0.0629
vn 0.0659 0.9800 0.1876
vn -0.1452 0.8961 0.4194
vn -0.2882 0.9443 0.1586
vn -0.0112 0.9998 -0.0139
vn -0.0009 0.9998 -0.0175
vn 0.0573 0.9982 0.0151
s 1
f 153/1/1 8/2/2 101/3/3
f 20/4/4 112/5/5 82/6/6
f 20/4/4 161/7/7 77/8/8
f 152/9/9 19/10/10 61/11/11
f 21/12/12 112/5/5 62/13/13
f 61/11/11 82/6/6 112/5/5
f 111/14/14 68/15/15 147/16/16
f 8/2/2 113/17/17 98/18/18
f 1/19/19 113/17/17 90/20/20
f 39/21/21 98/18/18 113/17/17
f 118/22/22 27/23/23 75/24/24
f 108/25/25 63/26/26 22/27/27
f 24/28/28 114/29/29 102/30/30
f 105/31/31 32/32/32 2/33/33
f 155/34/34 6/35/35 91/36/36
f 163/37/37 30/38/38 59/39/39
f 149/40/40 27/23/23 95/41/41
f 115/42/42 6/35/35 95/41/41
f 74/43/43 95/41/41 27/23/23
f 115/42/42 12/44/44 91/36/36
f 57/45/45 55/46/46 127/47/47
f 142/48/48 14/49/49 48/50/50
f 51/51/51 75/24/24 134/52/52
f 156/53/53 4/54/54 89/55/55
f 65/56/56 83/57/57 19/10/10
f 22/27/27 116/58/58 65/56/56
f 116/58/58 14/49/49 83/57/57
f 148/59/59 5/60/60 37/61/61
f 104/62/62 32/32/32 157/63/63
f 161/7/7 28/64/64 77/8/8
f 39/21/21 60/65/65 137/66/66
f 160/67/67 14/49/49 63/26/26
f 11/68/68 117/69/69 93/70/70
f 132/71/71 26/72/72 71/73/73
f 162/74/74 30/38/38 87/75/75
f 117/69/69 30/38/38 110/76/76
f 136/77/77 28/64/64 79/78/78
f 93/70/70 110/76/76 23/79/79
f 95/41/41 31/80/80 149/40/40
f 50/81/81 74/43/43 118/22/22
f 15/82/82 118/22/22 75/24/24
f 107/83/83 52/84/84 133/85/85
f 82/6/6 44/86/86 20/4/4
f 16/87/87 119/88/88 84/89/89
f 119/88/88 18/90/90 56/91/91
f 64/92/92 49/93/93 1/19/19
f 56/91/91 86/94/94 143/95/95
f 157/63/63 17/96/96 104/62/62
f 56/91/91 84/89/89 119/88/88
f 94/97/97 111/14/14 163/37/37
f 97/98/98 78/99/99 150/100/100
f 107/83/83 43/101/101 159/102/102
f 120/103/103 7/104/104 71/73/73
f 120/103/103 26/72/72 73/105/105
f 16/87/87 120/103/103 73/105/105
f 144/106/106 2/33/33 42/107/107
f 141/108/108 16/87/87 84/89/89
f 136/77/77 29/109/109 80/110/110
f 69/111/111 86/94/94 121/112/112
f 130/113/113 28/64/64 67/114/114
f 121/112/112 18/90/90 100/115/115
f 25/116/116 121/112/112 100/115/115
f 147/16/16 3/117/117 87/75/75
f 138/118/118 15/82/82 81/119/119
f 160/67/67 3/117/117 46/120/120
f 97/98/98 33/121/121 151/122/122
f 122/123/123 24/28/28 70/124/124
f 122/123/123 25/116/116 106/125/125
f 68/15/15 106/125/125 3/117/117
f 145/126/126 2/33/33 88/127/127
f 23/79/79 123/128/128 66/129/129
f 40/130/130 108/25/25 123/128/128
f 22/27/27 123/128/128 108/25/25
f 67/114/114 78/99/99 130/113/113
f 155/34/34 12/44/44 36/131/131
f 124/132/132 5/60/60 67/114/114
f 150/100/100 9/133/133 97/98/98
f 124/132/132 28/64/64 109/134/134
f 58/135/135 44/86/86 139/136/136
f 51/51/51 109/134/134 15/82/82
f 96/137/137 31/80/80 9/133/133
f 152/9/9 21/12/12 99/138/138
f 52/84/84 72/139/139 125/140/140
f 18/90/90 126/141/141 100/115/115
f 57/45/45 85/142/142 126/141/141
f 25/116/116 126/141/141 85/142/142
f 16/87/87 127/47/47 55/46/46
f 43/101/101 57/45/45 127/47/47
f 1/19/19 128/143/143 60/65/65
f 128/143/143 22/27/27 99/138/138
f 156/53/53 10/144/144 104/62/62
f 102/30/30 41/145/145 24/28/28
f 60/65/65 99/138/138 21/12/12
f 101/3/3 64/92/92 153/1/1
f 94/97/97 35/146/146 114/29/29
f 23/79/79 129/147/147 64/92/92
f 154/148/148 4/54/54 41/145/145
f 130/113/113 29/109/109 79/78/78
f 24/28/28 131/149/149 70/124/124
f 41/145/145 69/111/111 131/149/149
f 42/107/107 103/150/150 144/106/106
f 36/131/131 72/139/139 132/71/71
f 7/104/104 132/71/71 71/73/73
f 15/82/82 133/85/85 52/84/84
f 45/151/151 107/83/83 133/85/85
f 163/37/37 11/68/68 94/97/97
f 27/23/23 134/52/52 75/24/24
f 151/122/122 29/109/109 97/98/98
f 37/61/61 51/51/51 134/52/52
f 145/126/126 7/104/104 38/152/152
f 76/153/153 77/8/8 28/64/64
f 76/153/153 62/13/13 135/154/154
f 146/155/155 23/79/79 101/3/3
f 44/86/86 45/151/151 138/118/118
f 20/4/4 138/118/118 81/119/119
f 85/142/142 47/156/156 142/48/48
f 50/81/81 52/84/84 125/140/140
f 19/10/10 139/136/136 82/6/6
f 13/157/157 140/158/158 47/156/156
f 106/125/125 48/50/50 158/159/159
f 47/156/156 83/57/57 14/49/49
f 38/152/152 53/160/160 141/108/108
f 17/96/96 141/108/108 84/89/89
f 48/50/50 85/142/142 142/48/48
f 17/96/96 143/95/95 54/161/161
f 54/161/161 86/94/94 4/54/54
f 7/104/104 144/106/106 103/150/150
f 135/154/154 20/4/4 77/8/8
f 105/31/31 38/152/152 17/96/96
f 87/75/75 111/14/14 147/16/16
f 137/66/66 21/12/12 80/110/110
f 35/146/146 102/30/30 114/29/29
f 9/133/133 148/59/59 96/137/137
f 125/140/140 12/44/44 50/81/81
f 137/66/66 29/109/109 39/21/21
f 10/144/144 154/148/148 102/30/30
f 5/60/60 150/100/100 78/99/99
f 14/49/49 158/159/159 48/50/50
f 3/117/117 158/159/159 46/120/120
f 140/158/158 19/10/10 83/57/57
f 101/3/3 34/162/162 146/155/155
f 80/110/110 76/153/153 136/77/77
f 96/137/137 37/61/61 27/23/23
f 81/119/119 109/134/134 161/7/7
f 98/18/18 33/121/121 8/2/2
f 93/70/70 34/162/162 11/68/68
f 69/111/111 70/124/124 131/149/149
f 104/62/62 54/161/161 156/53/53
f 26/72/72 159/102/102 73/105/105
f 103/150/150 36/131/131 7/104/104
f 1/19/19 153/1/1 64/92/92
f 87/75/75 40/130/130 162/74/74
f 40/130/130 110/76/76 162/74/74
f 159/102/102 16/87/87 73/105/105
f 129/147/147 22/27/27 49/93/93
f 99/138/138 65/56/56 152/9/9
f 153/1/1 90/20/20 8/2/2
f 20/4/4 62/13/13 112/5/5
f 20/4/4 81/119/119 161/7/7
f 152/9/9 65/56/56 19/10/10
f 21/12/12 61/11/11 112/5/5
f 61/11/11 19/10/10 82/6/6
f 111/14/14 24/28/28 68/15/15
f 8/2/2 90/20/20 113/17/17
f 1/19/19 39/21/21 113/17/17
f 39/21/21 29/109/109 98/18/18
f 118/22/22 74/43/43 27/23/23
f 108/25/25 160/67/67 63/26/26
f 24/28/28 94/97/97 114/29/29
f 105/31/31 157/63/63 32/32/32
f 155/34/34 103/150/150 6/35/35
f 163/37/37 111/14/14 30/38/38
f 149/40/40 96/137/137 27/23/23
f 115/42/42 91/36/36 6/35/35
f 74/43/43 115/42/42 95/41/41
f 115/42/42 74/43/43 12/44/44
f 57/45/45 18/90/90 55/46/46
f 142/48/48 47/156/156 14/49/49
f 51/51/51 15/82/82 75/24/24
f 156/53/53 54/161/161 4/54/54
f 65/56/56 116/58/58 83/57/57
f 22/27/27 63/26/26 116/58/58
f 116/58/58 63/26/26 14/49/49
f 148/59/59 92/163/163 5/60/60
f 104/62/62 10/144/144 32/32/32
f 161/7/7 109/134/134 28/64/64
f 39/21/21 1/19/19 60/65/65
f 160/67/67 46/120/120 14/49/49
f 11/68/68 59/39/39 117/69/69
f 132/71/71 72/139/139 26/72/72
f 162/74/74 110/76/76 30/38/38
f 117/69/69 59/39/39 30/38/38
f 136/77/77 76/153/153 28/64/64
f 93/70/70 117/69/69 110/76/76
f 95/41/41 6/35/35 31/80/80
f 50/81/81 12/44/44 74/43/43
f 15/82/82 50/81/81 118/22/22
f 107/83/83 26/72/72 52/84/84
f 82/6/6 139/136/136 44/86/86
f 16/87/87 55/46/46 119/88/88
f 119/88/88 55/46/46 18/90/90
f 64/92/92 129/147/147 49/93/93
f 56/91/91 18/90/90 86/94/94
f 157/63/63 105/31/31 17/96/96
f 56/91/91 17/96/96 84/89/89
f 94/97/97 24/28/28 111/14/14
f 97/98/98 29/109/109 78/99/99
f 107/83/83 13/157/157 43/101/101
f 120/103/103 53/160/160 7/104/104
f 120/103/103 71/73/73 26/72/72
f 16/87/87 53/160/160 120/103/103
f 144/106/106 88/127/127 2/33/33
f 141/108/108 53/160/160 16/87/87
f 136/77/77 79/78/78 29/109/109
f 69/111/111 4/54/54 86/94/94
f 130/113/113 79/78/78 28/64/64
f 121/112/112 86/94/94 18/90/90
f 25/116/116 69/111/111 121/112/112
f 147/16/16 68/15/15 3/117/117
f 138/118/118 45/151/151 15/82/82
f 160/67/67 108/25/25 3/117/117
f 97/98/98 9/133/133 33/121/121
f 122/123/123 68/15/15 24/28/28
f 122/123/123 70/124/124 25/116/116
f 68/15/15 122/123/123 106/125/125
f 145/126/126 105/31/31 2/33/33
f 23/79/79 40/130/130 123/128/128
f 40/130/130 3/117/117 108/25/25
f 22/27/27 66/129/129 123/128/128
f 67/114/114 5/60/60 78/99/99
f 155/34/34 91/36/36 12/44/44
f 124/132/132 51/51/51 5/60/60
f 150/100/100 92/163/163 9/133/133
f 124/132/132 67/114/114 28/64/64
f 58/135/135 13/157/157 44/86/86
f 51/51/51 124/132/132 109/134/134
f 96/137/137 149/40/40 31/80/80
f 152/9/9 61/11/11 21/12/12
f 52/84/84 26/72/72 72/139/139
f 18/90/90 57/45/45 126/141/141
f 57/45/45 13/157/157 85/142/142
f 25/116/116 100/115/115 126/141/141
f 16/87/87 43/101/101 127/47/47
f 43/101/101 13/157/157 57/45/45
f 1/19/19 49/93/93 128/143/143
f 128/143/143 49/93/93 22/27/27
f 156/53/53 89/55/55 10/144/144
f 102/30/30 154/148/148 41/145/145
f 60/65/65 128/143/143 99/138/138
f 101/3/3 23/79/79 64/92/92
f 94/97/97 11/68/68 35/146/146
f 23/79/79 66/129/129 129/147/147
f 154/148/148 89/55/55 4/54/54
f 130/113/113 78/99/99 29/109/109
f 24/28/28 41/145/145 131/149/149
f 41/145/145 4/54/54 69/111/111
f 42/107/107 6/35/35 103/150/150
f 36/131/131 12/44/44 72/139/139
f 7/104/104 36/131/131 132/71/71
f 15/82/82 45/151/151 133/85/85
f 45/151/151 13/157/157 107/83/83
f 163/37/37 59/39/39 11/68/68
f 27/23/23 37/61/61 134/52/52
f 151/122/122 98/18/18 29/109/109
f 37/61/61 5/60/60 51/51/51
f 145/126/126 88/127/127 7/104/104
f 76/153/153 135/154/154 77/8/8
f 76/153/153 21/12/12 62/13/13
f 146/155/155 93/70/70 23/79/79
f 44/86/86 13/157/157 45/151/151
f 20/4/4 44/86/86 138/118/118
f 85/142/142 13/157/157 47/156/156
f 50/81/81 15/82/82 52/84/84
f 19/10/10 58/135/135 139/136/136
f 13/157/157 58/135/135 140/158/158
f 106/125/125 25/116/116 48/50/50
f 47/156/156 140/158/158 83/57/57
f 38/152/152 7/104/104 53/160/160
f 17/96/96 38/152/152 141/108/108
f 48/50/50 25/116/116 85/142/142
f 17/96/96 56/91/91 143/95/95
f 54/161/161 143/95/95 86/94/94
f 7/104/104 88/127/127 144/106/106
f 135/154/154 62/13/13 20/4/4
f 105/31/31 145/126/126 38/152/152
f 87/75/75 30/38/38 111/14/14
f 137/66/66 60/65/65 21/12/12
f 35/146/146 10/144/144 102/30/30
f 9/133/133 92/163/163 148/59/59
f 125/140/140 72/139/139 12/44/44
f 137/66/66 80/110/110 29/109/109
f 10/144/144 89/55/55 154/148/148
f 5/60/60 92/163/163 150/100/100
f 14/49/49 46/120/120 158/159/159
f 3/117/117 106/125/125 158/159/159
f 140/158/158 58/135/135 19/10/10
f 101/3/3 8/2/2 34/162/162
f 80/110/110 21/12/12 76/153/153
f 96/137/137 148/59/59 37/61/61
f 81/119/119 15/82/82 109/134/134
f 98/18/18 151/122/122 33/121/121
f 93/70/70 146/155/155 34/162/162
f 69/111/111 25/116/116 70/124/124
f 104/62/62 17/96/96 54/161/161
f 26/72/72 107/83/83 159/102/102
f 103/150/150 155/34/34 36/131/131
f 1/19/19 90/20/20 153/1/1
f 87/75/75 3/117/117 40/130/130
f 40/130/130 23/79/79 110/76/76
f 159/102/102 43/101/101 16/87/87
f 129/147/147 66/129/129 22/27/27
f 99/138/138 22/27/27 65/56/56
