# Blender v2.91.2 OBJ File: 'hex_tile.blend'
# www.blender.org
o hill01_Cylinder.003
v 1.000000 -0.500000 -1.732051
v 2.000000 -0.500000 0.000000
v 1.000000 -0.500000 1.732051
v -1.000000 -0.500000 1.732051
v -2.000000 -0.500000 -0.000000
v -1.000000 -0.500000 -1.732051
v 0.757894 0.586232 -1.417701
v 1.000000 0.351136 -1.732051
v 1.704781 0.534773 0.075941
v 2.000000 0.351136 0.000000
v 0.750515 0.583582 1.283282
v 1.000000 0.351136 1.732051
v -0.567783 0.583582 1.283282
v -1.000000 0.351136 1.732051
v -1.643283 0.511704 0.142358
v -2.000000 0.351136 -0.000000
v -0.831599 0.616365 -1.122590
v -1.000000 0.351136 -1.732051
v 0.302478 0.907069 0.589304
v -0.749798 0.743588 0.229727
v 0.858854 0.745301 0.116312
v 0.614482 0.745301 1.017577
v -0.541566 0.818463 -0.538008
v -0.101495 0.745301 1.017577
v 0.608697 0.736003 -0.490003
v 2.000000 0.351136 0.000000
v 2.000000 0.351136 0.000000
v 2.000000 0.351136 0.000000
v 1.000000 0.351136 -1.732051
v 1.000000 0.351136 -1.732051
v 1.000000 0.351136 -1.732051
v 0.750515 0.583582 1.283282
v 1.000000 0.351136 1.732051
v 1.000000 0.351136 1.732051
v 1.000000 0.351136 1.732051
v -0.567783 0.583582 1.283282
v -1.000000 0.351136 1.732051
v -1.000000 0.351136 1.732051
v -1.000000 0.351136 1.732051
v -2.000000 0.351136 -0.000000
v -2.000000 0.351136 -0.000000
v -2.000000 0.351136 -0.000000
v -1.000000 0.351136 -1.732051
v -1.000000 0.351136 -1.732051
v -1.000000 0.351136 -1.732051
v 1.000000 -0.500000 -1.732051
v 2.000000 -0.500000 0.000000
v -1.000000 -0.500000 -1.732051
v 1.000000 -0.500000 1.732051
v -1.000000 -0.500000 1.732051
v -2.000000 -0.500000 -0.000000
v 0.302478 0.907069 0.589304
v 0.302478 0.907069 0.589304
v 0.302478 0.907069 0.589304
v 0.302478 0.907069 0.589304
v 0.614482 0.745301 1.017577
v -0.101495 0.745301 1.017577
v -0.101495 0.745301 1.017577
v -0.749798 0.743588 0.229727
v -0.749798 0.743588 0.229727
vt 0.166667 0.500000
vt 0.166667 0.925568
vt -0.000000 0.925568
vt -0.000000 0.500000
vt 0.666667 0.500000
vt 0.666667 0.925568
vt 0.500000 0.925568
vt 0.500000 0.500000
vt 0.500000 0.500000
vt 0.500000 0.925568
vt 0.333333 0.925568
vt 0.333333 0.500000
vt 0.333333 0.500000
vt 0.333333 0.925568
vt 0.166667 0.925568
vt 0.166667 0.500000
vt 1.000000 0.500000
vt 1.000000 0.925568
vt 0.833333 0.925568
vt 0.833333 0.500000
vt 0.833333 0.500000
vt 0.833333 0.925568
vt 0.666667 0.925568
vt 0.666667 0.500000
vt 0.842976 1.143811
vt 0.833333 0.925568
vt 0.962305 1.143811
vt 0.833333 0.925568
vt 0.803252 1.108410
vt 0.683923 1.108410
vt 0.500000 0.925568
vt 0.666667 0.925568
vt 0.650612 1.110491
vt 0.531282 1.110491
vt 0.500000 0.925568
vt 0.490357 1.147973
vt 0.371028 1.147973
vt 0.196748 1.183374
vt 0.166667 0.925568
vt 0.316077 1.183374
vt -0.000000 0.925568
vt 0.166667 0.925568
vt 0.016055 1.181292
vt 0.175594 0.292959
vt 0.101187 0.335917
vt 0.101187 0.164083
vt 0.324407 0.207041
vt 0.324407 0.292959
vt 0.250000 0.250000
vt 0.250000 0.164083
vt 0.324407 0.207041
vt 0.250000 0.250000
vt 0.175594 0.207041
vt 0.250000 0.164083
vt 0.250000 0.250000
vt 0.250000 0.335917
vt 0.250000 0.250000
vt 0.398813 0.335917
vt 0.250000 0.421834
vt 0.250000 0.078166
vt 0.250000 0.164083
vt 0.175594 0.207041
vt 0.250000 0.078166
vt 0.398813 0.164083
vt 0.398813 0.164083
vt 0.175594 0.207041
vt 0.250000 0.250000
vt 0.333333 0.925568
vt 0.666667 0.925568
vt 0.333333 0.925568
vt 0.135384 1.181292
vt 1.000000 0.925568
vn -0.0000 0.0000 -1.0000
vn -0.0000 0.0000 1.0000
vn -0.8660 0.0000 0.5000
vn -0.8660 0.0000 -0.5000
vn 0.8660 0.0000 -0.5000
vn 0.8660 0.0000 0.5000
vn 0.4634 0.8821 0.0847
vn 0.4613 0.8471 -0.2637
vn 0.1816 0.9142 -0.3624
vn 0.5147 0.7781 0.3602
vn 0.3792 0.9004 0.2135
vn -0.0000 0.8880 0.4599
vn -0.0000 0.8762 0.4820
vn -0.0000 0.8814 0.4724
vn -0.3115 0.9246 0.2194
vn -0.2667 0.9432 0.1980
vn -0.3855 0.9199 0.0711
vn -0.2576 0.9241 -0.2824
vn -0.4448 0.8664 -0.2269
vn 0.0000 0.8008 -0.5989
vn -0.0454 0.9050 -0.4229
vn -0.1384 0.9812 -0.1345
vn 0.3279 0.9342 0.1407
vn 0.2636 0.9646 -0.0060
vn 0.3518 0.9312 0.0954
vn -0.0000 0.8773 0.4799
vn -0.0000 0.8843 0.4669
vn -0.0000 0.9355 0.3534
vn -0.2073 0.9637 0.1685
vn 0.1562 0.9796 -0.1267
vn 0.2004 0.9748 -0.0976
vn -0.2503 0.9498 0.1875
vn -0.2525 0.9603 0.1182
vn -0.1700 0.9842 0.0499
vn -0.0213 0.9978 -0.0625
vn -0.4847 0.8287 0.2798
vn 0.4042 0.8844 0.2334
vn -0.3370 0.9212 -0.1946
vn 0.4673 0.8419 -0.2698
s 1
f 6/1/1 45/2/1 31/3/1 1/4/1
f 3/5/2 35/6/2 38/7/2 50/8/2
f 4/9/3 39/10/3 41/11/3 51/12/3
f 5/13/4 42/14/4 44/15/4 48/16/4
f 46/17/5 29/18/5 27/19/5 47/20/5
f 2/21/6 28/22/6 34/23/6 49/24/6
f 9/25/7 26/26/8 7/27/9
f 10/28/10 9/29/7 11/30/11
f 37/31/12 33/32/12 32/33/13 36/34/14
f 14/35/15 13/36/16 15/37/17
f 17/38/18 43/39/19 15/40/17
f 30/41/20 18/42/21 7/43/9
f 23/44/22 17/45/18 15/46/17
f 56/47/23 21/48/24 52/49/25
f 57/50/26 22/51/27 54/52/28
f 60/53/29 24/54/29 19/55/29
f 21/48/24 25/56/30 55/57/31
f 9/58/7 7/59/9 25/56/30
f 15/46/17 13/60/16 58/61/32 59/62/33
f 7/59/9 17/45/18 23/44/22
f 36/63/14 32/64/13 22/51/27 57/50/26
f 11/65/11 9/58/7 21/48/24 56/47/23
f 23/44/22 20/66/34 53/67/35
f 40/68/36 14/35/15 15/37/17
f 12/69/37 10/28/10 11/30/11
f 21/48/24 9/58/7 25/56/30
f 25/56/30 7/59/9 23/44/22
f 59/62/33 23/44/22 15/46/17
f 43/39/19 16/70/38 15/40/17
f 18/42/21 17/71/18 7/43/9
f 26/26/8 8/72/39 7/27/9
f 25/56/30 23/44/22 53/67/35
