# Blender v2.91.2 OBJ File: 'hexes.blend'
# www.blender.org
o lod1_Cylinder.014
v 0.632379 0.047614 -1.271675
v -1.000000 0.000000 1.732051
v -0.530245 0.298834 -0.889797
v -1.407785 0.000000 -0.011832
v 1.489795 0.031287 0.061283
v 1.000000 0.000000 1.732051
v -0.410543 0.045077 1.305067
v 1.000000 0.000000 -1.732051
v 2.000000 0.000000 0.000000
v -2.000000 0.000000 -0.000000
v -1.000000 0.000000 -1.732051
v 0.656527 0.036963 1.258582
v -0.013621 0.053676 0.033860
v -0.259966 0.189790 -0.534878
v 0.683077 0.056811 0.449713
v -0.439051 0.166030 0.606879
v -1.107614 0.016985 0.683354
v -0.712871 0.022503 0.221153
v 0.210015 0.101199 -0.429378
v 0.592053 0.233404 -0.180206
v 0.585428 0.158977 -0.562904
v 0.076815 0.261521 -0.929644
v -0.105147 0.056195 -1.366879
v -1.075746 0.031431 -0.679970
v -0.745501 0.046581 -0.304928
v 0.021484 0.233526 0.855217
v 1.196888 0.001114 0.716794
v 0.959713 0.190642 -0.198103
v 1.104698 0.030331 -0.611879
v -0.753075 0.058193 -1.303403
v 1.250000 0.000000 1.299038
v 1.500000 0.000000 0.866026
v 1.750000 0.000000 0.433013
v -1.750000 0.000000 0.433012
v -1.500000 0.000000 0.866025
v -1.250000 0.000000 1.299038
v 1.750000 0.000000 -0.433013
v 1.500000 0.000000 -0.866025
v 1.250000 0.000000 -1.299038
v 0.500000 0.000000 -1.732051
v -0.000000 0.000000 -1.732051
v -0.500000 0.000000 -1.732051
v -1.250000 0.000000 -1.299038
v -1.500000 0.000000 -0.866025
v -1.750000 0.000000 -0.433013
v -0.071284 0.046668 1.357170
v 0.188705 0.045066 1.367991
v 0.430793 0.043664 1.345088
v 1.312052 0.003086 0.505099
v 1.405462 0.006999 0.353573
v 1.473965 0.014755 0.215749
v -0.949970 0.025068 0.907352
v -0.822722 0.028900 1.057446
v -0.672601 0.034952 1.185386
v 0.959134 0.023423 -0.855275
v 0.864526 0.022521 -1.025940
v 0.769553 0.029333 -1.166552
v -0.245869 0.136509 -1.243522
v -0.339105 0.206215 -1.144401
v -0.426646 0.264650 -1.039956
v -1.223799 0.011544 -0.450629
v -1.326961 0.003325 -0.300137
v -1.398188 0.000411 -0.164598
v -0.500000 0.000000 1.732051
v -0.000000 0.000000 1.732051
v 0.500000 0.000000 1.732051
v -0.320591 0.159049 0.469909
v -0.227073 0.132130 0.350531
v -0.137555 0.095662 0.226464
v 0.478025 0.188303 -0.121761
v 0.358062 0.140298 -0.075632
v 0.215885 0.092264 -0.028204
v 0.468902 0.079524 0.357873
v 0.327655 0.082193 0.268007
v 0.189805 0.078118 0.171375
v -0.347242 0.245694 -0.628689
v -0.408815 0.285464 -0.705012
v -0.462869 0.307483 -0.781691
v -0.105522 0.060759 -0.165328
v -0.168012 0.090035 -0.288635
v -0.219970 0.130534 -0.403261
v -0.588329 0.094442 -0.377016
v -0.482827 0.131526 -0.429189
v -0.379924 0.164248 -0.478696
v 0.229332 0.207457 -1.051146
v 0.355094 0.153690 -1.140030
v 0.479457 0.099458 -1.209288
v 0.682023 0.043643 1.079406
v 0.683445 0.045171 0.911945
v 0.674677 0.047614 0.722165
v 0.948529 0.041576 0.348021
v 1.145822 0.036658 0.261434
v 1.320113 0.035187 0.171610
v 0.187926 0.197173 0.780023
v 0.326883 0.149674 0.701026
v 0.473008 0.098038 0.605369
v -0.497113 0.094439 1.100821
v -0.504257 0.131887 0.941397
v -0.482264 0.159019 0.784414
v -1.410601 0.000222 0.151036
v -1.353676 0.001797 0.298732
v -1.259961 0.006238 0.457255
v -0.608779 0.056374 0.319432
v -0.542081 0.092988 0.398661
v -0.490099 0.129003 0.483879
v -0.828553 0.026599 0.334510
v -0.923496 0.026513 0.431610
v -1.014237 0.024774 0.531772
v -0.527272 0.027052 0.171248
v -0.378285 0.030184 0.127510
v -0.231914 0.037613 0.085142
v 0.080378 0.062211 -0.140437
v 0.129651 0.068959 -0.240742
v 0.169799 0.080931 -0.330314
v -0.953147 0.000956 -1.652943
v -0.898885 0.007739 -1.560041
v -0.831271 0.025698 -1.442154
v 0.600278 0.127553 -0.759935
v 0.618373 0.100889 -0.929101
v 0.630381 0.075388 -1.091002
v 0.307434 0.122415 -0.465265
v 0.385965 0.140960 -0.490879
v 0.467651 0.158122 -0.519929
v 0.613651 0.239255 -0.279803
v 0.611125 0.223161 -0.354827
v 0.598405 0.195018 -0.433345
v -0.192717 0.234262 -0.646589
v -0.123966 0.261444 -0.735986
v -0.044338 0.273884 -0.820898
v 0.494546 0.044495 -1.360096
v 0.341389 0.043492 -1.382848
v 0.161581 0.047851 -1.380150
v 0.169759 0.135317 -0.549484
v 0.139301 0.179754 -0.659079
v 0.111111 0.225882 -0.774093
v 0.036877 0.231051 -1.072739
v 0.001576 0.182195 -1.167965
v -0.036768 0.125077 -1.255518
v 1.104178 0.146626 -0.135446
v 1.236079 0.106817 -0.079134
v 1.356173 0.067403 -0.017797
v -0.685055 0.235342 -0.838371
v -0.796926 0.170165 -0.792483
v -0.910298 0.100710 -0.746277
v -1.253955 0.000548 -0.101120
v -1.111692 0.004433 -0.166756
v -0.950918 0.015651 -0.228127
v -0.873708 0.051285 -0.398361
v -0.945794 0.049657 -0.472493
v -1.007699 0.045919 -0.552347
v -0.286853 0.112915 1.199408
v -0.193203 0.171135 1.109317
v -0.091279 0.215273 1.003164
v 0.164084 0.196949 1.001364
v 0.310560 0.147857 1.105743
v 0.463645 0.091519 1.185865
v -0.324039 0.206908 0.672388
v -0.231453 0.234678 0.733160
v -0.129893 0.244686 0.792557
v 0.836606 0.013372 1.173232
v 0.948647 0.003940 1.056162
v 1.051897 0.000876 0.912520
v 0.861171 0.020102 0.563972
v 0.977985 0.006664 0.621885
v 1.085156 0.001977 0.668759
v 0.704996 0.180641 -0.451693
v 0.790700 0.196954 -0.377018
v 0.871593 0.202992 -0.302593
v 0.698454 0.252095 -0.176822
v 0.777843 0.248927 -0.179680
v 0.854137 0.227927 -0.184393
v 1.480312 0.035026 -0.100799
v 1.398934 0.034525 -0.239913
v 1.279505 0.033749 -0.389552
v 1.015246 0.156979 -0.292336
v 1.046890 0.118692 -0.373414
v 1.073874 0.076603 -0.462062
v 0.717125 0.123118 -0.594387
v 0.822950 0.091819 -0.610647
v 0.936658 0.062861 -0.622594
v 0.636492 0.113914 0.231821
v 0.624207 0.165260 0.085801
v 0.613989 0.208258 -0.046644
v 0.496916 0.200628 -0.250144
v 0.410855 0.159503 -0.302229
v 0.319136 0.120696 -0.354757
v 0.081734 0.106809 -0.457494
v -0.024991 0.128353 -0.482390
v -0.130830 0.157792 -0.507247
v -0.600008 0.128935 0.647238
v -0.745301 0.092442 0.673251
v -0.897758 0.054481 0.691457
v -0.558584 0.033946 -0.215712
v -0.400862 0.029446 -0.148491
v -0.239293 0.033291 -0.078269
v -0.916029 0.008164 0.176711
v -1.089006 0.002343 0.128021
v -1.246331 0.000289 0.070452
v -0.701664 0.110495 -1.207180
v -0.655526 0.173351 -1.118569
v -0.602566 0.236621 -1.019161
v -0.896832 0.000604 1.644846
v -0.777338 0.004892 1.550449
v -0.624229 0.016949 1.441271
v -1.903755 0.000000 -0.005332
v -1.786477 0.000000 -0.009664
v -1.627626 0.000000 -0.012034
v 0.928759 0.000695 -1.660483
v 0.848961 0.005627 -1.571200
v 0.752401 0.019170 -1.446920
v 0.798010 0.014881 1.430543
v 0.892846 0.004368 1.556917
v 0.954774 0.000540 1.652319
v 1.700031 0.016687 0.042699
v 1.839862 0.008244 0.026957
v 1.931975 0.003271 0.013022
v -0.632382 0.000634 -1.632747
v -0.427684 0.005135 -1.554334
v -0.259548 0.018258 -1.474921
v -1.079854 0.000411 -1.338479
v -1.098634 0.003325 -1.097641
v -1.101554 0.011544 -0.890365
v 1.179338 0.000404 0.915826
v 1.148916 0.000116 1.116305
v 1.105069 0.000014 1.348374
v 1.724138 0.001072 0.294732
v 1.541120 0.001278 0.457439
v 1.375327 0.001312 0.592342
v 1.704801 0.001410 -0.264268
v 1.502741 0.004013 -0.403900
v 1.317487 0.010997 -0.516279
v 1.075942 0.000321 -1.330095
v 1.098944 0.002602 -1.076673
v 1.110207 0.009356 -0.852142
v 0.236187 0.225247 -0.857727
v 0.346478 0.197388 -0.777415
v 0.452557 0.171556 -0.687080
v -0.721934 0.008646 0.087908
v -0.735208 0.006243 -0.025191
v -0.747448 0.014375 -0.143007
v 0.580366 0.000607 -1.635663
v 0.330070 0.004917 -1.557693
v 0.114911 0.017617 -1.477939
v -1.291455 0.008522 -0.560306
v -1.481435 0.002297 -0.434411
v -1.689946 0.000284 -0.281946
v -0.134817 0.014850 1.464676
v 0.158958 0.004174 1.556873
v 0.496288 0.000516 1.636438
v -1.711925 0.000153 0.289671
v -1.520497 0.001241 0.450105
v -1.337551 0.004605 0.578240
v -1.082433 0.000222 1.346765
v -1.116352 0.001797 1.113394
v -1.130864 0.006238 0.906954
v -0.706993 0.122649 -0.472177
v -0.664386 0.192533 -0.598993
v -0.612438 0.254196 -0.725365
v 0.015936 0.116613 0.290237
v 0.017428 0.172213 0.475146
v 0.017053 0.215406 0.653287
v -0.363052 0.324215 -0.921703
v -0.232767 0.322094 -0.937509
v -0.099551 0.301039 -0.944136
v 0.937907 0.172884 -0.052348
v 0.885907 0.140063 0.085090
v 0.812920 0.100100 0.232181
v -0.647194 0.055884 -1.348548
v -0.517604 0.053546 -1.366112
v -0.358083 0.055171 -1.367838
v -0.961929 0.046075 -0.920076
v -0.893779 0.050926 -1.079368
v -0.829042 0.055560 -1.207609
v 0.479176 0.173656 -0.380401
v 0.532628 0.207675 -0.309725
v 0.537356 0.197053 -0.370503
v 0.514514 0.174425 -0.438183
v 0.440764 0.153563 -0.424696
v 0.378104 0.136849 -0.397514
v 0.453840 0.170149 -0.347614
v 0.931114 0.004405 -1.244265
v 0.970141 0.000819 -1.407680
v 0.895276 0.004218 -1.386940
v 0.828881 0.013249 -1.295761
v 0.904711 0.009952 -1.146652
v 0.992671 0.009511 -1.002268
v 0.994753 0.002999 -1.187582
v -1.351511 0.000862 -0.795126
v -1.576288 0.000211 -0.526965
v -1.413466 0.001677 -0.622620
v -1.249695 0.005473 -0.748662
v -1.230268 0.001804 -0.939911
v -1.236629 0.000226 -1.115215
v -1.415000 0.000133 -0.825261
v 0.996193 0.001128 1.266824
v 1.013566 0.000298 1.420182
v 1.054500 0.000237 1.219714
v 1.068795 0.000495 1.051404
v 0.979301 0.002310 1.174353
v 0.892522 0.007196 1.301430
v 0.951828 0.002314 1.393630
v -0.005789 0.189659 -0.637606
v 0.075642 0.142831 -0.555880
v 0.056579 0.185439 -0.652313
v 0.018544 0.230745 -0.743871
v -0.055154 0.221129 -0.683677
v -0.105450 0.194543 -0.602844
v -0.016674 0.162309 -0.571219
v -0.630961 0.009696 -1.501117
v -0.739829 0.001586 -1.589446
v -0.747831 0.007533 -1.527484
v -0.703698 0.023713 -1.443462
v -0.572960 0.022428 -1.444361
v -0.432513 0.021384 -1.452329
v -0.563702 0.006629 -1.525204
v 0.870892 0.008238 0.867183
v 0.807257 0.016999 1.034885
v 0.907785 0.005447 0.947307
v 0.992713 0.001766 0.819370
v 0.908449 0.006509 0.758959
v 0.803134 0.019661 0.727213
v 0.793859 0.018790 0.889531
v -0.735225 0.076126 0.504452
v -0.614879 0.113533 0.541395
v -0.651046 0.086586 0.460445
v -0.721646 0.054841 0.395879
v -0.813196 0.052554 0.478723
v -0.875878 0.053680 0.573610
v -0.743506 0.086219 0.572724
v -0.330925 0.197480 0.946093
v -0.381906 0.140543 1.082823
v -0.286457 0.189434 1.021568
v -0.201158 0.228348 0.922658
v -0.289024 0.221993 0.856891
v -0.378526 0.195530 0.812745
v -0.404259 0.169468 0.950201
v -1.001668 0.001948 -0.023484
v -1.170869 0.000500 -0.019260
v -1.045071 0.001571 0.039670
v -0.890214 0.004635 0.074149
v -0.887655 0.003920 -0.025253
v -0.912736 0.008283 -0.126023
v -1.058599 0.002716 -0.084432
v -0.796121 0.144012 -0.617490
v -0.895551 0.099690 -0.635282
v -0.855541 0.098947 -0.555479
v -0.791485 0.107258 -0.501587
v -0.738219 0.167897 -0.609010
v -0.702516 0.215395 -0.720362
v -0.796654 0.161160 -0.690135
v -0.194848 0.253547 -1.081529
v -0.162494 0.177586 -1.186843
v -0.255872 0.235809 -1.107186
v -0.322797 0.289140 -1.017401
v -0.212437 0.291041 -1.018301
v -0.093494 0.268910 -1.036375
v -0.113595 0.223452 -1.118723
v 1.104417 0.093072 0.097521
v 1.264403 0.066018 0.085798
v 1.174805 0.101980 0.020648
v 1.056822 0.137303 -0.021516
v 1.002188 0.111595 0.099154
v 0.961715 0.076232 0.224525
v 1.124894 0.066104 0.169640
v 0.458047 0.123823 0.928974
v 0.533534 0.091828 0.767487
v 0.401342 0.139894 0.832601
v 0.283719 0.178289 0.913056
v 0.404194 0.139130 1.012712
v 0.540884 0.089384 1.067860
v 0.559870 0.086966 0.926332
v -0.484143 0.009619 -0.016578
v -0.564651 0.011171 0.075366
v -0.429368 0.014189 0.045118
v -0.317475 0.020393 -0.005162
v -0.443246 0.014577 -0.073016
v -0.587248 0.014343 -0.119490
v -0.589351 0.007399 -0.021460
v -0.358576 0.082458 0.280175
v -0.481502 0.055671 0.257299
v -0.435704 0.089543 0.332085
v -0.381320 0.123312 0.398610
v -0.295326 0.101483 0.301473
v -0.238784 0.069047 0.195185
v -0.357155 0.057209 0.212647
v 0.445159 0.161397 -0.964952
v 0.518584 0.115618 -1.091868
v 0.410281 0.161166 -1.047837
v 0.311967 0.202906 -0.963655
v 0.399564 0.183832 -0.881326
v 0.496398 0.156746 -0.813845
v 0.522152 0.134168 -0.955239
v 0.228383 0.121463 -1.250013
v 0.120923 0.095401 -1.297130
v 0.127957 0.145618 -1.217294
v 0.167696 0.185329 -1.138307
v 0.287110 0.137353 -1.210372
v 0.391295 0.087615 -1.281901
v 0.269979 0.083757 -1.309270
v 1.245418 0.089557 -0.246241
v 1.203274 0.067101 -0.363713
v 1.159690 0.103207 -0.307548
v 1.135060 0.132113 -0.231047
v 1.254989 0.100395 -0.175519
v 1.365589 0.065547 -0.133349
v 1.308930 0.063333 -0.248901
v -1.139351 0.008355 -0.318486
v -1.000677 0.019447 -0.315892
v -1.053416 0.019780 -0.386149
v -1.124409 0.016918 -0.434973
v -1.218425 0.005205 -0.315829
v -1.265466 0.001235 -0.204232
v -1.136630 0.005949 -0.251908
v 0.078905 0.126944 1.222722
v 0.309165 0.089702 1.260686
v 0.185984 0.140825 1.180063
v 0.045249 0.184083 1.094515
v -0.052257 0.147667 1.181364
v -0.099042 0.096278 1.267410
v 0.113534 0.088301 1.288344
v 0.212444 0.132451 0.476239
v 0.372411 0.101448 0.479409
v 0.261094 0.101904 0.383517
v 0.139992 0.106246 0.316663
v 0.123583 0.150606 0.473072
v 0.138478 0.184774 0.627957
v 0.259062 0.144262 0.572370
v 1.175723 0.009553 0.413301
v 1.000365 0.018738 0.440974
v 1.082328 0.007585 0.499189
v 1.188366 0.003665 0.521016
v 1.276972 0.007790 0.391285
v 1.322084 0.016761 0.276594
v 1.164116 0.017667 0.348828
v 0.735340 0.244247 -0.313274
v 0.683104 0.213616 -0.394847
v 0.682917 0.239904 -0.333500
v 0.691913 0.255083 -0.264276
v 0.759997 0.253106 -0.261115
v 0.817756 0.233942 -0.273458
v 0.757568 0.226888 -0.340887
v 0.875189 0.138072 -0.447042
v 0.767574 0.147028 -0.489878
v 0.834596 0.164150 -0.415442
v 0.915711 0.167625 -0.354125
v 0.945124 0.130885 -0.419899
v 0.952709 0.094376 -0.504459
v 0.851514 0.117359 -0.509350
v 0.774676 0.060661 -0.850299
v 0.732041 0.051092 -1.028910
v 0.708807 0.074920 -0.888639
v 0.702034 0.098383 -0.737743
v 0.796000 0.071573 -0.740097
v 0.884294 0.045705 -0.776357
v 0.816152 0.041623 -0.921569
v 0.442142 0.124150 0.091996
v 0.291167 0.095189 0.075897
v 0.393964 0.096749 0.164294
v 0.512953 0.102057 0.222809
v 0.525696 0.142174 0.096665
v 0.512017 0.174840 -0.019543
v 0.402790 0.134754 0.015994
v 0.303831 0.121713 -0.208578
v 0.205668 0.090815 -0.130706
v 0.324787 0.132938 -0.154915
v 0.423265 0.172326 -0.197150
v 0.354751 0.140226 -0.251253
v 0.268157 0.104373 -0.291879
v 0.227400 0.092775 -0.217461
v -0.022393 0.082408 -0.326873
v -0.015156 0.064103 -0.212753
v 0.040429 0.068830 -0.283804
v 0.069558 0.082367 -0.365803
v -0.025633 0.099527 -0.393869
v -0.119737 0.119210 -0.405470
v -0.081182 0.086807 -0.306558
v -0.705093 0.082162 0.888345
v -0.636270 0.068254 1.050802
v -0.616115 0.101274 0.916106
v -0.604562 0.123240 0.778718
v -0.729797 0.089131 0.790970
v -0.849415 0.054430 0.830875
v -0.759618 0.056572 0.957603
v -0.353294 0.076940 -0.284938
v -0.322719 0.120516 -0.382065
v -0.417064 0.096668 -0.346679
v -0.495218 0.064967 -0.291364
v -0.371093 0.053543 -0.225654
v -0.235762 0.054932 -0.180073
v -0.269491 0.084616 -0.283166
v -1.133177 0.004495 0.300403
v -1.139145 0.009133 0.428715
v -1.042601 0.010618 0.363651
v -0.970536 0.010294 0.276485
v -1.119302 0.003177 0.224282
v -1.264347 0.000663 0.184837
v -1.228618 0.002810 0.306775
v -0.201857 0.001226 1.615450
v 0.227537 0.000313 1.659097
v -0.035654 0.002497 1.589102
v -0.321570 0.008067 1.518894
v -0.451312 0.002586 1.587755
v -0.496268 0.000324 1.659389
v -0.116395 0.000189 1.666837
v -0.911570 0.005050 1.260616
v -0.957373 0.000814 1.414309
v -0.854963 0.004389 1.387266
v -0.757357 0.014193 1.302878
v -0.876881 0.011810 1.170175
v -0.995287 0.009283 1.044137
v -0.995605 0.002896 1.214159
v -0.035149 0.001541 -1.611650
v 0.316714 0.000389 -1.656217
v -0.020108 0.000238 -1.663577
v -0.360585 0.000392 -1.655431
v -0.224140 0.003125 -1.585859
v -0.059655 0.009784 -1.525153
v 0.139965 0.003098 -1.586785
v -0.793231 0.141678 -0.991322
v -0.702446 0.210194 -0.951758
v -0.736145 0.161687 -1.049018
v -0.780161 0.105575 -1.126284
v -0.841368 0.098630 -1.020252
v -0.885345 0.099516 -0.887591
v -0.796229 0.159718 -0.904049
v 1.617730 0.004588 0.261745
v 1.754365 0.002951 0.186561
v 1.715294 0.006051 0.159297
v 1.614730 0.010384 0.175263
v 1.529099 0.005759 0.304139
v 1.450212 0.002901 0.435803
v 1.594945 0.002750 0.329481
v 1.390957 0.000199 0.811176
v 1.260032 0.000027 1.124875
v 1.437459 0.000091 0.834583
v 1.602129 0.000313 0.537382
v 1.462247 0.000484 0.641978
v 1.317209 0.000504 0.774266
v 1.276292 0.000154 0.958250
v 1.592262 0.009055 -0.189951
v 1.604674 0.016989 -0.087539
v 1.700396 0.008065 -0.095348
v 1.736415 0.003557 -0.141698
v 1.561634 0.006269 -0.265710
v 1.407735 0.014533 -0.350147
v 1.505196 0.016463 -0.215337
v 1.359099 0.000998 -0.776939
v 1.583478 0.000517 -0.514540
v 1.419266 0.000214 -0.815016
v 1.238750 0.000227 -1.105317
v 1.236546 0.001752 -0.919263
v 1.263425 0.005579 -0.715953
v 1.425641 0.002113 -0.599135
v 0.284887 0.171047 -0.635421
v 0.212493 0.209227 -0.749346
v 0.221671 0.174495 -0.649538
v 0.254981 0.139999 -0.553434
v 0.328755 0.151533 -0.569253
v 0.392840 0.166510 -0.610038
v 0.307134 0.188226 -0.690985
v 0.523975 0.007848 -1.511812
v 0.593836 0.018202 -1.454806
v 0.665484 0.005737 -1.538563
v 0.675137 0.001298 -1.596862
v 0.459073 0.005841 -1.532682
v 0.285254 0.018900 -1.460923
v 0.438572 0.018170 -1.456841
v -1.544933 0.000862 -0.232909
v -1.705157 0.000211 -0.169541
v -1.650429 0.000133 -0.135478
v -1.538308 0.000226 -0.140362
v -1.448193 0.001804 -0.266543
v -1.365387 0.005473 -0.399053
v -1.526612 0.001677 -0.303249
v 0.412656 0.007802 1.505212
v 0.610532 0.001203 1.592828
v 0.618984 0.005324 1.529606
v 0.544945 0.017066 1.442802
v 0.304405 0.018303 1.447213
v 0.082184 0.017862 1.449805
v 0.314884 0.005492 1.528802
v -1.576468 0.000466 0.235654
v -1.408538 0.002957 0.411014
v -1.481318 0.000975 0.268803
v -1.556222 0.000122 0.130146
v -1.669562 0.000072 0.129352
v -1.726130 0.000114 0.170581
v -1.563416 0.000906 0.312885
v -1.381916 0.000466 0.811468
v -1.597137 0.000114 0.536996
v -1.433550 0.000072 0.835353
v -1.252231 0.000122 1.125409
v -1.260429 0.000975 0.957680
v -1.290805 0.002957 0.769115
v -1.449687 0.000906 0.640268
v -0.535550 0.213182 -0.580871
v -0.612387 0.147622 -0.482499
v -0.521597 0.176611 -0.514658
v -0.434094 0.211170 -0.565237
v -0.483901 0.248457 -0.637243
v -0.541287 0.263976 -0.691335
v -0.592141 0.207887 -0.589027
v -0.143133 0.197571 0.506305
v -0.088730 0.141376 0.342206
v -0.175225 0.169646 0.430253
v -0.252248 0.195552 0.542357
v -0.179146 0.222007 0.604968
v -0.090928 0.228383 0.641606
v -0.076667 0.189714 0.488935
v -0.259877 0.317141 -0.802063
v -0.358839 0.328788 -0.835827
v -0.326649 0.309527 -0.763533
v -0.268932 0.275988 -0.702278
v -0.199703 0.297170 -0.777205
v -0.142200 0.308559 -0.856623
v -0.249786 0.328401 -0.860298
v 0.764467 0.198186 0.006052
v 0.847417 0.205523 -0.071522
v 0.776004 0.226162 -0.079429
v 0.701720 0.226394 -0.067477
v 0.708351 0.186186 0.048083
v 0.736671 0.141156 0.156045
v 0.806786 0.173482 0.046876
v -0.497633 0.147254 -1.219963
v -0.371302 0.112594 -1.276405
v -0.496726 0.102576 -1.285071
v -0.606631 0.106290 -1.261066
v -0.568184 0.164316 -1.179715
v -0.508463 0.219126 -1.102749
v -0.428165 0.173297 -1.187486
v -0.956358 0.009017 -1.257824
v -0.999971 0.017072 -1.037251
v -0.932963 0.021007 -1.171988
v -0.880493 0.023535 -1.307073
v -0.931154 0.007428 -1.389233
v -0.988419 0.001420 -1.411610
v -1.006941 0.005308 -1.204805
vt 0.788059 0.598635
vt 0.810874 0.568050
vt 0.811608 0.615724
vt 0.643548 0.531034
vt 0.637155 0.512573
vt 0.646357 0.516822
vt 0.619795 0.580297
vt 0.596258 0.559114
vt 0.620339 0.555315
vt 0.218530 0.745072
vt 0.180466 0.760433
vt 0.163027 0.737959
vt 0.529512 0.593655
vt 0.556681 0.598457
vt 0.539535 0.616268
vt 0.739053 0.488671
vt 0.764105 0.492708
vt 0.742513 0.504892
vt 0.842693 0.760739
vt 0.874680 0.733819
vt 0.902448 0.742911
vt 0.807818 0.740355
vt 0.801100 0.761347
vt 0.776558 0.759932
vt 0.683104 0.483712
vt 0.699273 0.477577
vt 0.690675 0.497472
vt 0.662676 0.479463
vt 0.635013 0.486491
vt 0.646916 0.460535
vt 0.613779 0.484006
vt 0.622939 0.507844
vt 0.605546 0.503709
vt 0.671003 0.496252
vt 0.649299 0.495169
vt 0.655876 0.576894
vt 0.639894 0.551824
vt 0.660898 0.548942
vt 0.691627 0.545388
vt 0.660851 0.525612
vt 0.677954 0.515200
vt 0.657471 0.507979
vt 0.609930 0.530103
vt 0.627129 0.532353
vt 0.808452 0.656957
vt 0.768569 0.656136
vt 0.783068 0.631346
vt 0.581500 0.112486
vt 0.570855 0.130733
vt 0.563395 0.109018
vt 0.601194 0.747538
vt 0.613410 0.725301
vt 0.620842 0.747241
vt 0.776409 0.520192
vt 0.784684 0.559462
vt 0.410650 0.865215
vt 0.424983 0.839710
vt 0.443981 0.877344
vt 0.116513 0.666539
vt 0.078051 0.737108
vt 0.105195 0.638796
vt 0.138079 0.482744
vt 0.188012 0.478651
vt 0.151158 0.529995
vt 0.613942 0.123789
vt 0.636419 0.108936
vt 0.659718 0.142871
vt 0.119381 0.530310
vt 0.127156 0.580383
vt 0.926229 0.749111
vt 0.880685 0.684423
vt 0.893593 0.655148
vt 0.900560 0.588085
vt 0.867791 0.598723
vt 0.877649 0.548936
vt 0.859260 0.634800
vt 0.792102 0.695564
vt 0.837048 0.677705
vt 0.839057 0.718985
vt 0.835110 0.636904
vt 0.113216 0.484774
vt 0.862288 0.689152
vt 0.842820 0.549668
vt 0.836226 0.595623
vt 0.442726 0.082906
vt 0.509337 0.008989
vt 0.508796 0.031092
vt 0.265552 0.745993
vt 0.244813 0.767958
vt 0.444578 0.915338
vt 0.099993 0.570893
vt 0.561277 0.562561
vt 0.574246 0.580426
vt 0.419582 0.719093
vt 0.404514 0.694371
vt 0.431371 0.709501
vt 0.551521 0.179983
vt 0.578608 0.159451
vt 0.583259 0.187251
vt 0.317964 0.830441
vt 0.334437 0.807742
vt 0.362364 0.847041
vt 0.791037 0.253650
vt 0.801833 0.240575
vt 0.814704 0.252425
vt 0.235704 0.799720
vt 0.364283 0.770679
vt 0.301928 0.771838
vt 0.384445 0.820256
vt 0.283047 0.800520
vt 0.382718 0.885960
vt 0.294432 0.864059
vt 0.307875 0.844785
vt 0.566494 0.212434
vt 0.561047 0.897858
vt 0.539168 0.893272
vt 0.566756 0.878425
vt 0.561966 0.261776
vt 0.534049 0.310440
vt 0.527275 0.268948
vt 0.624409 0.604685
vt 0.602034 0.589390
vt 0.560199 0.680061
vt 0.544851 0.652437
vt 0.568485 0.663106
vt 0.653720 0.648135
vt 0.617452 0.644137
vt 0.634919 0.627214
vt 0.616665 0.204964
vt 0.671906 0.203789
vt 0.654342 0.226629
vt 0.511216 0.968338
vt 0.473592 0.920166
vt 0.537174 0.113347
vt 0.538787 0.086859
vt 0.506720 0.058506
vt 0.451876 0.095448
vt 0.690307 0.177602
vt 0.644313 0.163257
vt 0.548912 0.074169
vt 0.577033 0.079048
vt 0.617778 0.178472
vt 0.604642 0.146898
vt 0.492584 0.149574
vt 0.540814 0.147140
vt 0.501643 0.096410
vt 0.289792 0.470802
vt 0.305662 0.493630
vt 0.276131 0.486635
vt 0.446459 0.430474
vt 0.416092 0.443217
vt 0.417938 0.420644
vt 0.565653 0.832083
vt 0.603070 0.835655
vt 0.569770 0.853914
vt 0.585324 0.208457
vt 0.588176 0.245893
vt 0.676991 0.719146
vt 0.648916 0.745754
vt 0.642469 0.719094
vt 0.794389 0.403871
vt 0.767607 0.412856
vt 0.787367 0.387419
vt 0.511621 0.941614
vt 0.156058 0.575225
vt 0.181410 0.593195
vt 0.157499 0.615252
vt 0.513463 0.232097
vt 0.519966 0.184985
vt 0.540787 0.220463
vt 0.711150 0.721821
vt 0.677570 0.691910
vt 0.715570 0.697694
vt 0.546220 0.579937
vt 0.608886 0.616256
vt 0.584347 0.601905
vt 0.580774 0.690300
vt 0.593797 0.671909
vt 0.568526 0.616128
vt 0.630796 0.681860
vt 0.574617 0.644281
vt 0.595779 0.648396
vt 0.591920 0.624537
vt 0.774933 0.731598
vt 0.518316 0.637194
vt 0.555613 0.633249
vt 0.484605 0.883978
vt 0.512456 0.867193
vt 0.512029 0.907536
vt 0.682627 0.834765
vt 0.654603 0.805517
vt 0.713180 0.803653
vt 0.492114 0.204181
vt 0.456409 0.860871
vt 0.789859 0.278737
vt 0.759222 0.257295
vt 0.240566 0.541058
vt 0.226483 0.500272
vt 0.258048 0.511198
vt 0.811069 0.309849
vt 0.853670 0.328626
vt 0.828472 0.345820
vt 0.663855 0.284391
vt 0.637592 0.248597
vt 0.674228 0.262886
vt 0.637157 0.575269
vt 0.510813 0.991011
vt 0.548453 0.929746
vt 0.575879 0.926115
vt 0.634989 0.898081
vt 0.609530 0.885202
vt 0.655450 0.867317
vt 0.706637 0.858619
vt 0.731123 0.823541
vt 0.775713 0.816384
vt 0.539770 0.839362
vt 0.540450 0.864946
vt 0.577859 0.895227
vt 0.672977 0.418973
vt 0.700777 0.433176
vt 0.684498 0.440084
vt 0.539572 0.917163
vt 0.635371 0.848071
vt 0.205643 0.732115
vt 0.596928 0.863751
vt 0.080940 0.487456
vt 0.099108 0.485941
vt 0.790539 0.773677
vt 0.323265 0.328278
vt 0.354089 0.319835
vt 0.343242 0.342632
vt 0.668150 0.447938
vt 0.656664 0.424424
vt 0.377767 0.450316
vt 0.343658 0.470157
vt 0.344608 0.444491
vt 0.492071 0.243746
vt 0.265162 0.366493
vt 0.229233 0.375582
vt 0.244217 0.340719
vt 0.749091 0.395547
vt 0.771528 0.368673
vt 0.606383 0.227265
vt 0.620010 0.273999
vt 0.595938 0.318411
vt 0.709090 0.285479
vt 0.663427 0.309888
vt 0.279791 0.456547
vt 0.721419 0.509708
vt 0.710986 0.482245
vt 0.725747 0.486107
vt 0.211974 0.538523
vt 0.228668 0.566079
vt 0.207368 0.576279
vt 0.266504 0.551397
vt 0.258927 0.598314
vt 0.240799 0.581068
vt 0.384956 0.256124
vt 0.409670 0.310381
vt 0.367525 0.291048
vt 0.535804 0.691372
vt 0.512795 0.710883
vt 0.512827 0.688777
vt 0.332202 0.234211
vt 0.332436 0.279217
vt 0.300892 0.269817
vt 0.411050 0.124127
vt 0.387594 0.130206
vt 0.385133 0.339853
vt 0.432817 0.353755
vt 0.411330 0.367636
vt 0.290050 0.520948
vt 0.396855 0.384242
vt 0.357806 0.384888
vt 0.370527 0.362652
vt 0.467016 0.596542
vt 0.438128 0.614936
vt 0.455549 0.586262
vt 0.446538 0.122554
vt 0.434338 0.156816
vt 0.373159 0.494763
vt 0.374067 0.471980
vt 0.284504 0.394237
vt 0.267189 0.434614
vt 0.256115 0.407195
vt 0.340850 0.411434
vt 0.311119 0.447187
vt 0.301508 0.422030
vt 0.328334 0.531725
vt 0.338830 0.496614
vt 0.156370 0.295188
vt 0.198877 0.256063
vt 0.187413 0.301762
vt 0.373668 0.519876
vt 0.178124 0.344825
vt 0.147444 0.349835
vt 0.159719 0.329496
vt 0.313085 0.469967
vt 0.232208 0.450186
vt 0.251235 0.473375
vt 0.296200 0.620197
vt 0.308169 0.585578
vt 0.320917 0.606569
vt 0.388503 0.404831
vt 0.382321 0.427610
vt 0.396543 0.589973
vt 0.353499 0.587897
vt 0.383922 0.569385
vt 0.693793 0.246359
vt 0.310141 0.378508
vt 0.483416 0.908318
vt 0.214368 0.607314
vt 0.232100 0.629970
vt 0.405452 0.555605
vt 0.454225 0.835070
vt 0.419459 0.808685
vt 0.410354 0.762681
vt 0.433506 0.790601
vt 0.461439 0.345401
vt 0.492318 0.307742
vt 0.493294 0.342951
vt 0.261046 0.260808
vt 0.295189 0.304886
vt 0.267980 0.313778
vt 0.323505 0.307835
vt 0.463709 0.663582
vt 0.487260 0.639745
vt 0.488498 0.663527
vt 0.286178 0.347940
vt 0.306819 0.335061
vt 0.186968 0.632425
vt 0.158056 0.654709
vt 0.329193 0.361128
vt 0.332846 0.657442
vt 0.372085 0.683683
vt 0.333482 0.682378
vt 0.230791 0.727533
vt 0.228594 0.699332
vt 0.261182 0.719859
vt 0.303854 0.700419
vt 0.295860 0.685718
vt 0.331250 0.704133
vt 0.363140 0.733932
vt 0.322237 0.723678
vt 0.460006 0.686826
vt 0.440374 0.667877
vt 0.342467 0.561984
vt 0.377306 0.545530
vt 0.474761 0.717410
vt 0.446116 0.697810
vt 0.612058 0.792743
vt 0.590645 0.815317
vt 0.262105 0.691492
vt 0.290400 0.664320
vt 0.251587 0.667831
vt 0.259299 0.640055
vt 0.279117 0.611997
vt 0.291507 0.640190
vt 0.290197 0.566529
vt 0.182512 0.546975
vt 0.365621 0.614385
vt 0.387106 0.648065
vt 0.328089 0.631071
vt 0.116244 0.244243
vt 0.190206 0.180600
vt 0.199715 0.195369
vt 0.483724 0.779125
vt 0.513504 0.742467
vt 0.513853 0.781323
vt 0.723522 0.345573
vt 0.726018 0.376341
vt 0.701353 0.356682
vt 0.845639 0.453771
vt 0.821407 0.431083
vt 0.844325 0.407812
vt 0.620906 0.769338
vt 0.582287 0.779510
vt 0.569467 0.800337
vt 0.539389 0.710129
vt 0.552770 0.691840
vt 0.562154 0.702963
vt 0.575303 0.718024
vt 0.724442 0.538082
vt 0.702672 0.507929
vt 0.429256 0.734568
vt 0.442456 0.756802
vt 0.456423 0.781502
vt 0.399377 0.736561
vt 0.588720 0.486981
vt 0.590290 0.500844
vt 0.397658 0.714186
vt 0.593443 0.760790
vt 0.589639 0.734428
vt 0.418847 0.677409
vt 0.375701 0.224168
vt 0.353235 0.248033
vt 0.473664 0.751372
vt 0.454464 0.728153
vt 0.639331 0.373837
vt 0.678047 0.372552
vt 0.665534 0.389153
vt 0.791015 0.341977
vt 0.807000 0.365876
vt 0.686815 0.409811
vt 0.661270 0.402210
vt 0.720343 0.327897
vt 0.494656 0.368665
vt 0.131292 0.301724
vt 0.653683 0.771196
vt 0.680230 0.742479
vt 0.140966 0.634087
vt 0.133677 0.668684
vt 0.750700 0.475085
vt 0.785161 0.470008
vt 0.552665 0.764666
vt 0.549727 0.729456
vt 0.569548 0.746989
vt 0.527781 0.348915
vt 0.556390 0.442711
vt 0.585966 0.421153
vt 0.586184 0.441733
vt 0.599982 0.704686
vt 0.286505 0.709761
vt 0.513058 0.838391
vt 0.586105 0.385525
vt 0.542514 0.398344
vt 0.561804 0.362733
vt 0.403768 0.221388
vt 0.421717 0.262811
vt 0.461672 0.882699
vt 0.592304 0.522843
vt 0.575613 0.512033
vt 0.419366 0.189405
vt 0.439373 0.223232
vt 0.410276 0.511303
vt 0.404664 0.489500
vt 0.750754 0.283015
vt 0.715003 0.306034
vt 0.762182 0.305508
vt 0.759459 0.330088
vt 0.467531 0.800830
vt 0.848344 0.367626
vt 0.703851 0.396063
vt 0.748926 0.439464
vt 0.195319 0.711294
vt 0.207428 0.667471
vt 0.746982 0.354105
vt 0.647027 0.349531
vt 0.679493 0.334566
vt 0.760684 0.561342
vt 0.749869 0.530138
vt 0.558647 0.816366
vt 0.396457 0.474278
vt 0.610540 0.369218
vt 0.453799 0.307418
vt 0.457719 0.267847
vt 0.470566 0.232287
vt 0.492031 0.271001
vt 0.432128 0.398307
vt 0.409439 0.535655
vt 0.421000 0.562708
vt 0.461273 0.187857
vt 0.439376 0.573589
vt 0.431661 0.479056
vt 0.159812 0.694459
vt 0.407328 0.461830
vt 0.742720 0.726132
vt 0.751246 0.699232
vt 0.647523 0.603954
vt 0.678411 0.587045
vt 0.666841 0.618363
vt 0.711887 0.648597
vt 0.683262 0.663018
vt 0.691400 0.635228
vt 0.446072 0.502868
vt 0.464453 0.539178
vt 0.439033 0.532957
vt 0.703916 0.609918
vt 0.727452 0.638084
vt 0.414838 0.606775
vt 0.567948 0.411917
vt 0.525107 0.568270
vt 0.538935 0.565461
vt 0.744195 0.668591
vt 0.586951 0.466303
vt 0.616885 0.461582
vt 0.745952 0.779467
vt 0.746772 0.755346
vt 0.449412 0.460465
vt 0.719948 0.586905
vt 0.739619 0.571064
vt 0.721813 0.747055
vt 0.704865 0.738133
vt 0.710109 0.776540
vt 0.745346 0.621947
vt 0.760244 0.603288
vt 0.715059 0.670760
vt 0.809207 0.397323
vt 0.690273 0.762210
vt 0.828282 0.385160
vt 0.374553 0.205641
vt 0.735149 0.463859
vt 0.766916 0.453703
vt 0.800799 0.434140
vt 0.783246 0.426798
vt 0.395067 0.148948
vt 0.380318 0.179416
vt 0.302755 0.739587
vt 0.279628 0.150354
vt 0.296583 0.123397
vt 0.852637 0.654536
vt 0.326627 0.211230
vt 0.691302 0.473676
vt 0.703546 0.456346
vt 0.704022 0.270558
vt 0.727847 0.263837
vt 0.624119 0.401001
vt 0.515494 0.382263
vt 0.524611 0.435014
vt 0.474577 0.430309
vt 0.497695 0.410578
vt 0.453634 0.391271
vt 0.811799 0.498925
vt 0.645318 0.399458
vt 0.478032 0.560324
vt 0.505687 0.574966
vt 0.484230 0.586068
vt 0.476306 0.379742
vt 0.168196 0.386595
vt 0.203458 0.362338
vt 0.194583 0.410372
vt 0.676776 0.467484
vt 0.690160 0.459573
vt 0.721530 0.235748
vt 0.718676 0.457212
vt 0.724929 0.424976
vt 0.903274 0.505136
vt 0.878562 0.458627
vt 0.901340 0.421989
vt 0.561515 0.496355
vt 0.526795 0.540527
vt 0.858626 0.502601
vt 0.552276 0.473560
vt 0.602725 0.410215
vt 0.503044 0.541447
vt 0.636617 0.429867
vt 0.612701 0.436097
vt 0.249460 0.383342
vt 0.225531 0.413906
vt 0.558576 0.528869
vt 0.219852 0.316815
vt 0.576845 0.542939
vt 0.546036 0.548792
vt 0.537224 0.513651
vt 0.430302 0.643733
vt 0.509595 0.605180
vt 0.366247 0.708712
vt 0.486063 0.613077
vt 0.461866 0.617044
vt 0.459483 0.641807
vt 0.416006 0.401356
vt 0.134478 0.615587
vt 0.413464 0.086701
vt 0.347745 0.173651
vt 0.351266 0.142034
vt 0.083829 0.237804
vt 0.153045 0.250423
vt 0.827933 0.780260
vt 0.767062 0.794509
vt 0.267608 0.170907
vt 0.253789 0.204988
vt 0.217889 0.205267
vt 0.353694 0.112645
vt 0.300001 0.195188
vt 0.306103 0.157456
vt 0.697637 0.849839
vt 0.824305 0.271195
vt 0.514064 0.666322
vt 0.538165 0.672409
vt 0.112745 0.331684
vt 0.133817 0.386526
vt 0.155806 0.433081
vt 0.121699 0.438062
vt 0.888252 0.324812
vt 0.889305 0.276643
vt 0.910381 0.268827
vt 0.926229 0.263576
vt 0.896485 0.354565
vt 0.539391 0.815064
vt 0.513606 0.811437
vt 0.863784 0.352045
vt 0.701415 0.161013
vt 0.487494 0.806025
vt 0.459565 0.814335
vt 0.543456 0.789403
vt 0.484247 0.855227
vt 0.486113 0.830027
vt 0.874979 0.319157
vt 0.857868 0.289536
vt 0.778491 0.194987
vt 0.775234 0.219403
vt 0.736612 0.189008
vt 0.852369 0.252510
vt 0.833101 0.232799
vt 0.847394 0.262935
vt 0.886125 0.504215
vt 0.758758 0.234666
vt 0.724289 0.209844
vt 0.866633 0.371787
vt 0.871070 0.408086
vt 0.833281 0.749616
vt 0.635892 0.594460
vt 0.125178 0.713333
vt 0.099380 0.726631
vt 0.170504 0.723940
vt 0.470465 0.678449
vt 0.488883 0.683737
vt 0.484934 0.701519
vt 0.769961 0.587716
vt 0.578323 0.628797
vt 0.718521 0.870061
vt 0.614667 0.930536
vt 0.926229 0.384960
vt 0.717783 0.136283
vt 0.708396 0.150473
vt 0.822375 0.809586
vt 0.822006 0.199929
vt 0.082385 0.362630
vt 0.103044 0.400626
vt 0.186242 0.800584
vt 0.402622 0.927535
vt 0.926229 0.627728
vt 0.926229 0.506344
vt 0.079496 0.612282
vt 0.402960 0.066193
vt 0.613560 0.072636
vt 0.497857 0.488064
vn 0.2147 0.9709 -0.1062
vn 0.1346 0.9858 -0.1001
vn 0.1603 0.9841 -0.0767
vn -0.2771 0.9579 -0.0757
vn -0.3464 0.9280 -0.1374
vn -0.3281 0.9290 -0.1712
vn -0.0652 0.9514 0.3011
vn -0.1156 0.9760 0.1844
vn -0.1693 0.9750 0.1439
vn -0.0094 0.9999 0.0067
vn -0.0052 1.0000 -0.0010
vn -0.0015 1.0000 0.0019
vn 0.1371 0.9436 0.3014
vn 0.1455 0.9306 0.3359
vn 0.1560 0.9173 0.3663
vn 0.2466 0.8888 -0.3862
vn 0.2295 0.9209 -0.3152
vn 0.2320 0.9116 -0.3392
vn -0.0039 0.9988 -0.0479
vn 0.0254 0.9985 -0.0479
vn 0.0083 0.9999 -0.0129
vn 0.0118 0.9843 -0.1761
vn -0.0002 0.9911 -0.1333
vn 0.0150 0.9748 -0.2225
vn -0.0350 0.9506 -0.3084
vn 0.2381 0.8755 -0.4206
vn 0.0630 0.9026 -0.4259
vn -0.2409 0.9654 -0.1000
vn -0.3566 0.9332 -0.0433
vn -0.2502 0.9626 0.1042
vn -0.3653 0.9309 -0.0014
vn -0.3643 0.9271 -0.0877
vn -0.3740 0.9260 -0.0516
vn -0.1927 0.9446 -0.2658
vn -0.3345 0.9314 -0.1434
vn -0.0066 0.9844 0.1759
vn -0.1796 0.9772 0.1131
vn -0.1035 0.9944 0.0220
vn 0.0895 0.9818 -0.1675
vn -0.2342 0.9567 -0.1727
vn -0.1056 0.9480 -0.3002
vn -0.2951 0.9309 -0.2152
vn -0.2826 0.9592 -0.0048
vn -0.2812 0.9588 -0.0403
vn 0.1945 0.9778 -0.0775
vn 0.2950 0.9457 -0.1366
vn 0.2616 0.9600 -0.1001
vn 0.0122 0.9999 0.0032
vn 0.0485 0.9988 0.0041
vn 0.0374 0.9993 0.0051
vn 0.0307 0.8468 -0.5310
vn 0.1435 0.9067 -0.3965
vn 0.0708 0.8399 -0.5381
vn 0.2025 0.9541 -0.2207
vn 0.1801 0.9726 -0.1469
vn -0.0597 0.9977 -0.0321
vn -0.2281 0.9689 -0.0960
vn -0.1023 0.9937 -0.0462
vn -0.0008 1.0000 -0.0010
vn -0.0005 1.0000 0.0001
vn -0.0032 1.0000 0.0006
vn -0.0392 0.9990 0.0212
vn -0.1039 0.9945 0.0130
vn -0.0346 0.9994 0.0046
vn 0.0020 1.0000 0.0013
vn 0.0005 1.0000 0.0005
vn 0.0015 1.0000 0.0015
vn -0.0168 0.9998 0.0089
vn -0.0129 0.9999 0.0031
vn 0.0035 1.0000 -0.0046
vn 0.0255 0.9997 -0.0064
vn 0.0078 1.0000 -0.0057
vn 0.0082 1.0000 -0.0049
vn 0.0282 0.9994 -0.0213
vn 0.0279 0.9995 -0.0176
vn 0.0365 0.9991 -0.0237
vn 0.1691 0.9735 -0.1541
vn 0.1328 0.9905 -0.0360
vn 0.0602 0.9945 -0.0862
vn 0.1057 0.9933 -0.0462
vn -0.0130 0.9999 0.0074
vn 0.0758 0.9970 -0.0143
vn 0.0715 0.9958 -0.0568
vn 0.0778 0.9956 -0.0517
vn 0.0000 0.9992 0.0398
vn 0.0032 1.0000 0.0040
vn 0.0091 0.9999 0.0099
vn -0.0261 0.9996 0.0142
vn -0.0221 0.9997 -0.0053
vn -0.0159 0.9998 -0.0096
vn -0.0051 1.0000 0.0028
vn 0.0250 0.9768 0.2129
vn 0.0508 0.9540 0.2954
vn -0.4071 0.8804 0.2431
vn -0.3098 0.9045 0.2932
vn -0.3678 0.8829 0.2920
vn 0.1581 0.9874 -0.0046
vn 0.0579 0.9983 -0.0022
vn 0.0740 0.9972 -0.0059
vn -0.0211 0.9997 -0.0116
vn -0.0759 0.9964 -0.0379
vn -0.0366 0.9991 -0.0194
vn 0.0370 0.9978 0.0549
vn 0.0242 0.9993 0.0286
vn 0.0393 0.9979 0.0508
vn -0.0079 1.0000 -0.0043
vn -0.2381 0.9710 -0.0201
vn -0.0655 0.9978 -0.0076
vn -0.1505 0.9866 -0.0625
vn -0.0281 0.9995 -0.0147
vn -0.0107 0.9999 -0.0055
vn -0.0013 1.0000 -0.0008
vn -0.0058 1.0000 -0.0033
vn 0.1806 0.9836 -0.0000
vn 0.0048 0.9861 -0.1662
vn 0.0002 0.9707 -0.2405
vn -0.0105 0.9611 -0.2761
vn 0.2376 0.9712 0.0148
vn 0.2236 0.9719 -0.0733
vn 0.3013 0.9523 -0.0486
vn -0.0005 0.9412 0.3379
vn 0.0016 0.9445 0.3284
vn 0.1949 0.9198 0.3406
vn 0.1661 0.8843 0.4364
vn 0.2184 0.8990 0.3796
vn 0.1843 0.9815 0.0522
vn 0.1443 0.9504 0.2754
vn 0.0826 0.9655 0.2470
vn 0.0306 0.9995 0.0073
vn 0.0042 1.0000 0.0075
vn 0.0187 0.9997 0.0182
vn -0.0129 0.9997 -0.0184
vn -0.0565 0.9983 -0.0150
vn 0.0884 0.9960 0.0092
vn 0.0548 0.9985 0.0051
vn 0.0263 0.9991 0.0338
vn 0.0033 0.9958 0.0919
vn 0.0030 1.0000 0.0038
vn 0.0028 1.0000 0.0027
vn 0.0184 0.9998 0.0016
vn 0.0017 1.0000 0.0004
vn 0.0154 0.9999 0.0005
vn 0.0149 0.9999 0.0021
vn 0.1382 0.9841 0.1115
vn 0.1204 0.9927 0.0080
vn 0.0521 0.9969 0.0593
vn -0.2314 0.9537 -0.1921
vn -0.1799 0.9623 -0.2041
vn -0.1968 0.9667 -0.1638
vn 0.0099 0.9416 -0.3367
vn -0.1314 0.9270 -0.3514
vn -0.0857 0.9386 -0.3343
vn -0.0530 0.8420 -0.5369
vn -0.0170 0.8965 -0.4427
vn -0.0306 0.9030 -0.4285
vn 0.1020 0.9948 0.0018
vn 0.1685 0.9848 0.0418
vn 0.1129 0.9056 -0.4087
vn 0.0589 0.8513 -0.5213
vn 0.1343 0.9182 -0.3726
vn 0.3481 0.9069 -0.2375
vn 0.2891 0.9458 -0.1479
vn 0.3238 0.9407 -0.1015
vn -0.0468 0.9967 -0.0656
vn -0.0142 0.9999 -0.0074
vn -0.0062 0.9999 -0.0147
vn -0.0039 1.0000 -0.0083
vn 0.3272 0.9450 -0.0006
vn 0.2470 0.9684 0.0341
vn 0.2703 0.9628 -0.0004
vn 0.1228 0.8988 -0.4209
vn 0.1913 0.9526 -0.2365
vn 0.2141 0.9291 -0.3014
vn 0.1341 0.9530 0.2715
vn 0.0578 0.9315 0.3592
vn 0.0913 0.9285 0.3598
vn 0.2201 0.9644 0.1464
vn 0.2261 0.9437 0.2416
vn 0.1585 0.9104 0.3822
vn 0.2071 0.9772 -0.0458
vn 0.2020 0.8957 0.3960
vn 0.1748 0.9101 0.3758
vn 0.1282 0.9162 0.3797
vn 0.0838 0.9538 -0.2886
vn 0.0882 0.9003 0.4262
vn 0.1799 0.8942 0.4099
vn -0.2525 0.9633 -0.0909
vn -0.2065 0.9433 -0.2598
vn -0.0984 0.9869 -0.1282
vn 0.0020 0.9836 -0.1802
vn 0.0038 0.9077 -0.4196
vn 0.0113 0.9754 -0.2201
vn 0.2913 0.9529 0.0844
vn -0.2747 0.9555 -0.1073
vn 0.0645 0.9928 0.1008
vn 0.0303 0.9978 0.0588
vn -0.0634 0.9964 -0.0572
vn -0.1331 0.9892 -0.0615
vn -0.1274 0.9861 -0.1071
vn 0.1254 0.9891 0.0773
vn 0.1021 0.9928 -0.0633
vn 0.2066 0.9766 -0.0603
vn 0.1041 0.9861 0.1297
vn 0.0604 0.9971 0.0453
vn 0.0520 0.9966 0.0637
vn -0.0841 0.9604 0.2658
vn -0.0048 1.0000 -0.0074
vn 0.0066 0.9983 -0.0577
vn -0.0030 0.9996 -0.0271
vn 0.0003 0.9997 -0.0247
vn -0.0071 0.9949 -0.1008
vn -0.0000 0.9965 -0.0836
vn -0.0003 0.9999 -0.0158
vn 0.0013 0.9966 -0.0821
vn 0.0000 0.9997 -0.0247
vn -0.1429 0.8631 -0.4845
vn -0.0767 0.9228 -0.3775
vn -0.0082 0.9925 -0.1220
vn 0.1499 0.9520 0.2668
vn 0.3114 0.9490 0.0494
vn 0.1701 0.9791 0.1113
vn 0.0186 0.9897 -0.1421
vn -0.0101 0.9717 -0.2358
vn -0.0031 1.0000 0.0091
vn -0.0144 0.9643 -0.2644
vn -0.0009 1.0000 0.0005
vn -0.0038 1.0000 0.0022
vn 0.0088 0.9948 -0.1011
vn -0.2871 0.9375 0.1967
vn -0.0939 0.9803 0.1738
vn -0.2275 0.9711 0.0721
vn -0.0663 0.9883 0.1371
vn -0.0491 0.9607 0.2732
vn -0.1700 0.9301 -0.3254
vn -0.1874 0.9406 -0.2830
vn -0.2020 0.9481 -0.2457
vn 0.3225 0.9466 0.0018
vn -0.2702 0.9498 0.1576
vn -0.2194 0.9636 0.1529
vn -0.2371 0.9533 0.1869
vn 0.2572 0.9650 0.0521
vn 0.2615 0.9608 0.0919
vn 0.0783 0.9966 0.0251
vn 0.1267 0.9885 0.0823
vn 0.1275 0.9846 0.1199
vn 0.0794 0.9854 0.1509
vn 0.1393 0.9646 0.2238
vn -0.2410 0.9633 -0.1181
vn 0.2430 0.8972 -0.3686
vn 0.2674 0.8645 -0.4256
vn 0.2618 0.8756 -0.4059
vn -0.0476 0.9981 -0.0383
vn -0.0295 0.9991 -0.0301
vn -0.0146 0.9996 -0.0229
vn -0.0614 0.9967 -0.0538
vn -0.0197 0.9997 -0.0165
vn -0.0269 0.9995 -0.0187
vn 0.0463 0.9499 0.3091
vn 0.1168 0.9922 0.0437
vn -0.0044 0.9685 0.2488
vn 0.0317 0.9389 0.3428
vn -0.1700 0.9659 0.1951
vn -0.0345 0.9189 0.3930
vn -0.0693 0.8667 0.4940
vn -0.1049 0.9170 0.3848
vn -0.1385 0.8930 0.4282
vn 0.0028 0.9923 0.1236
vn 0.0043 0.9951 0.0984
vn -0.0006 1.0000 0.0021
vn 0.1610 0.9739 -0.1599
vn 0.0696 0.9852 -0.1565
vn -0.1141 0.9855 -0.1253
vn -0.0768 0.9778 -0.1949
vn -0.2489 0.9617 -0.1150
vn -0.1507 0.9864 -0.0652
vn -0.0925 0.9271 0.3632
vn -0.0739 0.9294 0.3617
vn -0.0881 0.9501 0.2991
vn 0.0249 0.9880 0.1527
vn 0.0759 0.9565 0.2816
vn -0.1297 0.9469 -0.2942
vn -0.1591 0.9296 -0.3324
vn -0.2662 0.9604 0.0819
vn -0.2472 0.9690 0.0001
vn -0.2509 0.9635 0.0934
vn -0.2398 0.9616 -0.1338
vn -0.2272 0.9584 -0.1726
vn -0.2453 0.9686 -0.0396
vn -0.0777 0.9861 -0.1471
vn -0.1443 0.9571 -0.2514
vn -0.0478 0.9985 0.0248
vn -0.0424 0.9949 0.0915
vn -0.0917 0.9936 0.0654
vn -0.0813 0.9763 -0.2004
vn -0.0914 0.9934 0.0686
vn -0.0358 0.9990 0.0262
vn -0.0525 0.9980 0.0352
vn -0.2088 0.9497 -0.2334
vn -0.2099 0.9775 0.0200
vn -0.2075 0.9739 -0.0923
vn -0.0137 0.9998 0.0153
vn -0.0171 0.9995 -0.0248
vn -0.0189 0.9996 0.0233
vn -0.1734 0.9508 -0.2569
vn -0.1843 0.9382 -0.2931
vn -0.0306 0.9908 0.1319
vn -0.0133 0.9996 0.0268
vn -0.0168 0.9997 0.0200
vn 0.0173 0.9993 0.0320
vn -0.3023 0.9522 0.0452
vn -0.1527 0.9875 -0.0382
vn -0.0072 0.9999 -0.0094
vn -0.0056 1.0000 -0.0027
vn -0.0470 0.9988 0.0130
vn -0.4310 0.8845 -0.1788
vn -0.3969 0.9077 -0.1363
vn -0.4700 0.8822 -0.0305
vn -0.5465 0.8268 -0.1336
vn 0.2144 0.9583 -0.1891
vn 0.2613 0.9578 -0.1198
vn 0.2225 0.9565 -0.1887
vn -0.0964 0.9601 0.2625
vn -0.2775 0.9077 0.3146
vn -0.2635 0.9273 0.2659
vn -0.2006 0.9332 0.2982
vn -0.0843 0.8672 0.4908
vn -0.0236 0.8891 0.4572
vn -0.0300 0.8746 0.4840
vn -0.3162 0.9325 0.1746
vn -0.3473 0.9184 0.1896
vn -0.0012 1.0000 -0.0050
vn -0.0006 1.0000 -0.0026
vn -0.3212 0.9465 0.0309
vn -0.0680 0.9920 0.1064
vn -0.1953 0.9561 0.2182
vn -0.1181 0.9878 0.1016
vn -0.0067 0.9998 0.0164
vn -0.0020 0.9999 0.0099
vn -0.0108 0.9995 0.0284
vn -0.0584 0.9969 0.0526
vn -0.0473 0.9982 0.0359
vn -0.1225 0.9878 0.0960
vn -0.2720 0.9574 0.0975
vn -0.0928 0.9936 0.0651
vn -0.1983 0.8853 0.4205
vn -0.1500 0.8737 0.4628
vn -0.0249 0.9980 -0.0588
vn -0.0368 0.9955 -0.0869
vn -0.3238 0.9232 0.2071
vn -0.2892 0.8886 0.3559
vn -0.0021 0.8240 -0.5666
vn -0.0229 0.8326 -0.5534
vn -0.0135 0.9997 0.0180
vn -0.0342 0.9989 0.0309
vn -0.0097 0.9999 0.0076
vn -0.0088 0.9999 0.0059
vn -0.0125 0.9999 -0.0090
vn -0.0194 0.9992 0.0337
vn -0.0379 0.9978 -0.0540
vn -0.0272 0.9995 -0.0186
vn -0.0313 0.9915 0.1265
vn -0.1064 0.9553 0.2758
vn -0.0242 0.9976 0.0648
vn -0.0068 0.9999 0.0098
vn 0.0004 1.0000 0.0046
vn 0.0013 0.9998 0.0190
vn -0.4627 0.8650 -0.1941
vn -0.2754 0.9542 -0.1171
vn -0.3036 0.8941 -0.3292
vn 0.1782 0.9405 0.2892
vn 0.2130 0.9499 0.2289
vn 0.1826 0.9352 0.3034
vn 0.1065 0.9912 -0.0781
vn 0.2401 0.9504 -0.1979
vn 0.1397 0.9843 -0.1082
vn 0.0199 0.8113 -0.5843
vn -0.0414 0.8290 -0.5577
vn -0.0484 0.8329 -0.5514
vn -0.0600 0.9931 0.1008
vn 0.1265 0.9520 0.2787
vn 0.1022 0.9922 0.0721
vn 0.0722 0.9767 -0.2023
vn 0.2343 0.9383 -0.2545
vn 0.1642 0.9033 -0.3964
vn -0.4593 0.8763 0.1458
vn -0.5177 0.8556 -0.0056
vn -0.5498 0.8246 -0.1333
vn -0.4006 0.9066 0.1323
vn -0.3477 0.9376 -0.0018
vn -0.3595 0.9318 -0.0497
vn -0.3486 0.9075 0.2343
vn -0.0222 0.8294 -0.5581
vn 0.0465 0.9059 -0.4210
vn -0.2166 0.8967 0.3860
vn 0.0230 0.8870 0.4612
vn -0.0360 0.8993 0.4359
vn -0.4413 0.8971 -0.0186
vn -0.4156 0.8935 0.1702
vn 0.0784 0.9248 0.3722
vn 0.1956 0.9244 0.3274
vn 0.1923 0.9140 0.3571
vn 0.2337 0.9670 0.1016
vn 0.3031 0.9490 -0.0866
vn 0.2595 0.9285 0.2656
vn 0.1308 0.9272 0.3510
vn 0.1608 0.9450 0.2847
vn 0.1945 0.9545 -0.2262
vn -0.0189 0.9998 0.0094
vn 0.0228 0.8366 -0.5473
vn 0.0432 0.8609 -0.5070
vn -0.0018 1.0000 -0.0046
vn -0.0004 1.0000 -0.0015
vn 0.2550 0.8932 -0.3702
vn 0.2698 0.9187 -0.2885
vn -0.1348 0.8879 -0.4398
vn -0.1019 0.9717 -0.2129
vn -0.0628 0.8925 -0.4467
vn 0.1600 0.9779 -0.1345
vn -0.1649 0.9779 0.1285
vn -0.2117 0.9430 0.2568
vn -0.2496 0.9430 0.2201
vn 0.2020 0.9698 -0.1371
vn -0.0271 0.9988 0.0417
vn -0.3081 0.8708 -0.3831
vn -0.1165 0.9743 0.1928
vn 0.0055 0.9999 -0.0160
vn 0.0353 0.9986 0.0384
vn 0.0951 0.9210 0.3778
vn 0.1483 0.9759 0.1602
vn -0.1668 0.9845 -0.0551
vn -0.2969 0.9549 0.0073
vn -0.2870 0.9575 -0.0288
vn 0.1016 0.9160 0.3881
vn 0.1898 0.9523 0.2390
vn -0.1018 0.9740 -0.2026
vn -0.1333 0.9413 -0.3101
vn 0.0662 0.9891 0.1318
vn 0.1240 0.9653 0.2298
vn 0.1270 0.9735 0.1902
vn 0.1944 0.9539 0.2286
vn -0.5523 0.8036 -0.2216
vn 0.1453 0.9835 -0.1074
vn 0.2495 0.9380 0.2406
vn 0.3053 0.9245 -0.2283
vn -0.0010 1.0000 0.0051
vn -0.0011 1.0000 0.0007
vn 0.2078 0.9516 0.2262
vn 0.1381 0.9397 0.3130
vn 0.1630 0.9396 0.3008
vn 0.2410 0.9557 -0.1690
vn 0.2296 0.9406 -0.2501
vn -0.0719 0.8311 -0.5514
vn -0.1512 0.9255 -0.3472
vn -0.0224 0.9591 0.2823
vn 0.2259 0.9713 -0.0741
vn 0.2400 0.9705 0.0209
vn 0.2755 0.9567 0.0944
vn 0.2956 0.9536 -0.0578
vn 0.0833 0.9555 -0.2828
vn -0.0693 0.9946 -0.0776
vn -0.0671 0.9929 0.0982
vn 0.1980 0.9500 0.2414
vn -0.0813 0.9758 0.2032
vn -0.1444 0.9383 -0.3143
vn -0.0001 1.0000 0.0003
vn -0.1561 0.9219 -0.3547
vn 0.1170 0.9093 -0.3994
vn 0.2288 0.9338 -0.2750
vn 0.0553 0.9728 0.2247
vn 0.1602 0.9868 0.0244
vn 0.1873 0.9794 0.0759
vn 0.3216 0.9403 -0.1117
vn 0.2315 0.9669 -0.1070
vn 0.2795 0.9592 -0.0435
vn -0.1218 0.9782 -0.1682
vn -0.1055 0.9895 0.0991
vn -0.1053 0.9944 -0.0049
vn 0.2984 0.9530 -0.0523
vn 0.3453 0.9321 -0.1093
vn -0.0631 0.9631 0.2615
vn -0.1330 0.9789 0.1551
vn 0.1110 0.9701 0.2161
vn 0.1198 0.9724 0.2002
vn 0.3220 0.9271 -0.1916
vn -0.3024 0.9457 0.1191
vn -0.3078 0.9421 0.1328
vn 0.0140 0.9735 -0.2283
vn 0.0339 0.9292 -0.3681
vn -0.0864 0.9460 -0.3124
vn 0.2842 0.9513 -0.1193
vn 0.2881 0.9429 -0.1670
vn 0.0483 0.8771 -0.4779
vn 0.0583 0.8659 -0.4967
vn 0.0178 0.9178 -0.3967
vn 0.3300 0.9374 -0.1113
vn 0.2942 0.9485 -0.1176
vn 0.2895 0.9389 -0.1861
vn 0.3371 0.9131 -0.2295
vn 0.0182 0.8568 -0.5153
vn 0.2528 0.9519 -0.1729
vn 0.0205 0.8772 0.4797
vn 0.2764 0.8887 -0.3657
vn 0.2930 0.8975 -0.3295
vn 0.3165 0.9004 -0.2985
vn 0.3239 0.9016 -0.2866
vn 0.0132 0.9757 0.2186
vn 0.0195 0.9264 0.3760
vn -0.0544 0.9980 0.0324
vn -0.0010 0.9999 0.0144
vn -0.0002 1.0000 0.0034
vn 0.0668 0.9975 -0.0245
vn -0.0297 0.9228 0.3841
vn 0.1274 0.9388 -0.3199
vn 0.3344 0.9198 -0.2055
vn 0.0454 0.9952 0.0866
vn 0.0303 0.9971 0.0691
vn -0.1231 0.9346 0.3338
vn 0.1327 0.9774 -0.1644
vn -0.0209 0.9978 -0.0631
vn 0.0667 0.9612 -0.2677
vn 0.1313 0.9715 -0.1975
vn 0.1531 0.9531 -0.2610
vn 0.1718 0.9730 -0.1543
vn 0.0027 0.9340 0.3572
vn -0.0831 0.9653 0.2475
vn 0.0217 0.9612 0.2749
vn -0.0642 0.9408 0.3329
vn 0.1954 0.9511 -0.2391
vn -0.0812 0.9951 0.0568
vn -0.1568 0.9804 0.1196
vn -0.1516 0.9847 0.0860
vn -0.0746 0.9942 -0.0772
vn 0.1666 0.9804 -0.1053
vn 0.0106 0.9996 0.0244
vn 0.3197 0.9042 -0.2832
vn 0.3122 0.9498 -0.0177
vn 0.0061 1.0000 -0.0042
vn 0.0330 0.9992 -0.0223
vn 0.0121 0.9999 -0.0090
vn -0.2744 0.9615 -0.0149
vn 0.0293 0.9944 0.1018
vn 0.0675 0.9967 -0.0444
vn -0.2212 0.9740 0.0496
vn -0.1911 0.9365 0.2940
vn -0.0370 0.9885 0.1468
vn -0.1821 0.9465 0.2664
vn -0.2424 0.9370 0.2515
vn -0.2476 0.9581 0.1437
vn -0.2249 0.9692 0.1003
vn -0.1374 0.9899 0.0337
vn -0.1508 0.9774 0.1482
vn -0.1521 0.9828 0.1047
vn 0.0243 0.9918 0.1258
vn -0.1117 0.9937 0.0055
vn -0.1014 0.9045 0.4142
vn 0.0523 0.9333 0.3553
vn -0.2355 0.9567 0.1709
vn -0.0425 0.9159 0.3992
vn -0.0772 0.9072 0.4136
vn -0.0753 0.8864 0.4568
vn -0.0237 0.9569 -0.2893
vn -0.0055 1.0000 -0.0034
vn 0.0024 0.9998 0.0198
vn -0.0016 0.9754 0.2205
vn 0.0037 0.9970 0.0779
vn -0.0026 1.0000 0.0035
vn -0.0227 0.9991 0.0367
vn 0.0031 0.9997 -0.0231
vn 0.0074 0.9959 -0.0902
vn 0.0005 0.9991 0.0434
vn 0.0003 0.9930 0.1178
vn 0.0023 0.9981 0.0614
vn 0.0005 0.9998 0.0200
vn -0.0099 0.9836 0.1802
vn 0.0015 0.9981 0.0613
vn 0.0008 0.9984 -0.0567
vn 0.0595 0.9948 0.0829
vn 0.0459 0.8876 0.4584
vn 0.1196 0.8930 0.4338
vn -0.0071 1.0000 0.0053
vn -0.0263 0.9995 0.0183
vn -0.0635 0.9973 0.0356
vn -0.0200 0.9997 0.0118
vn 0.0406 0.9983 -0.0409
vn 0.0558 0.9984 0.0067
vn 0.0509 0.9987 0.0080
vn 0.0341 0.9994 -0.0024
vn 0.0215 0.9996 -0.0167
vn -0.1716 0.8499 -0.4982
vn -0.3273 0.8547 -0.4028
vn 0.0848 0.9936 -0.0752
vn 0.0020 1.0000 0.0022
vn -0.4758 0.8293 -0.2929
vn -0.5377 0.8138 -0.2206
vn -0.1470 0.8699 -0.4709
vn -0.3685 0.9071 -0.2035
vn -0.4620 0.8380 -0.2905
vn 0.0652 0.9959 -0.0622
vn 0.0666 0.9977 0.0156
vn 0.0050 1.0000 0.0045
vn 0.0105 0.9999 0.0120
vn 0.0044 1.0000 0.0046
vn 0.0367 0.9985 0.0406
vn 0.0149 0.9998 0.0142
vn 0.0502 0.9965 0.0667
vn 0.0202 0.9997 -0.0131
vn 0.0178 0.9995 0.0266
vn 0.0072 0.9999 0.0103
vn 0.0688 0.9961 -0.0559
vn 0.0494 0.9982 -0.0348
vn -0.0073 0.9940 -0.1095
vn -0.0305 0.9505 0.3092
vn 0.0000 1.0000 0.0004
vn -0.0000 1.0000 0.0002
vn -0.0007 1.0000 0.0031
vn -0.1164 0.8745 0.4708
vn -0.0831 0.8950 0.4383
vn -0.2020 0.9200 0.3359
vn 0.2536 0.9589 -0.1270
vn 0.1729 0.9011 0.3977
vn -0.0001 1.0000 -0.0037
vn 0.0003 1.0000 -0.0058
vn 0.0069 1.0000 -0.0056
vn 0.0011 1.0000 0.0010
vn 0.0012 1.0000 0.0014
vn -0.0002 1.0000 -0.0060
vn 0.0070 1.0000 0.0057
vn -0.0015 1.0000 0.0008
vn -0.0061 1.0000 0.0035
vn -0.0018 1.0000 -0.0011
vn -0.0025 1.0000 -0.0012
vn 0.0020 1.0000 -0.0011
vn 0.0020 1.0000 -0.0015
vn -0.0012 1.0000 0.0007
vn -0.0001 1.0000 0.0053
vn 0.0002 1.0000 0.0001
vn -0.0853 0.9930 -0.0821
s 1
f 455/1/1 55/2/2 56/3/3
f 278/4/4 280/5/5 274/6/6
f 557/7/7 19/8/8 121/9/9
f 574/10/10 246/11/11 569/12/12
f 475/13/13 188/14/14 189/15/15
f 442/16/16 447/17/17 448/18/18
f 564/19/19 209/20/20 208/21/21
f 562/22/22 561/23/23 567/24/24
f 437/25/25 441/26/26 436/27/27
f 124/28/28 184/29/29 20/30/30
f 466/31/31 185/32/32 467/33/33
f 125/34/34 275/35/35 124/28/28
f 559/36/36 122/37/37 123/38/38
f 184/29/29 280/5/5 185/32/32
f 21/39/39 277/40/40 126/41/41
f 123/38/38 278/4/4 277/40/40
f 276/42/42 126/41/41 277/40/40
f 121/9/9 186/43/43 279/44/44
f 185/32/32 279/44/44 186/43/43
f 57/45/45 120/46/46 450/47/47
f 122/37/37 279/44/44 278/4/4
f 297/48/48 299/49/49 295/50/50
f 351/51/51 356/52/52 357/53/53
f 180/54/54 55/2/2 454/55/55
f 221/56/56 632/57/57 637/58/58
f 587/59/59 10/60/60 250/61/61
f 594/62/62 17/63/63 252/64/64
f 224/65/65 534/66/66 539/67/67
f 595/68/68 252/64/64 251/69/69
f 8/70/70 282/71/71 232/72/72
f 550/73/73 233/74/74 551/75/75
f 209/20/20 282/71/71 208/21/21
f 56/3/3 450/47/47 455/1/1
f 232/72/72 287/76/76 233/74/74
f 1/77/77 284/78/78 210/79/79
f 57/45/45 285/80/80 284/78/78
f 589/81/81 594/62/62 595/68/68
f 283/82/82 210/79/79 284/78/78
f 55/2/2 234/83/83 286/84/84
f 233/74/74 286/84/84 234/83/83
f 56/3/3 286/84/84 285/80/80
f 576/85/85 6/86/86 213/87/87
f 573/88/88 245/89/89 574/10/10
f 637/58/58 220/90/90 221/56/56
f 251/69/69 590/91/91 595/68/68
f 473/92/92 19/8/8 187/93/93
f 344/94/94 347/95/95 348/96/96
f 317/97/97 161/98/98 318/99/99
f 288/100/100 291/101/101 292/102/102
f 530/103/103 532/104/104 526/105/105
f 245/89/89 289/106/106 246/11/11
f 24/107/107 291/101/101 244/108/108
f 222/109/109 292/102/102 291/101/101
f 290/110/110 244/108/108 291/101/101
f 221/56/56 293/111/111 292/102/102
f 293/111/111 44/112/112 294/113/113
f 318/99/99 322/114/114 317/97/97
f 309/115/115 312/116/116 313/117/117
f 90/118/118 96/119/119 366/120/120
f 556/121/121 133/122/122 557/7/7
f 614/123/123 127/124/124 128/125/125
f 235/126/126 135/127/127 555/128/128
f 319/129/129 27/130/130 165/131/131
f 115/132/132 220/90/90 636/133/133
f 295/50/50 300/134/134 301/135/135
f 576/85/85 212/136/136 577/137/137
f 538/138/138 27/130/130 223/139/139
f 6/86/86 296/140/140 213/87/87
f 225/141/141 297/48/48 296/140/140
f 296/140/140 295/50/50 301/135/135
f 212/136/136 296/140/140 301/135/135
f 162/142/142 223/139/139 27/130/130
f 161/98/98 298/143/143 162/142/142
f 224/65/65 298/143/143 297/48/48
f 12/144/144 300/134/134 160/145/145
f 318/99/99 162/142/142 319/129/129
f 211/146/146 301/135/135 300/134/134
f 323/147/147 326/148/148 327/149/149
f 299/49/49 160/145/145 300/134/134
f 604/150/150 68/151/151 605/152/152
f 626/153/153 270/154/154 269/155/155
f 316/156/156 321/157/157 322/114/114
f 396/158/158 137/159/159 136/160/160
f 274/6/6 277/40/40 278/4/4
f 400/161/161 403/162/162 404/163/163
f 636/133/133 116/164/164 115/132/132
f 583/165/165 101/166/166 584/167/167
f 371/168/168 88/169/169 89/170/170
f 397/171/171 85/172/172 86/173/173
f 133/122/122 187/93/93 19/8/8
f 474/174/174 187/93/93 188/14/14
f 134/175/175 303/176/176 133/122/122
f 615/177/177 128/125/125 129/178/178
f 188/14/14 303/176/176 308/179/179
f 129/178/178 135/127/127 22/180/180
f 129/178/178 306/181/181 305/182/182
f 304/183/183 135/127/127 305/182/182
f 1/77/77 562/22/22 130/184/184
f 14/185/185 307/186/186 127/124/124
f 189/15/15 308/179/179 307/186/186
f 634/187/187 30/188/188 117/189/189
f 306/181/181 127/124/124 307/186/186
f 517/190/190 23/191/191 243/192/192
f 370/193/193 12/144/144 88/169/169
f 633/194/194 637/58/58 632/57/57
f 530/103/103 51/195/195 50/196/196
f 493/197/197 108/198/198 107/199/199
f 5/200/200 541/201/201 172/202/202
f 429/203/203 164/204/204 430/205/205
f 558/206/206 121/9/9 122/37/37
f 11/207/207 310/208/208 217/209/209
f 515/210/210 218/211/211 516/212/212
f 116/164/164 310/208/208 115/132/132
f 514/213/213 518/214/214 513/215/215
f 627/216/216 269/155/155 268/217/217
f 217/209/209 315/218/218 218/211/211
f 30/188/188 312/116/116 117/189/189
f 268/217/217 313/117/117 312/116/116
f 619/219/219 171/220/220 170/221/221
f 311/222/222 117/189/189 312/116/116
f 219/223/223 270/154/154 23/191/191
f 569/12/12 568/224/224 574/10/10
f 218/211/211 314/225/225 219/223/223
f 516/212/212 219/223/223 517/190/190
f 567/24/24 130/184/184 562/22/22
f 590/91/91 35/226/226 591/227/227
f 269/155/155 314/225/225 313/117/117
f 565/228/228 567/24/24 561/23/23
f 330/229/229 333/230/230 334/231/231
f 619/219/219 169/232/232 620/233/233
f 382/234/234 104/235/235 105/236/236
f 365/237/237 370/193/193 371/168/168
f 479/238/238 483/239/239 478/240/240
f 88/169/169 160/145/145 317/97/97
f 89/170/170 317/97/97 322/114/114
f 404/163/163 139/241/241 140/242/242
f 165/131/131 320/243/243 319/129/129
f 90/118/118 163/244/244 15/245/245
f 434/246/246 91/247/247 429/203/203
f 90/118/118 322/114/114 321/157/157
f 327/149/149 329/248/248 323/147/147
f 89/170/170 366/120/120 371/168/168
f 320/243/243 163/244/244 321/157/157
f 443/249/249 167/250/250 444/251/251
f 492/252/252 491/253/253 497/254/254
f 494/255/255 197/256/256 495/257/257
f 417/258/258 26/259/259 153/260/260
f 612/261/261 78/262/262 77/263/263
f 419/264/264 152/265/265 151/266/266
f 576/85/85 575/267/267 581/268/268
f 159/269/269 261/270/270 608/271/271
f 494/255/255 107/199/199 106/272/272
f 607/273/273 157/274/274 158/275/275
f 484/276/276 487/277/277 488/278/278
f 578/279/279 12/144/144 48/280/280
f 380/281/281 104/235/235 381/282/282
f 480/283/283 191/284/284 481/285/285
f 16/286/286 324/287/287 190/288/288
f 104/235/235 324/287/287 105/236/236
f 190/288/288 329/248/248 191/284/284
f 18/289/289 326/148/148 103/290/290
f 507/291/291 204/292/292 508/293/293
f 106/272/272 327/149/149 326/148/148
f 109/294/294 103/290/290 380/281/281
f 509/295/295 511/296/296 505/297/297
f 325/298/298 103/290/290 326/148/148
f 108/198/198 192/299/299 328/300/300
f 191/284/284 328/300/300 192/299/299
f 337/301/301 340/302/302 341/303/303
f 606/304/304 16/286/286 157/274/274
f 107/199/199 328/300/300 327/149/149
f 605/152/152 67/305/305 606/304/304
f 377/306/306 239/307/307 378/308/308
f 430/205/205 165/131/131 431/309/309
f 99/310/310 190/288/288 480/283/283
f 635/311/311 117/189/189 116/164/164
f 496/312/312 197/256/256 198/313/313
f 372/314/314 377/306/306 378/308/308
f 632/57/57 272/315/315 633/194/194
f 271/316/316 144/317/317 524/318/318
f 577/137/137 211/146/146 578/279/279
f 426/319/319 95/320/320 427/321/321
f 7/322/322 331/323/323 97/324/324
f 151/266/266 332/325/325 331/323/323
f 608/271/271 158/275/275 159/269/269
f 598/326/326 84/327/327 599/328/328
f 98/329/329 331/323/323 336/330/330
f 153/260/260 159/269/269 333/230/230
f 159/269/269 334/231/231 333/230/230
f 152/265/265 333/230/230 332/325/325
f 99/310/310 157/274/274 16/286/286
f 584/167/167 100/331/331 585/332/332
f 99/310/310 336/330/330 335/333/333
f 480/283/283 98/329/329 99/310/310
f 158/275/275 335/333/333 334/231/231
f 147/334/334 148/335/335 408/336/336
f 572/337/337 63/338/338 62/339/339
f 408/336/336 407/340/340 413/341/341
f 409/342/342 150/343/343 410/344/344
f 598/326/326 602/345/345 597/346/346
f 378/308/308 238/347/347 373/348/348
f 602/345/345 258/349/349 257/350/350
f 58/351/351 270/154/154 625/352/352
f 412/353/353 146/354/354 413/341/341
f 145/355/355 198/313/313 338/356/356
f 197/256/256 338/356/356 198/313/313
f 339/357/357 343/358/358 338/356/356
f 146/354/354 338/356/356 343/358/358
f 196/359/359 238/347/347 340/302/302
f 252/64/64 102/360/360 583/165/165
f 239/307/307 340/302/302 238/347/347
f 339/357/357 196/359/359 340/302/302
f 147/334/334 240/361/361 25/362/362
f 147/334/334 343/358/358 342/363/363
f 413/341/341 147/334/334 408/336/336
f 341/303/303 240/361/361 342/363/363
f 202/364/364 64/365/365 503/366/366
f 520/367/367 3/368/368 201/369/369
f 358/370/370 361/371/371 362/372/372
f 231/373/373 174/374/374 545/375/375
f 352/376/376 351/51/51 357/53/53
f 59/377/377 625/352/352 630/378/378
f 611/379/379 610/380/380 616/381/381
f 615/177/177 263/382/382 616/381/381
f 178/383/383 166/384/384 443/249/249
f 348/96/96 350/385/385 344/94/94
f 524/318/318 143/386/386 525/387/387
f 24/107/107 345/388/388 144/317/317
f 465/389/389 467/33/33 463/390/390
f 150/343/343 346/391/391 345/388/388
f 345/388/388 344/94/94 350/385/385
f 353/392/392 355/393/393 351/51/51
f 144/317/317 350/385/385 143/386/386
f 148/335/335 256/394/394 347/95/95
f 256/394/394 348/96/96 347/95/95
f 346/391/391 148/335/335 347/95/95
f 414/395/395 417/258/258 418/396/396
f 142/397/397 258/349/349 3/368/368
f 257/350/350 597/346/346 602/345/345
f 143/386/386 349/398/398 142/397/397
f 257/350/350 349/398/398 348/96/96
f 622/399/399 266/400/400 623/401/401
f 141/402/402 172/202/202 405/403/403
f 405/403/403 140/242/242 141/402/402
f 618/404/404 617/405/405 623/401/401
f 362/372/372 364/406/406 358/370/370
f 421/407/407 426/319/319 427/321/321
f 506/408/408 505/297/297 511/296/296
f 58/351/351 138/409/409 23/191/191
f 395/410/410 138/409/409 137/159/159
f 58/351/351 353/392/392 352/376/376
f 582/411/411 585/332/332 586/412/412
f 446/413/413 177/414/414 447/17/17
f 137/159/159 352/376/376 357/53/53
f 60/415/415 262/416/416 354/417/417
f 263/382/382 354/417/417 262/416/416
f 332/325/325 336/330/330 331/323/323
f 422/418/418 421/407/407 427/321/321
f 59/377/377 354/417/417 353/392/392
f 457/419/419 456/420/420 462/421/421
f 22/180/180 356/52/52 264/422/422
f 616/381/381 262/416/416 611/379/379
f 136/160/160 357/53/53 356/52/52
f 411/423/423 413/341/341 407/340/340
f 627/216/216 30/188/188 199/424/424
f 355/393/393 264/422/422 356/52/52
f 459/425/425 74/426/426 73/427/427
f 91/247/247 163/244/244 429/203/203
f 416/428/428 154/429/429 417/258/258
f 631/430/430 636/133/133 637/58/58
f 330/229/229 335/333/333 336/330/330
f 463/390/390 468/431/431 469/432/432
f 415/433/433 155/434/434 416/428/428
f 110/435/435 380/281/281 385/436/436
f 433/437/437 92/438/438 434/246/246
f 93/439/439 141/402/402 359/440/440
f 519/441/441 524/318/318 525/387/387
f 140/242/242 359/440/440 141/402/402
f 546/442/442 172/202/202 541/201/201
f 93/439/439 364/406/406 92/438/438
f 139/241/241 265/443/443 361/371/371
f 265/443/443 362/372/372 361/371/371
f 175/444/444 139/241/241 403/162/162
f 571/445/445 4/446/446 63/338/338
f 360/447/447 139/241/241 361/371/371
f 91/247/247 267/448/448 15/245/245
f 623/401/401 265/443/443 618/404/404
f 92/438/438 363/449/449 91/247/247
f 266/400/400 363/449/449 362/372/372
f 453/450/450 178/383/383 179/451/451
f 625/352/352 624/452/452 630/378/378
f 380/281/281 379/453/453 385/436/436
f 73/427/427 181/454/454 459/425/425
f 418/396/396 153/260/260 152/265/265
f 95/320/320 366/120/120 96/119/119
f 94/455/455 154/429/429 368/456/456
f 155/434/434 368/456/456 154/429/429
f 365/237/237 368/456/456 369/457/457
f 95/320/320 368/456/456 367/458/458
f 605/152/152 609/459/459 604/150/150
f 374/460/460 376/461/461 372/314/314
f 369/457/457 156/462/462 370/193/193
f 487/277/277 194/463/463 488/278/278
f 384/464/464 110/435/435 385/436/436
f 585/332/332 4/446/446 207/465/465
f 379/453/453 382/234/234 383/466/466
f 398/467/467 86/173/173 87/468/468
f 560/469/469 237/470/470 236/471/471
f 386/472/472 389/473/473 390/474/474
f 18/289/289 373/348/348 238/347/347
f 109/294/294 374/460/460 373/348/348
f 111/475/475 195/476/476 375/477/477
f 194/463/463 375/477/477 195/476/476
f 110/435/435 375/477/477 374/460/460
f 386/472/472 391/478/478 392/479/479
f 193/480/480 240/361/361 377/306/306
f 376/461/461 193/480/480 377/306/306
f 457/419/419 74/426/426 458/481/481
f 474/174/174 476/482/482 470/483/483
f 387/484/484 386/472/472 392/479/479
f 466/31/31 71/485/485 70/486/486
f 566/487/487 131/488/488 567/24/24
f 105/236/236 67/305/305 382/234/234
f 87/468/468 130/184/184 398/467/467
f 68/151/151 382/234/234 67/305/305
f 69/489/489 111/475/475 384/464/464
f 68/151/151 384/464/464 383/466/466
f 118/490/490 178/383/383 452/491/491
f 397/171/171 399/492/492 393/493/493
f 243/192/192 132/494/494 566/487/487
f 373/348/348 372/314/314 378/308/308
f 467/33/33 186/43/43 468/431/431
f 450/47/47 119/495/495 451/496/496
f 87/468/468 120/46/46 1/77/77
f 86/173/173 387/484/484 87/468/468
f 120/46/46 392/479/479 119/495/495
f 85/172/172 235/126/126 389/473/473
f 235/126/126 390/474/474 389/473/473
f 136/160/160 85/172/172 396/158/158
f 388/497/497 85/172/172 389/473/473
f 118/490/490 237/470/470 21/39/39
f 236/471/471 555/128/128 560/469/469
f 119/495/495 391/478/478 118/490/490
f 236/471/471 391/478/478 390/474/474
f 404/163/163 406/498/498 400/161/161
f 23/191/191 394/499/499 132/494/494
f 132/494/494 399/492/492 131/488/488
f 568/224/224 571/445/445 572/337/337
f 525/387/387 142/397/397 520/367/367
f 131/488/488 398/467/467 130/184/184
f 545/375/375 173/500/500 546/442/442
f 414/395/395 419/264/264 420/501/501
f 445/502/502 176/503/503 446/413/413
f 174/374/374 177/414/414 401/504/504
f 176/503/503 401/504/504 177/414/414
f 453/450/450 180/54/54 454/55/55
f 174/374/374 406/498/498 173/500/500
f 402/505/505 175/444/444 403/162/162
f 173/500/500 405/403/403 172/202/202
f 24/107/107 410/344/344 150/343/343
f 579/506/506 48/280/280 47/507/507
f 61/508/508 411/423/423 410/344/344
f 63/338/338 145/355/355 412/353/353
f 504/509/509 64/365/365 65/510/510
f 62/339/339 412/353/353 411/423/423
f 285/80/80 287/76/76 281/511/511
f 48/280/280 156/462/462 415/433/433
f 47/507/507 415/433/433 420/501/501
f 151/266/266 46/512/512 419/264/264
f 46/512/512 420/501/501 419/264/264
f 435/513/513 440/514/514 441/26/26
f 428/515/515 431/309/309 432/516/516
f 622/399/399 182/517/517 181/454/454
f 96/119/119 73/427/427 422/418/418
f 73/427/427 423/518/518 422/418/418
f 75/519/519 259/520/520 424/521/521
f 260/522/522 424/521/521 259/520/520
f 29/523/523 447/17/17 177/414/414
f 74/426/426 424/521/521 423/518/518
f 621/524/524 623/401/401 617/405/405
f 489/525/525 80/526/526 490/527/527
f 260/522/522 426/319/319 425/528/528
f 20/30/30 620/233/233 169/232/232
f 510/529/529 53/530/530 52/531/531
f 27/130/130 431/309/309 165/131/131
f 435/513/513 438/532/532 439/533/533
f 49/534/534 432/516/516 431/309/309
f 51/195/195 93/439/439 433/437/437
f 50/196/196 433/437/437 432/516/516
f 167/250/250 436/27/27 441/26/26
f 169/232/232 439/533/533 438/532/532
f 168/535/535 171/220/220 28/536/536
f 275/35/35 274/6/6 280/5/5
f 167/250/250 440/514/514 168/535/535
f 444/251/251 168/535/535 445/502/502
f 549/537/537 553/538/538 548/539/539
f 170/221/221 440/514/514 439/533/533
f 179/451/451 443/249/249 448/18/18
f 180/54/54 448/18/18 447/17/17
f 181/454/454 267/448/448 622/399/399
f 464/540/540 463/390/390 469/432/432
f 471/541/541 470/483/483 476/482/482
f 552/542/542 29/523/523 231/373/373
f 72/543/543 75/519/519 457/419/419
f 70/486/486 184/29/29 466/31/31
f 71/485/485 457/419/419 462/421/421
f 181/454/454 460/544/544 459/425/425
f 195/476/476 79/545/545 489/525/525
f 70/486/486 183/546/546 20/30/30
f 70/486/486 462/421/421 461/547/547
f 182/517/517 461/547/547 460/544/544
f 313/117/117 315/218/218 309/115/115
f 477/548/548 482/549/549 483/239/239
f 113/550/550 464/540/540 469/432/432
f 204/292/292 54/551/551 508/293/293
f 509/295/295 54/551/551 53/530/530
f 19/8/8 468/431/431 186/43/43
f 114/552/552 469/432/432 468/431/431
f 472/553/553 114/552/552 473/92/92
f 304/183/183 308/179/179 303/176/176
f 555/128/128 134/175/175 556/121/121
f 495/257/257 497/254/254 491/253/253
f 79/545/545 112/554/554 471/541/541
f 79/545/545 476/482/482 80/526/526
f 256/394/394 82/555/555 597/346/346
f 189/15/15 81/556/556 475/13/13
f 408/336/336 149/557/557 409/342/342
f 80/526/526 475/13/13 81/556/556
f 490/527/527 81/556/556 485/558/558
f 324/287/287 323/147/147 329/248/248
f 482/549/549 191/284/284 192/299/299
f 54/551/551 97/324/324 478/240/240
f 53/530/530 478/240/240 483/239/239
f 259/520/520 69/489/489 604/150/150
f 192/299/299 52/531/531 482/549/549
f 52/531/531 483/239/239 482/549/549
f 488/278/278 490/527/527 484/276/276
f 84/327/327 486/559/559 485/558/558
f 82/555/555 193/480/480 487/277/277
f 83/560/560 487/277/277 486/559/559
f 603/561/561 608/271/271 609/459/459
f 584/167/167 588/562/562 583/165/165
f 581/268/268 249/563/563 576/85/85
f 17/63/63 492/252/252 102/360/360
f 102/360/360 497/254/254 101/166/166
f 198/313/313 100/331/331 496/312/312
f 101/166/166 496/312/312 100/331/331
f 505/297/297 508/293/293 509/295/295
f 580/564/564 248/565/565 581/268/268
f 506/408/408 2/566/566 202/364/364
f 506/408/408 203/567/567 507/291/291
f 565/228/228 241/568/568 242/569/569
f 498/570/570 501/571/571 502/572/572
f 248/565/565 499/573/573 249/563/563
f 7/322/322 501/571/571 247/574/574
f 204/292/292 502/572/572 501/571/571
f 500/575/575 247/574/574 501/571/571
f 512/576/576 517/190/190 518/214/214
f 203/567/567 503/366/366 502/572/572
f 526/105/105 529/577/577 530/103/103
f 76/578/578 127/124/124 613/579/579
f 253/580/580 511/296/296 254/581/581
f 254/581/581 510/529/529 255/582/582
f 593/583/583 255/582/582 594/62/62
f 613/579/579 77/263/263 76/578/578
f 543/584/584 215/585/585 216/586/586
f 242/569/569 513/215/215 518/214/214
f 572/337/337 574/10/10 568/224/224
f 243/192/192 518/214/214 517/190/190
f 566/487/487 242/569/569 243/192/192
f 543/584/584 9/587/587 229/588/588
f 628/589/589 199/424/424 200/590/590
f 551/75/75 234/83/83 552/542/542
f 541/201/201 540/591/591 546/442/442
f 609/459/459 261/270/270 260/522/522
f 533/592/592 538/138/138 539/67/67
f 521/593/593 523/594/594 519/441/441
f 208/21/21 241/568/568 564/19/19
f 201/369/369 521/593/593 520/367/367
f 201/369/369 60/415/415 629/595/595
f 199/424/424 273/596/596 522/597/597
f 272/315/315 522/597/597 273/596/596
f 456/420/420 459/425/425 460/544/544
f 200/590/590 522/597/597 521/593/593
f 597/346/346 83/560/560 598/326/326
f 523/594/594 271/316/316 524/318/318
f 542/598/598 214/599/599 215/585/585
f 536/600/600 227/601/601 537/602/602
f 9/587/587 527/603/603 226/604/604
f 310/208/208 309/115/115 315/218/218
f 215/585/585 527/603/603 216/586/586
f 226/604/604 532/104/104 227/601/601
f 528/605/605 214/599/599 529/577/577
f 547/606/606 552/542/542 553/538/538
f 227/601/601 531/607/607 228/608/608
f 537/602/602 228/608/608 538/138/138
f 540/591/591 543/584/584 544/609/609
f 549/537/537 551/75/75 547/606/606
f 282/71/71 281/511/511 287/76/76
f 229/588/588 544/609/609 543/584/584
f 316/156/156 319/129/129 320/243/243
f 230/610/610 545/375/375 544/609/609
f 563/611/611 210/79/79 209/20/20
f 554/612/612 557/7/7 558/206/206
f 561/23/23 564/19/19 565/228/228
f 586/412/412 207/465/465 206/613/613
f 582/411/411 587/59/59 588/562/562
f 246/11/11 205/614/614 569/12/12
f 206/613/613 569/12/12 205/614/614
f 570/615/615 207/465/465 571/445/445
f 575/267/267 578/279/279 579/506/506
f 129/178/178 264/422/422 615/177/177
f 421/407/407 424/521/521 425/528/528
f 251/69/69 583/165/165 588/562/562
f 250/61/61 588/562/562 587/59/59
f 596/616/616 599/328/328 600/617/617
f 630/378/378 60/415/415 59/377/377
f 603/561/561 606/304/304 607/273/273
f 84/327/327 76/578/578 599/328/328
f 76/578/578 600/617/617 599/328/328
f 78/262/262 258/349/349 601/618/618
f 77/263/263 601/618/618 600/617/617
f 610/380/380 613/579/579 614/123/123
f 112/554/554 72/543/543 464/540/540
f 514/213/213 516/212/212 512/576/576
f 617/405/405 620/233/233 621/524/524
f 337/301/301 342/363/363 343/358/358
f 591/227/227 595/68/68 590/91/91
f 401/504/504 400/161/161 406/498/498
f 429/203/203 428/515/515 434/246/246
f 46/512/512 247/574/574 580/564/564
f 61/508/508 244/108/108 573/88/88
f 359/440/440 358/370/370 364/406/406
f 230/610/610 548/539/539 553/538/538
f 436/27/27 125/34/34 437/25/25
f 529/577/577 5/200/200 51/195/195
f 573/88/88 62/339/339 61/508/508
f 438/532/532 20/30/30 169/232/232
f 624/452/452 627/216/216 628/589/589
f 106/272/272 196/359/359 494/255/255
f 437/25/25 124/28/28 438/532/532
f 451/496/496 455/1/1 450/47/47
f 281/511/511 284/78/78 285/80/80
f 49/534/534 228/608/608 531/607/607
f 456/420/420 461/547/547 462/421/421
f 531/607/607 50/196/196 49/534/534
f 444/251/251 448/18/18 443/249/249
f 260/522/522 604/150/150 609/459/459
f 611/379/379 3/368/368 78/262/262
f 587/59/59 206/613/613 205/614/614
f 621/524/524 183/546/546 182/517/517
f 449/619/619 454/55/55 455/1/1
f 465/389/389 72/543/543 71/485/485
f 485/558/558 484/276/276 490/527/527
f 52/531/531 255/582/582 510/529/529
f 366/120/120 365/237/237 371/168/168
f 485/558/558 14/185/185 84/327/327
f 261/270/270 94/455/455 426/319/319
f 631/430/430 634/187/187 635/311/311
f 302/620/620 307/186/186 308/179/179
f 515/210/210 41/621/621 42/622/622
f 556/121/121 560/469/469 555/128/128
f 229/588/588 37/623/623 548/539/539
f 478/240/240 98/329/329 479/238/238
f 65/510/510 499/573/573 504/509/509
f 534/66/66 32/624/624 535/625/625
f 44/112/112 289/106/106 294/113/113
f 241/568/568 40/626/626 513/215/215
f 33/627/627 226/604/604 536/600/600
f 123/38/38 237/470/470 559/36/36
f 36/628/628 253/580/580 592/629/629
f 614/123/123 616/381/381 610/380/380
f 553/538/538 231/373/373 230/610/610
f 45/630/630 246/11/11 289/106/106
f 470/483/483 473/92/92 474/174/174
f 477/548/548 480/283/283 481/285/285
f 42/622/622 217/209/209 515/210/210
f 498/570/570 503/366/366 504/509/509
f 220/90/90 43/631/631 293/111/111
f 222/109/109 271/316/316 632/57/57
f 39/632/632 232/72/72 550/73/73
f 548/539/539 38/633/633 549/537/537
f 250/61/61 34/634/634 590/91/91
f 629/595/595 200/590/590 201/369/369
f 580/564/564 47/507/507 46/512/512
f 292/102/102 294/113/113 288/100/100
f 596/616/616 601/618/618 602/345/345
f 290/110/110 294/113/113 289/106/106
f 166/384/384 126/41/41 436/27/27
f 442/16/16 445/502/502 446/413/413
f 535/625/625 539/67/67 534/66/66
f 633/194/194 273/596/596 634/187/187
f 544/609/609 546/442/442 540/591/591
f 554/612/612 559/36/36 560/469/469
f 513/215/215 41/621/621 514/213/213
f 66/635/635 249/563/563 499/573/573
f 520/367/367 519/441/441 525/387/387
f 500/575/575 504/509/509 499/573/573
f 550/73/73 38/633/633 39/632/632
f 527/603/603 526/105/105 532/104/104
f 225/141/141 31/636/636 534/66/66
f 536/600/600 32/624/624 33/627/627
f 592/629/629 35/226/226 36/628/628
f 624/452/452 629/595/595 630/378/378
f 472/553/553 112/554/554 113/550/550
f 432/516/516 434/246/246 428/515/515
f 491/253/253 494/255/255 495/257/257
f 489/525/525 194/463/463 195/476/476
f 416/428/428 420/501/501 415/433/433
f 383/466/466 385/436/436 379/453/453
f 393/493/493 396/158/158 397/171/171
f 427/321/321 96/119/119 422/418/418
f 394/499/499 393/493/493 399/492/492
f 265/443/443 171/220/220 618/404/404
f 407/340/340 410/344/344 411/423/423
f 449/619/619 452/491/491 453/450/450
f 168/535/535 175/444/444 445/502/502
f 579/506/506 581/268/268 575/267/267
f 539/67/67 223/139/139 224/65/65
f 451/496/496 118/490/490 452/491/491
f 535/625/625 537/602/602 533/592/592
f 302/620/620 305/182/182 306/181/181
f 592/629/629 254/581/581 593/583/583
f 591/227/227 593/583/583 589/81/81
f 455/1/1 454/55/55 55/2/2
f 278/4/4 279/44/44 280/5/5
f 557/7/7 133/122/122 19/8/8
f 574/10/10 245/89/89 246/11/11
f 475/13/13 474/174/174 188/14/14
f 442/16/16 446/413/413 447/17/17
f 564/19/19 563/611/611 209/20/20
f 562/22/22 563/611/611 561/23/23
f 437/25/25 435/513/513 441/26/26
f 124/28/28 275/35/35 184/29/29
f 466/31/31 184/29/29 185/32/32
f 125/34/34 276/42/42 275/35/35
f 559/36/36 558/206/206 122/37/37
f 184/29/29 275/35/35 280/5/5
f 21/39/39 123/38/38 277/40/40
f 123/38/38 122/37/37 278/4/4
f 276/42/42 125/34/34 126/41/41
f 121/9/9 19/8/8 186/43/43
f 185/32/32 280/5/5 279/44/44
f 57/45/45 1/77/77 120/46/46
f 122/37/37 121/9/9 279/44/44
f 297/48/48 298/143/143 299/49/49
f 351/51/51 355/393/393 356/52/52
f 180/54/54 29/523/523 55/2/2
f 221/56/56 222/109/109 632/57/57
f 587/59/59 205/614/614 10/60/60
f 594/62/62 255/582/582 17/63/63
f 224/65/65 225/141/141 534/66/66
f 595/68/68 594/62/62 252/64/64
f 8/70/70 208/21/21 282/71/71
f 550/73/73 232/72/72 233/74/74
f 209/20/20 283/82/82 282/71/71
f 56/3/3 57/45/45 450/47/47
f 232/72/72 282/71/71 287/76/76
f 1/77/77 57/45/45 284/78/78
f 57/45/45 56/3/3 285/80/80
f 589/81/81 593/583/583 594/62/62
f 283/82/82 209/20/20 210/79/79
f 55/2/2 29/523/523 234/83/83
f 233/74/74 287/76/76 286/84/84
f 56/3/3 55/2/2 286/84/84
f 576/85/85 249/563/563 6/86/86
f 573/88/88 244/108/108 245/89/89
f 637/58/58 636/133/133 220/90/90
f 251/69/69 250/61/61 590/91/91
f 473/92/92 114/552/552 19/8/8
f 344/94/94 346/391/391 347/95/95
f 317/97/97 160/145/145 161/98/98
f 288/100/100 290/110/110 291/101/101
f 530/103/103 531/607/607 532/104/104
f 245/89/89 290/110/110 289/106/106
f 24/107/107 222/109/109 291/101/101
f 222/109/109 221/56/56 292/102/102
f 290/110/110 245/89/89 244/108/108
f 221/56/56 220/90/90 293/111/111
f 293/111/111 43/631/631 44/112/112
f 318/99/99 316/156/156 322/114/114
f 309/115/115 311/222/222 312/116/116
f 90/118/118 15/245/245 96/119/119
f 556/121/121 134/175/175 133/122/122
f 614/123/123 613/579/579 127/124/124
f 235/126/126 22/180/180 135/127/127
f 319/129/129 162/142/142 27/130/130
f 115/132/132 11/207/207 220/90/90
f 295/50/50 299/49/49 300/134/134
f 576/85/85 213/87/87 212/136/136
f 538/138/138 228/608/608 27/130/130
f 6/86/86 225/141/141 296/140/140
f 225/141/141 224/65/65 297/48/48
f 296/140/140 297/48/48 295/50/50
f 212/136/136 213/87/87 296/140/140
f 162/142/142 298/143/143 223/139/139
f 161/98/98 299/49/49 298/143/143
f 224/65/65 223/139/139 298/143/143
f 12/144/144 211/146/146 300/134/134
f 318/99/99 161/98/98 162/142/142
f 211/146/146 212/136/136 301/135/135
f 323/147/147 325/298/298 326/148/148
f 299/49/49 161/98/98 160/145/145
f 604/150/150 69/489/489 68/151/151
f 626/153/153 625/352/352 270/154/154
f 316/156/156 320/243/243 321/157/157
f 396/158/158 395/410/410 137/159/159
f 274/6/6 276/42/42 277/40/40
f 400/161/161 402/505/505 403/162/162
f 636/133/133 635/311/311 116/164/164
f 583/165/165 102/360/360 101/166/166
f 371/168/168 370/193/193 88/169/169
f 397/171/171 396/158/158 85/172/172
f 133/122/122 303/176/176 187/93/93
f 474/174/174 473/92/92 187/93/93
f 134/175/175 304/183/183 303/176/176
f 615/177/177 614/123/123 128/125/125
f 188/14/14 187/93/93 303/176/176
f 129/178/178 305/182/182 135/127/127
f 129/178/178 128/125/125 306/181/181
f 304/183/183 134/175/175 135/127/127
f 1/77/77 210/79/79 562/22/22
f 14/185/185 189/15/15 307/186/186
f 189/15/15 188/14/14 308/179/179
f 634/187/187 273/596/596 30/188/188
f 306/181/181 128/125/125 127/124/124
f 517/190/190 219/223/223 23/191/191
f 370/193/193 156/462/462 12/144/144
f 633/194/194 631/430/430 637/58/58
f 530/103/103 529/577/577 51/195/195
f 493/197/197 492/252/252 108/198/198
f 5/200/200 214/599/599 541/201/201
f 429/203/203 163/244/244 164/204/204
f 558/206/206 557/7/7 121/9/9
f 11/207/207 115/132/132 310/208/208
f 515/210/210 217/209/209 218/211/211
f 116/164/164 311/222/222 310/208/208
f 514/213/213 512/576/576 518/214/214
f 627/216/216 626/153/153 269/155/155
f 217/209/209 310/208/208 315/218/218
f 30/188/188 268/217/217 312/116/116
f 268/217/217 269/155/155 313/117/117
f 619/219/219 618/404/404 171/220/220
f 311/222/222 116/164/164 117/189/189
f 219/223/223 314/225/225 270/154/154
f 569/12/12 570/615/615 568/224/224
f 218/211/211 315/218/218 314/225/225
f 516/212/212 218/211/211 219/223/223
f 567/24/24 131/488/488 130/184/184
f 590/91/91 34/634/634 35/226/226
f 269/155/155 270/154/154 314/225/225
f 565/228/228 566/487/487 567/24/24
f 330/229/229 332/325/325 333/230/230
f 619/219/219 170/221/221 169/232/232
f 382/234/234 381/282/282 104/235/235
f 365/237/237 369/457/457 370/193/193
f 479/238/238 477/548/548 483/239/239
f 88/169/169 12/144/144 160/145/145
f 89/170/170 88/169/169 317/97/97
f 404/163/163 403/162/162 139/241/241
f 165/131/131 164/204/204 320/243/243
f 90/118/118 321/157/157 163/244/244
f 434/246/246 92/438/438 91/247/247
f 90/118/118 89/170/170 322/114/114
f 327/149/149 328/300/300 329/248/248
f 89/170/170 90/118/118 366/120/120
f 320/243/243 164/204/204 163/244/244
f 443/249/249 166/384/384 167/250/250
f 492/252/252 493/197/197 491/253/253
f 494/255/255 196/359/359 197/256/256
f 417/258/258 154/429/429 26/259/259
f 612/261/261 611/379/379 78/262/262
f 419/264/264 418/396/396 152/265/265
f 576/85/85 577/137/137 575/267/267
f 159/269/269 26/259/259 261/270/270
f 494/255/255 493/197/197 107/199/199
f 607/273/273 606/304/304 157/274/274
f 484/276/276 486/559/559 487/277/277
f 578/279/279 211/146/146 12/144/144
f 380/281/281 103/290/290 104/235/235
f 480/283/283 190/288/288 191/284/284
f 16/286/286 105/236/236 324/287/287
f 104/235/235 325/298/298 324/287/287
f 190/288/288 324/287/287 329/248/248
f 18/289/289 106/272/272 326/148/148
f 507/291/291 203/567/567 204/292/292
f 106/272/272 107/199/199 327/149/149
f 109/294/294 18/289/289 103/290/290
f 509/295/295 510/529/529 511/296/296
f 325/298/298 104/235/235 103/290/290
f 108/198/198 17/63/63 192/299/299
f 191/284/284 329/248/248 328/300/300
f 337/301/301 339/357/357 340/302/302
f 606/304/304 67/305/305 16/286/286
f 107/199/199 108/198/198 328/300/300
f 605/152/152 68/151/151 67/305/305
f 377/306/306 240/361/361 239/307/307
f 430/205/205 164/204/204 165/131/131
f 99/310/310 16/286/286 190/288/288
f 635/311/311 634/187/187 117/189/189
f 496/312/312 495/257/257 197/256/256
f 372/314/314 376/461/461 377/306/306
f 632/57/57 271/316/316 272/315/315
f 271/316/316 24/107/107 144/317/317
f 577/137/137 212/136/136 211/146/146
f 426/319/319 94/455/455 95/320/320
f 7/322/322 151/266/266 331/323/323
f 151/266/266 152/265/265 332/325/325
f 608/271/271 607/273/273 158/275/275
f 598/326/326 83/560/560 84/327/327
f 98/329/329 97/324/324 331/323/323
f 153/260/260 26/259/259 159/269/269
f 159/269/269 158/275/275 334/231/231
f 152/265/265 153/260/260 333/230/230
f 99/310/310 335/333/333 157/274/274
f 584/167/167 101/166/166 100/331/331
f 99/310/310 98/329/329 336/330/330
f 480/283/283 479/238/238 98/329/329
f 158/275/275 157/274/274 335/333/333
f 147/334/334 25/362/362 148/335/335
f 572/337/337 571/445/445 63/338/338
f 408/336/336 409/342/342 407/340/340
f 409/342/342 149/557/557 150/343/343
f 598/326/326 596/616/616 602/345/345
f 378/308/308 239/307/307 238/347/347
f 602/345/345 601/618/618 258/349/349
f 58/351/351 23/191/191 270/154/154
f 412/353/353 145/355/355 146/354/354
f 145/355/355 4/446/446 198/313/313
f 197/256/256 339/357/357 338/356/356
f 339/357/357 337/301/301 343/358/358
f 146/354/354 145/355/355 338/356/356
f 196/359/359 18/289/289 238/347/347
f 252/64/64 17/63/63 102/360/360
f 239/307/307 341/303/303 340/302/302
f 339/357/357 197/256/256 196/359/359
f 147/334/334 342/363/363 240/361/361
f 147/334/334 146/354/354 343/358/358
f 413/341/341 146/354/354 147/334/334
f 341/303/303 239/307/307 240/361/361
f 202/364/364 2/566/566 64/365/365
f 520/367/367 142/397/397 3/368/368
f 358/370/370 360/447/447 361/371/371
f 231/373/373 29/523/523 174/374/374
f 352/376/376 353/392/392 351/51/51
f 59/377/377 58/351/351 625/352/352
f 611/379/379 612/261/261 610/380/380
f 615/177/177 264/422/422 263/382/382
f 178/383/383 21/39/39 166/384/384
f 348/96/96 349/398/398 350/385/385
f 524/318/318 144/317/317 143/386/386
f 24/107/107 150/343/343 345/388/388
f 465/389/389 466/31/31 467/33/33
f 150/343/343 149/557/557 346/391/391
f 345/388/388 346/391/391 344/94/94
f 353/392/392 354/417/417 355/393/393
f 144/317/317 345/388/388 350/385/385
f 148/335/335 25/362/362 256/394/394
f 256/394/394 257/350/350 348/96/96
f 346/391/391 149/557/557 148/335/335
f 414/395/395 416/428/428 417/258/258
f 142/397/397 349/398/398 258/349/349
f 257/350/350 256/394/394 597/346/346
f 143/386/386 350/385/385 349/398/398
f 257/350/350 258/349/349 349/398/398
f 622/399/399 267/448/448 266/400/400
f 141/402/402 5/200/200 172/202/202
f 405/403/403 404/163/163 140/242/242
f 618/404/404 619/219/219 617/405/405
f 362/372/372 363/449/449 364/406/406
f 421/407/407 425/528/528 426/319/319
f 506/408/408 507/291/291 505/297/297
f 58/351/351 352/376/376 138/409/409
f 395/410/410 394/499/499 138/409/409
f 58/351/351 59/377/377 353/392/392
f 582/411/411 584/167/167 585/332/332
f 446/413/413 176/503/503 177/414/414
f 137/159/159 138/409/409 352/376/376
f 60/415/415 3/368/368 262/416/416
f 263/382/382 355/393/393 354/417/417
f 332/325/325 330/229/229 336/330/330
f 422/418/418 423/518/518 421/407/407
f 59/377/377 60/415/415 354/417/417
f 457/419/419 458/481/481 456/420/420
f 22/180/180 136/160/160 356/52/52
f 616/381/381 263/382/382 262/416/416
f 136/160/160 137/159/159 357/53/53
f 411/423/423 412/353/353 413/341/341
f 627/216/216 268/217/217 30/188/188
f 355/393/393 263/382/382 264/422/422
f 459/425/425 458/481/481 74/426/426
f 91/247/247 15/245/245 163/244/244
f 416/428/428 155/434/434 154/429/429
f 631/430/430 635/311/311 636/133/133
f 330/229/229 334/231/231 335/333/333
f 463/390/390 467/33/33 468/431/431
f 415/433/433 156/462/462 155/434/434
f 110/435/435 109/294/294 380/281/281
f 433/437/437 93/439/439 92/438/438
f 93/439/439 5/200/200 141/402/402
f 519/441/441 523/594/594 524/318/318
f 140/242/242 360/447/447 359/440/440
f 546/442/442 173/500/500 172/202/202
f 93/439/439 359/440/440 364/406/406
f 139/241/241 28/536/536 265/443/443
f 265/443/443 266/400/400 362/372/372
f 175/444/444 28/536/536 139/241/241
f 571/445/445 207/465/465 4/446/446
f 360/447/447 140/242/242 139/241/241
f 91/247/247 363/449/449 267/448/448
f 623/401/401 266/400/400 265/443/443
f 92/438/438 364/406/406 363/449/449
f 266/400/400 267/448/448 363/449/449
f 453/450/450 452/491/491 178/383/383
f 625/352/352 626/153/153 624/452/452
f 380/281/281 381/282/282 379/453/453
f 73/427/427 15/245/245 181/454/454
f 418/396/396 417/258/258 153/260/260
f 95/320/320 367/458/458 366/120/120
f 94/455/455 26/259/259 154/429/429
f 155/434/434 369/457/457 368/456/456
f 365/237/237 367/458/458 368/456/456
f 95/320/320 94/455/455 368/456/456
f 605/152/152 603/561/561 609/459/459
f 374/460/460 375/477/477 376/461/461
f 369/457/457 155/434/434 156/462/462
f 487/277/277 193/480/480 194/463/463
f 384/464/464 111/475/475 110/435/435
f 585/332/332 100/331/331 4/446/446
f 379/453/453 381/282/282 382/234/234
f 398/467/467 397/171/171 86/173/173
f 560/469/469 559/36/36 237/470/470
f 386/472/472 388/497/497 389/473/473
f 18/289/289 109/294/294 373/348/348
f 109/294/294 110/435/435 374/460/460
f 111/475/475 13/637/637 195/476/476
f 194/463/463 376/461/461 375/477/477
f 110/435/435 111/475/475 375/477/477
f 386/472/472 390/474/474 391/478/478
f 193/480/480 25/362/362 240/361/361
f 376/461/461 194/463/463 193/480/480
f 457/419/419 75/519/519 74/426/426
f 474/174/174 475/13/13 476/482/482
f 387/484/484 388/497/497 386/472/472
f 466/31/31 465/389/389 71/485/485
f 566/487/487 132/494/494 131/488/488
f 105/236/236 16/286/286 67/305/305
f 87/468/468 1/77/77 130/184/184
f 68/151/151 383/466/466 382/234/234
f 69/489/489 13/637/637 111/475/475
f 68/151/151 69/489/489 384/464/464
f 118/490/490 21/39/39 178/383/383
f 397/171/171 398/467/467 399/492/492
f 243/192/192 23/191/191 132/494/494
f 373/348/348 374/460/460 372/314/314
f 467/33/33 185/32/32 186/43/43
f 450/47/47 120/46/46 119/495/495
f 87/468/468 387/484/484 120/46/46
f 86/173/173 388/497/497 387/484/484
f 120/46/46 387/484/484 392/479/479
f 85/172/172 22/180/180 235/126/126
f 235/126/126 236/471/471 390/474/474
f 136/160/160 22/180/180 85/172/172
f 388/497/497 86/173/173 85/172/172
f 118/490/490 391/478/478 237/470/470
f 236/471/471 235/126/126 555/128/128
f 119/495/495 392/479/479 391/478/478
f 236/471/471 237/470/470 391/478/478
f 404/163/163 405/403/403 406/498/498
f 23/191/191 138/409/409 394/499/499
f 132/494/494 394/499/499 399/492/492
f 568/224/224 570/615/615 571/445/445
f 525/387/387 143/386/386 142/397/397
f 131/488/488 399/492/492 398/467/467
f 545/375/375 174/374/374 173/500/500
f 414/395/395 418/396/396 419/264/264
f 445/502/502 175/444/444 176/503/503
f 174/374/374 29/523/523 177/414/414
f 176/503/503 402/505/505 401/504/504
f 453/450/450 179/451/451 180/54/54
f 174/374/374 401/504/504 406/498/498
f 402/505/505 176/503/503 175/444/444
f 173/500/500 406/498/498 405/403/403
f 24/107/107 61/508/508 410/344/344
f 579/506/506 578/279/279 48/280/280
f 61/508/508 62/339/339 411/423/423
f 63/338/338 4/446/446 145/355/355
f 504/509/509 503/366/366 64/365/365
f 62/339/339 63/338/338 412/353/353
f 285/80/80 286/84/84 287/76/76
f 48/280/280 12/144/144 156/462/462
f 47/507/507 48/280/280 415/433/433
f 151/266/266 7/322/322 46/512/512
f 46/512/512 47/507/507 420/501/501
f 435/513/513 439/533/533 440/514/514
f 428/515/515 430/205/205 431/309/309
f 622/399/399 621/524/524 182/517/517
f 96/119/119 15/245/245 73/427/427
f 73/427/427 74/426/426 423/518/518
f 75/519/519 13/637/637 259/520/520
f 260/522/522 425/528/528 424/521/521
f 29/523/523 180/54/54 447/17/17
f 74/426/426 75/519/519 424/521/521
f 621/524/524 622/399/399 623/401/401
f 489/525/525 79/545/545 80/526/526
f 260/522/522 261/270/270 426/319/319
f 20/30/30 183/546/546 620/233/233
f 510/529/529 509/295/295 53/530/530
f 27/130/130 49/534/534 431/309/309
f 435/513/513 437/25/25 438/532/532
f 49/534/534 50/196/196 432/516/516
f 51/195/195 5/200/200 93/439/439
f 50/196/196 51/195/195 433/437/437
f 167/250/250 166/384/384 436/27/27
f 169/232/232 170/221/221 439/533/533
f 168/535/535 440/514/514 171/220/220
f 275/35/35 276/42/42 274/6/6
f 167/250/250 441/26/26 440/514/514
f 444/251/251 167/250/250 168/535/535
f 549/537/537 547/606/606 553/538/538
f 170/221/221 171/220/220 440/514/514
f 179/451/451 178/383/383 443/249/249
f 180/54/54 179/451/451 448/18/18
f 181/454/454 15/245/245 267/448/448
f 464/540/540 465/389/389 463/390/390
f 471/541/541 472/553/553 470/483/483
f 552/542/542 234/83/83 29/523/523
f 72/543/543 13/637/637 75/519/519
f 70/486/486 20/30/30 184/29/29
f 71/485/485 72/543/543 457/419/419
f 181/454/454 182/517/517 460/544/544
f 195/476/476 13/637/637 79/545/545
f 70/486/486 461/547/547 183/546/546
f 70/486/486 71/485/485 462/421/421
f 182/517/517 183/546/546 461/547/547
f 313/117/117 314/225/225 315/218/218
f 477/548/548 481/285/285 482/549/549
f 113/550/550 112/554/554 464/540/540
f 204/292/292 7/322/322 54/551/551
f 509/295/295 508/293/293 54/551/551
f 19/8/8 114/552/552 468/431/431
f 114/552/552 113/550/550 469/432/432
f 472/553/553 113/550/550 114/552/552
f 304/183/183 302/620/620 308/179/179
f 555/128/128 135/127/127 134/175/175
f 495/257/257 496/312/312 497/254/254
f 79/545/545 13/637/637 112/554/554
f 79/545/545 471/541/541 476/482/482
f 256/394/394 25/362/362 82/555/555
f 189/15/15 14/185/185 81/556/556
f 408/336/336 148/335/335 149/557/557
f 80/526/526 476/482/482 475/13/13
f 490/527/527 80/526/526 81/556/556
f 324/287/287 325/298/298 323/147/147
f 482/549/549 481/285/285 191/284/284
f 54/551/551 7/322/322 97/324/324
f 53/530/530 54/551/551 478/240/240
f 259/520/520 13/637/637 69/489/489
f 192/299/299 17/63/63 52/531/531
f 52/531/531 53/530/530 483/239/239
f 488/278/278 489/525/525 490/527/527
f 84/327/327 83/560/560 486/559/559
f 82/555/555 25/362/362 193/480/480
f 83/560/560 82/555/555 487/277/277
f 603/561/561 607/273/273 608/271/271
f 584/167/167 582/411/411 588/562/562
f 581/268/268 248/565/565 249/563/563
f 17/63/63 108/198/198 492/252/252
f 102/360/360 492/252/252 497/254/254
f 198/313/313 4/446/446 100/331/331
f 101/166/166 497/254/254 496/312/312
f 505/297/297 507/291/291 508/293/293
f 580/564/564 247/574/574 248/565/565
f 506/408/408 253/580/580 2/566/566
f 506/408/408 202/364/364 203/567/567
f 565/228/228 564/19/19 241/568/568
f 498/570/570 500/575/575 501/571/571
f 248/565/565 500/575/575 499/573/573
f 7/322/322 204/292/292 501/571/571
f 204/292/292 203/567/567 502/572/572
f 500/575/575 248/565/565 247/574/574
f 512/576/576 516/212/212 517/190/190
f 203/567/567 202/364/364 503/366/366
f 526/105/105 528/605/605 529/577/577
f 76/578/578 14/185/185 127/124/124
f 253/580/580 506/408/408 511/296/296
f 254/581/581 511/296/296 510/529/529
f 593/583/583 254/581/581 255/582/582
f 613/579/579 612/261/261 77/263/263
f 543/584/584 542/598/598 215/585/585
f 242/569/569 241/568/568 513/215/215
f 572/337/337 573/88/88 574/10/10
f 243/192/192 242/569/569 518/214/214
f 566/487/487 565/228/228 242/569/569
f 543/584/584 216/586/586 9/587/587
f 628/589/589 627/216/216 199/424/424
f 551/75/75 233/74/74 234/83/83
f 541/201/201 542/598/598 540/591/591
f 609/459/459 608/271/271 261/270/270
f 533/592/592 537/602/602 538/138/138
f 521/593/593 522/597/597 523/594/594
f 208/21/21 8/70/70 241/568/568
f 201/369/369 200/590/590 521/593/593
f 201/369/369 3/368/368 60/415/415
f 199/424/424 30/188/188 273/596/596
f 272/315/315 523/594/594 522/597/597
f 456/420/420 458/481/481 459/425/425
f 200/590/590 199/424/424 522/597/597
f 597/346/346 82/555/555 83/560/560
f 523/594/594 272/315/315 271/316/316
f 542/598/598 541/201/201 214/599/599
f 536/600/600 226/604/604 227/601/601
f 9/587/587 216/586/586 527/603/603
f 310/208/208 311/222/222 309/115/115
f 215/585/585 528/605/605 527/603/603
f 226/604/604 527/603/603 532/104/104
f 528/605/605 215/585/585 214/599/599
f 547/606/606 551/75/75 552/542/542
f 227/601/601 532/104/104 531/607/607
f 537/602/602 227/601/601 228/608/608
f 540/591/591 542/598/598 543/584/584
f 549/537/537 550/73/73 551/75/75
f 282/71/71 283/82/82 281/511/511
f 229/588/588 230/610/610 544/609/609
f 316/156/156 318/99/99 319/129/129
f 230/610/610 231/373/373 545/375/375
f 563/611/611 562/22/22 210/79/79
f 554/612/612 556/121/121 557/7/7
f 561/23/23 563/611/611 564/19/19
f 586/412/412 585/332/332 207/465/465
f 582/411/411 586/412/412 587/59/59
f 246/11/11 10/60/60 205/614/614
f 206/613/613 570/615/615 569/12/12
f 570/615/615 206/613/613 207/465/465
f 575/267/267 577/137/137 578/279/279
f 129/178/178 22/180/180 264/422/422
f 421/407/407 423/518/518 424/521/521
f 251/69/69 252/64/64 583/165/165
f 250/61/61 251/69/69 588/562/562
f 596/616/616 598/326/326 599/328/328
f 630/378/378 629/595/595 60/415/415
f 603/561/561 605/152/152 606/304/304
f 84/327/327 14/185/185 76/578/578
f 76/578/578 77/263/263 600/617/617
f 78/262/262 3/368/368 258/349/349
f 77/263/263 78/262/262 601/618/618
f 610/380/380 612/261/261 613/579/579
f 112/554/554 13/637/637 72/543/543
f 514/213/213 515/210/210 516/212/212
f 617/405/405 619/219/219 620/233/233
f 337/301/301 341/303/303 342/363/363
f 591/227/227 589/81/81 595/68/68
f 401/504/504 402/505/505 400/161/161
f 429/203/203 430/205/205 428/515/515
f 46/512/512 7/322/322 247/574/574
f 61/508/508 24/107/107 244/108/108
f 359/440/440 360/447/447 358/370/370
f 230/610/610 229/588/588 548/539/539
f 436/27/27 126/41/41 125/34/34
f 529/577/577 214/599/599 5/200/200
f 573/88/88 572/337/337 62/339/339
f 438/532/532 124/28/28 20/30/30
f 624/452/452 626/153/153 627/216/216
f 106/272/272 18/289/289 196/359/359
f 437/25/25 125/34/34 124/28/28
f 451/496/496 449/619/619 455/1/1
f 281/511/511 283/82/82 284/78/78
f 49/534/534 27/130/130 228/608/608
f 456/420/420 460/544/544 461/547/547
f 531/607/607 530/103/103 50/196/196
f 444/251/251 442/16/16 448/18/18
f 260/522/522 259/520/520 604/150/150
f 611/379/379 262/416/416 3/368/368
f 587/59/59 586/412/412 206/613/613
f 621/524/524 620/233/233 183/546/546
f 449/619/619 453/450/450 454/55/55
f 465/389/389 464/540/540 72/543/543
f 485/558/558 486/559/559 484/276/276
f 52/531/531 17/63/63 255/582/582
f 366/120/120 367/458/458 365/237/237
f 485/558/558 81/556/556 14/185/185
f 261/270/270 26/259/259 94/455/455
f 631/430/430 633/194/194 634/187/187
f 302/620/620 306/181/181 307/186/186
f 515/210/210 514/213/213 41/621/621
f 556/121/121 554/612/612 560/469/469
f 229/588/588 9/587/587 37/623/623
f 478/240/240 97/324/324 98/329/329
f 65/510/510 66/635/635 499/573/573
f 534/66/66 31/636/636 32/624/624
f 44/112/112 45/630/630 289/106/106
f 241/568/568 8/70/70 40/626/626
f 33/627/627 9/587/587 226/604/604
f 123/38/38 21/39/39 237/470/470
f 36/628/628 2/566/566 253/580/580
f 614/123/123 615/177/177 616/381/381
f 553/538/538 552/542/542 231/373/373
f 45/630/630 10/60/60 246/11/11
f 470/483/483 472/553/553 473/92/92
f 477/548/548 479/238/238 480/283/283
f 42/622/622 11/207/207 217/209/209
f 498/570/570 502/572/572 503/366/366
f 220/90/90 11/207/207 43/631/631
f 222/109/109 24/107/107 271/316/316
f 39/632/632 8/70/70 232/72/72
f 548/539/539 37/623/623 38/633/633
f 250/61/61 10/60/60 34/634/634
f 629/595/595 628/589/589 200/590/590
f 580/564/564 579/506/506 47/507/507
f 292/102/102 293/111/111 294/113/113
f 596/616/616 600/617/617 601/618/618
f 290/110/110 288/100/100 294/113/113
f 166/384/384 21/39/39 126/41/41
f 442/16/16 444/251/251 445/502/502
f 535/625/625 533/592/592 539/67/67
f 633/194/194 272/315/315 273/596/596
f 544/609/609 545/375/375 546/442/442
f 554/612/612 558/206/206 559/36/36
f 513/215/215 40/626/626 41/621/621
f 66/635/635 6/86/86 249/563/563
f 520/367/367 521/593/593 519/441/441
f 500/575/575 498/570/570 504/509/509
f 550/73/73 549/537/537 38/633/633
f 527/603/603 528/605/605 526/105/105
f 225/141/141 6/86/86 31/636/636
f 536/600/600 535/625/625 32/624/624
f 592/629/629 591/227/227 35/226/226
f 624/452/452 628/589/589 629/595/595
f 472/553/553 471/541/541 112/554/554
f 432/516/516 433/437/437 434/246/246
f 491/253/253 493/197/197 494/255/255
f 489/525/525 488/278/278 194/463/463
f 416/428/428 414/395/395 420/501/501
f 383/466/466 384/464/464 385/436/436
f 393/493/493 395/410/410 396/158/158
f 427/321/321 95/320/320 96/119/119
f 394/499/499 395/410/410 393/493/493
f 265/443/443 28/536/536 171/220/220
f 407/340/340 409/342/342 410/344/344
f 449/619/619 451/496/496 452/491/491
f 168/535/535 28/536/536 175/444/444
f 579/506/506 580/564/564 581/268/268
f 539/67/67 538/138/138 223/139/139
f 451/496/496 119/495/495 118/490/490
f 535/625/625 536/600/600 537/602/602
f 302/620/620 304/183/183 305/182/182
f 592/629/629 253/580/580 254/581/581
f 591/227/227 592/629/629 593/583/583
