# Blender v2.91.2 OBJ File: 'hexes.blend'
# www.blender.org
o lod2_Cylinder.006
v 0.859098 0.000470 -1.489680
v -0.860457 0.000470 1.488681
v -0.861773 0.000470 -1.491785
v -1.722713 0.000470 -0.000463
v 1.716528 0.000470 -0.000413
v 0.857892 0.000470 1.486669
v -0.055276 1.090226 -0.033832
v -1.000000 0.000000 1.732051
v 1.000000 0.000000 1.732051
v 2.000000 0.000000 0.000000
v 1.000000 0.000000 -1.732051
v -2.000000 0.000000 -0.000000
v -1.000000 0.000000 -1.732051
v -0.366131 0.759855 0.568237
v 0.647014 0.784820 -0.017203
v -0.366648 0.837381 -0.603538
v -0.705128 0.759855 -0.017222
v 0.309914 0.759855 -0.602710
v 0.309440 0.759855 0.567446
vt 0.387105 0.582213
vt 0.504676 0.918220
vt 0.142201 0.708699
vt 0.619535 0.583194
vt 0.868479 0.710660
vt 0.501332 0.517775
vt 0.621095 0.448686
vt 0.503624 0.373263
vt 0.145021 0.291027
vt 0.507014 0.085392
vt 0.384025 0.446682
vt 0.086980 0.257472
vt 0.507239 0.016767
vt 0.867485 0.292653
vt 0.926402 0.744643
vt 0.084887 0.742018
vt 0.504580 0.983233
vt 0.926402 0.259077
vt 0.503145 0.634818
vn -0.6248 0.7405 -0.2476
vn -0.2247 0.9744 0.0068
vn 0.0229 0.9997 -0.0028
vn 0.3973 0.6337 -0.6638
vn -0.1344 0.9735 -0.1850
vn -0.1804 0.9400 -0.2896
vn 0.3855 0.8830 -0.2678
vn 0.4322 0.8828 0.1840
vn 0.1787 0.9669 0.1821
vn -0.0458 0.9963 -0.0729
vn -0.1343 0.9704 0.2008
vn -0.0654 0.9536 0.2939
vn 0.0615 0.9537 0.2945
vn 0.1168 0.9678 -0.2228
vn -0.2558 0.9667 -0.0014
vn 0.1258 0.9672 0.2207
vn -0.1282 0.9672 0.2192
vn -0.1276 0.9662 -0.2238
vn -0.1209 0.9738 -0.1925
s 1
f 17/1/1 3/2/2 4/3/3
f 3/2/2 18/4/4 1/5/5
f 7/6/6 15/7/7 18/4/4
f 7/6/6 19/8/8 15/7/7
f 19/8/8 2/9/9 6/10/10
f 7/6/6 17/1/1 14/11/11
f 6/10/10 8/12/12 9/13/13
f 5/14/14 11/15/15 1/5/5
f 2/9/9 12/16/16 8/12/12
f 1/5/5 13/17/17 3/2/2
f 4/3/3 13/17/17 12/16/16
f 6/10/10 10/18/18 5/14/14
f 18/4/4 16/19/19 7/6/6
f 14/11/11 4/3/3 2/9/9
f 15/7/7 1/5/5 18/4/4
f 19/8/8 5/14/14 15/7/7
f 16/19/19 17/1/1 7/6/6
f 14/11/11 19/8/8 7/6/6
f 17/1/1 16/19/19 3/2/2
f 3/2/2 16/19/19 18/4/4
f 19/8/8 14/11/11 2/9/9
f 6/10/10 2/9/9 8/12/12
f 5/14/14 10/18/18 11/15/15
f 2/9/9 4/3/3 12/16/16
f 1/5/5 11/15/15 13/17/17
f 4/3/3 3/2/2 13/17/17
f 6/10/10 9/13/13 10/18/18
f 14/11/11 17/1/1 4/3/3
f 15/7/7 5/14/14 1/5/5
f 19/8/8 6/10/10 5/14/14
