# Blender v2.91.2 OBJ File: 'hexes.blend'
# www.blender.org
o mountain_01_Cylinder.002
v 0.873737 0.005328 -1.379340
v -1.000000 0.000000 1.732051
v -0.780125 0.002171 -1.351215
v -1.560249 0.002171 -0.000000
v 1.560249 0.002171 0.000000
v 1.000000 0.000000 1.732051
v -0.780125 0.002171 1.351215
v 1.000000 0.000000 -1.732051
v 2.000000 0.000000 0.000000
v -2.000000 0.000000 -0.000000
v -1.000000 0.000000 -1.732051
v 0.866736 0.002171 1.501231
v -0.055276 1.073204 -0.033832
v -0.630088 0.608794 -0.800133
v 0.727061 0.371248 0.737462
v -0.385600 0.381993 0.814177
v -0.862470 0.616627 -0.209662
v -1.170187 0.002171 0.675607
v -0.890535 0.331595 0.330945
v 0.518340 0.724193 -0.481146
v 0.843077 0.619684 -0.120571
v 0.799484 0.318798 -0.811985
v -0.080573 0.488799 -0.968331
v 0.025187 0.002171 -1.448976
v -1.255527 0.002171 -0.795278
v -1.181010 0.223217 -0.296582
v 0.120089 0.287033 0.927945
v 0.034447 0.694788 -0.546744
v -0.450565 0.745866 -0.013507
v -0.265385 0.964406 -0.398928
v 0.404263 0.938514 0.010568
v 0.294328 0.891129 -0.339095
v -0.440321 0.793062 0.287986
v 0.317680 0.756062 0.546694
v -0.144931 0.820168 0.505843
v -0.890062 0.002171 1.541633
v 0.930455 0.002171 -1.611596
v 1.780124 0.002171 0.000000
v 0.933368 0.002171 1.616641
v -0.890062 0.002171 -1.541633
v -1.780124 0.002171 -0.000000
v -0.144931 0.820168 0.505843
v -0.055276 1.073204 -0.033832
v 0.727061 0.371248 0.737462
v -0.890535 0.331595 0.330945
v 0.518340 0.724193 -0.481146
v -0.080573 0.488799 -0.968331
vt 0.343805 0.558464
vt 0.253864 0.427031
vt 0.370551 0.464588
vt 0.668487 0.181753
vt 0.499870 0.068415
vt 0.876029 0.285724
vt 0.497399 0.952306
vt 0.074241 0.737746
vt 0.120954 0.711192
vt 0.318896 0.195101
vt 0.108573 0.268182
vt 0.079540 0.251026
vt 0.922480 0.747014
vt 0.497055 0.984769
vt 0.435591 0.403244
vt 0.506162 0.420028
vt 0.426933 0.469290
vt 0.830376 0.504029
vt 0.876071 0.719842
vt 0.497656 0.920699
vt 0.166828 0.684731
vt 0.443310 0.720428
vt 0.829589 0.692671
vt 0.664829 0.616618
vt 0.712579 0.468746
vt 0.586528 0.702348
vt 0.829289 0.312480
vt 0.624731 0.380695
vt 0.701569 0.304690
vt 0.525719 0.304182
vt 0.499301 0.121691
vt 0.407972 0.315968
vt 0.443310 0.720428
vt 0.712579 0.468746
vt 0.593384 0.505059
vt 0.579028 0.453724
vt 0.562878 0.559670
vt 0.148308 0.310729
vt 0.407972 0.315968
vt 0.497456 0.612714
vt 0.504155 0.486942
vt 0.562878 0.559670
vt 0.443303 0.529004
vt 0.504155 0.486942
vt 0.370551 0.464588
vt 0.922480 0.258918
vt 0.500330 0.015231
vn 0.6268 0.7783 -0.0372
vn 0.4826 0.7671 -0.4227
vn 0.5543 0.7869 -0.2712
vn -0.3127 0.9372 -0.1546
vn -0.0034 1.0000 -0.0056
vn -0.0066 1.0000 0.0000
vn 0.0054 0.9999 0.0094
vn 0.0102 0.9999 -0.0000
vn 0.0067 1.0000 0.0002
vn -0.0029 0.9305 -0.3662
vn 0.0068 0.9999 -0.0127
vn 0.0078 0.9999 -0.0135
vn -0.0052 0.9999 0.0086
vn 0.0081 0.9999 0.0141
vn 0.0945 0.7745 -0.6255
vn -0.1976 0.9091 -0.3666
vn 0.2768 0.8377 -0.4708
vn -0.2853 0.9442 0.1647
vn -0.0034 1.0000 0.0055
vn 0.0659 0.9892 0.1308
vn 0.2507 0.9681 0.0054
vn 0.5813 0.7629 0.2831
vn -0.0928 0.9829 0.1593
vn -0.2435 0.7751 0.5830
vn -0.5176 0.7502 0.4115
vn 0.0039 0.7820 0.6232
vn -0.2411 0.9702 0.0249
vn -0.5988 0.7995 0.0475
vn -0.6428 0.7102 -0.2870
vn -0.3609 0.7825 -0.5074
vn -0.1495 0.9550 -0.2562
vn -0.0170 0.7869 -0.6168
vn 0.0831 0.7862 0.6123
vn -0.5537 0.7742 0.3065
vn -0.5880 0.7690 0.2508
vn -0.5750 0.8080 0.1286
vn -0.4249 0.7671 0.4807
vn 0.1265 0.9742 -0.1870
vn 0.1395 0.7978 -0.5866
vn 0.2750 0.7734 0.5711
vn 0.2055 0.9785 -0.0174
vn 0.0447 0.7462 0.6642
vn 0.4520 0.8882 0.0821
vn -0.5622 0.8149 0.1409
vn 0.1428 0.7533 -0.6420
vn -0.0099 1.0000 -0.0000
vn -0.0051 0.9999 -0.0086
s 1
f 21/1/1 22/2/2 20/3/3
f 25/4/4 40/5/5 41/6/6
f 39/7/7 9/8/8 38/9/9
f 24/10/10 37/11/11 40/5/5
f 37/11/11 9/8/8 8/12/12
f 39/7/7 2/13/13 6/14/14
f 28/15/15 30/16/16 32/17/17
f 18/18/18 41/6/6 36/19/19
f 12/20/20 5/21/21 44/22/22
f 7/23/23 16/24/24 45/25/25
f 7/23/23 27/26/26 16/24/24
f 4/27/27 17/28/28 26/29/29
f 14/30/30 3/31/31 25/4/4
f 14/30/30 23/32/32 24/10/10
f 44/22/22 5/21/21 21/1/1
f 15/33/33 27/26/26 12/20/20
f 19/34/34 33/35/35 29/36/36
f 19/34/34 17/28/28 4/27/27
f 16/24/24 35/37/37 33/35/35
f 1/38/38 47/39/39 22/2/2
f 22/2/2 21/1/1 5/21/21
f 24/10/10 47/39/39 1/38/38
f 1/38/38 22/2/2 5/21/21
f 26/29/29 25/4/4 4/27/27
f 17/28/28 29/36/36 30/16/16
f 12/20/20 27/26/26 7/23/23
f 15/33/33 34/40/40 27/26/26
f 43/41/41 42/42/42 34/40/40
f 14/30/30 30/16/16 28/15/15
f 43/41/41 31/43/43 32/17/17
f 3/31/31 14/30/30 24/10/10
f 26/29/29 17/28/28 14/30/30
f 34/40/40 31/43/43 43/41/41
f 34/40/40 42/42/42 16/24/24
f 33/35/35 35/37/37 13/44/44
f 30/16/16 29/36/36 13/44/44
f 29/36/36 33/35/35 13/44/44
f 28/15/15 32/17/17 46/45/45
f 32/17/17 31/43/43 21/1/1
f 34/40/40 44/22/22 21/1/1
f 31/43/43 34/40/40 21/1/1
f 20/3/3 32/17/17 21/1/1
f 23/32/32 14/30/30 28/15/15
f 47/39/39 28/15/15 46/45/45
f 14/30/30 17/28/28 30/16/16
f 18/18/18 7/23/23 45/25/25
f 45/25/25 16/24/24 33/35/35
f 18/18/18 19/34/34 4/27/27
f 17/28/28 19/34/34 29/36/36
f 34/40/40 16/24/24 27/26/26
f 30/16/16 43/41/41 32/17/17
f 47/39/39 46/45/45 22/2/2
f 12/20/20 36/19/19 39/7/7
f 1/38/38 38/9/9 37/11/11
f 12/20/20 38/9/9 5/21/21
f 26/29/29 14/30/30 25/4/4
f 40/5/5 10/46/46 41/6/6
f 37/11/11 11/47/47 40/5/5
f 36/19/19 10/46/46 2/13/13
f 41/6/6 4/27/27 25/4/4
f 25/4/4 3/31/31 40/5/5
f 39/7/7 6/14/14 9/8/8
f 40/5/5 3/31/31 24/10/10
f 24/10/10 1/38/38 37/11/11
f 37/11/11 38/9/9 9/8/8
f 39/7/7 36/19/19 2/13/13
f 36/19/19 7/23/23 18/18/18
f 18/18/18 4/27/27 41/6/6
f 12/20/20 7/23/23 36/19/19
f 1/38/38 5/21/21 38/9/9
f 12/20/20 39/7/7 38/9/9
f 40/5/5 11/47/47 10/46/46
f 37/11/11 8/12/12 11/47/47
f 36/19/19 41/6/6 10/46/46
