# Blender v2.91.2 OBJ File: 'hex_tile.blend'
# www.blender.org
o mountain01_Cylinder.002
v 1.000000 -0.500000 -1.732051
v 2.000000 -0.500000 0.000000
v 1.000000 -0.500000 1.732051
v -1.000000 -0.500000 1.732051
v -2.000000 -0.500000 -0.000000
v -1.000000 -0.500000 -1.732051
v 0.860911 0.351136 -1.491141
v -1.000000 0.351136 1.732051
v -0.780125 0.351136 -1.351215
v -1.560249 0.351136 -0.000000
v 1.560249 0.351136 0.000000
v -0.000000 0.351136 1.732051
v 1.000000 0.351136 1.732051
v -0.780125 0.351136 1.351215
v 1.000000 0.351136 -1.732051
v 2.000000 0.351136 0.000000
v -2.000000 0.351136 -0.000000
v -1.000000 0.351136 -1.732051
v 0.866736 0.351136 1.501231
v -0.057850 1.464232 -0.053672
v -0.630088 0.957758 -0.800133
v 0.727061 0.720213 0.737462
v -0.385600 0.730957 0.814177
v -0.862470 0.965591 -0.209662
v -1.170187 0.351136 0.675607
v -0.890535 0.680560 0.330945
v 0.518340 1.073158 -0.481146
v 0.843077 0.968649 -0.120571
v 0.884732 0.463018 -0.618459
v -0.080573 0.837763 -0.968331
v 0.025187 0.351136 -1.448976
v -1.255527 0.351136 -0.795278
v -1.181010 0.572181 -0.296582
v 0.120089 0.635998 0.927945
v 0.034447 1.043753 -0.546744
v -0.450565 1.094831 -0.013507
v -0.269395 1.346087 -0.404579
v 0.404263 1.287478 0.010568
v 0.294328 1.240093 -0.339095
v -0.440321 1.142027 0.287986
v 0.317680 1.105027 0.546694
v -0.144931 1.169132 0.505843
v 1.000000 -0.500000 -1.732051
v 2.000000 -0.500000 0.000000
v 1.000000 -0.500000 1.732051
v -1.000000 -0.500000 1.732051
v -2.000000 -0.500000 -0.000000
v -1.000000 -0.500000 -1.732051
v 1.000000 0.351136 1.732051
v 2.000000 0.351136 0.000000
v -2.000000 0.351136 -0.000000
v -1.000000 0.351136 1.732051
v 1.000000 0.351136 -1.732051
v -1.000000 0.351136 -1.732051
v -0.144931 1.169132 0.505843
v -0.057850 1.464232 -0.053672
v -0.630088 0.957758 -0.800133
v 0.727061 0.720213 0.737462
v -0.890535 0.680560 0.330945
v 0.518340 1.073158 -0.481146
v 0.843077 0.968649 -0.120571
v -0.080573 0.837763 -0.968331
vt 0.990003 0.990003
vt 0.828376 0.990003
vt 0.828376 0.745002
vt 0.990003 0.745002
vt 0.828376 0.990003
vt 0.666748 0.990003
vt 0.666748 0.867503
vt 0.666748 0.745002
vt 0.828376 0.745002
vt 0.666748 0.254998
vt 0.828376 0.254998
vt 0.666748 0.009997
vt 0.828376 0.009997
vt 0.828376 0.254998
vt 0.990003 0.254998
vt 0.828376 0.009997
vt 0.990003 0.009997
vt 0.990003 0.745002
vt 0.990003 0.254998
vt 0.828376 0.990003
vt 0.828376 0.745002
vt 0.828376 0.254998
vt 0.990003 0.990003
vt 0.786545 0.459864
vt 0.801547 0.560040
vt 0.785456 0.642239
vt 0.679059 0.295466
vt 0.691548 0.256119
vt 0.704037 0.216773
vt 0.666748 0.009997
vt 0.666748 0.254998
vt 0.818727 0.295466
vt 0.814020 0.091740
vt 0.828376 0.009997
vt 0.828376 0.254998
vt 0.760293 0.438494
vt 0.820894 0.691367
vt 0.828376 0.745002
vt 0.692178 0.588309
vt 0.666748 0.745002
vt 0.754363 0.624262
vt 0.769910 0.633250
vt 0.763619 0.582314
vt 0.685619 0.441887
vt 0.779526 0.384564
vt 0.723271 0.606286
vt 0.719991 0.533075
vt 0.735852 0.486437
vt 0.716711 0.459864
vt 0.704130 0.357992
vt 0.729200 0.420518
vt 0.729200 0.420518
vt 0.772875 0.540366
vt 0.786545 0.459864
vt 0.779526 0.384564
vt 0.719991 0.533075
vt 0.737177 0.578668
vt 0.735537 0.542063
vt 0.738817 0.615274
vt 0.785456 0.642239
vt 0.772875 0.540366
vt 0.741782 0.522390
vt 0.766945 0.504413
vt 0.738817 0.615274
vt 0.770454 0.542063
vt 0.754363 0.624262
vn -0.5000 0.0000 -0.8660
vn 0.5000 0.0000 -0.8660
vn 0.5000 0.0000 0.8660
vn -0.0000 0.0000 1.0000
vn -0.5000 0.0000 0.8660
vn -1.0000 0.0000 -0.0000
vn 1.0000 0.0000 0.0000
vn 0.0000 -1.0000 0.0000
vn 0.6181 0.6547 -0.4351
vn 0.6052 0.7524 -0.2599
vn 0.5939 0.7377 -0.3210
vn -0.2411 0.9702 0.0249
vn -0.3528 0.9155 -0.1935
vn -0.1495 0.9550 -0.2562
vn 0.0000 1.0000 0.0000
vn 0.2282 0.9735 -0.0142
vn 0.0659 0.9892 0.1308
vn -0.0302 0.9195 -0.3918
vn 0.1078 0.9830 -0.1486
vn -0.0928 0.9829 0.1593
vn 0.2855 0.9495 -0.1303
vn 0.2374 0.8348 -0.4967
vn 0.1038 0.8016 -0.5888
vn -0.2853 0.9442 0.1647
vn 0.5813 0.7629 0.2831
vn -0.2435 0.7751 0.5830
vn -0.5176 0.7502 0.4115
vn 0.0039 0.7820 0.6232
vn -0.6074 0.7927 0.0518
vn -0.6596 0.6743 -0.3320
vn -0.6659 0.6560 -0.3554
vn -0.1672 0.7966 -0.5810
vn -0.0170 0.7869 -0.6168
vn 0.5959 0.7414 0.3088
vn 0.0831 0.7862 0.6123
vn -0.5537 0.7742 0.3065
vn -0.6016 0.7548 0.2614
vn -0.5986 0.7874 0.1472
vn -0.4342 0.7526 0.4950
vn 0.2620 0.8095 -0.5255
vn 0.0525 0.8143 -0.5781
vn -0.1276 0.9183 -0.3748
vn 0.2801 0.7671 0.5772
vn 0.0417 0.7334 0.6785
vn 0.4826 0.8720 0.0820
vn -0.6054 0.7785 0.1658
s 1
f 48/1/1 54/2/1 53/3/2 43/4/2
f 45/5/3 49/6/3 12/7/4 52/8/5 46/9/5
f 46/9/5 52/8/5 51/10/6 47/11/6
f 47/11/6 51/10/6 54/12/1 48/13/1
f 43/4/2 53/3/2 50/14/7 44/15/7
f 44/15/7 50/14/7 49/16/3 45/17/3
f 1/18/8 2/19/8 3/20/8 4/21/8 5/22/8 6/23/8
f 28/24/9 29/25/10 27/26/11
f 10/27/12 32/28/13 9/29/14 18/30/15 17/31/15
f 11/32/16 19/33/17 13/34/15 16/35/15
f 9/29/14 31/36/18 7/37/19 15/38/15 18/30/15
f 7/37/19 11/32/16 16/35/15 15/38/15
f 19/33/17 14/39/20 8/40/15 13/34/15
f 56/41/21 39/42/22 35/43/23
f 14/39/20 25/44/24 10/27/12 17/31/15 8/40/15
f 19/33/17 11/32/16 58/45/25
f 14/39/20 23/46/26 59/47/27
f 14/39/20 34/48/28 23/46/26
f 10/27/12 24/49/29 33/50/30
f 57/51/31 9/29/14 32/28/13 33/50/30
f 21/52/32 30/53/33 31/36/18
f 58/45/25 11/32/16 61/54/34
f 22/55/35 34/48/28 19/33/17
f 26/56/36 40/57/37 36/58/38
f 26/56/36 24/49/29 10/27/12
f 23/46/26 42/59/39 40/57/37
f 60/60/40 29/25/10 7/37/19
f 29/25/10 28/24/9 11/32/16
f 62/61/41 60/60/40 7/37/19
f 31/36/18 62/61/41 7/37/19
f 7/37/19 29/25/10 11/32/16
f 33/50/30 32/28/13 10/27/12
f 24/49/29 36/58/38 37/62/42
f 19/33/17 34/48/28 14/39/20
f 22/55/35 41/63/43 34/48/28
f 56/41/21 55/64/44 41/63/43
f 21/52/32 37/62/42 35/43/23
f 56/41/21 38/65/45 39/42/22
f 9/29/14 21/52/32 31/36/18
f 33/50/30 24/49/29 57/51/31
f 41/63/43 38/65/45 56/41/21
f 41/63/43 55/64/44 23/46/26
f 40/57/37 42/59/39 20/66/46
f 37/62/42 36/58/38 20/66/46
f 35/43/23 37/62/42 56/41/21
f 36/58/38 40/57/37 20/66/46
f 35/43/23 39/42/22 60/60/40
f 39/42/22 38/65/45 28/24/9
f 41/63/43 58/45/25 61/54/34
f 38/65/45 41/63/43 61/54/34
f 27/26/11 39/42/22 28/24/9
f 30/53/33 21/52/32 35/43/23
f 62/61/41 35/43/23 60/60/40
f 21/52/32 24/49/29 37/62/42
f 25/44/24 14/39/20 59/47/27
f 59/47/27 23/46/26 40/57/37
f 25/44/24 26/56/36 10/27/12
f 24/49/29 26/56/36 36/58/38
f 41/63/43 23/46/26 34/48/28
