# Blender v2.91.2 OBJ File: 'hex_tile.blend'
# www.blender.org
o water01_Cylinder.004
v 2.000000 0.351136 0.000000
v 1.000000 0.351136 -1.732051
v 1.000000 0.351136 1.732051
v -1.000000 0.351136 1.732051
v -2.000000 0.351136 -0.000000
v -1.000000 0.351136 -1.732051
vt 0.000000 0.249995
vt 0.335255 0.000000
vt 0.335255 0.999979
vt 0.670509 0.249995
vt 0.670509 0.749984
vt 0.000000 0.749985
vn -0.0000 1.0000 0.0000
s 1
f 2/1/1 6/2/1 3/3/1
f 6/2/1 5/4/1 4/5/1
f 3/3/1 6/2/1 4/5/1
f 1/6/1 2/1/1 3/3/1
